%TF.GenerationSoftware,KiCad,Pcbnew,(5.1.8)-1*%
%TF.CreationDate,2020-12-14T19:22:24+01:00*%
%TF.ProjectId,STM32_Dev_Board,53544d33-325f-4446-9576-5f426f617264,rev?*%
%TF.SameCoordinates,Original*%
%TF.FileFunction,Copper,L3,Inr*%
%TF.FilePolarity,Positive*%
%FSLAX46Y46*%
G04 Gerber Fmt 4.6, Leading zero omitted, Abs format (unit mm)*
G04 Created by KiCad (PCBNEW (5.1.8)-1) date 2020-12-14 19:22:24*
%MOMM*%
%LPD*%
G01*
G04 APERTURE LIST*
%TA.AperFunction,ComponentPad*%
%ADD10C,0.900000*%
%TD*%
%TA.AperFunction,ComponentPad*%
%ADD11C,8.600000*%
%TD*%
%TA.AperFunction,ComponentPad*%
%ADD12C,1.450000*%
%TD*%
%TA.AperFunction,ComponentPad*%
%ADD13O,1.900000X1.200000*%
%TD*%
%TA.AperFunction,ComponentPad*%
%ADD14R,2.600000X2.600000*%
%TD*%
%TA.AperFunction,ComponentPad*%
%ADD15C,2.600000*%
%TD*%
%TA.AperFunction,ComponentPad*%
%ADD16R,1.700000X1.700000*%
%TD*%
%TA.AperFunction,ComponentPad*%
%ADD17O,1.700000X1.700000*%
%TD*%
%TA.AperFunction,ViaPad*%
%ADD18C,0.800000*%
%TD*%
%TA.AperFunction,Conductor*%
%ADD19C,0.254000*%
%TD*%
%TA.AperFunction,Conductor*%
%ADD20C,0.100000*%
%TD*%
G04 APERTURE END LIST*
D10*
%TO.N,GND*%
%TO.C,H1*%
X58030419Y-103469581D03*
X55750000Y-102525000D03*
X53469581Y-103469581D03*
X52525000Y-105750000D03*
X53469581Y-108030419D03*
X55750000Y-108975000D03*
X58030419Y-108030419D03*
X58975000Y-105750000D03*
D11*
X55750000Y-105750000D03*
%TD*%
D10*
%TO.N,GND*%
%TO.C,H2*%
X108030419Y-103469581D03*
X105750000Y-102525000D03*
X103469581Y-103469581D03*
X102525000Y-105750000D03*
X103469581Y-108030419D03*
X105750000Y-108975000D03*
X108030419Y-108030419D03*
X108975000Y-105750000D03*
D11*
X105750000Y-105750000D03*
%TD*%
%TO.N,GND*%
%TO.C,H3*%
X105750000Y-55750000D03*
D10*
X108975000Y-55750000D03*
X108030419Y-58030419D03*
X105750000Y-58975000D03*
X103469581Y-58030419D03*
X102525000Y-55750000D03*
X103469581Y-53469581D03*
X105750000Y-52525000D03*
X108030419Y-53469581D03*
%TD*%
D11*
%TO.N,GND*%
%TO.C,H4*%
X55750000Y-55750000D03*
D10*
X58975000Y-55750000D03*
X58030419Y-58030419D03*
X55750000Y-58975000D03*
X53469581Y-58030419D03*
X52525000Y-55750000D03*
X53469581Y-53469581D03*
X55750000Y-52525000D03*
X58030419Y-53469581D03*
%TD*%
D12*
%TO.N,Net-(J1-Pad6)*%
%TO.C,J1*%
X107300000Y-68675000D03*
X107300000Y-63675000D03*
D13*
X110000000Y-69675000D03*
X110000000Y-62675000D03*
%TD*%
D14*
%TO.N,+12V*%
%TO.C,J2*%
X68250000Y-105250000D03*
D15*
%TO.N,GND*%
X73250000Y-105250000D03*
%TD*%
D16*
%TO.N,+3V3*%
%TO.C,J3*%
X52750000Y-66040000D03*
D17*
%TO.N,USART2_TX*%
X52750000Y-68580000D03*
%TO.N,USART4_RX*%
X52750000Y-71120000D03*
%TO.N,GND*%
X52750000Y-73660000D03*
%TD*%
D16*
%TO.N,+3V3*%
%TO.C,J5*%
X52705000Y-81915000D03*
D17*
%TO.N,SPI1_CS*%
X52705000Y-84455000D03*
%TO.N,SPI1_SCK*%
X52705000Y-86995000D03*
%TO.N,SPI1_MISO*%
X52705000Y-89535000D03*
%TO.N,SPI1_MOSI*%
X52705000Y-92075000D03*
%TO.N,GND*%
X52705000Y-94615000D03*
%TD*%
D16*
%TO.N,GPIO_0*%
%TO.C,J6*%
X108585000Y-76835000D03*
D17*
%TO.N,GPIO_1*%
X108585000Y-79375000D03*
%TO.N,GPIO_2*%
X108585000Y-81915000D03*
%TO.N,GPIO_3*%
X108585000Y-84455000D03*
%TO.N,GPIO_4*%
X108585000Y-86995000D03*
%TO.N,GPIO_5*%
X108585000Y-89535000D03*
%TO.N,GPIO_6*%
X108585000Y-92075000D03*
%TO.N,GPIO_7*%
X108585000Y-94615000D03*
%TD*%
D18*
%TO.N,GND*%
X72650000Y-81250000D03*
%TO.N,+3V3*%
X70300000Y-67650000D03*
%TO.N,GND*%
X64900000Y-75100000D03*
X68500000Y-74150000D03*
X69800000Y-74150000D03*
X64100000Y-72950000D03*
X68400000Y-70700000D03*
X68800000Y-68850000D03*
X68750000Y-67650000D03*
X68750000Y-65350000D03*
X74250000Y-65100000D03*
X66950000Y-58650000D03*
X72200000Y-58650000D03*
X102250000Y-64000000D03*
X105350000Y-64850000D03*
X105350000Y-63750000D03*
X105350000Y-62500000D03*
X80000000Y-55200000D03*
X83050000Y-67700000D03*
X85550000Y-67100000D03*
X84050000Y-81750000D03*
X84550000Y-79800000D03*
X73750000Y-87850000D03*
X73750000Y-91050000D03*
X72450000Y-89500000D03*
X73750000Y-92300000D03*
X73750000Y-95500000D03*
X72500000Y-93950000D03*
X84800000Y-101750000D03*
X86350000Y-101750000D03*
X89800000Y-95050000D03*
X93100000Y-95050000D03*
X92850000Y-91250000D03*
X83250000Y-98800000D03*
X97200000Y-104800000D03*
X95950000Y-106050000D03*
%TO.N,+3V3*%
X70300000Y-65350000D03*
X72550000Y-66000000D03*
X70250000Y-68850000D03*
X64900000Y-76400000D03*
X74500000Y-82100000D03*
X75700000Y-89500000D03*
X76700000Y-91050000D03*
X76700000Y-87900000D03*
X81250000Y-89550000D03*
X82800000Y-90500000D03*
X82800000Y-92000000D03*
X81200000Y-92950000D03*
X76700000Y-92350000D03*
X76700000Y-95500000D03*
X75650000Y-93950000D03*
X82050000Y-97100000D03*
X80850000Y-98250000D03*
X82950000Y-97100000D03*
X66950000Y-54200000D03*
X84500000Y-55250000D03*
%TO.N,GND*%
X90450000Y-57000000D03*
X93000000Y-57000000D03*
X94250000Y-57000000D03*
%TO.N,+3V3*%
X83200000Y-68850000D03*
X82700000Y-79100000D03*
X95550000Y-56950000D03*
%TO.N,STATUS_LED*%
X74500000Y-73750000D03*
X75250000Y-64250000D03*
%TO.N,+5V*%
X101250000Y-73250000D03*
X101250000Y-95750000D03*
%TO.N,NRST*%
X79500000Y-70750000D03*
X88400000Y-64300000D03*
%TD*%
D19*
%TO.N,+3V3*%
X106580970Y-50730545D02*
X107389611Y-50933662D01*
X108154233Y-51266129D01*
X108854281Y-51719011D01*
X109470961Y-52280146D01*
X109987714Y-52934469D01*
X110390661Y-53664406D01*
X110668978Y-54450353D01*
X110817225Y-55282603D01*
X110840000Y-55765547D01*
X110840000Y-61536560D01*
X110824901Y-61528489D01*
X110592102Y-61457870D01*
X110410665Y-61440000D01*
X109589335Y-61440000D01*
X109407898Y-61457870D01*
X109175099Y-61528489D01*
X108960551Y-61643167D01*
X108772498Y-61797498D01*
X108618167Y-61985551D01*
X108503489Y-62200099D01*
X108432870Y-62432898D01*
X108409025Y-62675000D01*
X108432870Y-62917102D01*
X108435883Y-62927035D01*
X108356381Y-62808051D01*
X108166949Y-62618619D01*
X107944201Y-62469784D01*
X107696697Y-62367264D01*
X107433948Y-62315000D01*
X107166052Y-62315000D01*
X106903303Y-62367264D01*
X106655799Y-62469784D01*
X106433051Y-62618619D01*
X106368927Y-62682743D01*
X106385000Y-62601939D01*
X106385000Y-62398061D01*
X106345226Y-62198102D01*
X106267205Y-62009744D01*
X106153937Y-61840226D01*
X106009774Y-61696063D01*
X105840256Y-61582795D01*
X105651898Y-61504774D01*
X105451939Y-61465000D01*
X105248061Y-61465000D01*
X105048102Y-61504774D01*
X104859744Y-61582795D01*
X104690226Y-61696063D01*
X104546063Y-61840226D01*
X104432795Y-62009744D01*
X104354774Y-62198102D01*
X104315000Y-62398061D01*
X104315000Y-62601939D01*
X104354774Y-62801898D01*
X104432795Y-62990256D01*
X104522828Y-63125000D01*
X104432795Y-63259744D01*
X104354774Y-63448102D01*
X104315000Y-63648061D01*
X104315000Y-63851939D01*
X104354774Y-64051898D01*
X104432795Y-64240256D01*
X104472715Y-64300000D01*
X104432795Y-64359744D01*
X104354774Y-64548102D01*
X104315000Y-64748061D01*
X104315000Y-64951939D01*
X104354774Y-65151898D01*
X104432795Y-65340256D01*
X104546063Y-65509774D01*
X104690226Y-65653937D01*
X104859744Y-65767205D01*
X105048102Y-65845226D01*
X105248061Y-65885000D01*
X105451939Y-65885000D01*
X105651898Y-65845226D01*
X105840256Y-65767205D01*
X106009774Y-65653937D01*
X106153937Y-65509774D01*
X106267205Y-65340256D01*
X106345226Y-65151898D01*
X106385000Y-64951939D01*
X106385000Y-64748061D01*
X106368927Y-64667257D01*
X106433051Y-64731381D01*
X106655799Y-64880216D01*
X106903303Y-64982736D01*
X107166052Y-65035000D01*
X107433948Y-65035000D01*
X107696697Y-64982736D01*
X107944201Y-64880216D01*
X108166949Y-64731381D01*
X108356381Y-64541949D01*
X108505216Y-64319201D01*
X108607736Y-64071697D01*
X108660000Y-63808948D01*
X108660000Y-63541052D01*
X108627016Y-63375232D01*
X108772498Y-63552502D01*
X108960551Y-63706833D01*
X109175099Y-63821511D01*
X109407898Y-63892130D01*
X109589335Y-63910000D01*
X110410665Y-63910000D01*
X110592102Y-63892130D01*
X110824901Y-63821511D01*
X110840000Y-63813440D01*
X110840000Y-68536560D01*
X110824901Y-68528489D01*
X110592102Y-68457870D01*
X110410665Y-68440000D01*
X109589335Y-68440000D01*
X109407898Y-68457870D01*
X109175099Y-68528489D01*
X108960551Y-68643167D01*
X108772498Y-68797498D01*
X108627016Y-68974768D01*
X108660000Y-68808948D01*
X108660000Y-68541052D01*
X108607736Y-68278303D01*
X108505216Y-68030799D01*
X108356381Y-67808051D01*
X108166949Y-67618619D01*
X107944201Y-67469784D01*
X107696697Y-67367264D01*
X107433948Y-67315000D01*
X107166052Y-67315000D01*
X106903303Y-67367264D01*
X106655799Y-67469784D01*
X106433051Y-67618619D01*
X106243619Y-67808051D01*
X106094784Y-68030799D01*
X105992264Y-68278303D01*
X105940000Y-68541052D01*
X105940000Y-68808948D01*
X105992264Y-69071697D01*
X106094784Y-69319201D01*
X106243619Y-69541949D01*
X106433051Y-69731381D01*
X106655799Y-69880216D01*
X106903303Y-69982736D01*
X107166052Y-70035000D01*
X107433948Y-70035000D01*
X107696697Y-69982736D01*
X107944201Y-69880216D01*
X108166949Y-69731381D01*
X108356381Y-69541949D01*
X108435883Y-69422965D01*
X108432870Y-69432898D01*
X108409025Y-69675000D01*
X108432870Y-69917102D01*
X108503489Y-70149901D01*
X108618167Y-70364449D01*
X108772498Y-70552502D01*
X108960551Y-70706833D01*
X109175099Y-70821511D01*
X109407898Y-70892130D01*
X109589335Y-70910000D01*
X110410665Y-70910000D01*
X110592102Y-70892130D01*
X110824901Y-70821511D01*
X110840000Y-70813440D01*
X110840001Y-105722898D01*
X110769455Y-106580964D01*
X110566338Y-107389609D01*
X110233871Y-108154233D01*
X109780991Y-108854279D01*
X109219854Y-109470961D01*
X108565527Y-109987716D01*
X107835594Y-110390662D01*
X107049647Y-110668978D01*
X106217398Y-110817225D01*
X105734452Y-110840000D01*
X55777090Y-110840000D01*
X54919036Y-110769455D01*
X54110391Y-110566338D01*
X53345767Y-110233871D01*
X52645721Y-109780991D01*
X52029039Y-109219854D01*
X51512284Y-108565527D01*
X51109338Y-107835594D01*
X50831022Y-107049647D01*
X50682775Y-106217398D01*
X50660000Y-105734452D01*
X50660000Y-105263945D01*
X50815000Y-105263945D01*
X50815000Y-106236055D01*
X51004650Y-107189486D01*
X51376660Y-108087599D01*
X51916735Y-108895879D01*
X52604121Y-109583265D01*
X53412401Y-110123340D01*
X54310514Y-110495350D01*
X55263945Y-110685000D01*
X56236055Y-110685000D01*
X57189486Y-110495350D01*
X58087599Y-110123340D01*
X58895879Y-109583265D01*
X59583265Y-108895879D01*
X60123340Y-108087599D01*
X60495350Y-107189486D01*
X60685000Y-106236055D01*
X60685000Y-105263945D01*
X60495350Y-104310514D01*
X60346021Y-103950000D01*
X66311928Y-103950000D01*
X66311928Y-106550000D01*
X66324188Y-106674482D01*
X66360498Y-106794180D01*
X66419463Y-106904494D01*
X66498815Y-107001185D01*
X66595506Y-107080537D01*
X66705820Y-107139502D01*
X66825518Y-107175812D01*
X66950000Y-107188072D01*
X69550000Y-107188072D01*
X69674482Y-107175812D01*
X69794180Y-107139502D01*
X69904494Y-107080537D01*
X70001185Y-107001185D01*
X70080537Y-106904494D01*
X70139502Y-106794180D01*
X70175812Y-106674482D01*
X70188072Y-106550000D01*
X70188072Y-105059419D01*
X71315000Y-105059419D01*
X71315000Y-105440581D01*
X71389361Y-105814419D01*
X71535225Y-106166566D01*
X71746987Y-106483491D01*
X72016509Y-106753013D01*
X72333434Y-106964775D01*
X72685581Y-107110639D01*
X73059419Y-107185000D01*
X73440581Y-107185000D01*
X73814419Y-107110639D01*
X74166566Y-106964775D01*
X74483491Y-106753013D01*
X74753013Y-106483491D01*
X74964775Y-106166566D01*
X75055282Y-105948061D01*
X94915000Y-105948061D01*
X94915000Y-106151939D01*
X94954774Y-106351898D01*
X95032795Y-106540256D01*
X95146063Y-106709774D01*
X95290226Y-106853937D01*
X95459744Y-106967205D01*
X95648102Y-107045226D01*
X95848061Y-107085000D01*
X96051939Y-107085000D01*
X96251898Y-107045226D01*
X96440256Y-106967205D01*
X96609774Y-106853937D01*
X96753937Y-106709774D01*
X96867205Y-106540256D01*
X96945226Y-106351898D01*
X96985000Y-106151939D01*
X96985000Y-105948061D01*
X96956927Y-105806927D01*
X97098061Y-105835000D01*
X97301939Y-105835000D01*
X97501898Y-105795226D01*
X97690256Y-105717205D01*
X97825422Y-105626890D01*
X98750048Y-105626890D01*
X98750048Y-105873110D01*
X98798083Y-106114598D01*
X98892307Y-106342074D01*
X99029099Y-106546798D01*
X99203202Y-106720901D01*
X99407926Y-106857693D01*
X99635402Y-106951917D01*
X99876890Y-106999952D01*
X100123110Y-106999952D01*
X100364598Y-106951917D01*
X100592074Y-106857693D01*
X100796798Y-106720901D01*
X100892421Y-106625278D01*
X101004650Y-107189486D01*
X101376660Y-108087599D01*
X101916735Y-108895879D01*
X102604121Y-109583265D01*
X103412401Y-110123340D01*
X104310514Y-110495350D01*
X105263945Y-110685000D01*
X106236055Y-110685000D01*
X107189486Y-110495350D01*
X108087599Y-110123340D01*
X108895879Y-109583265D01*
X109583265Y-108895879D01*
X110123340Y-108087599D01*
X110495350Y-107189486D01*
X110685000Y-106236055D01*
X110685000Y-105263945D01*
X110495350Y-104310514D01*
X110123340Y-103412401D01*
X109583265Y-102604121D01*
X108895879Y-101916735D01*
X108087599Y-101376660D01*
X107189486Y-101004650D01*
X106236055Y-100815000D01*
X105263945Y-100815000D01*
X104310514Y-101004650D01*
X103412401Y-101376660D01*
X102604121Y-101916735D01*
X101916735Y-102604121D01*
X101376660Y-103412401D01*
X101004650Y-104310514D01*
X100892421Y-104874722D01*
X100796798Y-104779099D01*
X100592074Y-104642307D01*
X100364598Y-104548083D01*
X100123110Y-104500048D01*
X99876890Y-104500048D01*
X99635402Y-104548083D01*
X99407926Y-104642307D01*
X99203202Y-104779099D01*
X99029099Y-104953202D01*
X98892307Y-105157926D01*
X98798083Y-105385402D01*
X98750048Y-105626890D01*
X97825422Y-105626890D01*
X97859774Y-105603937D01*
X98003937Y-105459774D01*
X98117205Y-105290256D01*
X98195226Y-105101898D01*
X98235000Y-104901939D01*
X98235000Y-104698061D01*
X98195226Y-104498102D01*
X98117205Y-104309744D01*
X98003937Y-104140226D01*
X97859774Y-103996063D01*
X97690256Y-103882795D01*
X97501898Y-103804774D01*
X97301939Y-103765000D01*
X97098061Y-103765000D01*
X96898102Y-103804774D01*
X96709744Y-103882795D01*
X96540226Y-103996063D01*
X96396063Y-104140226D01*
X96282795Y-104309744D01*
X96204774Y-104498102D01*
X96165000Y-104698061D01*
X96165000Y-104901939D01*
X96193073Y-105043073D01*
X96051939Y-105015000D01*
X95848061Y-105015000D01*
X95648102Y-105054774D01*
X95459744Y-105132795D01*
X95290226Y-105246063D01*
X95146063Y-105390226D01*
X95032795Y-105559744D01*
X94954774Y-105748102D01*
X94915000Y-105948061D01*
X75055282Y-105948061D01*
X75110639Y-105814419D01*
X75185000Y-105440581D01*
X75185000Y-105059419D01*
X75110639Y-104685581D01*
X74964775Y-104333434D01*
X74753013Y-104016509D01*
X74483491Y-103746987D01*
X74166566Y-103535225D01*
X73814419Y-103389361D01*
X73440581Y-103315000D01*
X73059419Y-103315000D01*
X72685581Y-103389361D01*
X72333434Y-103535225D01*
X72016509Y-103746987D01*
X71746987Y-104016509D01*
X71535225Y-104333434D01*
X71389361Y-104685581D01*
X71315000Y-105059419D01*
X70188072Y-105059419D01*
X70188072Y-103950000D01*
X70175812Y-103825518D01*
X70139502Y-103705820D01*
X70080537Y-103595506D01*
X70001185Y-103498815D01*
X69904494Y-103419463D01*
X69794180Y-103360498D01*
X69674482Y-103324188D01*
X69550000Y-103311928D01*
X66950000Y-103311928D01*
X66825518Y-103324188D01*
X66705820Y-103360498D01*
X66595506Y-103419463D01*
X66498815Y-103498815D01*
X66419463Y-103595506D01*
X66360498Y-103705820D01*
X66324188Y-103825518D01*
X66311928Y-103950000D01*
X60346021Y-103950000D01*
X60123340Y-103412401D01*
X59583265Y-102604121D01*
X58895879Y-101916735D01*
X58493780Y-101648061D01*
X83765000Y-101648061D01*
X83765000Y-101851939D01*
X83804774Y-102051898D01*
X83882795Y-102240256D01*
X83996063Y-102409774D01*
X84140226Y-102553937D01*
X84309744Y-102667205D01*
X84498102Y-102745226D01*
X84698061Y-102785000D01*
X84901939Y-102785000D01*
X85101898Y-102745226D01*
X85290256Y-102667205D01*
X85459774Y-102553937D01*
X85575000Y-102438711D01*
X85690226Y-102553937D01*
X85859744Y-102667205D01*
X86048102Y-102745226D01*
X86248061Y-102785000D01*
X86451939Y-102785000D01*
X86651898Y-102745226D01*
X86840256Y-102667205D01*
X87009774Y-102553937D01*
X87153937Y-102409774D01*
X87267205Y-102240256D01*
X87345226Y-102051898D01*
X87385000Y-101851939D01*
X87385000Y-101648061D01*
X87345226Y-101448102D01*
X87267205Y-101259744D01*
X87153937Y-101090226D01*
X87009774Y-100946063D01*
X86840256Y-100832795D01*
X86651898Y-100754774D01*
X86451939Y-100715000D01*
X86248061Y-100715000D01*
X86048102Y-100754774D01*
X85859744Y-100832795D01*
X85690226Y-100946063D01*
X85575000Y-101061289D01*
X85459774Y-100946063D01*
X85290256Y-100832795D01*
X85101898Y-100754774D01*
X84901939Y-100715000D01*
X84698061Y-100715000D01*
X84498102Y-100754774D01*
X84309744Y-100832795D01*
X84140226Y-100946063D01*
X83996063Y-101090226D01*
X83882795Y-101259744D01*
X83804774Y-101448102D01*
X83765000Y-101648061D01*
X58493780Y-101648061D01*
X58087599Y-101376660D01*
X57189486Y-101004650D01*
X56236055Y-100815000D01*
X55263945Y-100815000D01*
X54310514Y-101004650D01*
X53412401Y-101376660D01*
X52604121Y-101916735D01*
X51916735Y-102604121D01*
X51376660Y-103412401D01*
X51004650Y-104310514D01*
X50815000Y-105263945D01*
X50660000Y-105263945D01*
X50660000Y-98698061D01*
X82215000Y-98698061D01*
X82215000Y-98901939D01*
X82254774Y-99101898D01*
X82332795Y-99290256D01*
X82446063Y-99459774D01*
X82590226Y-99603937D01*
X82759744Y-99717205D01*
X82948102Y-99795226D01*
X83148061Y-99835000D01*
X83351939Y-99835000D01*
X83551898Y-99795226D01*
X83740256Y-99717205D01*
X83909774Y-99603937D01*
X84053937Y-99459774D01*
X84167205Y-99290256D01*
X84245226Y-99101898D01*
X84285000Y-98901939D01*
X84285000Y-98698061D01*
X84245226Y-98498102D01*
X84167205Y-98309744D01*
X84053937Y-98140226D01*
X83909774Y-97996063D01*
X83740256Y-97882795D01*
X83551898Y-97804774D01*
X83351939Y-97765000D01*
X83148061Y-97765000D01*
X82948102Y-97804774D01*
X82759744Y-97882795D01*
X82590226Y-97996063D01*
X82446063Y-98140226D01*
X82332795Y-98309744D01*
X82254774Y-98498102D01*
X82215000Y-98698061D01*
X50660000Y-98698061D01*
X50660000Y-82765000D01*
X51216928Y-82765000D01*
X51229188Y-82889482D01*
X51265498Y-83009180D01*
X51324463Y-83119494D01*
X51403815Y-83216185D01*
X51500506Y-83295537D01*
X51610820Y-83354502D01*
X51683380Y-83376513D01*
X51551525Y-83508368D01*
X51389010Y-83751589D01*
X51277068Y-84021842D01*
X51220000Y-84308740D01*
X51220000Y-84601260D01*
X51277068Y-84888158D01*
X51389010Y-85158411D01*
X51551525Y-85401632D01*
X51758368Y-85608475D01*
X51932760Y-85725000D01*
X51758368Y-85841525D01*
X51551525Y-86048368D01*
X51389010Y-86291589D01*
X51277068Y-86561842D01*
X51220000Y-86848740D01*
X51220000Y-87141260D01*
X51277068Y-87428158D01*
X51389010Y-87698411D01*
X51551525Y-87941632D01*
X51758368Y-88148475D01*
X51932760Y-88265000D01*
X51758368Y-88381525D01*
X51551525Y-88588368D01*
X51389010Y-88831589D01*
X51277068Y-89101842D01*
X51220000Y-89388740D01*
X51220000Y-89681260D01*
X51277068Y-89968158D01*
X51389010Y-90238411D01*
X51551525Y-90481632D01*
X51758368Y-90688475D01*
X51932760Y-90805000D01*
X51758368Y-90921525D01*
X51551525Y-91128368D01*
X51389010Y-91371589D01*
X51277068Y-91641842D01*
X51220000Y-91928740D01*
X51220000Y-92221260D01*
X51277068Y-92508158D01*
X51389010Y-92778411D01*
X51551525Y-93021632D01*
X51758368Y-93228475D01*
X51932760Y-93345000D01*
X51758368Y-93461525D01*
X51551525Y-93668368D01*
X51389010Y-93911589D01*
X51277068Y-94181842D01*
X51220000Y-94468740D01*
X51220000Y-94761260D01*
X51277068Y-95048158D01*
X51389010Y-95318411D01*
X51551525Y-95561632D01*
X51758368Y-95768475D01*
X52001589Y-95930990D01*
X52271842Y-96042932D01*
X52558740Y-96100000D01*
X52851260Y-96100000D01*
X53138158Y-96042932D01*
X53408411Y-95930990D01*
X53651632Y-95768475D01*
X53858475Y-95561632D01*
X54020990Y-95318411D01*
X54132932Y-95048158D01*
X54190000Y-94761260D01*
X54190000Y-94468740D01*
X54132932Y-94181842D01*
X54020990Y-93911589D01*
X53858475Y-93668368D01*
X53651632Y-93461525D01*
X53477240Y-93345000D01*
X53651632Y-93228475D01*
X53858475Y-93021632D01*
X54020990Y-92778411D01*
X54132932Y-92508158D01*
X54190000Y-92221260D01*
X54190000Y-91928740D01*
X54132932Y-91641842D01*
X54020990Y-91371589D01*
X53858475Y-91128368D01*
X53651632Y-90921525D01*
X53477240Y-90805000D01*
X53651632Y-90688475D01*
X53858475Y-90481632D01*
X54020990Y-90238411D01*
X54132932Y-89968158D01*
X54190000Y-89681260D01*
X54190000Y-89398061D01*
X71415000Y-89398061D01*
X71415000Y-89601939D01*
X71454774Y-89801898D01*
X71532795Y-89990256D01*
X71646063Y-90159774D01*
X71790226Y-90303937D01*
X71959744Y-90417205D01*
X72148102Y-90495226D01*
X72348061Y-90535000D01*
X72551939Y-90535000D01*
X72751898Y-90495226D01*
X72923360Y-90424204D01*
X72832795Y-90559744D01*
X72754774Y-90748102D01*
X72715000Y-90948061D01*
X72715000Y-91151939D01*
X72754774Y-91351898D01*
X72832795Y-91540256D01*
X72922828Y-91675000D01*
X72832795Y-91809744D01*
X72754774Y-91998102D01*
X72715000Y-92198061D01*
X72715000Y-92401939D01*
X72754774Y-92601898D01*
X72832795Y-92790256D01*
X72946063Y-92959774D01*
X73077134Y-93090845D01*
X72990256Y-93032795D01*
X72801898Y-92954774D01*
X72601939Y-92915000D01*
X72398061Y-92915000D01*
X72198102Y-92954774D01*
X72009744Y-93032795D01*
X71840226Y-93146063D01*
X71696063Y-93290226D01*
X71582795Y-93459744D01*
X71504774Y-93648102D01*
X71465000Y-93848061D01*
X71465000Y-94051939D01*
X71504774Y-94251898D01*
X71582795Y-94440256D01*
X71696063Y-94609774D01*
X71840226Y-94753937D01*
X72009744Y-94867205D01*
X72198102Y-94945226D01*
X72398061Y-94985000D01*
X72601939Y-94985000D01*
X72801898Y-94945226D01*
X72904226Y-94902840D01*
X72832795Y-95009744D01*
X72754774Y-95198102D01*
X72715000Y-95398061D01*
X72715000Y-95601939D01*
X72754774Y-95801898D01*
X72832795Y-95990256D01*
X72946063Y-96159774D01*
X73090226Y-96303937D01*
X73259744Y-96417205D01*
X73448102Y-96495226D01*
X73648061Y-96535000D01*
X73851939Y-96535000D01*
X74051898Y-96495226D01*
X74240256Y-96417205D01*
X74409774Y-96303937D01*
X74553937Y-96159774D01*
X74667205Y-95990256D01*
X74745226Y-95801898D01*
X74785000Y-95601939D01*
X74785000Y-95398061D01*
X74745226Y-95198102D01*
X74667205Y-95009744D01*
X74625990Y-94948061D01*
X88765000Y-94948061D01*
X88765000Y-95151939D01*
X88804774Y-95351898D01*
X88882795Y-95540256D01*
X88996063Y-95709774D01*
X89140226Y-95853937D01*
X89309744Y-95967205D01*
X89498102Y-96045226D01*
X89698061Y-96085000D01*
X89901939Y-96085000D01*
X90101898Y-96045226D01*
X90290256Y-95967205D01*
X90459774Y-95853937D01*
X90603937Y-95709774D01*
X90717205Y-95540256D01*
X90795226Y-95351898D01*
X90835000Y-95151939D01*
X90835000Y-94948061D01*
X92065000Y-94948061D01*
X92065000Y-95151939D01*
X92104774Y-95351898D01*
X92182795Y-95540256D01*
X92296063Y-95709774D01*
X92440226Y-95853937D01*
X92609744Y-95967205D01*
X92798102Y-96045226D01*
X92998061Y-96085000D01*
X93201939Y-96085000D01*
X93401898Y-96045226D01*
X93590256Y-95967205D01*
X93759774Y-95853937D01*
X93903937Y-95709774D01*
X93945172Y-95648061D01*
X100215000Y-95648061D01*
X100215000Y-95851939D01*
X100254774Y-96051898D01*
X100332795Y-96240256D01*
X100446063Y-96409774D01*
X100590226Y-96553937D01*
X100759744Y-96667205D01*
X100948102Y-96745226D01*
X101148061Y-96785000D01*
X101351939Y-96785000D01*
X101551898Y-96745226D01*
X101740256Y-96667205D01*
X101909774Y-96553937D01*
X102053937Y-96409774D01*
X102167205Y-96240256D01*
X102245226Y-96051898D01*
X102285000Y-95851939D01*
X102285000Y-95648061D01*
X102245226Y-95448102D01*
X102167205Y-95259744D01*
X102053937Y-95090226D01*
X101909774Y-94946063D01*
X101740256Y-94832795D01*
X101551898Y-94754774D01*
X101351939Y-94715000D01*
X101148061Y-94715000D01*
X100948102Y-94754774D01*
X100759744Y-94832795D01*
X100590226Y-94946063D01*
X100446063Y-95090226D01*
X100332795Y-95259744D01*
X100254774Y-95448102D01*
X100215000Y-95648061D01*
X93945172Y-95648061D01*
X94017205Y-95540256D01*
X94095226Y-95351898D01*
X94135000Y-95151939D01*
X94135000Y-94948061D01*
X94095226Y-94748102D01*
X94017205Y-94559744D01*
X93903937Y-94390226D01*
X93759774Y-94246063D01*
X93590256Y-94132795D01*
X93401898Y-94054774D01*
X93201939Y-94015000D01*
X92998061Y-94015000D01*
X92798102Y-94054774D01*
X92609744Y-94132795D01*
X92440226Y-94246063D01*
X92296063Y-94390226D01*
X92182795Y-94559744D01*
X92104774Y-94748102D01*
X92065000Y-94948061D01*
X90835000Y-94948061D01*
X90795226Y-94748102D01*
X90717205Y-94559744D01*
X90603937Y-94390226D01*
X90459774Y-94246063D01*
X90290256Y-94132795D01*
X90101898Y-94054774D01*
X89901939Y-94015000D01*
X89698061Y-94015000D01*
X89498102Y-94054774D01*
X89309744Y-94132795D01*
X89140226Y-94246063D01*
X88996063Y-94390226D01*
X88882795Y-94559744D01*
X88804774Y-94748102D01*
X88765000Y-94948061D01*
X74625990Y-94948061D01*
X74553937Y-94840226D01*
X74409774Y-94696063D01*
X74240256Y-94582795D01*
X74051898Y-94504774D01*
X73851939Y-94465000D01*
X73648061Y-94465000D01*
X73448102Y-94504774D01*
X73345774Y-94547160D01*
X73417205Y-94440256D01*
X73495226Y-94251898D01*
X73535000Y-94051939D01*
X73535000Y-93848061D01*
X73495226Y-93648102D01*
X73417205Y-93459744D01*
X73303937Y-93290226D01*
X73172866Y-93159155D01*
X73259744Y-93217205D01*
X73448102Y-93295226D01*
X73648061Y-93335000D01*
X73851939Y-93335000D01*
X74051898Y-93295226D01*
X74240256Y-93217205D01*
X74409774Y-93103937D01*
X74553937Y-92959774D01*
X74667205Y-92790256D01*
X74745226Y-92601898D01*
X74785000Y-92401939D01*
X74785000Y-92198061D01*
X74745226Y-91998102D01*
X74667205Y-91809744D01*
X74577172Y-91675000D01*
X74667205Y-91540256D01*
X74745226Y-91351898D01*
X74785000Y-91151939D01*
X74785000Y-91148061D01*
X91815000Y-91148061D01*
X91815000Y-91351939D01*
X91854774Y-91551898D01*
X91932795Y-91740256D01*
X92046063Y-91909774D01*
X92190226Y-92053937D01*
X92359744Y-92167205D01*
X92548102Y-92245226D01*
X92748061Y-92285000D01*
X92951939Y-92285000D01*
X93151898Y-92245226D01*
X93340256Y-92167205D01*
X93509774Y-92053937D01*
X93653937Y-91909774D01*
X93767205Y-91740256D01*
X93845226Y-91551898D01*
X93885000Y-91351939D01*
X93885000Y-91148061D01*
X93845226Y-90948102D01*
X93767205Y-90759744D01*
X93653937Y-90590226D01*
X93509774Y-90446063D01*
X93340256Y-90332795D01*
X93151898Y-90254774D01*
X92951939Y-90215000D01*
X92748061Y-90215000D01*
X92548102Y-90254774D01*
X92359744Y-90332795D01*
X92190226Y-90446063D01*
X92046063Y-90590226D01*
X91932795Y-90759744D01*
X91854774Y-90948102D01*
X91815000Y-91148061D01*
X74785000Y-91148061D01*
X74785000Y-90948061D01*
X74745226Y-90748102D01*
X74667205Y-90559744D01*
X74553937Y-90390226D01*
X74409774Y-90246063D01*
X74240256Y-90132795D01*
X74051898Y-90054774D01*
X73851939Y-90015000D01*
X73648061Y-90015000D01*
X73448102Y-90054774D01*
X73276640Y-90125796D01*
X73367205Y-89990256D01*
X73445226Y-89801898D01*
X73485000Y-89601939D01*
X73485000Y-89398061D01*
X73445226Y-89198102D01*
X73367205Y-89009744D01*
X73253937Y-88840226D01*
X73109774Y-88696063D01*
X72940256Y-88582795D01*
X72751898Y-88504774D01*
X72551939Y-88465000D01*
X72348061Y-88465000D01*
X72148102Y-88504774D01*
X71959744Y-88582795D01*
X71790226Y-88696063D01*
X71646063Y-88840226D01*
X71532795Y-89009744D01*
X71454774Y-89198102D01*
X71415000Y-89398061D01*
X54190000Y-89398061D01*
X54190000Y-89388740D01*
X54132932Y-89101842D01*
X54020990Y-88831589D01*
X53858475Y-88588368D01*
X53651632Y-88381525D01*
X53477240Y-88265000D01*
X53651632Y-88148475D01*
X53858475Y-87941632D01*
X53987814Y-87748061D01*
X72715000Y-87748061D01*
X72715000Y-87951939D01*
X72754774Y-88151898D01*
X72832795Y-88340256D01*
X72946063Y-88509774D01*
X73090226Y-88653937D01*
X73259744Y-88767205D01*
X73448102Y-88845226D01*
X73648061Y-88885000D01*
X73851939Y-88885000D01*
X74051898Y-88845226D01*
X74240256Y-88767205D01*
X74409774Y-88653937D01*
X74553937Y-88509774D01*
X74667205Y-88340256D01*
X74745226Y-88151898D01*
X74785000Y-87951939D01*
X74785000Y-87748061D01*
X74745226Y-87548102D01*
X74667205Y-87359744D01*
X74553937Y-87190226D01*
X74409774Y-87046063D01*
X74240256Y-86932795D01*
X74051898Y-86854774D01*
X73851939Y-86815000D01*
X73648061Y-86815000D01*
X73448102Y-86854774D01*
X73259744Y-86932795D01*
X73090226Y-87046063D01*
X72946063Y-87190226D01*
X72832795Y-87359744D01*
X72754774Y-87548102D01*
X72715000Y-87748061D01*
X53987814Y-87748061D01*
X54020990Y-87698411D01*
X54132932Y-87428158D01*
X54190000Y-87141260D01*
X54190000Y-86848740D01*
X54132932Y-86561842D01*
X54020990Y-86291589D01*
X53858475Y-86048368D01*
X53651632Y-85841525D01*
X53477240Y-85725000D01*
X53651632Y-85608475D01*
X53858475Y-85401632D01*
X54020990Y-85158411D01*
X54132932Y-84888158D01*
X54190000Y-84601260D01*
X54190000Y-84308740D01*
X54132932Y-84021842D01*
X54020990Y-83751589D01*
X53858475Y-83508368D01*
X53726620Y-83376513D01*
X53799180Y-83354502D01*
X53909494Y-83295537D01*
X54006185Y-83216185D01*
X54085537Y-83119494D01*
X54144502Y-83009180D01*
X54180812Y-82889482D01*
X54193072Y-82765000D01*
X54190000Y-82200750D01*
X54031250Y-82042000D01*
X52832000Y-82042000D01*
X52832000Y-82062000D01*
X52578000Y-82062000D01*
X52578000Y-82042000D01*
X51378750Y-82042000D01*
X51220000Y-82200750D01*
X51216928Y-82765000D01*
X50660000Y-82765000D01*
X50660000Y-81065000D01*
X51216928Y-81065000D01*
X51220000Y-81629250D01*
X51378750Y-81788000D01*
X52578000Y-81788000D01*
X52578000Y-80588750D01*
X52832000Y-80588750D01*
X52832000Y-81788000D01*
X54031250Y-81788000D01*
X54190000Y-81629250D01*
X54192619Y-81148061D01*
X71615000Y-81148061D01*
X71615000Y-81351939D01*
X71654774Y-81551898D01*
X71732795Y-81740256D01*
X71846063Y-81909774D01*
X71990226Y-82053937D01*
X72159744Y-82167205D01*
X72348102Y-82245226D01*
X72548061Y-82285000D01*
X72751939Y-82285000D01*
X72951898Y-82245226D01*
X73140256Y-82167205D01*
X73309774Y-82053937D01*
X73453937Y-81909774D01*
X73567205Y-81740256D01*
X73605393Y-81648061D01*
X83015000Y-81648061D01*
X83015000Y-81851939D01*
X83054774Y-82051898D01*
X83132795Y-82240256D01*
X83246063Y-82409774D01*
X83390226Y-82553937D01*
X83559744Y-82667205D01*
X83748102Y-82745226D01*
X83948061Y-82785000D01*
X84151939Y-82785000D01*
X84351898Y-82745226D01*
X84540256Y-82667205D01*
X84709774Y-82553937D01*
X84853937Y-82409774D01*
X84967205Y-82240256D01*
X85045226Y-82051898D01*
X85085000Y-81851939D01*
X85085000Y-81648061D01*
X85045226Y-81448102D01*
X84967205Y-81259744D01*
X84853937Y-81090226D01*
X84709774Y-80946063D01*
X84543556Y-80835000D01*
X84651939Y-80835000D01*
X84851898Y-80795226D01*
X85040256Y-80717205D01*
X85209774Y-80603937D01*
X85353937Y-80459774D01*
X85467205Y-80290256D01*
X85545226Y-80101898D01*
X85585000Y-79901939D01*
X85585000Y-79698061D01*
X85545226Y-79498102D01*
X85467205Y-79309744D01*
X85353937Y-79140226D01*
X85209774Y-78996063D01*
X85040256Y-78882795D01*
X84851898Y-78804774D01*
X84651939Y-78765000D01*
X84448061Y-78765000D01*
X84248102Y-78804774D01*
X84059744Y-78882795D01*
X83890226Y-78996063D01*
X83746063Y-79140226D01*
X83632795Y-79309744D01*
X83554774Y-79498102D01*
X83515000Y-79698061D01*
X83515000Y-79901939D01*
X83554774Y-80101898D01*
X83632795Y-80290256D01*
X83746063Y-80459774D01*
X83890226Y-80603937D01*
X84056444Y-80715000D01*
X83948061Y-80715000D01*
X83748102Y-80754774D01*
X83559744Y-80832795D01*
X83390226Y-80946063D01*
X83246063Y-81090226D01*
X83132795Y-81259744D01*
X83054774Y-81448102D01*
X83015000Y-81648061D01*
X73605393Y-81648061D01*
X73645226Y-81551898D01*
X73685000Y-81351939D01*
X73685000Y-81148061D01*
X73645226Y-80948102D01*
X73567205Y-80759744D01*
X73453937Y-80590226D01*
X73309774Y-80446063D01*
X73140256Y-80332795D01*
X72951898Y-80254774D01*
X72751939Y-80215000D01*
X72548061Y-80215000D01*
X72348102Y-80254774D01*
X72159744Y-80332795D01*
X71990226Y-80446063D01*
X71846063Y-80590226D01*
X71732795Y-80759744D01*
X71654774Y-80948102D01*
X71615000Y-81148061D01*
X54192619Y-81148061D01*
X54193072Y-81065000D01*
X54180812Y-80940518D01*
X54144502Y-80820820D01*
X54085537Y-80710506D01*
X54006185Y-80613815D01*
X53909494Y-80534463D01*
X53799180Y-80475498D01*
X53679482Y-80439188D01*
X53555000Y-80426928D01*
X52990750Y-80430000D01*
X52832000Y-80588750D01*
X52578000Y-80588750D01*
X52419250Y-80430000D01*
X51855000Y-80426928D01*
X51730518Y-80439188D01*
X51610820Y-80475498D01*
X51500506Y-80534463D01*
X51403815Y-80613815D01*
X51324463Y-80710506D01*
X51265498Y-80820820D01*
X51229188Y-80940518D01*
X51216928Y-81065000D01*
X50660000Y-81065000D01*
X50660000Y-66890000D01*
X51261928Y-66890000D01*
X51274188Y-67014482D01*
X51310498Y-67134180D01*
X51369463Y-67244494D01*
X51448815Y-67341185D01*
X51545506Y-67420537D01*
X51655820Y-67479502D01*
X51728380Y-67501513D01*
X51596525Y-67633368D01*
X51434010Y-67876589D01*
X51322068Y-68146842D01*
X51265000Y-68433740D01*
X51265000Y-68726260D01*
X51322068Y-69013158D01*
X51434010Y-69283411D01*
X51596525Y-69526632D01*
X51803368Y-69733475D01*
X51977760Y-69850000D01*
X51803368Y-69966525D01*
X51596525Y-70173368D01*
X51434010Y-70416589D01*
X51322068Y-70686842D01*
X51265000Y-70973740D01*
X51265000Y-71266260D01*
X51322068Y-71553158D01*
X51434010Y-71823411D01*
X51596525Y-72066632D01*
X51803368Y-72273475D01*
X51977760Y-72390000D01*
X51803368Y-72506525D01*
X51596525Y-72713368D01*
X51434010Y-72956589D01*
X51322068Y-73226842D01*
X51265000Y-73513740D01*
X51265000Y-73806260D01*
X51322068Y-74093158D01*
X51434010Y-74363411D01*
X51596525Y-74606632D01*
X51803368Y-74813475D01*
X52046589Y-74975990D01*
X52316842Y-75087932D01*
X52603740Y-75145000D01*
X52896260Y-75145000D01*
X53183158Y-75087932D01*
X53400126Y-74998061D01*
X63865000Y-74998061D01*
X63865000Y-75201939D01*
X63904774Y-75401898D01*
X63982795Y-75590256D01*
X64096063Y-75759774D01*
X64240226Y-75903937D01*
X64409744Y-76017205D01*
X64598102Y-76095226D01*
X64798061Y-76135000D01*
X65001939Y-76135000D01*
X65201898Y-76095226D01*
X65390256Y-76017205D01*
X65438454Y-75985000D01*
X107096928Y-75985000D01*
X107096928Y-77685000D01*
X107109188Y-77809482D01*
X107145498Y-77929180D01*
X107204463Y-78039494D01*
X107283815Y-78136185D01*
X107380506Y-78215537D01*
X107490820Y-78274502D01*
X107563380Y-78296513D01*
X107431525Y-78428368D01*
X107269010Y-78671589D01*
X107157068Y-78941842D01*
X107100000Y-79228740D01*
X107100000Y-79521260D01*
X107157068Y-79808158D01*
X107269010Y-80078411D01*
X107431525Y-80321632D01*
X107638368Y-80528475D01*
X107812760Y-80645000D01*
X107638368Y-80761525D01*
X107431525Y-80968368D01*
X107269010Y-81211589D01*
X107157068Y-81481842D01*
X107100000Y-81768740D01*
X107100000Y-82061260D01*
X107157068Y-82348158D01*
X107269010Y-82618411D01*
X107431525Y-82861632D01*
X107638368Y-83068475D01*
X107812760Y-83185000D01*
X107638368Y-83301525D01*
X107431525Y-83508368D01*
X107269010Y-83751589D01*
X107157068Y-84021842D01*
X107100000Y-84308740D01*
X107100000Y-84601260D01*
X107157068Y-84888158D01*
X107269010Y-85158411D01*
X107431525Y-85401632D01*
X107638368Y-85608475D01*
X107812760Y-85725000D01*
X107638368Y-85841525D01*
X107431525Y-86048368D01*
X107269010Y-86291589D01*
X107157068Y-86561842D01*
X107100000Y-86848740D01*
X107100000Y-87141260D01*
X107157068Y-87428158D01*
X107269010Y-87698411D01*
X107431525Y-87941632D01*
X107638368Y-88148475D01*
X107812760Y-88265000D01*
X107638368Y-88381525D01*
X107431525Y-88588368D01*
X107269010Y-88831589D01*
X107157068Y-89101842D01*
X107100000Y-89388740D01*
X107100000Y-89681260D01*
X107157068Y-89968158D01*
X107269010Y-90238411D01*
X107431525Y-90481632D01*
X107638368Y-90688475D01*
X107812760Y-90805000D01*
X107638368Y-90921525D01*
X107431525Y-91128368D01*
X107269010Y-91371589D01*
X107157068Y-91641842D01*
X107100000Y-91928740D01*
X107100000Y-92221260D01*
X107157068Y-92508158D01*
X107269010Y-92778411D01*
X107431525Y-93021632D01*
X107638368Y-93228475D01*
X107812760Y-93345000D01*
X107638368Y-93461525D01*
X107431525Y-93668368D01*
X107269010Y-93911589D01*
X107157068Y-94181842D01*
X107100000Y-94468740D01*
X107100000Y-94761260D01*
X107157068Y-95048158D01*
X107269010Y-95318411D01*
X107431525Y-95561632D01*
X107638368Y-95768475D01*
X107881589Y-95930990D01*
X108151842Y-96042932D01*
X108438740Y-96100000D01*
X108731260Y-96100000D01*
X109018158Y-96042932D01*
X109288411Y-95930990D01*
X109531632Y-95768475D01*
X109738475Y-95561632D01*
X109900990Y-95318411D01*
X110012932Y-95048158D01*
X110070000Y-94761260D01*
X110070000Y-94468740D01*
X110012932Y-94181842D01*
X109900990Y-93911589D01*
X109738475Y-93668368D01*
X109531632Y-93461525D01*
X109357240Y-93345000D01*
X109531632Y-93228475D01*
X109738475Y-93021632D01*
X109900990Y-92778411D01*
X110012932Y-92508158D01*
X110070000Y-92221260D01*
X110070000Y-91928740D01*
X110012932Y-91641842D01*
X109900990Y-91371589D01*
X109738475Y-91128368D01*
X109531632Y-90921525D01*
X109357240Y-90805000D01*
X109531632Y-90688475D01*
X109738475Y-90481632D01*
X109900990Y-90238411D01*
X110012932Y-89968158D01*
X110070000Y-89681260D01*
X110070000Y-89388740D01*
X110012932Y-89101842D01*
X109900990Y-88831589D01*
X109738475Y-88588368D01*
X109531632Y-88381525D01*
X109357240Y-88265000D01*
X109531632Y-88148475D01*
X109738475Y-87941632D01*
X109900990Y-87698411D01*
X110012932Y-87428158D01*
X110070000Y-87141260D01*
X110070000Y-86848740D01*
X110012932Y-86561842D01*
X109900990Y-86291589D01*
X109738475Y-86048368D01*
X109531632Y-85841525D01*
X109357240Y-85725000D01*
X109531632Y-85608475D01*
X109738475Y-85401632D01*
X109900990Y-85158411D01*
X110012932Y-84888158D01*
X110070000Y-84601260D01*
X110070000Y-84308740D01*
X110012932Y-84021842D01*
X109900990Y-83751589D01*
X109738475Y-83508368D01*
X109531632Y-83301525D01*
X109357240Y-83185000D01*
X109531632Y-83068475D01*
X109738475Y-82861632D01*
X109900990Y-82618411D01*
X110012932Y-82348158D01*
X110070000Y-82061260D01*
X110070000Y-81768740D01*
X110012932Y-81481842D01*
X109900990Y-81211589D01*
X109738475Y-80968368D01*
X109531632Y-80761525D01*
X109357240Y-80645000D01*
X109531632Y-80528475D01*
X109738475Y-80321632D01*
X109900990Y-80078411D01*
X110012932Y-79808158D01*
X110070000Y-79521260D01*
X110070000Y-79228740D01*
X110012932Y-78941842D01*
X109900990Y-78671589D01*
X109738475Y-78428368D01*
X109606620Y-78296513D01*
X109679180Y-78274502D01*
X109789494Y-78215537D01*
X109886185Y-78136185D01*
X109965537Y-78039494D01*
X110024502Y-77929180D01*
X110060812Y-77809482D01*
X110073072Y-77685000D01*
X110073072Y-75985000D01*
X110060812Y-75860518D01*
X110024502Y-75740820D01*
X109965537Y-75630506D01*
X109886185Y-75533815D01*
X109789494Y-75454463D01*
X109679180Y-75395498D01*
X109559482Y-75359188D01*
X109435000Y-75346928D01*
X107735000Y-75346928D01*
X107610518Y-75359188D01*
X107490820Y-75395498D01*
X107380506Y-75454463D01*
X107283815Y-75533815D01*
X107204463Y-75630506D01*
X107145498Y-75740820D01*
X107109188Y-75860518D01*
X107096928Y-75985000D01*
X65438454Y-75985000D01*
X65559774Y-75903937D01*
X65703937Y-75759774D01*
X65817205Y-75590256D01*
X65895226Y-75401898D01*
X65935000Y-75201939D01*
X65935000Y-74998061D01*
X65895226Y-74798102D01*
X65817205Y-74609744D01*
X65703937Y-74440226D01*
X65559774Y-74296063D01*
X65390256Y-74182795D01*
X65201898Y-74104774D01*
X65001939Y-74065000D01*
X64798061Y-74065000D01*
X64598102Y-74104774D01*
X64409744Y-74182795D01*
X64240226Y-74296063D01*
X64096063Y-74440226D01*
X63982795Y-74609744D01*
X63904774Y-74798102D01*
X63865000Y-74998061D01*
X53400126Y-74998061D01*
X53453411Y-74975990D01*
X53696632Y-74813475D01*
X53903475Y-74606632D01*
X54065990Y-74363411D01*
X54177932Y-74093158D01*
X54186902Y-74048061D01*
X67465000Y-74048061D01*
X67465000Y-74251939D01*
X67504774Y-74451898D01*
X67582795Y-74640256D01*
X67696063Y-74809774D01*
X67840226Y-74953937D01*
X68009744Y-75067205D01*
X68198102Y-75145226D01*
X68398061Y-75185000D01*
X68601939Y-75185000D01*
X68801898Y-75145226D01*
X68990256Y-75067205D01*
X69150000Y-74960468D01*
X69309744Y-75067205D01*
X69498102Y-75145226D01*
X69698061Y-75185000D01*
X69901939Y-75185000D01*
X70101898Y-75145226D01*
X70290256Y-75067205D01*
X70459774Y-74953937D01*
X70603937Y-74809774D01*
X70717205Y-74640256D01*
X70795226Y-74451898D01*
X70835000Y-74251939D01*
X70835000Y-74048061D01*
X70795226Y-73848102D01*
X70717205Y-73659744D01*
X70709399Y-73648061D01*
X73465000Y-73648061D01*
X73465000Y-73851939D01*
X73504774Y-74051898D01*
X73582795Y-74240256D01*
X73696063Y-74409774D01*
X73840226Y-74553937D01*
X74009744Y-74667205D01*
X74198102Y-74745226D01*
X74398061Y-74785000D01*
X74601939Y-74785000D01*
X74801898Y-74745226D01*
X74990256Y-74667205D01*
X75159774Y-74553937D01*
X75303937Y-74409774D01*
X75417205Y-74240256D01*
X75495226Y-74051898D01*
X75535000Y-73851939D01*
X75535000Y-73648061D01*
X75495226Y-73448102D01*
X75417205Y-73259744D01*
X75342582Y-73148061D01*
X100215000Y-73148061D01*
X100215000Y-73351939D01*
X100254774Y-73551898D01*
X100332795Y-73740256D01*
X100446063Y-73909774D01*
X100590226Y-74053937D01*
X100759744Y-74167205D01*
X100948102Y-74245226D01*
X101148061Y-74285000D01*
X101351939Y-74285000D01*
X101551898Y-74245226D01*
X101740256Y-74167205D01*
X101909774Y-74053937D01*
X102053937Y-73909774D01*
X102167205Y-73740256D01*
X102245226Y-73551898D01*
X102285000Y-73351939D01*
X102285000Y-73148061D01*
X102245226Y-72948102D01*
X102167205Y-72759744D01*
X102053937Y-72590226D01*
X101909774Y-72446063D01*
X101740256Y-72332795D01*
X101551898Y-72254774D01*
X101351939Y-72215000D01*
X101148061Y-72215000D01*
X100948102Y-72254774D01*
X100759744Y-72332795D01*
X100590226Y-72446063D01*
X100446063Y-72590226D01*
X100332795Y-72759744D01*
X100254774Y-72948102D01*
X100215000Y-73148061D01*
X75342582Y-73148061D01*
X75303937Y-73090226D01*
X75159774Y-72946063D01*
X74990256Y-72832795D01*
X74801898Y-72754774D01*
X74601939Y-72715000D01*
X74398061Y-72715000D01*
X74198102Y-72754774D01*
X74009744Y-72832795D01*
X73840226Y-72946063D01*
X73696063Y-73090226D01*
X73582795Y-73259744D01*
X73504774Y-73448102D01*
X73465000Y-73648061D01*
X70709399Y-73648061D01*
X70603937Y-73490226D01*
X70459774Y-73346063D01*
X70290256Y-73232795D01*
X70101898Y-73154774D01*
X69901939Y-73115000D01*
X69698061Y-73115000D01*
X69498102Y-73154774D01*
X69309744Y-73232795D01*
X69150000Y-73339532D01*
X68990256Y-73232795D01*
X68801898Y-73154774D01*
X68601939Y-73115000D01*
X68398061Y-73115000D01*
X68198102Y-73154774D01*
X68009744Y-73232795D01*
X67840226Y-73346063D01*
X67696063Y-73490226D01*
X67582795Y-73659744D01*
X67504774Y-73848102D01*
X67465000Y-74048061D01*
X54186902Y-74048061D01*
X54235000Y-73806260D01*
X54235000Y-73513740D01*
X54177932Y-73226842D01*
X54065990Y-72956589D01*
X53993474Y-72848061D01*
X63065000Y-72848061D01*
X63065000Y-73051939D01*
X63104774Y-73251898D01*
X63182795Y-73440256D01*
X63296063Y-73609774D01*
X63440226Y-73753937D01*
X63609744Y-73867205D01*
X63798102Y-73945226D01*
X63998061Y-73985000D01*
X64201939Y-73985000D01*
X64401898Y-73945226D01*
X64590256Y-73867205D01*
X64759774Y-73753937D01*
X64903937Y-73609774D01*
X65017205Y-73440256D01*
X65095226Y-73251898D01*
X65135000Y-73051939D01*
X65135000Y-72848061D01*
X65095226Y-72648102D01*
X65017205Y-72459744D01*
X64903937Y-72290226D01*
X64759774Y-72146063D01*
X64590256Y-72032795D01*
X64401898Y-71954774D01*
X64201939Y-71915000D01*
X63998061Y-71915000D01*
X63798102Y-71954774D01*
X63609744Y-72032795D01*
X63440226Y-72146063D01*
X63296063Y-72290226D01*
X63182795Y-72459744D01*
X63104774Y-72648102D01*
X63065000Y-72848061D01*
X53993474Y-72848061D01*
X53903475Y-72713368D01*
X53696632Y-72506525D01*
X53522240Y-72390000D01*
X53696632Y-72273475D01*
X53903475Y-72066632D01*
X54065990Y-71823411D01*
X54177932Y-71553158D01*
X54235000Y-71266260D01*
X54235000Y-70973740D01*
X54177932Y-70686842D01*
X54141158Y-70598061D01*
X67365000Y-70598061D01*
X67365000Y-70801939D01*
X67404774Y-71001898D01*
X67482795Y-71190256D01*
X67596063Y-71359774D01*
X67740226Y-71503937D01*
X67909744Y-71617205D01*
X68098102Y-71695226D01*
X68298061Y-71735000D01*
X68501939Y-71735000D01*
X68701898Y-71695226D01*
X68890256Y-71617205D01*
X69059774Y-71503937D01*
X69203937Y-71359774D01*
X69317205Y-71190256D01*
X69395226Y-71001898D01*
X69435000Y-70801939D01*
X69435000Y-70648061D01*
X78465000Y-70648061D01*
X78465000Y-70851939D01*
X78504774Y-71051898D01*
X78582795Y-71240256D01*
X78696063Y-71409774D01*
X78840226Y-71553937D01*
X79009744Y-71667205D01*
X79198102Y-71745226D01*
X79398061Y-71785000D01*
X79601939Y-71785000D01*
X79801898Y-71745226D01*
X79990256Y-71667205D01*
X80159774Y-71553937D01*
X80303937Y-71409774D01*
X80417205Y-71240256D01*
X80495226Y-71051898D01*
X80535000Y-70851939D01*
X80535000Y-70648061D01*
X80495226Y-70448102D01*
X80417205Y-70259744D01*
X80303937Y-70090226D01*
X80159774Y-69946063D01*
X79990256Y-69832795D01*
X79801898Y-69754774D01*
X79601939Y-69715000D01*
X79398061Y-69715000D01*
X79198102Y-69754774D01*
X79009744Y-69832795D01*
X78840226Y-69946063D01*
X78696063Y-70090226D01*
X78582795Y-70259744D01*
X78504774Y-70448102D01*
X78465000Y-70648061D01*
X69435000Y-70648061D01*
X69435000Y-70598061D01*
X69395226Y-70398102D01*
X69317205Y-70209744D01*
X69203937Y-70040226D01*
X69059774Y-69896063D01*
X69010808Y-69863345D01*
X69101898Y-69845226D01*
X69290256Y-69767205D01*
X69459774Y-69653937D01*
X69603937Y-69509774D01*
X69717205Y-69340256D01*
X69795226Y-69151898D01*
X69835000Y-68951939D01*
X69835000Y-68748061D01*
X69795226Y-68548102D01*
X69717205Y-68359744D01*
X69618877Y-68212585D01*
X69667205Y-68140256D01*
X69745226Y-67951898D01*
X69785000Y-67751939D01*
X69785000Y-67598061D01*
X82015000Y-67598061D01*
X82015000Y-67801939D01*
X82054774Y-68001898D01*
X82132795Y-68190256D01*
X82246063Y-68359774D01*
X82390226Y-68503937D01*
X82559744Y-68617205D01*
X82748102Y-68695226D01*
X82948061Y-68735000D01*
X83151939Y-68735000D01*
X83351898Y-68695226D01*
X83540256Y-68617205D01*
X83709774Y-68503937D01*
X83853937Y-68359774D01*
X83967205Y-68190256D01*
X84045226Y-68001898D01*
X84085000Y-67801939D01*
X84085000Y-67598061D01*
X84045226Y-67398102D01*
X83967205Y-67209744D01*
X83853937Y-67040226D01*
X83811772Y-66998061D01*
X84515000Y-66998061D01*
X84515000Y-67201939D01*
X84554774Y-67401898D01*
X84632795Y-67590256D01*
X84746063Y-67759774D01*
X84890226Y-67903937D01*
X85059744Y-68017205D01*
X85248102Y-68095226D01*
X85448061Y-68135000D01*
X85651939Y-68135000D01*
X85851898Y-68095226D01*
X86040256Y-68017205D01*
X86209774Y-67903937D01*
X86353937Y-67759774D01*
X86467205Y-67590256D01*
X86545226Y-67401898D01*
X86585000Y-67201939D01*
X86585000Y-66998061D01*
X86545226Y-66798102D01*
X86467205Y-66609744D01*
X86353937Y-66440226D01*
X86209774Y-66296063D01*
X86040256Y-66182795D01*
X85851898Y-66104774D01*
X85651939Y-66065000D01*
X85448061Y-66065000D01*
X85248102Y-66104774D01*
X85059744Y-66182795D01*
X84890226Y-66296063D01*
X84746063Y-66440226D01*
X84632795Y-66609744D01*
X84554774Y-66798102D01*
X84515000Y-66998061D01*
X83811772Y-66998061D01*
X83709774Y-66896063D01*
X83540256Y-66782795D01*
X83351898Y-66704774D01*
X83151939Y-66665000D01*
X82948061Y-66665000D01*
X82748102Y-66704774D01*
X82559744Y-66782795D01*
X82390226Y-66896063D01*
X82246063Y-67040226D01*
X82132795Y-67209744D01*
X82054774Y-67398102D01*
X82015000Y-67598061D01*
X69785000Y-67598061D01*
X69785000Y-67548061D01*
X69745226Y-67348102D01*
X69667205Y-67159744D01*
X69553937Y-66990226D01*
X69409774Y-66846063D01*
X69240256Y-66732795D01*
X69051898Y-66654774D01*
X68851939Y-66615000D01*
X68648061Y-66615000D01*
X68448102Y-66654774D01*
X68259744Y-66732795D01*
X68090226Y-66846063D01*
X67946063Y-66990226D01*
X67832795Y-67159744D01*
X67754774Y-67348102D01*
X67715000Y-67548061D01*
X67715000Y-67751939D01*
X67754774Y-67951898D01*
X67832795Y-68140256D01*
X67931123Y-68287415D01*
X67882795Y-68359744D01*
X67804774Y-68548102D01*
X67765000Y-68748061D01*
X67765000Y-68951939D01*
X67804774Y-69151898D01*
X67882795Y-69340256D01*
X67996063Y-69509774D01*
X68140226Y-69653937D01*
X68189192Y-69686655D01*
X68098102Y-69704774D01*
X67909744Y-69782795D01*
X67740226Y-69896063D01*
X67596063Y-70040226D01*
X67482795Y-70209744D01*
X67404774Y-70398102D01*
X67365000Y-70598061D01*
X54141158Y-70598061D01*
X54065990Y-70416589D01*
X53903475Y-70173368D01*
X53696632Y-69966525D01*
X53522240Y-69850000D01*
X53696632Y-69733475D01*
X53903475Y-69526632D01*
X54065990Y-69283411D01*
X54177932Y-69013158D01*
X54235000Y-68726260D01*
X54235000Y-68433740D01*
X54177932Y-68146842D01*
X54065990Y-67876589D01*
X53903475Y-67633368D01*
X53771620Y-67501513D01*
X53844180Y-67479502D01*
X53954494Y-67420537D01*
X54051185Y-67341185D01*
X54130537Y-67244494D01*
X54189502Y-67134180D01*
X54225812Y-67014482D01*
X54238072Y-66890000D01*
X54235000Y-66325750D01*
X54076250Y-66167000D01*
X52877000Y-66167000D01*
X52877000Y-66187000D01*
X52623000Y-66187000D01*
X52623000Y-66167000D01*
X51423750Y-66167000D01*
X51265000Y-66325750D01*
X51261928Y-66890000D01*
X50660000Y-66890000D01*
X50660000Y-65190000D01*
X51261928Y-65190000D01*
X51265000Y-65754250D01*
X51423750Y-65913000D01*
X52623000Y-65913000D01*
X52623000Y-64713750D01*
X52877000Y-64713750D01*
X52877000Y-65913000D01*
X54076250Y-65913000D01*
X54235000Y-65754250D01*
X54237755Y-65248061D01*
X67715000Y-65248061D01*
X67715000Y-65451939D01*
X67754774Y-65651898D01*
X67832795Y-65840256D01*
X67946063Y-66009774D01*
X68090226Y-66153937D01*
X68259744Y-66267205D01*
X68448102Y-66345226D01*
X68648061Y-66385000D01*
X68851939Y-66385000D01*
X69051898Y-66345226D01*
X69240256Y-66267205D01*
X69409774Y-66153937D01*
X69553937Y-66009774D01*
X69667205Y-65840256D01*
X69745226Y-65651898D01*
X69785000Y-65451939D01*
X69785000Y-65248061D01*
X69745226Y-65048102D01*
X69724499Y-64998061D01*
X73215000Y-64998061D01*
X73215000Y-65201939D01*
X73254774Y-65401898D01*
X73332795Y-65590256D01*
X73446063Y-65759774D01*
X73590226Y-65903937D01*
X73759744Y-66017205D01*
X73948102Y-66095226D01*
X74148061Y-66135000D01*
X74351939Y-66135000D01*
X74551898Y-66095226D01*
X74740256Y-66017205D01*
X74909774Y-65903937D01*
X75053937Y-65759774D01*
X75167205Y-65590256D01*
X75245226Y-65401898D01*
X75268478Y-65285000D01*
X75351939Y-65285000D01*
X75551898Y-65245226D01*
X75740256Y-65167205D01*
X75909774Y-65053937D01*
X76053937Y-64909774D01*
X76167205Y-64740256D01*
X76245226Y-64551898D01*
X76285000Y-64351939D01*
X76285000Y-64198061D01*
X87365000Y-64198061D01*
X87365000Y-64401939D01*
X87404774Y-64601898D01*
X87482795Y-64790256D01*
X87596063Y-64959774D01*
X87740226Y-65103937D01*
X87909744Y-65217205D01*
X88098102Y-65295226D01*
X88298061Y-65335000D01*
X88501939Y-65335000D01*
X88701898Y-65295226D01*
X88890256Y-65217205D01*
X89059774Y-65103937D01*
X89203937Y-64959774D01*
X89317205Y-64790256D01*
X89395226Y-64601898D01*
X89435000Y-64401939D01*
X89435000Y-64198061D01*
X89395226Y-63998102D01*
X89353788Y-63898061D01*
X101215000Y-63898061D01*
X101215000Y-64101939D01*
X101254774Y-64301898D01*
X101332795Y-64490256D01*
X101446063Y-64659774D01*
X101590226Y-64803937D01*
X101759744Y-64917205D01*
X101948102Y-64995226D01*
X102148061Y-65035000D01*
X102351939Y-65035000D01*
X102551898Y-64995226D01*
X102740256Y-64917205D01*
X102909774Y-64803937D01*
X103053937Y-64659774D01*
X103167205Y-64490256D01*
X103245226Y-64301898D01*
X103285000Y-64101939D01*
X103285000Y-63898061D01*
X103245226Y-63698102D01*
X103167205Y-63509744D01*
X103053937Y-63340226D01*
X102909774Y-63196063D01*
X102740256Y-63082795D01*
X102551898Y-63004774D01*
X102351939Y-62965000D01*
X102148061Y-62965000D01*
X101948102Y-63004774D01*
X101759744Y-63082795D01*
X101590226Y-63196063D01*
X101446063Y-63340226D01*
X101332795Y-63509744D01*
X101254774Y-63698102D01*
X101215000Y-63898061D01*
X89353788Y-63898061D01*
X89317205Y-63809744D01*
X89203937Y-63640226D01*
X89059774Y-63496063D01*
X88890256Y-63382795D01*
X88701898Y-63304774D01*
X88501939Y-63265000D01*
X88298061Y-63265000D01*
X88098102Y-63304774D01*
X87909744Y-63382795D01*
X87740226Y-63496063D01*
X87596063Y-63640226D01*
X87482795Y-63809744D01*
X87404774Y-63998102D01*
X87365000Y-64198061D01*
X76285000Y-64198061D01*
X76285000Y-64148061D01*
X76245226Y-63948102D01*
X76167205Y-63759744D01*
X76053937Y-63590226D01*
X75909774Y-63446063D01*
X75740256Y-63332795D01*
X75551898Y-63254774D01*
X75351939Y-63215000D01*
X75148061Y-63215000D01*
X74948102Y-63254774D01*
X74759744Y-63332795D01*
X74590226Y-63446063D01*
X74446063Y-63590226D01*
X74332795Y-63759744D01*
X74254774Y-63948102D01*
X74231522Y-64065000D01*
X74148061Y-64065000D01*
X73948102Y-64104774D01*
X73759744Y-64182795D01*
X73590226Y-64296063D01*
X73446063Y-64440226D01*
X73332795Y-64609744D01*
X73254774Y-64798102D01*
X73215000Y-64998061D01*
X69724499Y-64998061D01*
X69667205Y-64859744D01*
X69553937Y-64690226D01*
X69409774Y-64546063D01*
X69240256Y-64432795D01*
X69051898Y-64354774D01*
X68851939Y-64315000D01*
X68648061Y-64315000D01*
X68448102Y-64354774D01*
X68259744Y-64432795D01*
X68090226Y-64546063D01*
X67946063Y-64690226D01*
X67832795Y-64859744D01*
X67754774Y-65048102D01*
X67715000Y-65248061D01*
X54237755Y-65248061D01*
X54238072Y-65190000D01*
X54225812Y-65065518D01*
X54189502Y-64945820D01*
X54130537Y-64835506D01*
X54051185Y-64738815D01*
X53954494Y-64659463D01*
X53844180Y-64600498D01*
X53724482Y-64564188D01*
X53600000Y-64551928D01*
X53035750Y-64555000D01*
X52877000Y-64713750D01*
X52623000Y-64713750D01*
X52464250Y-64555000D01*
X51900000Y-64551928D01*
X51775518Y-64564188D01*
X51655820Y-64600498D01*
X51545506Y-64659463D01*
X51448815Y-64738815D01*
X51369463Y-64835506D01*
X51310498Y-64945820D01*
X51274188Y-65065518D01*
X51261928Y-65190000D01*
X50660000Y-65190000D01*
X50660000Y-55777089D01*
X50702187Y-55263945D01*
X50815000Y-55263945D01*
X50815000Y-56236055D01*
X51004650Y-57189486D01*
X51376660Y-58087599D01*
X51916735Y-58895879D01*
X52604121Y-59583265D01*
X53412401Y-60123340D01*
X54310514Y-60495350D01*
X55263945Y-60685000D01*
X56236055Y-60685000D01*
X57189486Y-60495350D01*
X58087599Y-60123340D01*
X58895879Y-59583265D01*
X59583265Y-58895879D01*
X59815669Y-58548061D01*
X65915000Y-58548061D01*
X65915000Y-58751939D01*
X65954774Y-58951898D01*
X66032795Y-59140256D01*
X66146063Y-59309774D01*
X66290226Y-59453937D01*
X66459744Y-59567205D01*
X66648102Y-59645226D01*
X66848061Y-59685000D01*
X67051939Y-59685000D01*
X67251898Y-59645226D01*
X67440256Y-59567205D01*
X67609774Y-59453937D01*
X67753937Y-59309774D01*
X67867205Y-59140256D01*
X67945226Y-58951898D01*
X67985000Y-58751939D01*
X67985000Y-58548061D01*
X71165000Y-58548061D01*
X71165000Y-58751939D01*
X71204774Y-58951898D01*
X71282795Y-59140256D01*
X71396063Y-59309774D01*
X71540226Y-59453937D01*
X71709744Y-59567205D01*
X71898102Y-59645226D01*
X72098061Y-59685000D01*
X72301939Y-59685000D01*
X72501898Y-59645226D01*
X72690256Y-59567205D01*
X72859774Y-59453937D01*
X73003937Y-59309774D01*
X73117205Y-59140256D01*
X73195226Y-58951898D01*
X73235000Y-58751939D01*
X73235000Y-58548061D01*
X73195226Y-58348102D01*
X73117205Y-58159744D01*
X73003937Y-57990226D01*
X72859774Y-57846063D01*
X72690256Y-57732795D01*
X72501898Y-57654774D01*
X72301939Y-57615000D01*
X72098061Y-57615000D01*
X71898102Y-57654774D01*
X71709744Y-57732795D01*
X71540226Y-57846063D01*
X71396063Y-57990226D01*
X71282795Y-58159744D01*
X71204774Y-58348102D01*
X71165000Y-58548061D01*
X67985000Y-58548061D01*
X67945226Y-58348102D01*
X67867205Y-58159744D01*
X67753937Y-57990226D01*
X67609774Y-57846063D01*
X67440256Y-57732795D01*
X67251898Y-57654774D01*
X67051939Y-57615000D01*
X66848061Y-57615000D01*
X66648102Y-57654774D01*
X66459744Y-57732795D01*
X66290226Y-57846063D01*
X66146063Y-57990226D01*
X66032795Y-58159744D01*
X65954774Y-58348102D01*
X65915000Y-58548061D01*
X59815669Y-58548061D01*
X60123340Y-58087599D01*
X60495350Y-57189486D01*
X60615874Y-56583573D01*
X60753202Y-56720901D01*
X60957926Y-56857693D01*
X61185402Y-56951917D01*
X61426890Y-56999952D01*
X61673110Y-56999952D01*
X61914598Y-56951917D01*
X62044617Y-56898061D01*
X89415000Y-56898061D01*
X89415000Y-57101939D01*
X89454774Y-57301898D01*
X89532795Y-57490256D01*
X89646063Y-57659774D01*
X89790226Y-57803937D01*
X89959744Y-57917205D01*
X90148102Y-57995226D01*
X90348061Y-58035000D01*
X90551939Y-58035000D01*
X90751898Y-57995226D01*
X90940256Y-57917205D01*
X91109774Y-57803937D01*
X91253937Y-57659774D01*
X91367205Y-57490256D01*
X91445226Y-57301898D01*
X91485000Y-57101939D01*
X91485000Y-56898061D01*
X91965000Y-56898061D01*
X91965000Y-57101939D01*
X92004774Y-57301898D01*
X92082795Y-57490256D01*
X92196063Y-57659774D01*
X92340226Y-57803937D01*
X92509744Y-57917205D01*
X92698102Y-57995226D01*
X92898061Y-58035000D01*
X93101939Y-58035000D01*
X93301898Y-57995226D01*
X93490256Y-57917205D01*
X93625000Y-57827172D01*
X93759744Y-57917205D01*
X93948102Y-57995226D01*
X94148061Y-58035000D01*
X94351939Y-58035000D01*
X94551898Y-57995226D01*
X94740256Y-57917205D01*
X94909774Y-57803937D01*
X95053937Y-57659774D01*
X95167205Y-57490256D01*
X95245226Y-57301898D01*
X95285000Y-57101939D01*
X95285000Y-56898061D01*
X95245226Y-56698102D01*
X95167205Y-56509744D01*
X95053937Y-56340226D01*
X94909774Y-56196063D01*
X94740256Y-56082795D01*
X94551898Y-56004774D01*
X94351939Y-55965000D01*
X94148061Y-55965000D01*
X93948102Y-56004774D01*
X93759744Y-56082795D01*
X93625000Y-56172828D01*
X93490256Y-56082795D01*
X93301898Y-56004774D01*
X93101939Y-55965000D01*
X92898061Y-55965000D01*
X92698102Y-56004774D01*
X92509744Y-56082795D01*
X92340226Y-56196063D01*
X92196063Y-56340226D01*
X92082795Y-56509744D01*
X92004774Y-56698102D01*
X91965000Y-56898061D01*
X91485000Y-56898061D01*
X91445226Y-56698102D01*
X91367205Y-56509744D01*
X91253937Y-56340226D01*
X91109774Y-56196063D01*
X90940256Y-56082795D01*
X90751898Y-56004774D01*
X90551939Y-55965000D01*
X90348061Y-55965000D01*
X90148102Y-56004774D01*
X89959744Y-56082795D01*
X89790226Y-56196063D01*
X89646063Y-56340226D01*
X89532795Y-56509744D01*
X89454774Y-56698102D01*
X89415000Y-56898061D01*
X62044617Y-56898061D01*
X62142074Y-56857693D01*
X62346798Y-56720901D01*
X62520901Y-56546798D01*
X62657693Y-56342074D01*
X62751917Y-56114598D01*
X62799952Y-55873110D01*
X62799952Y-55626890D01*
X62751917Y-55385402D01*
X62657693Y-55157926D01*
X62617693Y-55098061D01*
X78965000Y-55098061D01*
X78965000Y-55301939D01*
X79004774Y-55501898D01*
X79082795Y-55690256D01*
X79196063Y-55859774D01*
X79340226Y-56003937D01*
X79509744Y-56117205D01*
X79698102Y-56195226D01*
X79898061Y-56235000D01*
X80101939Y-56235000D01*
X80301898Y-56195226D01*
X80490256Y-56117205D01*
X80659774Y-56003937D01*
X80803937Y-55859774D01*
X80917205Y-55690256D01*
X80943452Y-55626890D01*
X98750048Y-55626890D01*
X98750048Y-55873110D01*
X98798083Y-56114598D01*
X98892307Y-56342074D01*
X99029099Y-56546798D01*
X99203202Y-56720901D01*
X99407926Y-56857693D01*
X99635402Y-56951917D01*
X99876890Y-56999952D01*
X100123110Y-56999952D01*
X100364598Y-56951917D01*
X100592074Y-56857693D01*
X100796798Y-56720901D01*
X100892421Y-56625278D01*
X101004650Y-57189486D01*
X101376660Y-58087599D01*
X101916735Y-58895879D01*
X102604121Y-59583265D01*
X103412401Y-60123340D01*
X104310514Y-60495350D01*
X105263945Y-60685000D01*
X106236055Y-60685000D01*
X107189486Y-60495350D01*
X108087599Y-60123340D01*
X108895879Y-59583265D01*
X109583265Y-58895879D01*
X110123340Y-58087599D01*
X110495350Y-57189486D01*
X110685000Y-56236055D01*
X110685000Y-55263945D01*
X110495350Y-54310514D01*
X110123340Y-53412401D01*
X109583265Y-52604121D01*
X108895879Y-51916735D01*
X108087599Y-51376660D01*
X107189486Y-51004650D01*
X106236055Y-50815000D01*
X105263945Y-50815000D01*
X104310514Y-51004650D01*
X103412401Y-51376660D01*
X102604121Y-51916735D01*
X101916735Y-52604121D01*
X101376660Y-53412401D01*
X101004650Y-54310514D01*
X100892421Y-54874722D01*
X100796798Y-54779099D01*
X100592074Y-54642307D01*
X100364598Y-54548083D01*
X100123110Y-54500048D01*
X99876890Y-54500048D01*
X99635402Y-54548083D01*
X99407926Y-54642307D01*
X99203202Y-54779099D01*
X99029099Y-54953202D01*
X98892307Y-55157926D01*
X98798083Y-55385402D01*
X98750048Y-55626890D01*
X80943452Y-55626890D01*
X80995226Y-55501898D01*
X81035000Y-55301939D01*
X81035000Y-55098061D01*
X80995226Y-54898102D01*
X80917205Y-54709744D01*
X80803937Y-54540226D01*
X80659774Y-54396063D01*
X80490256Y-54282795D01*
X80301898Y-54204774D01*
X80101939Y-54165000D01*
X79898061Y-54165000D01*
X79698102Y-54204774D01*
X79509744Y-54282795D01*
X79340226Y-54396063D01*
X79196063Y-54540226D01*
X79082795Y-54709744D01*
X79004774Y-54898102D01*
X78965000Y-55098061D01*
X62617693Y-55098061D01*
X62520901Y-54953202D01*
X62346798Y-54779099D01*
X62142074Y-54642307D01*
X61914598Y-54548083D01*
X61673110Y-54500048D01*
X61426890Y-54500048D01*
X61185402Y-54548083D01*
X60957926Y-54642307D01*
X60753202Y-54779099D01*
X60615874Y-54916427D01*
X60495350Y-54310514D01*
X60123340Y-53412401D01*
X59583265Y-52604121D01*
X58895879Y-51916735D01*
X58845596Y-51883137D01*
X79665000Y-51883137D01*
X79665000Y-52096863D01*
X79706696Y-52306483D01*
X79788485Y-52503940D01*
X79907225Y-52681647D01*
X80058353Y-52832775D01*
X80236060Y-52951515D01*
X80433517Y-53033304D01*
X80643137Y-53075000D01*
X80856863Y-53075000D01*
X81066483Y-53033304D01*
X81263940Y-52951515D01*
X81441647Y-52832775D01*
X81592775Y-52681647D01*
X81711515Y-52503940D01*
X81793304Y-52306483D01*
X81835000Y-52096863D01*
X81835000Y-51883137D01*
X82665000Y-51883137D01*
X82665000Y-52096863D01*
X82706696Y-52306483D01*
X82788485Y-52503940D01*
X82907225Y-52681647D01*
X83058353Y-52832775D01*
X83236060Y-52951515D01*
X83433517Y-53033304D01*
X83643137Y-53075000D01*
X83856863Y-53075000D01*
X84066483Y-53033304D01*
X84263940Y-52951515D01*
X84441647Y-52832775D01*
X84592775Y-52681647D01*
X84711515Y-52503940D01*
X84793304Y-52306483D01*
X84835000Y-52096863D01*
X84835000Y-51883137D01*
X84793304Y-51673517D01*
X84711515Y-51476060D01*
X84592775Y-51298353D01*
X84441647Y-51147225D01*
X84263940Y-51028485D01*
X84066483Y-50946696D01*
X83856863Y-50905000D01*
X83643137Y-50905000D01*
X83433517Y-50946696D01*
X83236060Y-51028485D01*
X83058353Y-51147225D01*
X82907225Y-51298353D01*
X82788485Y-51476060D01*
X82706696Y-51673517D01*
X82665000Y-51883137D01*
X81835000Y-51883137D01*
X81793304Y-51673517D01*
X81711515Y-51476060D01*
X81592775Y-51298353D01*
X81441647Y-51147225D01*
X81263940Y-51028485D01*
X81066483Y-50946696D01*
X80856863Y-50905000D01*
X80643137Y-50905000D01*
X80433517Y-50946696D01*
X80236060Y-51028485D01*
X80058353Y-51147225D01*
X79907225Y-51298353D01*
X79788485Y-51476060D01*
X79706696Y-51673517D01*
X79665000Y-51883137D01*
X58845596Y-51883137D01*
X58087599Y-51376660D01*
X57189486Y-51004650D01*
X56236055Y-50815000D01*
X55263945Y-50815000D01*
X54310514Y-51004650D01*
X53412401Y-51376660D01*
X52604121Y-51916735D01*
X51916735Y-52604121D01*
X51376660Y-53412401D01*
X51004650Y-54310514D01*
X50815000Y-55263945D01*
X50702187Y-55263945D01*
X50730545Y-54919030D01*
X50933662Y-54110389D01*
X51266129Y-53345767D01*
X51719011Y-52645719D01*
X52280146Y-52029039D01*
X52934469Y-51512286D01*
X53664406Y-51109339D01*
X54450353Y-50831022D01*
X55282603Y-50682775D01*
X55765547Y-50660000D01*
X105722911Y-50660000D01*
X106580970Y-50730545D01*
%TA.AperFunction,Conductor*%
D20*
G36*
X106580970Y-50730545D02*
G01*
X107389611Y-50933662D01*
X108154233Y-51266129D01*
X108854281Y-51719011D01*
X109470961Y-52280146D01*
X109987714Y-52934469D01*
X110390661Y-53664406D01*
X110668978Y-54450353D01*
X110817225Y-55282603D01*
X110840000Y-55765547D01*
X110840000Y-61536560D01*
X110824901Y-61528489D01*
X110592102Y-61457870D01*
X110410665Y-61440000D01*
X109589335Y-61440000D01*
X109407898Y-61457870D01*
X109175099Y-61528489D01*
X108960551Y-61643167D01*
X108772498Y-61797498D01*
X108618167Y-61985551D01*
X108503489Y-62200099D01*
X108432870Y-62432898D01*
X108409025Y-62675000D01*
X108432870Y-62917102D01*
X108435883Y-62927035D01*
X108356381Y-62808051D01*
X108166949Y-62618619D01*
X107944201Y-62469784D01*
X107696697Y-62367264D01*
X107433948Y-62315000D01*
X107166052Y-62315000D01*
X106903303Y-62367264D01*
X106655799Y-62469784D01*
X106433051Y-62618619D01*
X106368927Y-62682743D01*
X106385000Y-62601939D01*
X106385000Y-62398061D01*
X106345226Y-62198102D01*
X106267205Y-62009744D01*
X106153937Y-61840226D01*
X106009774Y-61696063D01*
X105840256Y-61582795D01*
X105651898Y-61504774D01*
X105451939Y-61465000D01*
X105248061Y-61465000D01*
X105048102Y-61504774D01*
X104859744Y-61582795D01*
X104690226Y-61696063D01*
X104546063Y-61840226D01*
X104432795Y-62009744D01*
X104354774Y-62198102D01*
X104315000Y-62398061D01*
X104315000Y-62601939D01*
X104354774Y-62801898D01*
X104432795Y-62990256D01*
X104522828Y-63125000D01*
X104432795Y-63259744D01*
X104354774Y-63448102D01*
X104315000Y-63648061D01*
X104315000Y-63851939D01*
X104354774Y-64051898D01*
X104432795Y-64240256D01*
X104472715Y-64300000D01*
X104432795Y-64359744D01*
X104354774Y-64548102D01*
X104315000Y-64748061D01*
X104315000Y-64951939D01*
X104354774Y-65151898D01*
X104432795Y-65340256D01*
X104546063Y-65509774D01*
X104690226Y-65653937D01*
X104859744Y-65767205D01*
X105048102Y-65845226D01*
X105248061Y-65885000D01*
X105451939Y-65885000D01*
X105651898Y-65845226D01*
X105840256Y-65767205D01*
X106009774Y-65653937D01*
X106153937Y-65509774D01*
X106267205Y-65340256D01*
X106345226Y-65151898D01*
X106385000Y-64951939D01*
X106385000Y-64748061D01*
X106368927Y-64667257D01*
X106433051Y-64731381D01*
X106655799Y-64880216D01*
X106903303Y-64982736D01*
X107166052Y-65035000D01*
X107433948Y-65035000D01*
X107696697Y-64982736D01*
X107944201Y-64880216D01*
X108166949Y-64731381D01*
X108356381Y-64541949D01*
X108505216Y-64319201D01*
X108607736Y-64071697D01*
X108660000Y-63808948D01*
X108660000Y-63541052D01*
X108627016Y-63375232D01*
X108772498Y-63552502D01*
X108960551Y-63706833D01*
X109175099Y-63821511D01*
X109407898Y-63892130D01*
X109589335Y-63910000D01*
X110410665Y-63910000D01*
X110592102Y-63892130D01*
X110824901Y-63821511D01*
X110840000Y-63813440D01*
X110840000Y-68536560D01*
X110824901Y-68528489D01*
X110592102Y-68457870D01*
X110410665Y-68440000D01*
X109589335Y-68440000D01*
X109407898Y-68457870D01*
X109175099Y-68528489D01*
X108960551Y-68643167D01*
X108772498Y-68797498D01*
X108627016Y-68974768D01*
X108660000Y-68808948D01*
X108660000Y-68541052D01*
X108607736Y-68278303D01*
X108505216Y-68030799D01*
X108356381Y-67808051D01*
X108166949Y-67618619D01*
X107944201Y-67469784D01*
X107696697Y-67367264D01*
X107433948Y-67315000D01*
X107166052Y-67315000D01*
X106903303Y-67367264D01*
X106655799Y-67469784D01*
X106433051Y-67618619D01*
X106243619Y-67808051D01*
X106094784Y-68030799D01*
X105992264Y-68278303D01*
X105940000Y-68541052D01*
X105940000Y-68808948D01*
X105992264Y-69071697D01*
X106094784Y-69319201D01*
X106243619Y-69541949D01*
X106433051Y-69731381D01*
X106655799Y-69880216D01*
X106903303Y-69982736D01*
X107166052Y-70035000D01*
X107433948Y-70035000D01*
X107696697Y-69982736D01*
X107944201Y-69880216D01*
X108166949Y-69731381D01*
X108356381Y-69541949D01*
X108435883Y-69422965D01*
X108432870Y-69432898D01*
X108409025Y-69675000D01*
X108432870Y-69917102D01*
X108503489Y-70149901D01*
X108618167Y-70364449D01*
X108772498Y-70552502D01*
X108960551Y-70706833D01*
X109175099Y-70821511D01*
X109407898Y-70892130D01*
X109589335Y-70910000D01*
X110410665Y-70910000D01*
X110592102Y-70892130D01*
X110824901Y-70821511D01*
X110840000Y-70813440D01*
X110840001Y-105722898D01*
X110769455Y-106580964D01*
X110566338Y-107389609D01*
X110233871Y-108154233D01*
X109780991Y-108854279D01*
X109219854Y-109470961D01*
X108565527Y-109987716D01*
X107835594Y-110390662D01*
X107049647Y-110668978D01*
X106217398Y-110817225D01*
X105734452Y-110840000D01*
X55777090Y-110840000D01*
X54919036Y-110769455D01*
X54110391Y-110566338D01*
X53345767Y-110233871D01*
X52645721Y-109780991D01*
X52029039Y-109219854D01*
X51512284Y-108565527D01*
X51109338Y-107835594D01*
X50831022Y-107049647D01*
X50682775Y-106217398D01*
X50660000Y-105734452D01*
X50660000Y-105263945D01*
X50815000Y-105263945D01*
X50815000Y-106236055D01*
X51004650Y-107189486D01*
X51376660Y-108087599D01*
X51916735Y-108895879D01*
X52604121Y-109583265D01*
X53412401Y-110123340D01*
X54310514Y-110495350D01*
X55263945Y-110685000D01*
X56236055Y-110685000D01*
X57189486Y-110495350D01*
X58087599Y-110123340D01*
X58895879Y-109583265D01*
X59583265Y-108895879D01*
X60123340Y-108087599D01*
X60495350Y-107189486D01*
X60685000Y-106236055D01*
X60685000Y-105263945D01*
X60495350Y-104310514D01*
X60346021Y-103950000D01*
X66311928Y-103950000D01*
X66311928Y-106550000D01*
X66324188Y-106674482D01*
X66360498Y-106794180D01*
X66419463Y-106904494D01*
X66498815Y-107001185D01*
X66595506Y-107080537D01*
X66705820Y-107139502D01*
X66825518Y-107175812D01*
X66950000Y-107188072D01*
X69550000Y-107188072D01*
X69674482Y-107175812D01*
X69794180Y-107139502D01*
X69904494Y-107080537D01*
X70001185Y-107001185D01*
X70080537Y-106904494D01*
X70139502Y-106794180D01*
X70175812Y-106674482D01*
X70188072Y-106550000D01*
X70188072Y-105059419D01*
X71315000Y-105059419D01*
X71315000Y-105440581D01*
X71389361Y-105814419D01*
X71535225Y-106166566D01*
X71746987Y-106483491D01*
X72016509Y-106753013D01*
X72333434Y-106964775D01*
X72685581Y-107110639D01*
X73059419Y-107185000D01*
X73440581Y-107185000D01*
X73814419Y-107110639D01*
X74166566Y-106964775D01*
X74483491Y-106753013D01*
X74753013Y-106483491D01*
X74964775Y-106166566D01*
X75055282Y-105948061D01*
X94915000Y-105948061D01*
X94915000Y-106151939D01*
X94954774Y-106351898D01*
X95032795Y-106540256D01*
X95146063Y-106709774D01*
X95290226Y-106853937D01*
X95459744Y-106967205D01*
X95648102Y-107045226D01*
X95848061Y-107085000D01*
X96051939Y-107085000D01*
X96251898Y-107045226D01*
X96440256Y-106967205D01*
X96609774Y-106853937D01*
X96753937Y-106709774D01*
X96867205Y-106540256D01*
X96945226Y-106351898D01*
X96985000Y-106151939D01*
X96985000Y-105948061D01*
X96956927Y-105806927D01*
X97098061Y-105835000D01*
X97301939Y-105835000D01*
X97501898Y-105795226D01*
X97690256Y-105717205D01*
X97825422Y-105626890D01*
X98750048Y-105626890D01*
X98750048Y-105873110D01*
X98798083Y-106114598D01*
X98892307Y-106342074D01*
X99029099Y-106546798D01*
X99203202Y-106720901D01*
X99407926Y-106857693D01*
X99635402Y-106951917D01*
X99876890Y-106999952D01*
X100123110Y-106999952D01*
X100364598Y-106951917D01*
X100592074Y-106857693D01*
X100796798Y-106720901D01*
X100892421Y-106625278D01*
X101004650Y-107189486D01*
X101376660Y-108087599D01*
X101916735Y-108895879D01*
X102604121Y-109583265D01*
X103412401Y-110123340D01*
X104310514Y-110495350D01*
X105263945Y-110685000D01*
X106236055Y-110685000D01*
X107189486Y-110495350D01*
X108087599Y-110123340D01*
X108895879Y-109583265D01*
X109583265Y-108895879D01*
X110123340Y-108087599D01*
X110495350Y-107189486D01*
X110685000Y-106236055D01*
X110685000Y-105263945D01*
X110495350Y-104310514D01*
X110123340Y-103412401D01*
X109583265Y-102604121D01*
X108895879Y-101916735D01*
X108087599Y-101376660D01*
X107189486Y-101004650D01*
X106236055Y-100815000D01*
X105263945Y-100815000D01*
X104310514Y-101004650D01*
X103412401Y-101376660D01*
X102604121Y-101916735D01*
X101916735Y-102604121D01*
X101376660Y-103412401D01*
X101004650Y-104310514D01*
X100892421Y-104874722D01*
X100796798Y-104779099D01*
X100592074Y-104642307D01*
X100364598Y-104548083D01*
X100123110Y-104500048D01*
X99876890Y-104500048D01*
X99635402Y-104548083D01*
X99407926Y-104642307D01*
X99203202Y-104779099D01*
X99029099Y-104953202D01*
X98892307Y-105157926D01*
X98798083Y-105385402D01*
X98750048Y-105626890D01*
X97825422Y-105626890D01*
X97859774Y-105603937D01*
X98003937Y-105459774D01*
X98117205Y-105290256D01*
X98195226Y-105101898D01*
X98235000Y-104901939D01*
X98235000Y-104698061D01*
X98195226Y-104498102D01*
X98117205Y-104309744D01*
X98003937Y-104140226D01*
X97859774Y-103996063D01*
X97690256Y-103882795D01*
X97501898Y-103804774D01*
X97301939Y-103765000D01*
X97098061Y-103765000D01*
X96898102Y-103804774D01*
X96709744Y-103882795D01*
X96540226Y-103996063D01*
X96396063Y-104140226D01*
X96282795Y-104309744D01*
X96204774Y-104498102D01*
X96165000Y-104698061D01*
X96165000Y-104901939D01*
X96193073Y-105043073D01*
X96051939Y-105015000D01*
X95848061Y-105015000D01*
X95648102Y-105054774D01*
X95459744Y-105132795D01*
X95290226Y-105246063D01*
X95146063Y-105390226D01*
X95032795Y-105559744D01*
X94954774Y-105748102D01*
X94915000Y-105948061D01*
X75055282Y-105948061D01*
X75110639Y-105814419D01*
X75185000Y-105440581D01*
X75185000Y-105059419D01*
X75110639Y-104685581D01*
X74964775Y-104333434D01*
X74753013Y-104016509D01*
X74483491Y-103746987D01*
X74166566Y-103535225D01*
X73814419Y-103389361D01*
X73440581Y-103315000D01*
X73059419Y-103315000D01*
X72685581Y-103389361D01*
X72333434Y-103535225D01*
X72016509Y-103746987D01*
X71746987Y-104016509D01*
X71535225Y-104333434D01*
X71389361Y-104685581D01*
X71315000Y-105059419D01*
X70188072Y-105059419D01*
X70188072Y-103950000D01*
X70175812Y-103825518D01*
X70139502Y-103705820D01*
X70080537Y-103595506D01*
X70001185Y-103498815D01*
X69904494Y-103419463D01*
X69794180Y-103360498D01*
X69674482Y-103324188D01*
X69550000Y-103311928D01*
X66950000Y-103311928D01*
X66825518Y-103324188D01*
X66705820Y-103360498D01*
X66595506Y-103419463D01*
X66498815Y-103498815D01*
X66419463Y-103595506D01*
X66360498Y-103705820D01*
X66324188Y-103825518D01*
X66311928Y-103950000D01*
X60346021Y-103950000D01*
X60123340Y-103412401D01*
X59583265Y-102604121D01*
X58895879Y-101916735D01*
X58493780Y-101648061D01*
X83765000Y-101648061D01*
X83765000Y-101851939D01*
X83804774Y-102051898D01*
X83882795Y-102240256D01*
X83996063Y-102409774D01*
X84140226Y-102553937D01*
X84309744Y-102667205D01*
X84498102Y-102745226D01*
X84698061Y-102785000D01*
X84901939Y-102785000D01*
X85101898Y-102745226D01*
X85290256Y-102667205D01*
X85459774Y-102553937D01*
X85575000Y-102438711D01*
X85690226Y-102553937D01*
X85859744Y-102667205D01*
X86048102Y-102745226D01*
X86248061Y-102785000D01*
X86451939Y-102785000D01*
X86651898Y-102745226D01*
X86840256Y-102667205D01*
X87009774Y-102553937D01*
X87153937Y-102409774D01*
X87267205Y-102240256D01*
X87345226Y-102051898D01*
X87385000Y-101851939D01*
X87385000Y-101648061D01*
X87345226Y-101448102D01*
X87267205Y-101259744D01*
X87153937Y-101090226D01*
X87009774Y-100946063D01*
X86840256Y-100832795D01*
X86651898Y-100754774D01*
X86451939Y-100715000D01*
X86248061Y-100715000D01*
X86048102Y-100754774D01*
X85859744Y-100832795D01*
X85690226Y-100946063D01*
X85575000Y-101061289D01*
X85459774Y-100946063D01*
X85290256Y-100832795D01*
X85101898Y-100754774D01*
X84901939Y-100715000D01*
X84698061Y-100715000D01*
X84498102Y-100754774D01*
X84309744Y-100832795D01*
X84140226Y-100946063D01*
X83996063Y-101090226D01*
X83882795Y-101259744D01*
X83804774Y-101448102D01*
X83765000Y-101648061D01*
X58493780Y-101648061D01*
X58087599Y-101376660D01*
X57189486Y-101004650D01*
X56236055Y-100815000D01*
X55263945Y-100815000D01*
X54310514Y-101004650D01*
X53412401Y-101376660D01*
X52604121Y-101916735D01*
X51916735Y-102604121D01*
X51376660Y-103412401D01*
X51004650Y-104310514D01*
X50815000Y-105263945D01*
X50660000Y-105263945D01*
X50660000Y-98698061D01*
X82215000Y-98698061D01*
X82215000Y-98901939D01*
X82254774Y-99101898D01*
X82332795Y-99290256D01*
X82446063Y-99459774D01*
X82590226Y-99603937D01*
X82759744Y-99717205D01*
X82948102Y-99795226D01*
X83148061Y-99835000D01*
X83351939Y-99835000D01*
X83551898Y-99795226D01*
X83740256Y-99717205D01*
X83909774Y-99603937D01*
X84053937Y-99459774D01*
X84167205Y-99290256D01*
X84245226Y-99101898D01*
X84285000Y-98901939D01*
X84285000Y-98698061D01*
X84245226Y-98498102D01*
X84167205Y-98309744D01*
X84053937Y-98140226D01*
X83909774Y-97996063D01*
X83740256Y-97882795D01*
X83551898Y-97804774D01*
X83351939Y-97765000D01*
X83148061Y-97765000D01*
X82948102Y-97804774D01*
X82759744Y-97882795D01*
X82590226Y-97996063D01*
X82446063Y-98140226D01*
X82332795Y-98309744D01*
X82254774Y-98498102D01*
X82215000Y-98698061D01*
X50660000Y-98698061D01*
X50660000Y-82765000D01*
X51216928Y-82765000D01*
X51229188Y-82889482D01*
X51265498Y-83009180D01*
X51324463Y-83119494D01*
X51403815Y-83216185D01*
X51500506Y-83295537D01*
X51610820Y-83354502D01*
X51683380Y-83376513D01*
X51551525Y-83508368D01*
X51389010Y-83751589D01*
X51277068Y-84021842D01*
X51220000Y-84308740D01*
X51220000Y-84601260D01*
X51277068Y-84888158D01*
X51389010Y-85158411D01*
X51551525Y-85401632D01*
X51758368Y-85608475D01*
X51932760Y-85725000D01*
X51758368Y-85841525D01*
X51551525Y-86048368D01*
X51389010Y-86291589D01*
X51277068Y-86561842D01*
X51220000Y-86848740D01*
X51220000Y-87141260D01*
X51277068Y-87428158D01*
X51389010Y-87698411D01*
X51551525Y-87941632D01*
X51758368Y-88148475D01*
X51932760Y-88265000D01*
X51758368Y-88381525D01*
X51551525Y-88588368D01*
X51389010Y-88831589D01*
X51277068Y-89101842D01*
X51220000Y-89388740D01*
X51220000Y-89681260D01*
X51277068Y-89968158D01*
X51389010Y-90238411D01*
X51551525Y-90481632D01*
X51758368Y-90688475D01*
X51932760Y-90805000D01*
X51758368Y-90921525D01*
X51551525Y-91128368D01*
X51389010Y-91371589D01*
X51277068Y-91641842D01*
X51220000Y-91928740D01*
X51220000Y-92221260D01*
X51277068Y-92508158D01*
X51389010Y-92778411D01*
X51551525Y-93021632D01*
X51758368Y-93228475D01*
X51932760Y-93345000D01*
X51758368Y-93461525D01*
X51551525Y-93668368D01*
X51389010Y-93911589D01*
X51277068Y-94181842D01*
X51220000Y-94468740D01*
X51220000Y-94761260D01*
X51277068Y-95048158D01*
X51389010Y-95318411D01*
X51551525Y-95561632D01*
X51758368Y-95768475D01*
X52001589Y-95930990D01*
X52271842Y-96042932D01*
X52558740Y-96100000D01*
X52851260Y-96100000D01*
X53138158Y-96042932D01*
X53408411Y-95930990D01*
X53651632Y-95768475D01*
X53858475Y-95561632D01*
X54020990Y-95318411D01*
X54132932Y-95048158D01*
X54190000Y-94761260D01*
X54190000Y-94468740D01*
X54132932Y-94181842D01*
X54020990Y-93911589D01*
X53858475Y-93668368D01*
X53651632Y-93461525D01*
X53477240Y-93345000D01*
X53651632Y-93228475D01*
X53858475Y-93021632D01*
X54020990Y-92778411D01*
X54132932Y-92508158D01*
X54190000Y-92221260D01*
X54190000Y-91928740D01*
X54132932Y-91641842D01*
X54020990Y-91371589D01*
X53858475Y-91128368D01*
X53651632Y-90921525D01*
X53477240Y-90805000D01*
X53651632Y-90688475D01*
X53858475Y-90481632D01*
X54020990Y-90238411D01*
X54132932Y-89968158D01*
X54190000Y-89681260D01*
X54190000Y-89398061D01*
X71415000Y-89398061D01*
X71415000Y-89601939D01*
X71454774Y-89801898D01*
X71532795Y-89990256D01*
X71646063Y-90159774D01*
X71790226Y-90303937D01*
X71959744Y-90417205D01*
X72148102Y-90495226D01*
X72348061Y-90535000D01*
X72551939Y-90535000D01*
X72751898Y-90495226D01*
X72923360Y-90424204D01*
X72832795Y-90559744D01*
X72754774Y-90748102D01*
X72715000Y-90948061D01*
X72715000Y-91151939D01*
X72754774Y-91351898D01*
X72832795Y-91540256D01*
X72922828Y-91675000D01*
X72832795Y-91809744D01*
X72754774Y-91998102D01*
X72715000Y-92198061D01*
X72715000Y-92401939D01*
X72754774Y-92601898D01*
X72832795Y-92790256D01*
X72946063Y-92959774D01*
X73077134Y-93090845D01*
X72990256Y-93032795D01*
X72801898Y-92954774D01*
X72601939Y-92915000D01*
X72398061Y-92915000D01*
X72198102Y-92954774D01*
X72009744Y-93032795D01*
X71840226Y-93146063D01*
X71696063Y-93290226D01*
X71582795Y-93459744D01*
X71504774Y-93648102D01*
X71465000Y-93848061D01*
X71465000Y-94051939D01*
X71504774Y-94251898D01*
X71582795Y-94440256D01*
X71696063Y-94609774D01*
X71840226Y-94753937D01*
X72009744Y-94867205D01*
X72198102Y-94945226D01*
X72398061Y-94985000D01*
X72601939Y-94985000D01*
X72801898Y-94945226D01*
X72904226Y-94902840D01*
X72832795Y-95009744D01*
X72754774Y-95198102D01*
X72715000Y-95398061D01*
X72715000Y-95601939D01*
X72754774Y-95801898D01*
X72832795Y-95990256D01*
X72946063Y-96159774D01*
X73090226Y-96303937D01*
X73259744Y-96417205D01*
X73448102Y-96495226D01*
X73648061Y-96535000D01*
X73851939Y-96535000D01*
X74051898Y-96495226D01*
X74240256Y-96417205D01*
X74409774Y-96303937D01*
X74553937Y-96159774D01*
X74667205Y-95990256D01*
X74745226Y-95801898D01*
X74785000Y-95601939D01*
X74785000Y-95398061D01*
X74745226Y-95198102D01*
X74667205Y-95009744D01*
X74625990Y-94948061D01*
X88765000Y-94948061D01*
X88765000Y-95151939D01*
X88804774Y-95351898D01*
X88882795Y-95540256D01*
X88996063Y-95709774D01*
X89140226Y-95853937D01*
X89309744Y-95967205D01*
X89498102Y-96045226D01*
X89698061Y-96085000D01*
X89901939Y-96085000D01*
X90101898Y-96045226D01*
X90290256Y-95967205D01*
X90459774Y-95853937D01*
X90603937Y-95709774D01*
X90717205Y-95540256D01*
X90795226Y-95351898D01*
X90835000Y-95151939D01*
X90835000Y-94948061D01*
X92065000Y-94948061D01*
X92065000Y-95151939D01*
X92104774Y-95351898D01*
X92182795Y-95540256D01*
X92296063Y-95709774D01*
X92440226Y-95853937D01*
X92609744Y-95967205D01*
X92798102Y-96045226D01*
X92998061Y-96085000D01*
X93201939Y-96085000D01*
X93401898Y-96045226D01*
X93590256Y-95967205D01*
X93759774Y-95853937D01*
X93903937Y-95709774D01*
X93945172Y-95648061D01*
X100215000Y-95648061D01*
X100215000Y-95851939D01*
X100254774Y-96051898D01*
X100332795Y-96240256D01*
X100446063Y-96409774D01*
X100590226Y-96553937D01*
X100759744Y-96667205D01*
X100948102Y-96745226D01*
X101148061Y-96785000D01*
X101351939Y-96785000D01*
X101551898Y-96745226D01*
X101740256Y-96667205D01*
X101909774Y-96553937D01*
X102053937Y-96409774D01*
X102167205Y-96240256D01*
X102245226Y-96051898D01*
X102285000Y-95851939D01*
X102285000Y-95648061D01*
X102245226Y-95448102D01*
X102167205Y-95259744D01*
X102053937Y-95090226D01*
X101909774Y-94946063D01*
X101740256Y-94832795D01*
X101551898Y-94754774D01*
X101351939Y-94715000D01*
X101148061Y-94715000D01*
X100948102Y-94754774D01*
X100759744Y-94832795D01*
X100590226Y-94946063D01*
X100446063Y-95090226D01*
X100332795Y-95259744D01*
X100254774Y-95448102D01*
X100215000Y-95648061D01*
X93945172Y-95648061D01*
X94017205Y-95540256D01*
X94095226Y-95351898D01*
X94135000Y-95151939D01*
X94135000Y-94948061D01*
X94095226Y-94748102D01*
X94017205Y-94559744D01*
X93903937Y-94390226D01*
X93759774Y-94246063D01*
X93590256Y-94132795D01*
X93401898Y-94054774D01*
X93201939Y-94015000D01*
X92998061Y-94015000D01*
X92798102Y-94054774D01*
X92609744Y-94132795D01*
X92440226Y-94246063D01*
X92296063Y-94390226D01*
X92182795Y-94559744D01*
X92104774Y-94748102D01*
X92065000Y-94948061D01*
X90835000Y-94948061D01*
X90795226Y-94748102D01*
X90717205Y-94559744D01*
X90603937Y-94390226D01*
X90459774Y-94246063D01*
X90290256Y-94132795D01*
X90101898Y-94054774D01*
X89901939Y-94015000D01*
X89698061Y-94015000D01*
X89498102Y-94054774D01*
X89309744Y-94132795D01*
X89140226Y-94246063D01*
X88996063Y-94390226D01*
X88882795Y-94559744D01*
X88804774Y-94748102D01*
X88765000Y-94948061D01*
X74625990Y-94948061D01*
X74553937Y-94840226D01*
X74409774Y-94696063D01*
X74240256Y-94582795D01*
X74051898Y-94504774D01*
X73851939Y-94465000D01*
X73648061Y-94465000D01*
X73448102Y-94504774D01*
X73345774Y-94547160D01*
X73417205Y-94440256D01*
X73495226Y-94251898D01*
X73535000Y-94051939D01*
X73535000Y-93848061D01*
X73495226Y-93648102D01*
X73417205Y-93459744D01*
X73303937Y-93290226D01*
X73172866Y-93159155D01*
X73259744Y-93217205D01*
X73448102Y-93295226D01*
X73648061Y-93335000D01*
X73851939Y-93335000D01*
X74051898Y-93295226D01*
X74240256Y-93217205D01*
X74409774Y-93103937D01*
X74553937Y-92959774D01*
X74667205Y-92790256D01*
X74745226Y-92601898D01*
X74785000Y-92401939D01*
X74785000Y-92198061D01*
X74745226Y-91998102D01*
X74667205Y-91809744D01*
X74577172Y-91675000D01*
X74667205Y-91540256D01*
X74745226Y-91351898D01*
X74785000Y-91151939D01*
X74785000Y-91148061D01*
X91815000Y-91148061D01*
X91815000Y-91351939D01*
X91854774Y-91551898D01*
X91932795Y-91740256D01*
X92046063Y-91909774D01*
X92190226Y-92053937D01*
X92359744Y-92167205D01*
X92548102Y-92245226D01*
X92748061Y-92285000D01*
X92951939Y-92285000D01*
X93151898Y-92245226D01*
X93340256Y-92167205D01*
X93509774Y-92053937D01*
X93653937Y-91909774D01*
X93767205Y-91740256D01*
X93845226Y-91551898D01*
X93885000Y-91351939D01*
X93885000Y-91148061D01*
X93845226Y-90948102D01*
X93767205Y-90759744D01*
X93653937Y-90590226D01*
X93509774Y-90446063D01*
X93340256Y-90332795D01*
X93151898Y-90254774D01*
X92951939Y-90215000D01*
X92748061Y-90215000D01*
X92548102Y-90254774D01*
X92359744Y-90332795D01*
X92190226Y-90446063D01*
X92046063Y-90590226D01*
X91932795Y-90759744D01*
X91854774Y-90948102D01*
X91815000Y-91148061D01*
X74785000Y-91148061D01*
X74785000Y-90948061D01*
X74745226Y-90748102D01*
X74667205Y-90559744D01*
X74553937Y-90390226D01*
X74409774Y-90246063D01*
X74240256Y-90132795D01*
X74051898Y-90054774D01*
X73851939Y-90015000D01*
X73648061Y-90015000D01*
X73448102Y-90054774D01*
X73276640Y-90125796D01*
X73367205Y-89990256D01*
X73445226Y-89801898D01*
X73485000Y-89601939D01*
X73485000Y-89398061D01*
X73445226Y-89198102D01*
X73367205Y-89009744D01*
X73253937Y-88840226D01*
X73109774Y-88696063D01*
X72940256Y-88582795D01*
X72751898Y-88504774D01*
X72551939Y-88465000D01*
X72348061Y-88465000D01*
X72148102Y-88504774D01*
X71959744Y-88582795D01*
X71790226Y-88696063D01*
X71646063Y-88840226D01*
X71532795Y-89009744D01*
X71454774Y-89198102D01*
X71415000Y-89398061D01*
X54190000Y-89398061D01*
X54190000Y-89388740D01*
X54132932Y-89101842D01*
X54020990Y-88831589D01*
X53858475Y-88588368D01*
X53651632Y-88381525D01*
X53477240Y-88265000D01*
X53651632Y-88148475D01*
X53858475Y-87941632D01*
X53987814Y-87748061D01*
X72715000Y-87748061D01*
X72715000Y-87951939D01*
X72754774Y-88151898D01*
X72832795Y-88340256D01*
X72946063Y-88509774D01*
X73090226Y-88653937D01*
X73259744Y-88767205D01*
X73448102Y-88845226D01*
X73648061Y-88885000D01*
X73851939Y-88885000D01*
X74051898Y-88845226D01*
X74240256Y-88767205D01*
X74409774Y-88653937D01*
X74553937Y-88509774D01*
X74667205Y-88340256D01*
X74745226Y-88151898D01*
X74785000Y-87951939D01*
X74785000Y-87748061D01*
X74745226Y-87548102D01*
X74667205Y-87359744D01*
X74553937Y-87190226D01*
X74409774Y-87046063D01*
X74240256Y-86932795D01*
X74051898Y-86854774D01*
X73851939Y-86815000D01*
X73648061Y-86815000D01*
X73448102Y-86854774D01*
X73259744Y-86932795D01*
X73090226Y-87046063D01*
X72946063Y-87190226D01*
X72832795Y-87359744D01*
X72754774Y-87548102D01*
X72715000Y-87748061D01*
X53987814Y-87748061D01*
X54020990Y-87698411D01*
X54132932Y-87428158D01*
X54190000Y-87141260D01*
X54190000Y-86848740D01*
X54132932Y-86561842D01*
X54020990Y-86291589D01*
X53858475Y-86048368D01*
X53651632Y-85841525D01*
X53477240Y-85725000D01*
X53651632Y-85608475D01*
X53858475Y-85401632D01*
X54020990Y-85158411D01*
X54132932Y-84888158D01*
X54190000Y-84601260D01*
X54190000Y-84308740D01*
X54132932Y-84021842D01*
X54020990Y-83751589D01*
X53858475Y-83508368D01*
X53726620Y-83376513D01*
X53799180Y-83354502D01*
X53909494Y-83295537D01*
X54006185Y-83216185D01*
X54085537Y-83119494D01*
X54144502Y-83009180D01*
X54180812Y-82889482D01*
X54193072Y-82765000D01*
X54190000Y-82200750D01*
X54031250Y-82042000D01*
X52832000Y-82042000D01*
X52832000Y-82062000D01*
X52578000Y-82062000D01*
X52578000Y-82042000D01*
X51378750Y-82042000D01*
X51220000Y-82200750D01*
X51216928Y-82765000D01*
X50660000Y-82765000D01*
X50660000Y-81065000D01*
X51216928Y-81065000D01*
X51220000Y-81629250D01*
X51378750Y-81788000D01*
X52578000Y-81788000D01*
X52578000Y-80588750D01*
X52832000Y-80588750D01*
X52832000Y-81788000D01*
X54031250Y-81788000D01*
X54190000Y-81629250D01*
X54192619Y-81148061D01*
X71615000Y-81148061D01*
X71615000Y-81351939D01*
X71654774Y-81551898D01*
X71732795Y-81740256D01*
X71846063Y-81909774D01*
X71990226Y-82053937D01*
X72159744Y-82167205D01*
X72348102Y-82245226D01*
X72548061Y-82285000D01*
X72751939Y-82285000D01*
X72951898Y-82245226D01*
X73140256Y-82167205D01*
X73309774Y-82053937D01*
X73453937Y-81909774D01*
X73567205Y-81740256D01*
X73605393Y-81648061D01*
X83015000Y-81648061D01*
X83015000Y-81851939D01*
X83054774Y-82051898D01*
X83132795Y-82240256D01*
X83246063Y-82409774D01*
X83390226Y-82553937D01*
X83559744Y-82667205D01*
X83748102Y-82745226D01*
X83948061Y-82785000D01*
X84151939Y-82785000D01*
X84351898Y-82745226D01*
X84540256Y-82667205D01*
X84709774Y-82553937D01*
X84853937Y-82409774D01*
X84967205Y-82240256D01*
X85045226Y-82051898D01*
X85085000Y-81851939D01*
X85085000Y-81648061D01*
X85045226Y-81448102D01*
X84967205Y-81259744D01*
X84853937Y-81090226D01*
X84709774Y-80946063D01*
X84543556Y-80835000D01*
X84651939Y-80835000D01*
X84851898Y-80795226D01*
X85040256Y-80717205D01*
X85209774Y-80603937D01*
X85353937Y-80459774D01*
X85467205Y-80290256D01*
X85545226Y-80101898D01*
X85585000Y-79901939D01*
X85585000Y-79698061D01*
X85545226Y-79498102D01*
X85467205Y-79309744D01*
X85353937Y-79140226D01*
X85209774Y-78996063D01*
X85040256Y-78882795D01*
X84851898Y-78804774D01*
X84651939Y-78765000D01*
X84448061Y-78765000D01*
X84248102Y-78804774D01*
X84059744Y-78882795D01*
X83890226Y-78996063D01*
X83746063Y-79140226D01*
X83632795Y-79309744D01*
X83554774Y-79498102D01*
X83515000Y-79698061D01*
X83515000Y-79901939D01*
X83554774Y-80101898D01*
X83632795Y-80290256D01*
X83746063Y-80459774D01*
X83890226Y-80603937D01*
X84056444Y-80715000D01*
X83948061Y-80715000D01*
X83748102Y-80754774D01*
X83559744Y-80832795D01*
X83390226Y-80946063D01*
X83246063Y-81090226D01*
X83132795Y-81259744D01*
X83054774Y-81448102D01*
X83015000Y-81648061D01*
X73605393Y-81648061D01*
X73645226Y-81551898D01*
X73685000Y-81351939D01*
X73685000Y-81148061D01*
X73645226Y-80948102D01*
X73567205Y-80759744D01*
X73453937Y-80590226D01*
X73309774Y-80446063D01*
X73140256Y-80332795D01*
X72951898Y-80254774D01*
X72751939Y-80215000D01*
X72548061Y-80215000D01*
X72348102Y-80254774D01*
X72159744Y-80332795D01*
X71990226Y-80446063D01*
X71846063Y-80590226D01*
X71732795Y-80759744D01*
X71654774Y-80948102D01*
X71615000Y-81148061D01*
X54192619Y-81148061D01*
X54193072Y-81065000D01*
X54180812Y-80940518D01*
X54144502Y-80820820D01*
X54085537Y-80710506D01*
X54006185Y-80613815D01*
X53909494Y-80534463D01*
X53799180Y-80475498D01*
X53679482Y-80439188D01*
X53555000Y-80426928D01*
X52990750Y-80430000D01*
X52832000Y-80588750D01*
X52578000Y-80588750D01*
X52419250Y-80430000D01*
X51855000Y-80426928D01*
X51730518Y-80439188D01*
X51610820Y-80475498D01*
X51500506Y-80534463D01*
X51403815Y-80613815D01*
X51324463Y-80710506D01*
X51265498Y-80820820D01*
X51229188Y-80940518D01*
X51216928Y-81065000D01*
X50660000Y-81065000D01*
X50660000Y-66890000D01*
X51261928Y-66890000D01*
X51274188Y-67014482D01*
X51310498Y-67134180D01*
X51369463Y-67244494D01*
X51448815Y-67341185D01*
X51545506Y-67420537D01*
X51655820Y-67479502D01*
X51728380Y-67501513D01*
X51596525Y-67633368D01*
X51434010Y-67876589D01*
X51322068Y-68146842D01*
X51265000Y-68433740D01*
X51265000Y-68726260D01*
X51322068Y-69013158D01*
X51434010Y-69283411D01*
X51596525Y-69526632D01*
X51803368Y-69733475D01*
X51977760Y-69850000D01*
X51803368Y-69966525D01*
X51596525Y-70173368D01*
X51434010Y-70416589D01*
X51322068Y-70686842D01*
X51265000Y-70973740D01*
X51265000Y-71266260D01*
X51322068Y-71553158D01*
X51434010Y-71823411D01*
X51596525Y-72066632D01*
X51803368Y-72273475D01*
X51977760Y-72390000D01*
X51803368Y-72506525D01*
X51596525Y-72713368D01*
X51434010Y-72956589D01*
X51322068Y-73226842D01*
X51265000Y-73513740D01*
X51265000Y-73806260D01*
X51322068Y-74093158D01*
X51434010Y-74363411D01*
X51596525Y-74606632D01*
X51803368Y-74813475D01*
X52046589Y-74975990D01*
X52316842Y-75087932D01*
X52603740Y-75145000D01*
X52896260Y-75145000D01*
X53183158Y-75087932D01*
X53400126Y-74998061D01*
X63865000Y-74998061D01*
X63865000Y-75201939D01*
X63904774Y-75401898D01*
X63982795Y-75590256D01*
X64096063Y-75759774D01*
X64240226Y-75903937D01*
X64409744Y-76017205D01*
X64598102Y-76095226D01*
X64798061Y-76135000D01*
X65001939Y-76135000D01*
X65201898Y-76095226D01*
X65390256Y-76017205D01*
X65438454Y-75985000D01*
X107096928Y-75985000D01*
X107096928Y-77685000D01*
X107109188Y-77809482D01*
X107145498Y-77929180D01*
X107204463Y-78039494D01*
X107283815Y-78136185D01*
X107380506Y-78215537D01*
X107490820Y-78274502D01*
X107563380Y-78296513D01*
X107431525Y-78428368D01*
X107269010Y-78671589D01*
X107157068Y-78941842D01*
X107100000Y-79228740D01*
X107100000Y-79521260D01*
X107157068Y-79808158D01*
X107269010Y-80078411D01*
X107431525Y-80321632D01*
X107638368Y-80528475D01*
X107812760Y-80645000D01*
X107638368Y-80761525D01*
X107431525Y-80968368D01*
X107269010Y-81211589D01*
X107157068Y-81481842D01*
X107100000Y-81768740D01*
X107100000Y-82061260D01*
X107157068Y-82348158D01*
X107269010Y-82618411D01*
X107431525Y-82861632D01*
X107638368Y-83068475D01*
X107812760Y-83185000D01*
X107638368Y-83301525D01*
X107431525Y-83508368D01*
X107269010Y-83751589D01*
X107157068Y-84021842D01*
X107100000Y-84308740D01*
X107100000Y-84601260D01*
X107157068Y-84888158D01*
X107269010Y-85158411D01*
X107431525Y-85401632D01*
X107638368Y-85608475D01*
X107812760Y-85725000D01*
X107638368Y-85841525D01*
X107431525Y-86048368D01*
X107269010Y-86291589D01*
X107157068Y-86561842D01*
X107100000Y-86848740D01*
X107100000Y-87141260D01*
X107157068Y-87428158D01*
X107269010Y-87698411D01*
X107431525Y-87941632D01*
X107638368Y-88148475D01*
X107812760Y-88265000D01*
X107638368Y-88381525D01*
X107431525Y-88588368D01*
X107269010Y-88831589D01*
X107157068Y-89101842D01*
X107100000Y-89388740D01*
X107100000Y-89681260D01*
X107157068Y-89968158D01*
X107269010Y-90238411D01*
X107431525Y-90481632D01*
X107638368Y-90688475D01*
X107812760Y-90805000D01*
X107638368Y-90921525D01*
X107431525Y-91128368D01*
X107269010Y-91371589D01*
X107157068Y-91641842D01*
X107100000Y-91928740D01*
X107100000Y-92221260D01*
X107157068Y-92508158D01*
X107269010Y-92778411D01*
X107431525Y-93021632D01*
X107638368Y-93228475D01*
X107812760Y-93345000D01*
X107638368Y-93461525D01*
X107431525Y-93668368D01*
X107269010Y-93911589D01*
X107157068Y-94181842D01*
X107100000Y-94468740D01*
X107100000Y-94761260D01*
X107157068Y-95048158D01*
X107269010Y-95318411D01*
X107431525Y-95561632D01*
X107638368Y-95768475D01*
X107881589Y-95930990D01*
X108151842Y-96042932D01*
X108438740Y-96100000D01*
X108731260Y-96100000D01*
X109018158Y-96042932D01*
X109288411Y-95930990D01*
X109531632Y-95768475D01*
X109738475Y-95561632D01*
X109900990Y-95318411D01*
X110012932Y-95048158D01*
X110070000Y-94761260D01*
X110070000Y-94468740D01*
X110012932Y-94181842D01*
X109900990Y-93911589D01*
X109738475Y-93668368D01*
X109531632Y-93461525D01*
X109357240Y-93345000D01*
X109531632Y-93228475D01*
X109738475Y-93021632D01*
X109900990Y-92778411D01*
X110012932Y-92508158D01*
X110070000Y-92221260D01*
X110070000Y-91928740D01*
X110012932Y-91641842D01*
X109900990Y-91371589D01*
X109738475Y-91128368D01*
X109531632Y-90921525D01*
X109357240Y-90805000D01*
X109531632Y-90688475D01*
X109738475Y-90481632D01*
X109900990Y-90238411D01*
X110012932Y-89968158D01*
X110070000Y-89681260D01*
X110070000Y-89388740D01*
X110012932Y-89101842D01*
X109900990Y-88831589D01*
X109738475Y-88588368D01*
X109531632Y-88381525D01*
X109357240Y-88265000D01*
X109531632Y-88148475D01*
X109738475Y-87941632D01*
X109900990Y-87698411D01*
X110012932Y-87428158D01*
X110070000Y-87141260D01*
X110070000Y-86848740D01*
X110012932Y-86561842D01*
X109900990Y-86291589D01*
X109738475Y-86048368D01*
X109531632Y-85841525D01*
X109357240Y-85725000D01*
X109531632Y-85608475D01*
X109738475Y-85401632D01*
X109900990Y-85158411D01*
X110012932Y-84888158D01*
X110070000Y-84601260D01*
X110070000Y-84308740D01*
X110012932Y-84021842D01*
X109900990Y-83751589D01*
X109738475Y-83508368D01*
X109531632Y-83301525D01*
X109357240Y-83185000D01*
X109531632Y-83068475D01*
X109738475Y-82861632D01*
X109900990Y-82618411D01*
X110012932Y-82348158D01*
X110070000Y-82061260D01*
X110070000Y-81768740D01*
X110012932Y-81481842D01*
X109900990Y-81211589D01*
X109738475Y-80968368D01*
X109531632Y-80761525D01*
X109357240Y-80645000D01*
X109531632Y-80528475D01*
X109738475Y-80321632D01*
X109900990Y-80078411D01*
X110012932Y-79808158D01*
X110070000Y-79521260D01*
X110070000Y-79228740D01*
X110012932Y-78941842D01*
X109900990Y-78671589D01*
X109738475Y-78428368D01*
X109606620Y-78296513D01*
X109679180Y-78274502D01*
X109789494Y-78215537D01*
X109886185Y-78136185D01*
X109965537Y-78039494D01*
X110024502Y-77929180D01*
X110060812Y-77809482D01*
X110073072Y-77685000D01*
X110073072Y-75985000D01*
X110060812Y-75860518D01*
X110024502Y-75740820D01*
X109965537Y-75630506D01*
X109886185Y-75533815D01*
X109789494Y-75454463D01*
X109679180Y-75395498D01*
X109559482Y-75359188D01*
X109435000Y-75346928D01*
X107735000Y-75346928D01*
X107610518Y-75359188D01*
X107490820Y-75395498D01*
X107380506Y-75454463D01*
X107283815Y-75533815D01*
X107204463Y-75630506D01*
X107145498Y-75740820D01*
X107109188Y-75860518D01*
X107096928Y-75985000D01*
X65438454Y-75985000D01*
X65559774Y-75903937D01*
X65703937Y-75759774D01*
X65817205Y-75590256D01*
X65895226Y-75401898D01*
X65935000Y-75201939D01*
X65935000Y-74998061D01*
X65895226Y-74798102D01*
X65817205Y-74609744D01*
X65703937Y-74440226D01*
X65559774Y-74296063D01*
X65390256Y-74182795D01*
X65201898Y-74104774D01*
X65001939Y-74065000D01*
X64798061Y-74065000D01*
X64598102Y-74104774D01*
X64409744Y-74182795D01*
X64240226Y-74296063D01*
X64096063Y-74440226D01*
X63982795Y-74609744D01*
X63904774Y-74798102D01*
X63865000Y-74998061D01*
X53400126Y-74998061D01*
X53453411Y-74975990D01*
X53696632Y-74813475D01*
X53903475Y-74606632D01*
X54065990Y-74363411D01*
X54177932Y-74093158D01*
X54186902Y-74048061D01*
X67465000Y-74048061D01*
X67465000Y-74251939D01*
X67504774Y-74451898D01*
X67582795Y-74640256D01*
X67696063Y-74809774D01*
X67840226Y-74953937D01*
X68009744Y-75067205D01*
X68198102Y-75145226D01*
X68398061Y-75185000D01*
X68601939Y-75185000D01*
X68801898Y-75145226D01*
X68990256Y-75067205D01*
X69150000Y-74960468D01*
X69309744Y-75067205D01*
X69498102Y-75145226D01*
X69698061Y-75185000D01*
X69901939Y-75185000D01*
X70101898Y-75145226D01*
X70290256Y-75067205D01*
X70459774Y-74953937D01*
X70603937Y-74809774D01*
X70717205Y-74640256D01*
X70795226Y-74451898D01*
X70835000Y-74251939D01*
X70835000Y-74048061D01*
X70795226Y-73848102D01*
X70717205Y-73659744D01*
X70709399Y-73648061D01*
X73465000Y-73648061D01*
X73465000Y-73851939D01*
X73504774Y-74051898D01*
X73582795Y-74240256D01*
X73696063Y-74409774D01*
X73840226Y-74553937D01*
X74009744Y-74667205D01*
X74198102Y-74745226D01*
X74398061Y-74785000D01*
X74601939Y-74785000D01*
X74801898Y-74745226D01*
X74990256Y-74667205D01*
X75159774Y-74553937D01*
X75303937Y-74409774D01*
X75417205Y-74240256D01*
X75495226Y-74051898D01*
X75535000Y-73851939D01*
X75535000Y-73648061D01*
X75495226Y-73448102D01*
X75417205Y-73259744D01*
X75342582Y-73148061D01*
X100215000Y-73148061D01*
X100215000Y-73351939D01*
X100254774Y-73551898D01*
X100332795Y-73740256D01*
X100446063Y-73909774D01*
X100590226Y-74053937D01*
X100759744Y-74167205D01*
X100948102Y-74245226D01*
X101148061Y-74285000D01*
X101351939Y-74285000D01*
X101551898Y-74245226D01*
X101740256Y-74167205D01*
X101909774Y-74053937D01*
X102053937Y-73909774D01*
X102167205Y-73740256D01*
X102245226Y-73551898D01*
X102285000Y-73351939D01*
X102285000Y-73148061D01*
X102245226Y-72948102D01*
X102167205Y-72759744D01*
X102053937Y-72590226D01*
X101909774Y-72446063D01*
X101740256Y-72332795D01*
X101551898Y-72254774D01*
X101351939Y-72215000D01*
X101148061Y-72215000D01*
X100948102Y-72254774D01*
X100759744Y-72332795D01*
X100590226Y-72446063D01*
X100446063Y-72590226D01*
X100332795Y-72759744D01*
X100254774Y-72948102D01*
X100215000Y-73148061D01*
X75342582Y-73148061D01*
X75303937Y-73090226D01*
X75159774Y-72946063D01*
X74990256Y-72832795D01*
X74801898Y-72754774D01*
X74601939Y-72715000D01*
X74398061Y-72715000D01*
X74198102Y-72754774D01*
X74009744Y-72832795D01*
X73840226Y-72946063D01*
X73696063Y-73090226D01*
X73582795Y-73259744D01*
X73504774Y-73448102D01*
X73465000Y-73648061D01*
X70709399Y-73648061D01*
X70603937Y-73490226D01*
X70459774Y-73346063D01*
X70290256Y-73232795D01*
X70101898Y-73154774D01*
X69901939Y-73115000D01*
X69698061Y-73115000D01*
X69498102Y-73154774D01*
X69309744Y-73232795D01*
X69150000Y-73339532D01*
X68990256Y-73232795D01*
X68801898Y-73154774D01*
X68601939Y-73115000D01*
X68398061Y-73115000D01*
X68198102Y-73154774D01*
X68009744Y-73232795D01*
X67840226Y-73346063D01*
X67696063Y-73490226D01*
X67582795Y-73659744D01*
X67504774Y-73848102D01*
X67465000Y-74048061D01*
X54186902Y-74048061D01*
X54235000Y-73806260D01*
X54235000Y-73513740D01*
X54177932Y-73226842D01*
X54065990Y-72956589D01*
X53993474Y-72848061D01*
X63065000Y-72848061D01*
X63065000Y-73051939D01*
X63104774Y-73251898D01*
X63182795Y-73440256D01*
X63296063Y-73609774D01*
X63440226Y-73753937D01*
X63609744Y-73867205D01*
X63798102Y-73945226D01*
X63998061Y-73985000D01*
X64201939Y-73985000D01*
X64401898Y-73945226D01*
X64590256Y-73867205D01*
X64759774Y-73753937D01*
X64903937Y-73609774D01*
X65017205Y-73440256D01*
X65095226Y-73251898D01*
X65135000Y-73051939D01*
X65135000Y-72848061D01*
X65095226Y-72648102D01*
X65017205Y-72459744D01*
X64903937Y-72290226D01*
X64759774Y-72146063D01*
X64590256Y-72032795D01*
X64401898Y-71954774D01*
X64201939Y-71915000D01*
X63998061Y-71915000D01*
X63798102Y-71954774D01*
X63609744Y-72032795D01*
X63440226Y-72146063D01*
X63296063Y-72290226D01*
X63182795Y-72459744D01*
X63104774Y-72648102D01*
X63065000Y-72848061D01*
X53993474Y-72848061D01*
X53903475Y-72713368D01*
X53696632Y-72506525D01*
X53522240Y-72390000D01*
X53696632Y-72273475D01*
X53903475Y-72066632D01*
X54065990Y-71823411D01*
X54177932Y-71553158D01*
X54235000Y-71266260D01*
X54235000Y-70973740D01*
X54177932Y-70686842D01*
X54141158Y-70598061D01*
X67365000Y-70598061D01*
X67365000Y-70801939D01*
X67404774Y-71001898D01*
X67482795Y-71190256D01*
X67596063Y-71359774D01*
X67740226Y-71503937D01*
X67909744Y-71617205D01*
X68098102Y-71695226D01*
X68298061Y-71735000D01*
X68501939Y-71735000D01*
X68701898Y-71695226D01*
X68890256Y-71617205D01*
X69059774Y-71503937D01*
X69203937Y-71359774D01*
X69317205Y-71190256D01*
X69395226Y-71001898D01*
X69435000Y-70801939D01*
X69435000Y-70648061D01*
X78465000Y-70648061D01*
X78465000Y-70851939D01*
X78504774Y-71051898D01*
X78582795Y-71240256D01*
X78696063Y-71409774D01*
X78840226Y-71553937D01*
X79009744Y-71667205D01*
X79198102Y-71745226D01*
X79398061Y-71785000D01*
X79601939Y-71785000D01*
X79801898Y-71745226D01*
X79990256Y-71667205D01*
X80159774Y-71553937D01*
X80303937Y-71409774D01*
X80417205Y-71240256D01*
X80495226Y-71051898D01*
X80535000Y-70851939D01*
X80535000Y-70648061D01*
X80495226Y-70448102D01*
X80417205Y-70259744D01*
X80303937Y-70090226D01*
X80159774Y-69946063D01*
X79990256Y-69832795D01*
X79801898Y-69754774D01*
X79601939Y-69715000D01*
X79398061Y-69715000D01*
X79198102Y-69754774D01*
X79009744Y-69832795D01*
X78840226Y-69946063D01*
X78696063Y-70090226D01*
X78582795Y-70259744D01*
X78504774Y-70448102D01*
X78465000Y-70648061D01*
X69435000Y-70648061D01*
X69435000Y-70598061D01*
X69395226Y-70398102D01*
X69317205Y-70209744D01*
X69203937Y-70040226D01*
X69059774Y-69896063D01*
X69010808Y-69863345D01*
X69101898Y-69845226D01*
X69290256Y-69767205D01*
X69459774Y-69653937D01*
X69603937Y-69509774D01*
X69717205Y-69340256D01*
X69795226Y-69151898D01*
X69835000Y-68951939D01*
X69835000Y-68748061D01*
X69795226Y-68548102D01*
X69717205Y-68359744D01*
X69618877Y-68212585D01*
X69667205Y-68140256D01*
X69745226Y-67951898D01*
X69785000Y-67751939D01*
X69785000Y-67598061D01*
X82015000Y-67598061D01*
X82015000Y-67801939D01*
X82054774Y-68001898D01*
X82132795Y-68190256D01*
X82246063Y-68359774D01*
X82390226Y-68503937D01*
X82559744Y-68617205D01*
X82748102Y-68695226D01*
X82948061Y-68735000D01*
X83151939Y-68735000D01*
X83351898Y-68695226D01*
X83540256Y-68617205D01*
X83709774Y-68503937D01*
X83853937Y-68359774D01*
X83967205Y-68190256D01*
X84045226Y-68001898D01*
X84085000Y-67801939D01*
X84085000Y-67598061D01*
X84045226Y-67398102D01*
X83967205Y-67209744D01*
X83853937Y-67040226D01*
X83811772Y-66998061D01*
X84515000Y-66998061D01*
X84515000Y-67201939D01*
X84554774Y-67401898D01*
X84632795Y-67590256D01*
X84746063Y-67759774D01*
X84890226Y-67903937D01*
X85059744Y-68017205D01*
X85248102Y-68095226D01*
X85448061Y-68135000D01*
X85651939Y-68135000D01*
X85851898Y-68095226D01*
X86040256Y-68017205D01*
X86209774Y-67903937D01*
X86353937Y-67759774D01*
X86467205Y-67590256D01*
X86545226Y-67401898D01*
X86585000Y-67201939D01*
X86585000Y-66998061D01*
X86545226Y-66798102D01*
X86467205Y-66609744D01*
X86353937Y-66440226D01*
X86209774Y-66296063D01*
X86040256Y-66182795D01*
X85851898Y-66104774D01*
X85651939Y-66065000D01*
X85448061Y-66065000D01*
X85248102Y-66104774D01*
X85059744Y-66182795D01*
X84890226Y-66296063D01*
X84746063Y-66440226D01*
X84632795Y-66609744D01*
X84554774Y-66798102D01*
X84515000Y-66998061D01*
X83811772Y-66998061D01*
X83709774Y-66896063D01*
X83540256Y-66782795D01*
X83351898Y-66704774D01*
X83151939Y-66665000D01*
X82948061Y-66665000D01*
X82748102Y-66704774D01*
X82559744Y-66782795D01*
X82390226Y-66896063D01*
X82246063Y-67040226D01*
X82132795Y-67209744D01*
X82054774Y-67398102D01*
X82015000Y-67598061D01*
X69785000Y-67598061D01*
X69785000Y-67548061D01*
X69745226Y-67348102D01*
X69667205Y-67159744D01*
X69553937Y-66990226D01*
X69409774Y-66846063D01*
X69240256Y-66732795D01*
X69051898Y-66654774D01*
X68851939Y-66615000D01*
X68648061Y-66615000D01*
X68448102Y-66654774D01*
X68259744Y-66732795D01*
X68090226Y-66846063D01*
X67946063Y-66990226D01*
X67832795Y-67159744D01*
X67754774Y-67348102D01*
X67715000Y-67548061D01*
X67715000Y-67751939D01*
X67754774Y-67951898D01*
X67832795Y-68140256D01*
X67931123Y-68287415D01*
X67882795Y-68359744D01*
X67804774Y-68548102D01*
X67765000Y-68748061D01*
X67765000Y-68951939D01*
X67804774Y-69151898D01*
X67882795Y-69340256D01*
X67996063Y-69509774D01*
X68140226Y-69653937D01*
X68189192Y-69686655D01*
X68098102Y-69704774D01*
X67909744Y-69782795D01*
X67740226Y-69896063D01*
X67596063Y-70040226D01*
X67482795Y-70209744D01*
X67404774Y-70398102D01*
X67365000Y-70598061D01*
X54141158Y-70598061D01*
X54065990Y-70416589D01*
X53903475Y-70173368D01*
X53696632Y-69966525D01*
X53522240Y-69850000D01*
X53696632Y-69733475D01*
X53903475Y-69526632D01*
X54065990Y-69283411D01*
X54177932Y-69013158D01*
X54235000Y-68726260D01*
X54235000Y-68433740D01*
X54177932Y-68146842D01*
X54065990Y-67876589D01*
X53903475Y-67633368D01*
X53771620Y-67501513D01*
X53844180Y-67479502D01*
X53954494Y-67420537D01*
X54051185Y-67341185D01*
X54130537Y-67244494D01*
X54189502Y-67134180D01*
X54225812Y-67014482D01*
X54238072Y-66890000D01*
X54235000Y-66325750D01*
X54076250Y-66167000D01*
X52877000Y-66167000D01*
X52877000Y-66187000D01*
X52623000Y-66187000D01*
X52623000Y-66167000D01*
X51423750Y-66167000D01*
X51265000Y-66325750D01*
X51261928Y-66890000D01*
X50660000Y-66890000D01*
X50660000Y-65190000D01*
X51261928Y-65190000D01*
X51265000Y-65754250D01*
X51423750Y-65913000D01*
X52623000Y-65913000D01*
X52623000Y-64713750D01*
X52877000Y-64713750D01*
X52877000Y-65913000D01*
X54076250Y-65913000D01*
X54235000Y-65754250D01*
X54237755Y-65248061D01*
X67715000Y-65248061D01*
X67715000Y-65451939D01*
X67754774Y-65651898D01*
X67832795Y-65840256D01*
X67946063Y-66009774D01*
X68090226Y-66153937D01*
X68259744Y-66267205D01*
X68448102Y-66345226D01*
X68648061Y-66385000D01*
X68851939Y-66385000D01*
X69051898Y-66345226D01*
X69240256Y-66267205D01*
X69409774Y-66153937D01*
X69553937Y-66009774D01*
X69667205Y-65840256D01*
X69745226Y-65651898D01*
X69785000Y-65451939D01*
X69785000Y-65248061D01*
X69745226Y-65048102D01*
X69724499Y-64998061D01*
X73215000Y-64998061D01*
X73215000Y-65201939D01*
X73254774Y-65401898D01*
X73332795Y-65590256D01*
X73446063Y-65759774D01*
X73590226Y-65903937D01*
X73759744Y-66017205D01*
X73948102Y-66095226D01*
X74148061Y-66135000D01*
X74351939Y-66135000D01*
X74551898Y-66095226D01*
X74740256Y-66017205D01*
X74909774Y-65903937D01*
X75053937Y-65759774D01*
X75167205Y-65590256D01*
X75245226Y-65401898D01*
X75268478Y-65285000D01*
X75351939Y-65285000D01*
X75551898Y-65245226D01*
X75740256Y-65167205D01*
X75909774Y-65053937D01*
X76053937Y-64909774D01*
X76167205Y-64740256D01*
X76245226Y-64551898D01*
X76285000Y-64351939D01*
X76285000Y-64198061D01*
X87365000Y-64198061D01*
X87365000Y-64401939D01*
X87404774Y-64601898D01*
X87482795Y-64790256D01*
X87596063Y-64959774D01*
X87740226Y-65103937D01*
X87909744Y-65217205D01*
X88098102Y-65295226D01*
X88298061Y-65335000D01*
X88501939Y-65335000D01*
X88701898Y-65295226D01*
X88890256Y-65217205D01*
X89059774Y-65103937D01*
X89203937Y-64959774D01*
X89317205Y-64790256D01*
X89395226Y-64601898D01*
X89435000Y-64401939D01*
X89435000Y-64198061D01*
X89395226Y-63998102D01*
X89353788Y-63898061D01*
X101215000Y-63898061D01*
X101215000Y-64101939D01*
X101254774Y-64301898D01*
X101332795Y-64490256D01*
X101446063Y-64659774D01*
X101590226Y-64803937D01*
X101759744Y-64917205D01*
X101948102Y-64995226D01*
X102148061Y-65035000D01*
X102351939Y-65035000D01*
X102551898Y-64995226D01*
X102740256Y-64917205D01*
X102909774Y-64803937D01*
X103053937Y-64659774D01*
X103167205Y-64490256D01*
X103245226Y-64301898D01*
X103285000Y-64101939D01*
X103285000Y-63898061D01*
X103245226Y-63698102D01*
X103167205Y-63509744D01*
X103053937Y-63340226D01*
X102909774Y-63196063D01*
X102740256Y-63082795D01*
X102551898Y-63004774D01*
X102351939Y-62965000D01*
X102148061Y-62965000D01*
X101948102Y-63004774D01*
X101759744Y-63082795D01*
X101590226Y-63196063D01*
X101446063Y-63340226D01*
X101332795Y-63509744D01*
X101254774Y-63698102D01*
X101215000Y-63898061D01*
X89353788Y-63898061D01*
X89317205Y-63809744D01*
X89203937Y-63640226D01*
X89059774Y-63496063D01*
X88890256Y-63382795D01*
X88701898Y-63304774D01*
X88501939Y-63265000D01*
X88298061Y-63265000D01*
X88098102Y-63304774D01*
X87909744Y-63382795D01*
X87740226Y-63496063D01*
X87596063Y-63640226D01*
X87482795Y-63809744D01*
X87404774Y-63998102D01*
X87365000Y-64198061D01*
X76285000Y-64198061D01*
X76285000Y-64148061D01*
X76245226Y-63948102D01*
X76167205Y-63759744D01*
X76053937Y-63590226D01*
X75909774Y-63446063D01*
X75740256Y-63332795D01*
X75551898Y-63254774D01*
X75351939Y-63215000D01*
X75148061Y-63215000D01*
X74948102Y-63254774D01*
X74759744Y-63332795D01*
X74590226Y-63446063D01*
X74446063Y-63590226D01*
X74332795Y-63759744D01*
X74254774Y-63948102D01*
X74231522Y-64065000D01*
X74148061Y-64065000D01*
X73948102Y-64104774D01*
X73759744Y-64182795D01*
X73590226Y-64296063D01*
X73446063Y-64440226D01*
X73332795Y-64609744D01*
X73254774Y-64798102D01*
X73215000Y-64998061D01*
X69724499Y-64998061D01*
X69667205Y-64859744D01*
X69553937Y-64690226D01*
X69409774Y-64546063D01*
X69240256Y-64432795D01*
X69051898Y-64354774D01*
X68851939Y-64315000D01*
X68648061Y-64315000D01*
X68448102Y-64354774D01*
X68259744Y-64432795D01*
X68090226Y-64546063D01*
X67946063Y-64690226D01*
X67832795Y-64859744D01*
X67754774Y-65048102D01*
X67715000Y-65248061D01*
X54237755Y-65248061D01*
X54238072Y-65190000D01*
X54225812Y-65065518D01*
X54189502Y-64945820D01*
X54130537Y-64835506D01*
X54051185Y-64738815D01*
X53954494Y-64659463D01*
X53844180Y-64600498D01*
X53724482Y-64564188D01*
X53600000Y-64551928D01*
X53035750Y-64555000D01*
X52877000Y-64713750D01*
X52623000Y-64713750D01*
X52464250Y-64555000D01*
X51900000Y-64551928D01*
X51775518Y-64564188D01*
X51655820Y-64600498D01*
X51545506Y-64659463D01*
X51448815Y-64738815D01*
X51369463Y-64835506D01*
X51310498Y-64945820D01*
X51274188Y-65065518D01*
X51261928Y-65190000D01*
X50660000Y-65190000D01*
X50660000Y-55777089D01*
X50702187Y-55263945D01*
X50815000Y-55263945D01*
X50815000Y-56236055D01*
X51004650Y-57189486D01*
X51376660Y-58087599D01*
X51916735Y-58895879D01*
X52604121Y-59583265D01*
X53412401Y-60123340D01*
X54310514Y-60495350D01*
X55263945Y-60685000D01*
X56236055Y-60685000D01*
X57189486Y-60495350D01*
X58087599Y-60123340D01*
X58895879Y-59583265D01*
X59583265Y-58895879D01*
X59815669Y-58548061D01*
X65915000Y-58548061D01*
X65915000Y-58751939D01*
X65954774Y-58951898D01*
X66032795Y-59140256D01*
X66146063Y-59309774D01*
X66290226Y-59453937D01*
X66459744Y-59567205D01*
X66648102Y-59645226D01*
X66848061Y-59685000D01*
X67051939Y-59685000D01*
X67251898Y-59645226D01*
X67440256Y-59567205D01*
X67609774Y-59453937D01*
X67753937Y-59309774D01*
X67867205Y-59140256D01*
X67945226Y-58951898D01*
X67985000Y-58751939D01*
X67985000Y-58548061D01*
X71165000Y-58548061D01*
X71165000Y-58751939D01*
X71204774Y-58951898D01*
X71282795Y-59140256D01*
X71396063Y-59309774D01*
X71540226Y-59453937D01*
X71709744Y-59567205D01*
X71898102Y-59645226D01*
X72098061Y-59685000D01*
X72301939Y-59685000D01*
X72501898Y-59645226D01*
X72690256Y-59567205D01*
X72859774Y-59453937D01*
X73003937Y-59309774D01*
X73117205Y-59140256D01*
X73195226Y-58951898D01*
X73235000Y-58751939D01*
X73235000Y-58548061D01*
X73195226Y-58348102D01*
X73117205Y-58159744D01*
X73003937Y-57990226D01*
X72859774Y-57846063D01*
X72690256Y-57732795D01*
X72501898Y-57654774D01*
X72301939Y-57615000D01*
X72098061Y-57615000D01*
X71898102Y-57654774D01*
X71709744Y-57732795D01*
X71540226Y-57846063D01*
X71396063Y-57990226D01*
X71282795Y-58159744D01*
X71204774Y-58348102D01*
X71165000Y-58548061D01*
X67985000Y-58548061D01*
X67945226Y-58348102D01*
X67867205Y-58159744D01*
X67753937Y-57990226D01*
X67609774Y-57846063D01*
X67440256Y-57732795D01*
X67251898Y-57654774D01*
X67051939Y-57615000D01*
X66848061Y-57615000D01*
X66648102Y-57654774D01*
X66459744Y-57732795D01*
X66290226Y-57846063D01*
X66146063Y-57990226D01*
X66032795Y-58159744D01*
X65954774Y-58348102D01*
X65915000Y-58548061D01*
X59815669Y-58548061D01*
X60123340Y-58087599D01*
X60495350Y-57189486D01*
X60615874Y-56583573D01*
X60753202Y-56720901D01*
X60957926Y-56857693D01*
X61185402Y-56951917D01*
X61426890Y-56999952D01*
X61673110Y-56999952D01*
X61914598Y-56951917D01*
X62044617Y-56898061D01*
X89415000Y-56898061D01*
X89415000Y-57101939D01*
X89454774Y-57301898D01*
X89532795Y-57490256D01*
X89646063Y-57659774D01*
X89790226Y-57803937D01*
X89959744Y-57917205D01*
X90148102Y-57995226D01*
X90348061Y-58035000D01*
X90551939Y-58035000D01*
X90751898Y-57995226D01*
X90940256Y-57917205D01*
X91109774Y-57803937D01*
X91253937Y-57659774D01*
X91367205Y-57490256D01*
X91445226Y-57301898D01*
X91485000Y-57101939D01*
X91485000Y-56898061D01*
X91965000Y-56898061D01*
X91965000Y-57101939D01*
X92004774Y-57301898D01*
X92082795Y-57490256D01*
X92196063Y-57659774D01*
X92340226Y-57803937D01*
X92509744Y-57917205D01*
X92698102Y-57995226D01*
X92898061Y-58035000D01*
X93101939Y-58035000D01*
X93301898Y-57995226D01*
X93490256Y-57917205D01*
X93625000Y-57827172D01*
X93759744Y-57917205D01*
X93948102Y-57995226D01*
X94148061Y-58035000D01*
X94351939Y-58035000D01*
X94551898Y-57995226D01*
X94740256Y-57917205D01*
X94909774Y-57803937D01*
X95053937Y-57659774D01*
X95167205Y-57490256D01*
X95245226Y-57301898D01*
X95285000Y-57101939D01*
X95285000Y-56898061D01*
X95245226Y-56698102D01*
X95167205Y-56509744D01*
X95053937Y-56340226D01*
X94909774Y-56196063D01*
X94740256Y-56082795D01*
X94551898Y-56004774D01*
X94351939Y-55965000D01*
X94148061Y-55965000D01*
X93948102Y-56004774D01*
X93759744Y-56082795D01*
X93625000Y-56172828D01*
X93490256Y-56082795D01*
X93301898Y-56004774D01*
X93101939Y-55965000D01*
X92898061Y-55965000D01*
X92698102Y-56004774D01*
X92509744Y-56082795D01*
X92340226Y-56196063D01*
X92196063Y-56340226D01*
X92082795Y-56509744D01*
X92004774Y-56698102D01*
X91965000Y-56898061D01*
X91485000Y-56898061D01*
X91445226Y-56698102D01*
X91367205Y-56509744D01*
X91253937Y-56340226D01*
X91109774Y-56196063D01*
X90940256Y-56082795D01*
X90751898Y-56004774D01*
X90551939Y-55965000D01*
X90348061Y-55965000D01*
X90148102Y-56004774D01*
X89959744Y-56082795D01*
X89790226Y-56196063D01*
X89646063Y-56340226D01*
X89532795Y-56509744D01*
X89454774Y-56698102D01*
X89415000Y-56898061D01*
X62044617Y-56898061D01*
X62142074Y-56857693D01*
X62346798Y-56720901D01*
X62520901Y-56546798D01*
X62657693Y-56342074D01*
X62751917Y-56114598D01*
X62799952Y-55873110D01*
X62799952Y-55626890D01*
X62751917Y-55385402D01*
X62657693Y-55157926D01*
X62617693Y-55098061D01*
X78965000Y-55098061D01*
X78965000Y-55301939D01*
X79004774Y-55501898D01*
X79082795Y-55690256D01*
X79196063Y-55859774D01*
X79340226Y-56003937D01*
X79509744Y-56117205D01*
X79698102Y-56195226D01*
X79898061Y-56235000D01*
X80101939Y-56235000D01*
X80301898Y-56195226D01*
X80490256Y-56117205D01*
X80659774Y-56003937D01*
X80803937Y-55859774D01*
X80917205Y-55690256D01*
X80943452Y-55626890D01*
X98750048Y-55626890D01*
X98750048Y-55873110D01*
X98798083Y-56114598D01*
X98892307Y-56342074D01*
X99029099Y-56546798D01*
X99203202Y-56720901D01*
X99407926Y-56857693D01*
X99635402Y-56951917D01*
X99876890Y-56999952D01*
X100123110Y-56999952D01*
X100364598Y-56951917D01*
X100592074Y-56857693D01*
X100796798Y-56720901D01*
X100892421Y-56625278D01*
X101004650Y-57189486D01*
X101376660Y-58087599D01*
X101916735Y-58895879D01*
X102604121Y-59583265D01*
X103412401Y-60123340D01*
X104310514Y-60495350D01*
X105263945Y-60685000D01*
X106236055Y-60685000D01*
X107189486Y-60495350D01*
X108087599Y-60123340D01*
X108895879Y-59583265D01*
X109583265Y-58895879D01*
X110123340Y-58087599D01*
X110495350Y-57189486D01*
X110685000Y-56236055D01*
X110685000Y-55263945D01*
X110495350Y-54310514D01*
X110123340Y-53412401D01*
X109583265Y-52604121D01*
X108895879Y-51916735D01*
X108087599Y-51376660D01*
X107189486Y-51004650D01*
X106236055Y-50815000D01*
X105263945Y-50815000D01*
X104310514Y-51004650D01*
X103412401Y-51376660D01*
X102604121Y-51916735D01*
X101916735Y-52604121D01*
X101376660Y-53412401D01*
X101004650Y-54310514D01*
X100892421Y-54874722D01*
X100796798Y-54779099D01*
X100592074Y-54642307D01*
X100364598Y-54548083D01*
X100123110Y-54500048D01*
X99876890Y-54500048D01*
X99635402Y-54548083D01*
X99407926Y-54642307D01*
X99203202Y-54779099D01*
X99029099Y-54953202D01*
X98892307Y-55157926D01*
X98798083Y-55385402D01*
X98750048Y-55626890D01*
X80943452Y-55626890D01*
X80995226Y-55501898D01*
X81035000Y-55301939D01*
X81035000Y-55098061D01*
X80995226Y-54898102D01*
X80917205Y-54709744D01*
X80803937Y-54540226D01*
X80659774Y-54396063D01*
X80490256Y-54282795D01*
X80301898Y-54204774D01*
X80101939Y-54165000D01*
X79898061Y-54165000D01*
X79698102Y-54204774D01*
X79509744Y-54282795D01*
X79340226Y-54396063D01*
X79196063Y-54540226D01*
X79082795Y-54709744D01*
X79004774Y-54898102D01*
X78965000Y-55098061D01*
X62617693Y-55098061D01*
X62520901Y-54953202D01*
X62346798Y-54779099D01*
X62142074Y-54642307D01*
X61914598Y-54548083D01*
X61673110Y-54500048D01*
X61426890Y-54500048D01*
X61185402Y-54548083D01*
X60957926Y-54642307D01*
X60753202Y-54779099D01*
X60615874Y-54916427D01*
X60495350Y-54310514D01*
X60123340Y-53412401D01*
X59583265Y-52604121D01*
X58895879Y-51916735D01*
X58845596Y-51883137D01*
X79665000Y-51883137D01*
X79665000Y-52096863D01*
X79706696Y-52306483D01*
X79788485Y-52503940D01*
X79907225Y-52681647D01*
X80058353Y-52832775D01*
X80236060Y-52951515D01*
X80433517Y-53033304D01*
X80643137Y-53075000D01*
X80856863Y-53075000D01*
X81066483Y-53033304D01*
X81263940Y-52951515D01*
X81441647Y-52832775D01*
X81592775Y-52681647D01*
X81711515Y-52503940D01*
X81793304Y-52306483D01*
X81835000Y-52096863D01*
X81835000Y-51883137D01*
X82665000Y-51883137D01*
X82665000Y-52096863D01*
X82706696Y-52306483D01*
X82788485Y-52503940D01*
X82907225Y-52681647D01*
X83058353Y-52832775D01*
X83236060Y-52951515D01*
X83433517Y-53033304D01*
X83643137Y-53075000D01*
X83856863Y-53075000D01*
X84066483Y-53033304D01*
X84263940Y-52951515D01*
X84441647Y-52832775D01*
X84592775Y-52681647D01*
X84711515Y-52503940D01*
X84793304Y-52306483D01*
X84835000Y-52096863D01*
X84835000Y-51883137D01*
X84793304Y-51673517D01*
X84711515Y-51476060D01*
X84592775Y-51298353D01*
X84441647Y-51147225D01*
X84263940Y-51028485D01*
X84066483Y-50946696D01*
X83856863Y-50905000D01*
X83643137Y-50905000D01*
X83433517Y-50946696D01*
X83236060Y-51028485D01*
X83058353Y-51147225D01*
X82907225Y-51298353D01*
X82788485Y-51476060D01*
X82706696Y-51673517D01*
X82665000Y-51883137D01*
X81835000Y-51883137D01*
X81793304Y-51673517D01*
X81711515Y-51476060D01*
X81592775Y-51298353D01*
X81441647Y-51147225D01*
X81263940Y-51028485D01*
X81066483Y-50946696D01*
X80856863Y-50905000D01*
X80643137Y-50905000D01*
X80433517Y-50946696D01*
X80236060Y-51028485D01*
X80058353Y-51147225D01*
X79907225Y-51298353D01*
X79788485Y-51476060D01*
X79706696Y-51673517D01*
X79665000Y-51883137D01*
X58845596Y-51883137D01*
X58087599Y-51376660D01*
X57189486Y-51004650D01*
X56236055Y-50815000D01*
X55263945Y-50815000D01*
X54310514Y-51004650D01*
X53412401Y-51376660D01*
X52604121Y-51916735D01*
X51916735Y-52604121D01*
X51376660Y-53412401D01*
X51004650Y-54310514D01*
X50815000Y-55263945D01*
X50702187Y-55263945D01*
X50730545Y-54919030D01*
X50933662Y-54110389D01*
X51266129Y-53345767D01*
X51719011Y-52645719D01*
X52280146Y-52029039D01*
X52934469Y-51512286D01*
X53664406Y-51109339D01*
X54450353Y-50831022D01*
X55282603Y-50682775D01*
X55765547Y-50660000D01*
X105722911Y-50660000D01*
X106580970Y-50730545D01*
G37*
%TD.AperFunction*%
%TD*%
M02*
