%TF.GenerationSoftware,KiCad,Pcbnew,(5.1.8)-1*%
%TF.CreationDate,2020-12-14T19:22:24+01:00*%
%TF.ProjectId,STM32_Dev_Board,53544d33-325f-4446-9576-5f426f617264,rev?*%
%TF.SameCoordinates,Original*%
%TF.FileFunction,Soldermask,Bot*%
%TF.FilePolarity,Negative*%
%FSLAX46Y46*%
G04 Gerber Fmt 4.6, Leading zero omitted, Abs format (unit mm)*
G04 Created by KiCad (PCBNEW (5.1.8)-1) date 2020-12-14 19:22:24*
%MOMM*%
%LPD*%
G01*
G04 APERTURE LIST*
%ADD10C,0.900000*%
%ADD11C,8.600000*%
%ADD12C,1.450000*%
%ADD13O,1.900000X1.200000*%
%ADD14R,2.600000X2.600000*%
%ADD15C,2.600000*%
%ADD16R,1.700000X1.700000*%
%ADD17O,1.700000X1.700000*%
G04 APERTURE END LIST*
D10*
%TO.C,H1*%
X58030419Y-103469581D03*
X55750000Y-102525000D03*
X53469581Y-103469581D03*
X52525000Y-105750000D03*
X53469581Y-108030419D03*
X55750000Y-108975000D03*
X58030419Y-108030419D03*
X58975000Y-105750000D03*
D11*
X55750000Y-105750000D03*
%TD*%
D10*
%TO.C,H2*%
X108030419Y-103469581D03*
X105750000Y-102525000D03*
X103469581Y-103469581D03*
X102525000Y-105750000D03*
X103469581Y-108030419D03*
X105750000Y-108975000D03*
X108030419Y-108030419D03*
X108975000Y-105750000D03*
D11*
X105750000Y-105750000D03*
%TD*%
%TO.C,H3*%
X105750000Y-55750000D03*
D10*
X108975000Y-55750000D03*
X108030419Y-58030419D03*
X105750000Y-58975000D03*
X103469581Y-58030419D03*
X102525000Y-55750000D03*
X103469581Y-53469581D03*
X105750000Y-52525000D03*
X108030419Y-53469581D03*
%TD*%
D11*
%TO.C,H4*%
X55750000Y-55750000D03*
D10*
X58975000Y-55750000D03*
X58030419Y-58030419D03*
X55750000Y-58975000D03*
X53469581Y-58030419D03*
X52525000Y-55750000D03*
X53469581Y-53469581D03*
X55750000Y-52525000D03*
X58030419Y-53469581D03*
%TD*%
D12*
%TO.C,J1*%
X107300000Y-68675000D03*
X107300000Y-63675000D03*
D13*
X110000000Y-69675000D03*
X110000000Y-62675000D03*
%TD*%
D14*
%TO.C,J2*%
X68250000Y-105250000D03*
D15*
X73250000Y-105250000D03*
%TD*%
D16*
%TO.C,J3*%
X52750000Y-66040000D03*
D17*
X52750000Y-68580000D03*
X52750000Y-71120000D03*
X52750000Y-73660000D03*
%TD*%
D16*
%TO.C,J5*%
X52705000Y-81915000D03*
D17*
X52705000Y-84455000D03*
X52705000Y-86995000D03*
X52705000Y-89535000D03*
X52705000Y-92075000D03*
X52705000Y-94615000D03*
%TD*%
D16*
%TO.C,J6*%
X108585000Y-76835000D03*
D17*
X108585000Y-79375000D03*
X108585000Y-81915000D03*
X108585000Y-84455000D03*
X108585000Y-86995000D03*
X108585000Y-89535000D03*
X108585000Y-92075000D03*
X108585000Y-94615000D03*
%TD*%
D10*
%TO.C,SW1*%
X83750000Y-51990000D03*
X80750000Y-51990000D03*
%TD*%
M02*
