%TF.GenerationSoftware,KiCad,Pcbnew,(5.1.8)-1*%
%TF.CreationDate,2020-12-14T19:22:24+01:00*%
%TF.ProjectId,STM32_Dev_Board,53544d33-325f-4446-9576-5f426f617264,rev?*%
%TF.SameCoordinates,Original*%
%TF.FileFunction,Copper,L2,Inr*%
%TF.FilePolarity,Positive*%
%FSLAX46Y46*%
G04 Gerber Fmt 4.6, Leading zero omitted, Abs format (unit mm)*
G04 Created by KiCad (PCBNEW (5.1.8)-1) date 2020-12-14 19:22:24*
%MOMM*%
%LPD*%
G01*
G04 APERTURE LIST*
%TA.AperFunction,ComponentPad*%
%ADD10C,0.900000*%
%TD*%
%TA.AperFunction,ComponentPad*%
%ADD11C,8.600000*%
%TD*%
%TA.AperFunction,ComponentPad*%
%ADD12C,1.450000*%
%TD*%
%TA.AperFunction,ComponentPad*%
%ADD13O,1.900000X1.200000*%
%TD*%
%TA.AperFunction,ComponentPad*%
%ADD14R,2.600000X2.600000*%
%TD*%
%TA.AperFunction,ComponentPad*%
%ADD15C,2.600000*%
%TD*%
%TA.AperFunction,ComponentPad*%
%ADD16R,1.700000X1.700000*%
%TD*%
%TA.AperFunction,ComponentPad*%
%ADD17O,1.700000X1.700000*%
%TD*%
%TA.AperFunction,ViaPad*%
%ADD18C,0.800000*%
%TD*%
%TA.AperFunction,Conductor*%
%ADD19C,0.254000*%
%TD*%
%TA.AperFunction,Conductor*%
%ADD20C,0.100000*%
%TD*%
G04 APERTURE END LIST*
D10*
%TO.N,GND*%
%TO.C,H1*%
X58030419Y-103469581D03*
X55750000Y-102525000D03*
X53469581Y-103469581D03*
X52525000Y-105750000D03*
X53469581Y-108030419D03*
X55750000Y-108975000D03*
X58030419Y-108030419D03*
X58975000Y-105750000D03*
D11*
X55750000Y-105750000D03*
%TD*%
D10*
%TO.N,GND*%
%TO.C,H2*%
X108030419Y-103469581D03*
X105750000Y-102525000D03*
X103469581Y-103469581D03*
X102525000Y-105750000D03*
X103469581Y-108030419D03*
X105750000Y-108975000D03*
X108030419Y-108030419D03*
X108975000Y-105750000D03*
D11*
X105750000Y-105750000D03*
%TD*%
%TO.N,GND*%
%TO.C,H3*%
X105750000Y-55750000D03*
D10*
X108975000Y-55750000D03*
X108030419Y-58030419D03*
X105750000Y-58975000D03*
X103469581Y-58030419D03*
X102525000Y-55750000D03*
X103469581Y-53469581D03*
X105750000Y-52525000D03*
X108030419Y-53469581D03*
%TD*%
D11*
%TO.N,GND*%
%TO.C,H4*%
X55750000Y-55750000D03*
D10*
X58975000Y-55750000D03*
X58030419Y-58030419D03*
X55750000Y-58975000D03*
X53469581Y-58030419D03*
X52525000Y-55750000D03*
X53469581Y-53469581D03*
X55750000Y-52525000D03*
X58030419Y-53469581D03*
%TD*%
D12*
%TO.N,Net-(J1-Pad6)*%
%TO.C,J1*%
X107300000Y-68675000D03*
X107300000Y-63675000D03*
D13*
X110000000Y-69675000D03*
X110000000Y-62675000D03*
%TD*%
D14*
%TO.N,+12V*%
%TO.C,J2*%
X68250000Y-105250000D03*
D15*
%TO.N,GND*%
X73250000Y-105250000D03*
%TD*%
D16*
%TO.N,+3V3*%
%TO.C,J3*%
X52750000Y-66040000D03*
D17*
%TO.N,USART2_TX*%
X52750000Y-68580000D03*
%TO.N,USART4_RX*%
X52750000Y-71120000D03*
%TO.N,GND*%
X52750000Y-73660000D03*
%TD*%
D16*
%TO.N,+3V3*%
%TO.C,J5*%
X52705000Y-81915000D03*
D17*
%TO.N,SPI1_CS*%
X52705000Y-84455000D03*
%TO.N,SPI1_SCK*%
X52705000Y-86995000D03*
%TO.N,SPI1_MISO*%
X52705000Y-89535000D03*
%TO.N,SPI1_MOSI*%
X52705000Y-92075000D03*
%TO.N,GND*%
X52705000Y-94615000D03*
%TD*%
D16*
%TO.N,GPIO_0*%
%TO.C,J6*%
X108585000Y-76835000D03*
D17*
%TO.N,GPIO_1*%
X108585000Y-79375000D03*
%TO.N,GPIO_2*%
X108585000Y-81915000D03*
%TO.N,GPIO_3*%
X108585000Y-84455000D03*
%TO.N,GPIO_4*%
X108585000Y-86995000D03*
%TO.N,GPIO_5*%
X108585000Y-89535000D03*
%TO.N,GPIO_6*%
X108585000Y-92075000D03*
%TO.N,GPIO_7*%
X108585000Y-94615000D03*
%TD*%
D18*
%TO.N,GND*%
X72650000Y-81250000D03*
%TO.N,+3V3*%
X70300000Y-67650000D03*
%TO.N,GND*%
X64900000Y-75100000D03*
X68500000Y-74150000D03*
X69800000Y-74150000D03*
X64100000Y-72950000D03*
X68400000Y-70700000D03*
X68800000Y-68850000D03*
X68750000Y-67650000D03*
X68750000Y-65350000D03*
X74250000Y-65100000D03*
X66950000Y-58650000D03*
X72200000Y-58650000D03*
X102250000Y-64000000D03*
X105350000Y-64850000D03*
X105350000Y-63750000D03*
X105350000Y-62500000D03*
X80000000Y-55200000D03*
X83050000Y-67700000D03*
X85550000Y-67100000D03*
X84050000Y-81750000D03*
X84550000Y-79800000D03*
X73750000Y-87850000D03*
X73750000Y-91050000D03*
X72450000Y-89500000D03*
X73750000Y-92300000D03*
X73750000Y-95500000D03*
X72500000Y-93950000D03*
X84800000Y-101750000D03*
X86350000Y-101750000D03*
X89800000Y-95050000D03*
X93100000Y-95050000D03*
X92850000Y-91250000D03*
X83250000Y-98800000D03*
X97200000Y-104800000D03*
X95950000Y-106050000D03*
%TO.N,+3V3*%
X70300000Y-65350000D03*
X72550000Y-66000000D03*
X70250000Y-68850000D03*
X64900000Y-76400000D03*
X74500000Y-82100000D03*
X75700000Y-89500000D03*
X76700000Y-91050000D03*
X76700000Y-87900000D03*
X81250000Y-89550000D03*
X82800000Y-90500000D03*
X82800000Y-92000000D03*
X81200000Y-92950000D03*
X76700000Y-92350000D03*
X76700000Y-95500000D03*
X75650000Y-93950000D03*
X82050000Y-97100000D03*
X80850000Y-98250000D03*
X82950000Y-97100000D03*
X66950000Y-54200000D03*
X84500000Y-55250000D03*
%TO.N,GND*%
X90450000Y-57000000D03*
X93000000Y-57000000D03*
X94250000Y-57000000D03*
%TO.N,+3V3*%
X83200000Y-68850000D03*
X82700000Y-79100000D03*
X95550000Y-56950000D03*
%TO.N,STATUS_LED*%
X74500000Y-73750000D03*
X75250000Y-64250000D03*
%TO.N,+5V*%
X101250000Y-73250000D03*
X101250000Y-95750000D03*
%TO.N,NRST*%
X79500000Y-70750000D03*
X88400000Y-64300000D03*
%TD*%
D19*
%TO.N,GND*%
X106580970Y-50730545D02*
X107389611Y-50933662D01*
X108154233Y-51266129D01*
X108854281Y-51719011D01*
X109470961Y-52280146D01*
X109987714Y-52934469D01*
X110390661Y-53664406D01*
X110668978Y-54450353D01*
X110817225Y-55282603D01*
X110840000Y-55765547D01*
X110840000Y-61536560D01*
X110824901Y-61528489D01*
X110592102Y-61457870D01*
X110410665Y-61440000D01*
X109589335Y-61440000D01*
X109407898Y-61457870D01*
X109175099Y-61528489D01*
X108960551Y-61643167D01*
X108772498Y-61797498D01*
X108618167Y-61985551D01*
X108503489Y-62200099D01*
X108432870Y-62432898D01*
X108409025Y-62675000D01*
X108432870Y-62917102D01*
X108435883Y-62927035D01*
X108356381Y-62808051D01*
X108166949Y-62618619D01*
X107944201Y-62469784D01*
X107696697Y-62367264D01*
X107433948Y-62315000D01*
X107166052Y-62315000D01*
X106903303Y-62367264D01*
X106655799Y-62469784D01*
X106433051Y-62618619D01*
X106243619Y-62808051D01*
X106094784Y-63030799D01*
X105992264Y-63278303D01*
X105940000Y-63541052D01*
X105940000Y-63808948D01*
X105992264Y-64071697D01*
X106094784Y-64319201D01*
X106243619Y-64541949D01*
X106433051Y-64731381D01*
X106655799Y-64880216D01*
X106903303Y-64982736D01*
X107166052Y-65035000D01*
X107433948Y-65035000D01*
X107696697Y-64982736D01*
X107944201Y-64880216D01*
X108166949Y-64731381D01*
X108356381Y-64541949D01*
X108505216Y-64319201D01*
X108607736Y-64071697D01*
X108660000Y-63808948D01*
X108660000Y-63541052D01*
X108627016Y-63375232D01*
X108772498Y-63552502D01*
X108960551Y-63706833D01*
X109175099Y-63821511D01*
X109407898Y-63892130D01*
X109589335Y-63910000D01*
X110410665Y-63910000D01*
X110592102Y-63892130D01*
X110824901Y-63821511D01*
X110840000Y-63813440D01*
X110840000Y-68536560D01*
X110824901Y-68528489D01*
X110592102Y-68457870D01*
X110410665Y-68440000D01*
X109589335Y-68440000D01*
X109407898Y-68457870D01*
X109175099Y-68528489D01*
X108960551Y-68643167D01*
X108772498Y-68797498D01*
X108627016Y-68974768D01*
X108660000Y-68808948D01*
X108660000Y-68541052D01*
X108607736Y-68278303D01*
X108505216Y-68030799D01*
X108356381Y-67808051D01*
X108166949Y-67618619D01*
X107944201Y-67469784D01*
X107696697Y-67367264D01*
X107433948Y-67315000D01*
X107166052Y-67315000D01*
X106903303Y-67367264D01*
X106655799Y-67469784D01*
X106433051Y-67618619D01*
X106243619Y-67808051D01*
X106094784Y-68030799D01*
X105992264Y-68278303D01*
X105940000Y-68541052D01*
X105940000Y-68808948D01*
X105992264Y-69071697D01*
X106094784Y-69319201D01*
X106243619Y-69541949D01*
X106433051Y-69731381D01*
X106655799Y-69880216D01*
X106903303Y-69982736D01*
X107166052Y-70035000D01*
X107433948Y-70035000D01*
X107696697Y-69982736D01*
X107944201Y-69880216D01*
X108166949Y-69731381D01*
X108356381Y-69541949D01*
X108435883Y-69422965D01*
X108432870Y-69432898D01*
X108409025Y-69675000D01*
X108432870Y-69917102D01*
X108503489Y-70149901D01*
X108618167Y-70364449D01*
X108772498Y-70552502D01*
X108960551Y-70706833D01*
X109175099Y-70821511D01*
X109407898Y-70892130D01*
X109589335Y-70910000D01*
X110410665Y-70910000D01*
X110592102Y-70892130D01*
X110824901Y-70821511D01*
X110840000Y-70813440D01*
X110840001Y-105722898D01*
X110769455Y-106580964D01*
X110566338Y-107389609D01*
X110233871Y-108154233D01*
X109780991Y-108854279D01*
X109219854Y-109470961D01*
X108565527Y-109987716D01*
X107835594Y-110390662D01*
X107049647Y-110668978D01*
X106217398Y-110817225D01*
X105734452Y-110840000D01*
X55777090Y-110840000D01*
X54919036Y-110769455D01*
X54110391Y-110566338D01*
X53345767Y-110233871D01*
X52645721Y-109780991D01*
X52043287Y-109232818D01*
X52446787Y-109232818D01*
X52938946Y-109835149D01*
X53789933Y-110305063D01*
X54716243Y-110599929D01*
X55682281Y-110708414D01*
X56650921Y-110626351D01*
X57584938Y-110356893D01*
X58448440Y-109910394D01*
X58561054Y-109835149D01*
X59053213Y-109232818D01*
X102446787Y-109232818D01*
X102938946Y-109835149D01*
X103789933Y-110305063D01*
X104716243Y-110599929D01*
X105682281Y-110708414D01*
X106650921Y-110626351D01*
X107584938Y-110356893D01*
X108448440Y-109910394D01*
X108561054Y-109835149D01*
X109053213Y-109232818D01*
X105750000Y-105929605D01*
X102446787Y-109232818D01*
X59053213Y-109232818D01*
X55750000Y-105929605D01*
X52446787Y-109232818D01*
X52043287Y-109232818D01*
X52029039Y-109219854D01*
X51512284Y-108565527D01*
X51109338Y-107835594D01*
X50831022Y-107049647D01*
X50682775Y-106217398D01*
X50660000Y-105734452D01*
X50660000Y-105682281D01*
X50791586Y-105682281D01*
X50873649Y-106650921D01*
X51143107Y-107584938D01*
X51589606Y-108448440D01*
X51664851Y-108561054D01*
X52267182Y-109053213D01*
X55570395Y-105750000D01*
X55929605Y-105750000D01*
X59232818Y-109053213D01*
X59835149Y-108561054D01*
X60305063Y-107710067D01*
X60599929Y-106783757D01*
X60708414Y-105817719D01*
X60626351Y-104849079D01*
X60366973Y-103950000D01*
X66311928Y-103950000D01*
X66311928Y-106550000D01*
X66324188Y-106674482D01*
X66360498Y-106794180D01*
X66419463Y-106904494D01*
X66498815Y-107001185D01*
X66595506Y-107080537D01*
X66705820Y-107139502D01*
X66825518Y-107175812D01*
X66950000Y-107188072D01*
X69550000Y-107188072D01*
X69674482Y-107175812D01*
X69794180Y-107139502D01*
X69904494Y-107080537D01*
X70001185Y-107001185D01*
X70080537Y-106904494D01*
X70139502Y-106794180D01*
X70175812Y-106674482D01*
X70183224Y-106599224D01*
X72080381Y-106599224D01*
X72212317Y-106894312D01*
X72553045Y-107065159D01*
X72920557Y-107166250D01*
X73300729Y-107193701D01*
X73678951Y-107146457D01*
X74040690Y-107026333D01*
X74287683Y-106894312D01*
X74419619Y-106599224D01*
X73250000Y-105429605D01*
X72080381Y-106599224D01*
X70183224Y-106599224D01*
X70188072Y-106550000D01*
X70188072Y-105300729D01*
X71306299Y-105300729D01*
X71353543Y-105678951D01*
X71473667Y-106040690D01*
X71605688Y-106287683D01*
X71900776Y-106419619D01*
X73070395Y-105250000D01*
X73429605Y-105250000D01*
X74599224Y-106419619D01*
X74894312Y-106287683D01*
X75065159Y-105946955D01*
X75153198Y-105626890D01*
X98750048Y-105626890D01*
X98750048Y-105873110D01*
X98798083Y-106114598D01*
X98892307Y-106342074D01*
X99029099Y-106546798D01*
X99203202Y-106720901D01*
X99407926Y-106857693D01*
X99635402Y-106951917D01*
X99876890Y-106999952D01*
X100123110Y-106999952D01*
X100364598Y-106951917D01*
X100592074Y-106857693D01*
X100796798Y-106720901D01*
X100873112Y-106644587D01*
X100873649Y-106650921D01*
X101143107Y-107584938D01*
X101589606Y-108448440D01*
X101664851Y-108561054D01*
X102267182Y-109053213D01*
X105570395Y-105750000D01*
X105929605Y-105750000D01*
X109232818Y-109053213D01*
X109835149Y-108561054D01*
X110305063Y-107710067D01*
X110599929Y-106783757D01*
X110708414Y-105817719D01*
X110626351Y-104849079D01*
X110356893Y-103915062D01*
X109910394Y-103051560D01*
X109835149Y-102938946D01*
X109232818Y-102446787D01*
X105929605Y-105750000D01*
X105570395Y-105750000D01*
X102267182Y-102446787D01*
X101664851Y-102938946D01*
X101194937Y-103789933D01*
X100900071Y-104716243D01*
X100883298Y-104865599D01*
X100796798Y-104779099D01*
X100592074Y-104642307D01*
X100364598Y-104548083D01*
X100123110Y-104500048D01*
X99876890Y-104500048D01*
X99635402Y-104548083D01*
X99407926Y-104642307D01*
X99203202Y-104779099D01*
X99029099Y-104953202D01*
X98892307Y-105157926D01*
X98798083Y-105385402D01*
X98750048Y-105626890D01*
X75153198Y-105626890D01*
X75166250Y-105579443D01*
X75193701Y-105199271D01*
X75146457Y-104821049D01*
X75026333Y-104459310D01*
X74894312Y-104212317D01*
X74599224Y-104080381D01*
X73429605Y-105250000D01*
X73070395Y-105250000D01*
X71900776Y-104080381D01*
X71605688Y-104212317D01*
X71434841Y-104553045D01*
X71333750Y-104920557D01*
X71306299Y-105300729D01*
X70188072Y-105300729D01*
X70188072Y-103950000D01*
X70183225Y-103900776D01*
X72080381Y-103900776D01*
X73250000Y-105070395D01*
X74419619Y-103900776D01*
X74287683Y-103605688D01*
X73946955Y-103434841D01*
X73579443Y-103333750D01*
X73199271Y-103306299D01*
X72821049Y-103353543D01*
X72459310Y-103473667D01*
X72212317Y-103605688D01*
X72080381Y-103900776D01*
X70183225Y-103900776D01*
X70175812Y-103825518D01*
X70139502Y-103705820D01*
X70080537Y-103595506D01*
X70001185Y-103498815D01*
X69904494Y-103419463D01*
X69794180Y-103360498D01*
X69674482Y-103324188D01*
X69550000Y-103311928D01*
X66950000Y-103311928D01*
X66825518Y-103324188D01*
X66705820Y-103360498D01*
X66595506Y-103419463D01*
X66498815Y-103498815D01*
X66419463Y-103595506D01*
X66360498Y-103705820D01*
X66324188Y-103825518D01*
X66311928Y-103950000D01*
X60366973Y-103950000D01*
X60356893Y-103915062D01*
X59910394Y-103051560D01*
X59835149Y-102938946D01*
X59232818Y-102446787D01*
X55929605Y-105750000D01*
X55570395Y-105750000D01*
X52267182Y-102446787D01*
X51664851Y-102938946D01*
X51194937Y-103789933D01*
X50900071Y-104716243D01*
X50791586Y-105682281D01*
X50660000Y-105682281D01*
X50660000Y-102267182D01*
X52446787Y-102267182D01*
X55750000Y-105570395D01*
X59053213Y-102267182D01*
X102446787Y-102267182D01*
X105750000Y-105570395D01*
X109053213Y-102267182D01*
X108561054Y-101664851D01*
X107710067Y-101194937D01*
X106783757Y-100900071D01*
X105817719Y-100791586D01*
X104849079Y-100873649D01*
X103915062Y-101143107D01*
X103051560Y-101589606D01*
X102938946Y-101664851D01*
X102446787Y-102267182D01*
X59053213Y-102267182D01*
X58561054Y-101664851D01*
X57710067Y-101194937D01*
X56783757Y-100900071D01*
X55817719Y-100791586D01*
X54849079Y-100873649D01*
X53915062Y-101143107D01*
X53051560Y-101589606D01*
X52938946Y-101664851D01*
X52446787Y-102267182D01*
X50660000Y-102267182D01*
X50660000Y-98148061D01*
X79815000Y-98148061D01*
X79815000Y-98351939D01*
X79854774Y-98551898D01*
X79932795Y-98740256D01*
X80046063Y-98909774D01*
X80190226Y-99053937D01*
X80359744Y-99167205D01*
X80548102Y-99245226D01*
X80748061Y-99285000D01*
X80951939Y-99285000D01*
X81151898Y-99245226D01*
X81340256Y-99167205D01*
X81509774Y-99053937D01*
X81653937Y-98909774D01*
X81767205Y-98740256D01*
X81845226Y-98551898D01*
X81885000Y-98351939D01*
X81885000Y-98148061D01*
X81879697Y-98121402D01*
X81948061Y-98135000D01*
X82151939Y-98135000D01*
X82351898Y-98095226D01*
X82500000Y-98033880D01*
X82648102Y-98095226D01*
X82848061Y-98135000D01*
X83051939Y-98135000D01*
X83251898Y-98095226D01*
X83440256Y-98017205D01*
X83609774Y-97903937D01*
X83753937Y-97759774D01*
X83867205Y-97590256D01*
X83945226Y-97401898D01*
X83985000Y-97201939D01*
X83985000Y-96998061D01*
X83945226Y-96798102D01*
X83867205Y-96609744D01*
X83753937Y-96440226D01*
X83609774Y-96296063D01*
X83440256Y-96182795D01*
X83251898Y-96104774D01*
X83051939Y-96065000D01*
X82848061Y-96065000D01*
X82648102Y-96104774D01*
X82500000Y-96166120D01*
X82351898Y-96104774D01*
X82151939Y-96065000D01*
X81948061Y-96065000D01*
X81748102Y-96104774D01*
X81559744Y-96182795D01*
X81390226Y-96296063D01*
X81246063Y-96440226D01*
X81132795Y-96609744D01*
X81054774Y-96798102D01*
X81015000Y-96998061D01*
X81015000Y-97201939D01*
X81020303Y-97228598D01*
X80951939Y-97215000D01*
X80748061Y-97215000D01*
X80548102Y-97254774D01*
X80359744Y-97332795D01*
X80190226Y-97446063D01*
X80046063Y-97590226D01*
X79932795Y-97759744D01*
X79854774Y-97948102D01*
X79815000Y-98148061D01*
X50660000Y-98148061D01*
X50660000Y-94971890D01*
X51263524Y-94971890D01*
X51308175Y-95119099D01*
X51433359Y-95381920D01*
X51607412Y-95615269D01*
X51823645Y-95810178D01*
X52073748Y-95959157D01*
X52348109Y-96056481D01*
X52578000Y-95935814D01*
X52578000Y-94742000D01*
X52832000Y-94742000D01*
X52832000Y-95935814D01*
X53061891Y-96056481D01*
X53336252Y-95959157D01*
X53586355Y-95810178D01*
X53802588Y-95615269D01*
X53976641Y-95381920D01*
X54101825Y-95119099D01*
X54146476Y-94971890D01*
X54025155Y-94742000D01*
X52832000Y-94742000D01*
X52578000Y-94742000D01*
X51384845Y-94742000D01*
X51263524Y-94971890D01*
X50660000Y-94971890D01*
X50660000Y-81065000D01*
X51216928Y-81065000D01*
X51216928Y-82765000D01*
X51229188Y-82889482D01*
X51265498Y-83009180D01*
X51324463Y-83119494D01*
X51403815Y-83216185D01*
X51500506Y-83295537D01*
X51610820Y-83354502D01*
X51683380Y-83376513D01*
X51551525Y-83508368D01*
X51389010Y-83751589D01*
X51277068Y-84021842D01*
X51220000Y-84308740D01*
X51220000Y-84601260D01*
X51277068Y-84888158D01*
X51389010Y-85158411D01*
X51551525Y-85401632D01*
X51758368Y-85608475D01*
X51932760Y-85725000D01*
X51758368Y-85841525D01*
X51551525Y-86048368D01*
X51389010Y-86291589D01*
X51277068Y-86561842D01*
X51220000Y-86848740D01*
X51220000Y-87141260D01*
X51277068Y-87428158D01*
X51389010Y-87698411D01*
X51551525Y-87941632D01*
X51758368Y-88148475D01*
X51932760Y-88265000D01*
X51758368Y-88381525D01*
X51551525Y-88588368D01*
X51389010Y-88831589D01*
X51277068Y-89101842D01*
X51220000Y-89388740D01*
X51220000Y-89681260D01*
X51277068Y-89968158D01*
X51389010Y-90238411D01*
X51551525Y-90481632D01*
X51758368Y-90688475D01*
X51932760Y-90805000D01*
X51758368Y-90921525D01*
X51551525Y-91128368D01*
X51389010Y-91371589D01*
X51277068Y-91641842D01*
X51220000Y-91928740D01*
X51220000Y-92221260D01*
X51277068Y-92508158D01*
X51389010Y-92778411D01*
X51551525Y-93021632D01*
X51758368Y-93228475D01*
X51940534Y-93350195D01*
X51823645Y-93419822D01*
X51607412Y-93614731D01*
X51433359Y-93848080D01*
X51308175Y-94110901D01*
X51263524Y-94258110D01*
X51384845Y-94488000D01*
X52578000Y-94488000D01*
X52578000Y-94468000D01*
X52832000Y-94468000D01*
X52832000Y-94488000D01*
X54025155Y-94488000D01*
X54146476Y-94258110D01*
X54101825Y-94110901D01*
X53976641Y-93848080D01*
X53976627Y-93848061D01*
X74615000Y-93848061D01*
X74615000Y-94051939D01*
X74654774Y-94251898D01*
X74732795Y-94440256D01*
X74846063Y-94609774D01*
X74990226Y-94753937D01*
X75159744Y-94867205D01*
X75348102Y-94945226D01*
X75548061Y-94985000D01*
X75751939Y-94985000D01*
X75806592Y-94974129D01*
X75782795Y-95009744D01*
X75704774Y-95198102D01*
X75665000Y-95398061D01*
X75665000Y-95601939D01*
X75704774Y-95801898D01*
X75782795Y-95990256D01*
X75896063Y-96159774D01*
X76040226Y-96303937D01*
X76209744Y-96417205D01*
X76398102Y-96495226D01*
X76598061Y-96535000D01*
X76801939Y-96535000D01*
X77001898Y-96495226D01*
X77190256Y-96417205D01*
X77359774Y-96303937D01*
X77503937Y-96159774D01*
X77617205Y-95990256D01*
X77695226Y-95801898D01*
X77725825Y-95648061D01*
X100215000Y-95648061D01*
X100215000Y-95851939D01*
X100254774Y-96051898D01*
X100332795Y-96240256D01*
X100446063Y-96409774D01*
X100590226Y-96553937D01*
X100759744Y-96667205D01*
X100948102Y-96745226D01*
X101148061Y-96785000D01*
X101351939Y-96785000D01*
X101551898Y-96745226D01*
X101740256Y-96667205D01*
X101909774Y-96553937D01*
X102053937Y-96409774D01*
X102167205Y-96240256D01*
X102245226Y-96051898D01*
X102285000Y-95851939D01*
X102285000Y-95648061D01*
X102245226Y-95448102D01*
X102167205Y-95259744D01*
X102053937Y-95090226D01*
X101909774Y-94946063D01*
X101740256Y-94832795D01*
X101551898Y-94754774D01*
X101351939Y-94715000D01*
X101148061Y-94715000D01*
X100948102Y-94754774D01*
X100759744Y-94832795D01*
X100590226Y-94946063D01*
X100446063Y-95090226D01*
X100332795Y-95259744D01*
X100254774Y-95448102D01*
X100215000Y-95648061D01*
X77725825Y-95648061D01*
X77735000Y-95601939D01*
X77735000Y-95398061D01*
X77695226Y-95198102D01*
X77617205Y-95009744D01*
X77503937Y-94840226D01*
X77359774Y-94696063D01*
X77190256Y-94582795D01*
X77001898Y-94504774D01*
X76801939Y-94465000D01*
X76598061Y-94465000D01*
X76543408Y-94475871D01*
X76567205Y-94440256D01*
X76645226Y-94251898D01*
X76685000Y-94051939D01*
X76685000Y-93848061D01*
X76645226Y-93648102D01*
X76567205Y-93459744D01*
X76504878Y-93366465D01*
X76598061Y-93385000D01*
X76801939Y-93385000D01*
X77001898Y-93345226D01*
X77190256Y-93267205D01*
X77359774Y-93153937D01*
X77503937Y-93009774D01*
X77611989Y-92848061D01*
X80165000Y-92848061D01*
X80165000Y-93051939D01*
X80204774Y-93251898D01*
X80282795Y-93440256D01*
X80396063Y-93609774D01*
X80540226Y-93753937D01*
X80709744Y-93867205D01*
X80898102Y-93945226D01*
X81098061Y-93985000D01*
X81301939Y-93985000D01*
X81501898Y-93945226D01*
X81690256Y-93867205D01*
X81859774Y-93753937D01*
X82003937Y-93609774D01*
X82117205Y-93440256D01*
X82195226Y-93251898D01*
X82235000Y-93051939D01*
X82235000Y-92867263D01*
X82309744Y-92917205D01*
X82498102Y-92995226D01*
X82698061Y-93035000D01*
X82901939Y-93035000D01*
X83101898Y-92995226D01*
X83290256Y-92917205D01*
X83459774Y-92803937D01*
X83603937Y-92659774D01*
X83717205Y-92490256D01*
X83795226Y-92301898D01*
X83835000Y-92101939D01*
X83835000Y-91898061D01*
X83795226Y-91698102D01*
X83717205Y-91509744D01*
X83603937Y-91340226D01*
X83513711Y-91250000D01*
X83603937Y-91159774D01*
X83717205Y-90990256D01*
X83795226Y-90801898D01*
X83835000Y-90601939D01*
X83835000Y-90398061D01*
X83795226Y-90198102D01*
X83717205Y-90009744D01*
X83603937Y-89840226D01*
X83459774Y-89696063D01*
X83290256Y-89582795D01*
X83101898Y-89504774D01*
X82901939Y-89465000D01*
X82698061Y-89465000D01*
X82498102Y-89504774D01*
X82309744Y-89582795D01*
X82285000Y-89599328D01*
X82285000Y-89448061D01*
X82245226Y-89248102D01*
X82167205Y-89059744D01*
X82053937Y-88890226D01*
X81909774Y-88746063D01*
X81740256Y-88632795D01*
X81551898Y-88554774D01*
X81351939Y-88515000D01*
X81148061Y-88515000D01*
X80948102Y-88554774D01*
X80759744Y-88632795D01*
X80590226Y-88746063D01*
X80446063Y-88890226D01*
X80332795Y-89059744D01*
X80254774Y-89248102D01*
X80215000Y-89448061D01*
X80215000Y-89651939D01*
X80254774Y-89851898D01*
X80332795Y-90040256D01*
X80446063Y-90209774D01*
X80590226Y-90353937D01*
X80759744Y-90467205D01*
X80948102Y-90545226D01*
X81148061Y-90585000D01*
X81351939Y-90585000D01*
X81551898Y-90545226D01*
X81740256Y-90467205D01*
X81765000Y-90450672D01*
X81765000Y-90601939D01*
X81804774Y-90801898D01*
X81882795Y-90990256D01*
X81996063Y-91159774D01*
X82086289Y-91250000D01*
X81996063Y-91340226D01*
X81882795Y-91509744D01*
X81804774Y-91698102D01*
X81765000Y-91898061D01*
X81765000Y-92082737D01*
X81690256Y-92032795D01*
X81501898Y-91954774D01*
X81301939Y-91915000D01*
X81098061Y-91915000D01*
X80898102Y-91954774D01*
X80709744Y-92032795D01*
X80540226Y-92146063D01*
X80396063Y-92290226D01*
X80282795Y-92459744D01*
X80204774Y-92648102D01*
X80165000Y-92848061D01*
X77611989Y-92848061D01*
X77617205Y-92840256D01*
X77695226Y-92651898D01*
X77735000Y-92451939D01*
X77735000Y-92248061D01*
X77695226Y-92048102D01*
X77617205Y-91859744D01*
X77510468Y-91700000D01*
X77617205Y-91540256D01*
X77695226Y-91351898D01*
X77735000Y-91151939D01*
X77735000Y-90948061D01*
X77695226Y-90748102D01*
X77617205Y-90559744D01*
X77503937Y-90390226D01*
X77359774Y-90246063D01*
X77190256Y-90132795D01*
X77001898Y-90054774D01*
X76801939Y-90015000D01*
X76600672Y-90015000D01*
X76617205Y-89990256D01*
X76695226Y-89801898D01*
X76735000Y-89601939D01*
X76735000Y-89398061D01*
X76695226Y-89198102D01*
X76617205Y-89009744D01*
X76562542Y-88927935D01*
X76598061Y-88935000D01*
X76801939Y-88935000D01*
X77001898Y-88895226D01*
X77190256Y-88817205D01*
X77359774Y-88703937D01*
X77503937Y-88559774D01*
X77617205Y-88390256D01*
X77695226Y-88201898D01*
X77735000Y-88001939D01*
X77735000Y-87798061D01*
X77695226Y-87598102D01*
X77617205Y-87409744D01*
X77503937Y-87240226D01*
X77359774Y-87096063D01*
X77190256Y-86982795D01*
X77001898Y-86904774D01*
X76801939Y-86865000D01*
X76598061Y-86865000D01*
X76398102Y-86904774D01*
X76209744Y-86982795D01*
X76040226Y-87096063D01*
X75896063Y-87240226D01*
X75782795Y-87409744D01*
X75704774Y-87598102D01*
X75665000Y-87798061D01*
X75665000Y-88001939D01*
X75704774Y-88201898D01*
X75782795Y-88390256D01*
X75837458Y-88472065D01*
X75801939Y-88465000D01*
X75598061Y-88465000D01*
X75398102Y-88504774D01*
X75209744Y-88582795D01*
X75040226Y-88696063D01*
X74896063Y-88840226D01*
X74782795Y-89009744D01*
X74704774Y-89198102D01*
X74665000Y-89398061D01*
X74665000Y-89601939D01*
X74704774Y-89801898D01*
X74782795Y-89990256D01*
X74896063Y-90159774D01*
X75040226Y-90303937D01*
X75209744Y-90417205D01*
X75398102Y-90495226D01*
X75598061Y-90535000D01*
X75799328Y-90535000D01*
X75782795Y-90559744D01*
X75704774Y-90748102D01*
X75665000Y-90948061D01*
X75665000Y-91151939D01*
X75704774Y-91351898D01*
X75782795Y-91540256D01*
X75889532Y-91700000D01*
X75782795Y-91859744D01*
X75704774Y-92048102D01*
X75665000Y-92248061D01*
X75665000Y-92451939D01*
X75704774Y-92651898D01*
X75782795Y-92840256D01*
X75845122Y-92933535D01*
X75751939Y-92915000D01*
X75548061Y-92915000D01*
X75348102Y-92954774D01*
X75159744Y-93032795D01*
X74990226Y-93146063D01*
X74846063Y-93290226D01*
X74732795Y-93459744D01*
X74654774Y-93648102D01*
X74615000Y-93848061D01*
X53976627Y-93848061D01*
X53802588Y-93614731D01*
X53586355Y-93419822D01*
X53469466Y-93350195D01*
X53651632Y-93228475D01*
X53858475Y-93021632D01*
X54020990Y-92778411D01*
X54132932Y-92508158D01*
X54190000Y-92221260D01*
X54190000Y-91928740D01*
X54132932Y-91641842D01*
X54020990Y-91371589D01*
X53858475Y-91128368D01*
X53651632Y-90921525D01*
X53477240Y-90805000D01*
X53651632Y-90688475D01*
X53858475Y-90481632D01*
X54020990Y-90238411D01*
X54132932Y-89968158D01*
X54190000Y-89681260D01*
X54190000Y-89388740D01*
X54132932Y-89101842D01*
X54020990Y-88831589D01*
X53858475Y-88588368D01*
X53651632Y-88381525D01*
X53477240Y-88265000D01*
X53651632Y-88148475D01*
X53858475Y-87941632D01*
X54020990Y-87698411D01*
X54132932Y-87428158D01*
X54190000Y-87141260D01*
X54190000Y-86848740D01*
X54132932Y-86561842D01*
X54020990Y-86291589D01*
X53858475Y-86048368D01*
X53651632Y-85841525D01*
X53477240Y-85725000D01*
X53651632Y-85608475D01*
X53858475Y-85401632D01*
X54020990Y-85158411D01*
X54132932Y-84888158D01*
X54190000Y-84601260D01*
X54190000Y-84308740D01*
X54132932Y-84021842D01*
X54020990Y-83751589D01*
X53858475Y-83508368D01*
X53726620Y-83376513D01*
X53799180Y-83354502D01*
X53909494Y-83295537D01*
X54006185Y-83216185D01*
X54085537Y-83119494D01*
X54144502Y-83009180D01*
X54180812Y-82889482D01*
X54193072Y-82765000D01*
X54193072Y-81998061D01*
X73465000Y-81998061D01*
X73465000Y-82201939D01*
X73504774Y-82401898D01*
X73582795Y-82590256D01*
X73696063Y-82759774D01*
X73840226Y-82903937D01*
X74009744Y-83017205D01*
X74198102Y-83095226D01*
X74398061Y-83135000D01*
X74601939Y-83135000D01*
X74801898Y-83095226D01*
X74990256Y-83017205D01*
X75159774Y-82903937D01*
X75303937Y-82759774D01*
X75417205Y-82590256D01*
X75495226Y-82401898D01*
X75535000Y-82201939D01*
X75535000Y-81998061D01*
X75495226Y-81798102D01*
X75417205Y-81609744D01*
X75303937Y-81440226D01*
X75159774Y-81296063D01*
X74990256Y-81182795D01*
X74801898Y-81104774D01*
X74601939Y-81065000D01*
X74398061Y-81065000D01*
X74198102Y-81104774D01*
X74009744Y-81182795D01*
X73840226Y-81296063D01*
X73696063Y-81440226D01*
X73582795Y-81609744D01*
X73504774Y-81798102D01*
X73465000Y-81998061D01*
X54193072Y-81998061D01*
X54193072Y-81065000D01*
X54180812Y-80940518D01*
X54144502Y-80820820D01*
X54085537Y-80710506D01*
X54006185Y-80613815D01*
X53909494Y-80534463D01*
X53799180Y-80475498D01*
X53679482Y-80439188D01*
X53555000Y-80426928D01*
X51855000Y-80426928D01*
X51730518Y-80439188D01*
X51610820Y-80475498D01*
X51500506Y-80534463D01*
X51403815Y-80613815D01*
X51324463Y-80710506D01*
X51265498Y-80820820D01*
X51229188Y-80940518D01*
X51216928Y-81065000D01*
X50660000Y-81065000D01*
X50660000Y-78998061D01*
X81665000Y-78998061D01*
X81665000Y-79201939D01*
X81704774Y-79401898D01*
X81782795Y-79590256D01*
X81896063Y-79759774D01*
X82040226Y-79903937D01*
X82209744Y-80017205D01*
X82398102Y-80095226D01*
X82598061Y-80135000D01*
X82801939Y-80135000D01*
X83001898Y-80095226D01*
X83190256Y-80017205D01*
X83359774Y-79903937D01*
X83503937Y-79759774D01*
X83617205Y-79590256D01*
X83695226Y-79401898D01*
X83735000Y-79201939D01*
X83735000Y-78998061D01*
X83695226Y-78798102D01*
X83617205Y-78609744D01*
X83503937Y-78440226D01*
X83359774Y-78296063D01*
X83190256Y-78182795D01*
X83001898Y-78104774D01*
X82801939Y-78065000D01*
X82598061Y-78065000D01*
X82398102Y-78104774D01*
X82209744Y-78182795D01*
X82040226Y-78296063D01*
X81896063Y-78440226D01*
X81782795Y-78609744D01*
X81704774Y-78798102D01*
X81665000Y-78998061D01*
X50660000Y-78998061D01*
X50660000Y-76298061D01*
X63865000Y-76298061D01*
X63865000Y-76501939D01*
X63904774Y-76701898D01*
X63982795Y-76890256D01*
X64096063Y-77059774D01*
X64240226Y-77203937D01*
X64409744Y-77317205D01*
X64598102Y-77395226D01*
X64798061Y-77435000D01*
X65001939Y-77435000D01*
X65201898Y-77395226D01*
X65390256Y-77317205D01*
X65559774Y-77203937D01*
X65703937Y-77059774D01*
X65817205Y-76890256D01*
X65895226Y-76701898D01*
X65935000Y-76501939D01*
X65935000Y-76298061D01*
X65895226Y-76098102D01*
X65848378Y-75985000D01*
X107096928Y-75985000D01*
X107096928Y-77685000D01*
X107109188Y-77809482D01*
X107145498Y-77929180D01*
X107204463Y-78039494D01*
X107283815Y-78136185D01*
X107380506Y-78215537D01*
X107490820Y-78274502D01*
X107563380Y-78296513D01*
X107431525Y-78428368D01*
X107269010Y-78671589D01*
X107157068Y-78941842D01*
X107100000Y-79228740D01*
X107100000Y-79521260D01*
X107157068Y-79808158D01*
X107269010Y-80078411D01*
X107431525Y-80321632D01*
X107638368Y-80528475D01*
X107812760Y-80645000D01*
X107638368Y-80761525D01*
X107431525Y-80968368D01*
X107269010Y-81211589D01*
X107157068Y-81481842D01*
X107100000Y-81768740D01*
X107100000Y-82061260D01*
X107157068Y-82348158D01*
X107269010Y-82618411D01*
X107431525Y-82861632D01*
X107638368Y-83068475D01*
X107812760Y-83185000D01*
X107638368Y-83301525D01*
X107431525Y-83508368D01*
X107269010Y-83751589D01*
X107157068Y-84021842D01*
X107100000Y-84308740D01*
X107100000Y-84601260D01*
X107157068Y-84888158D01*
X107269010Y-85158411D01*
X107431525Y-85401632D01*
X107638368Y-85608475D01*
X107812760Y-85725000D01*
X107638368Y-85841525D01*
X107431525Y-86048368D01*
X107269010Y-86291589D01*
X107157068Y-86561842D01*
X107100000Y-86848740D01*
X107100000Y-87141260D01*
X107157068Y-87428158D01*
X107269010Y-87698411D01*
X107431525Y-87941632D01*
X107638368Y-88148475D01*
X107812760Y-88265000D01*
X107638368Y-88381525D01*
X107431525Y-88588368D01*
X107269010Y-88831589D01*
X107157068Y-89101842D01*
X107100000Y-89388740D01*
X107100000Y-89681260D01*
X107157068Y-89968158D01*
X107269010Y-90238411D01*
X107431525Y-90481632D01*
X107638368Y-90688475D01*
X107812760Y-90805000D01*
X107638368Y-90921525D01*
X107431525Y-91128368D01*
X107269010Y-91371589D01*
X107157068Y-91641842D01*
X107100000Y-91928740D01*
X107100000Y-92221260D01*
X107157068Y-92508158D01*
X107269010Y-92778411D01*
X107431525Y-93021632D01*
X107638368Y-93228475D01*
X107812760Y-93345000D01*
X107638368Y-93461525D01*
X107431525Y-93668368D01*
X107269010Y-93911589D01*
X107157068Y-94181842D01*
X107100000Y-94468740D01*
X107100000Y-94761260D01*
X107157068Y-95048158D01*
X107269010Y-95318411D01*
X107431525Y-95561632D01*
X107638368Y-95768475D01*
X107881589Y-95930990D01*
X108151842Y-96042932D01*
X108438740Y-96100000D01*
X108731260Y-96100000D01*
X109018158Y-96042932D01*
X109288411Y-95930990D01*
X109531632Y-95768475D01*
X109738475Y-95561632D01*
X109900990Y-95318411D01*
X110012932Y-95048158D01*
X110070000Y-94761260D01*
X110070000Y-94468740D01*
X110012932Y-94181842D01*
X109900990Y-93911589D01*
X109738475Y-93668368D01*
X109531632Y-93461525D01*
X109357240Y-93345000D01*
X109531632Y-93228475D01*
X109738475Y-93021632D01*
X109900990Y-92778411D01*
X110012932Y-92508158D01*
X110070000Y-92221260D01*
X110070000Y-91928740D01*
X110012932Y-91641842D01*
X109900990Y-91371589D01*
X109738475Y-91128368D01*
X109531632Y-90921525D01*
X109357240Y-90805000D01*
X109531632Y-90688475D01*
X109738475Y-90481632D01*
X109900990Y-90238411D01*
X110012932Y-89968158D01*
X110070000Y-89681260D01*
X110070000Y-89388740D01*
X110012932Y-89101842D01*
X109900990Y-88831589D01*
X109738475Y-88588368D01*
X109531632Y-88381525D01*
X109357240Y-88265000D01*
X109531632Y-88148475D01*
X109738475Y-87941632D01*
X109900990Y-87698411D01*
X110012932Y-87428158D01*
X110070000Y-87141260D01*
X110070000Y-86848740D01*
X110012932Y-86561842D01*
X109900990Y-86291589D01*
X109738475Y-86048368D01*
X109531632Y-85841525D01*
X109357240Y-85725000D01*
X109531632Y-85608475D01*
X109738475Y-85401632D01*
X109900990Y-85158411D01*
X110012932Y-84888158D01*
X110070000Y-84601260D01*
X110070000Y-84308740D01*
X110012932Y-84021842D01*
X109900990Y-83751589D01*
X109738475Y-83508368D01*
X109531632Y-83301525D01*
X109357240Y-83185000D01*
X109531632Y-83068475D01*
X109738475Y-82861632D01*
X109900990Y-82618411D01*
X110012932Y-82348158D01*
X110070000Y-82061260D01*
X110070000Y-81768740D01*
X110012932Y-81481842D01*
X109900990Y-81211589D01*
X109738475Y-80968368D01*
X109531632Y-80761525D01*
X109357240Y-80645000D01*
X109531632Y-80528475D01*
X109738475Y-80321632D01*
X109900990Y-80078411D01*
X110012932Y-79808158D01*
X110070000Y-79521260D01*
X110070000Y-79228740D01*
X110012932Y-78941842D01*
X109900990Y-78671589D01*
X109738475Y-78428368D01*
X109606620Y-78296513D01*
X109679180Y-78274502D01*
X109789494Y-78215537D01*
X109886185Y-78136185D01*
X109965537Y-78039494D01*
X110024502Y-77929180D01*
X110060812Y-77809482D01*
X110073072Y-77685000D01*
X110073072Y-75985000D01*
X110060812Y-75860518D01*
X110024502Y-75740820D01*
X109965537Y-75630506D01*
X109886185Y-75533815D01*
X109789494Y-75454463D01*
X109679180Y-75395498D01*
X109559482Y-75359188D01*
X109435000Y-75346928D01*
X107735000Y-75346928D01*
X107610518Y-75359188D01*
X107490820Y-75395498D01*
X107380506Y-75454463D01*
X107283815Y-75533815D01*
X107204463Y-75630506D01*
X107145498Y-75740820D01*
X107109188Y-75860518D01*
X107096928Y-75985000D01*
X65848378Y-75985000D01*
X65817205Y-75909744D01*
X65703937Y-75740226D01*
X65559774Y-75596063D01*
X65390256Y-75482795D01*
X65201898Y-75404774D01*
X65001939Y-75365000D01*
X64798061Y-75365000D01*
X64598102Y-75404774D01*
X64409744Y-75482795D01*
X64240226Y-75596063D01*
X64096063Y-75740226D01*
X63982795Y-75909744D01*
X63904774Y-76098102D01*
X63865000Y-76298061D01*
X50660000Y-76298061D01*
X50660000Y-74016890D01*
X51308524Y-74016890D01*
X51353175Y-74164099D01*
X51478359Y-74426920D01*
X51652412Y-74660269D01*
X51868645Y-74855178D01*
X52118748Y-75004157D01*
X52393109Y-75101481D01*
X52623000Y-74980814D01*
X52623000Y-73787000D01*
X52877000Y-73787000D01*
X52877000Y-74980814D01*
X53106891Y-75101481D01*
X53381252Y-75004157D01*
X53631355Y-74855178D01*
X53847588Y-74660269D01*
X54021641Y-74426920D01*
X54146825Y-74164099D01*
X54191476Y-74016890D01*
X54070155Y-73787000D01*
X52877000Y-73787000D01*
X52623000Y-73787000D01*
X51429845Y-73787000D01*
X51308524Y-74016890D01*
X50660000Y-74016890D01*
X50660000Y-73648061D01*
X73465000Y-73648061D01*
X73465000Y-73851939D01*
X73504774Y-74051898D01*
X73582795Y-74240256D01*
X73696063Y-74409774D01*
X73840226Y-74553937D01*
X74009744Y-74667205D01*
X74198102Y-74745226D01*
X74398061Y-74785000D01*
X74601939Y-74785000D01*
X74801898Y-74745226D01*
X74990256Y-74667205D01*
X75159774Y-74553937D01*
X75303937Y-74409774D01*
X75417205Y-74240256D01*
X75495226Y-74051898D01*
X75535000Y-73851939D01*
X75535000Y-73648061D01*
X75495226Y-73448102D01*
X75417205Y-73259744D01*
X75342582Y-73148061D01*
X100215000Y-73148061D01*
X100215000Y-73351939D01*
X100254774Y-73551898D01*
X100332795Y-73740256D01*
X100446063Y-73909774D01*
X100590226Y-74053937D01*
X100759744Y-74167205D01*
X100948102Y-74245226D01*
X101148061Y-74285000D01*
X101351939Y-74285000D01*
X101551898Y-74245226D01*
X101740256Y-74167205D01*
X101909774Y-74053937D01*
X102053937Y-73909774D01*
X102167205Y-73740256D01*
X102245226Y-73551898D01*
X102285000Y-73351939D01*
X102285000Y-73148061D01*
X102245226Y-72948102D01*
X102167205Y-72759744D01*
X102053937Y-72590226D01*
X101909774Y-72446063D01*
X101740256Y-72332795D01*
X101551898Y-72254774D01*
X101351939Y-72215000D01*
X101148061Y-72215000D01*
X100948102Y-72254774D01*
X100759744Y-72332795D01*
X100590226Y-72446063D01*
X100446063Y-72590226D01*
X100332795Y-72759744D01*
X100254774Y-72948102D01*
X100215000Y-73148061D01*
X75342582Y-73148061D01*
X75303937Y-73090226D01*
X75159774Y-72946063D01*
X74990256Y-72832795D01*
X74801898Y-72754774D01*
X74601939Y-72715000D01*
X74398061Y-72715000D01*
X74198102Y-72754774D01*
X74009744Y-72832795D01*
X73840226Y-72946063D01*
X73696063Y-73090226D01*
X73582795Y-73259744D01*
X73504774Y-73448102D01*
X73465000Y-73648061D01*
X50660000Y-73648061D01*
X50660000Y-65190000D01*
X51261928Y-65190000D01*
X51261928Y-66890000D01*
X51274188Y-67014482D01*
X51310498Y-67134180D01*
X51369463Y-67244494D01*
X51448815Y-67341185D01*
X51545506Y-67420537D01*
X51655820Y-67479502D01*
X51728380Y-67501513D01*
X51596525Y-67633368D01*
X51434010Y-67876589D01*
X51322068Y-68146842D01*
X51265000Y-68433740D01*
X51265000Y-68726260D01*
X51322068Y-69013158D01*
X51434010Y-69283411D01*
X51596525Y-69526632D01*
X51803368Y-69733475D01*
X51977760Y-69850000D01*
X51803368Y-69966525D01*
X51596525Y-70173368D01*
X51434010Y-70416589D01*
X51322068Y-70686842D01*
X51265000Y-70973740D01*
X51265000Y-71266260D01*
X51322068Y-71553158D01*
X51434010Y-71823411D01*
X51596525Y-72066632D01*
X51803368Y-72273475D01*
X51985534Y-72395195D01*
X51868645Y-72464822D01*
X51652412Y-72659731D01*
X51478359Y-72893080D01*
X51353175Y-73155901D01*
X51308524Y-73303110D01*
X51429845Y-73533000D01*
X52623000Y-73533000D01*
X52623000Y-73513000D01*
X52877000Y-73513000D01*
X52877000Y-73533000D01*
X54070155Y-73533000D01*
X54191476Y-73303110D01*
X54146825Y-73155901D01*
X54021641Y-72893080D01*
X53847588Y-72659731D01*
X53631355Y-72464822D01*
X53514466Y-72395195D01*
X53696632Y-72273475D01*
X53903475Y-72066632D01*
X54065990Y-71823411D01*
X54177932Y-71553158D01*
X54235000Y-71266260D01*
X54235000Y-70973740D01*
X54177932Y-70686842D01*
X54161869Y-70648061D01*
X78465000Y-70648061D01*
X78465000Y-70851939D01*
X78504774Y-71051898D01*
X78582795Y-71240256D01*
X78696063Y-71409774D01*
X78840226Y-71553937D01*
X79009744Y-71667205D01*
X79198102Y-71745226D01*
X79398061Y-71785000D01*
X79601939Y-71785000D01*
X79801898Y-71745226D01*
X79990256Y-71667205D01*
X80159774Y-71553937D01*
X80303937Y-71409774D01*
X80417205Y-71240256D01*
X80495226Y-71051898D01*
X80535000Y-70851939D01*
X80535000Y-70648061D01*
X80495226Y-70448102D01*
X80417205Y-70259744D01*
X80303937Y-70090226D01*
X80159774Y-69946063D01*
X79990256Y-69832795D01*
X79801898Y-69754774D01*
X79601939Y-69715000D01*
X79398061Y-69715000D01*
X79198102Y-69754774D01*
X79009744Y-69832795D01*
X78840226Y-69946063D01*
X78696063Y-70090226D01*
X78582795Y-70259744D01*
X78504774Y-70448102D01*
X78465000Y-70648061D01*
X54161869Y-70648061D01*
X54065990Y-70416589D01*
X53903475Y-70173368D01*
X53696632Y-69966525D01*
X53522240Y-69850000D01*
X53696632Y-69733475D01*
X53903475Y-69526632D01*
X54065990Y-69283411D01*
X54177932Y-69013158D01*
X54230663Y-68748061D01*
X69215000Y-68748061D01*
X69215000Y-68951939D01*
X69254774Y-69151898D01*
X69332795Y-69340256D01*
X69446063Y-69509774D01*
X69590226Y-69653937D01*
X69759744Y-69767205D01*
X69948102Y-69845226D01*
X70148061Y-69885000D01*
X70351939Y-69885000D01*
X70551898Y-69845226D01*
X70740256Y-69767205D01*
X70909774Y-69653937D01*
X71053937Y-69509774D01*
X71167205Y-69340256D01*
X71245226Y-69151898D01*
X71285000Y-68951939D01*
X71285000Y-68748061D01*
X82165000Y-68748061D01*
X82165000Y-68951939D01*
X82204774Y-69151898D01*
X82282795Y-69340256D01*
X82396063Y-69509774D01*
X82540226Y-69653937D01*
X82709744Y-69767205D01*
X82898102Y-69845226D01*
X83098061Y-69885000D01*
X83301939Y-69885000D01*
X83501898Y-69845226D01*
X83690256Y-69767205D01*
X83859774Y-69653937D01*
X84003937Y-69509774D01*
X84117205Y-69340256D01*
X84195226Y-69151898D01*
X84235000Y-68951939D01*
X84235000Y-68748061D01*
X84195226Y-68548102D01*
X84117205Y-68359744D01*
X84003937Y-68190226D01*
X83859774Y-68046063D01*
X83690256Y-67932795D01*
X83501898Y-67854774D01*
X83301939Y-67815000D01*
X83098061Y-67815000D01*
X82898102Y-67854774D01*
X82709744Y-67932795D01*
X82540226Y-68046063D01*
X82396063Y-68190226D01*
X82282795Y-68359744D01*
X82204774Y-68548102D01*
X82165000Y-68748061D01*
X71285000Y-68748061D01*
X71245226Y-68548102D01*
X71167205Y-68359744D01*
X71118877Y-68287415D01*
X71217205Y-68140256D01*
X71295226Y-67951898D01*
X71335000Y-67751939D01*
X71335000Y-67548061D01*
X71295226Y-67348102D01*
X71217205Y-67159744D01*
X71103937Y-66990226D01*
X70959774Y-66846063D01*
X70790256Y-66732795D01*
X70601898Y-66654774D01*
X70401939Y-66615000D01*
X70198061Y-66615000D01*
X69998102Y-66654774D01*
X69809744Y-66732795D01*
X69640226Y-66846063D01*
X69496063Y-66990226D01*
X69382795Y-67159744D01*
X69304774Y-67348102D01*
X69265000Y-67548061D01*
X69265000Y-67751939D01*
X69304774Y-67951898D01*
X69382795Y-68140256D01*
X69431123Y-68212585D01*
X69332795Y-68359744D01*
X69254774Y-68548102D01*
X69215000Y-68748061D01*
X54230663Y-68748061D01*
X54235000Y-68726260D01*
X54235000Y-68433740D01*
X54177932Y-68146842D01*
X54065990Y-67876589D01*
X53903475Y-67633368D01*
X53771620Y-67501513D01*
X53844180Y-67479502D01*
X53954494Y-67420537D01*
X54051185Y-67341185D01*
X54130537Y-67244494D01*
X54189502Y-67134180D01*
X54225812Y-67014482D01*
X54238072Y-66890000D01*
X54238072Y-65248061D01*
X69265000Y-65248061D01*
X69265000Y-65451939D01*
X69304774Y-65651898D01*
X69382795Y-65840256D01*
X69496063Y-66009774D01*
X69640226Y-66153937D01*
X69809744Y-66267205D01*
X69998102Y-66345226D01*
X70198061Y-66385000D01*
X70401939Y-66385000D01*
X70601898Y-66345226D01*
X70790256Y-66267205D01*
X70959774Y-66153937D01*
X71103937Y-66009774D01*
X71178581Y-65898061D01*
X71515000Y-65898061D01*
X71515000Y-66101939D01*
X71554774Y-66301898D01*
X71632795Y-66490256D01*
X71746063Y-66659774D01*
X71890226Y-66803937D01*
X72059744Y-66917205D01*
X72248102Y-66995226D01*
X72448061Y-67035000D01*
X72651939Y-67035000D01*
X72851898Y-66995226D01*
X73040256Y-66917205D01*
X73209774Y-66803937D01*
X73353937Y-66659774D01*
X73467205Y-66490256D01*
X73545226Y-66301898D01*
X73585000Y-66101939D01*
X73585000Y-65898061D01*
X73545226Y-65698102D01*
X73467205Y-65509744D01*
X73353937Y-65340226D01*
X73209774Y-65196063D01*
X73040256Y-65082795D01*
X72851898Y-65004774D01*
X72651939Y-64965000D01*
X72448061Y-64965000D01*
X72248102Y-65004774D01*
X72059744Y-65082795D01*
X71890226Y-65196063D01*
X71746063Y-65340226D01*
X71632795Y-65509744D01*
X71554774Y-65698102D01*
X71515000Y-65898061D01*
X71178581Y-65898061D01*
X71217205Y-65840256D01*
X71295226Y-65651898D01*
X71335000Y-65451939D01*
X71335000Y-65248061D01*
X71295226Y-65048102D01*
X71217205Y-64859744D01*
X71103937Y-64690226D01*
X70959774Y-64546063D01*
X70790256Y-64432795D01*
X70601898Y-64354774D01*
X70401939Y-64315000D01*
X70198061Y-64315000D01*
X69998102Y-64354774D01*
X69809744Y-64432795D01*
X69640226Y-64546063D01*
X69496063Y-64690226D01*
X69382795Y-64859744D01*
X69304774Y-65048102D01*
X69265000Y-65248061D01*
X54238072Y-65248061D01*
X54238072Y-65190000D01*
X54225812Y-65065518D01*
X54189502Y-64945820D01*
X54130537Y-64835506D01*
X54051185Y-64738815D01*
X53954494Y-64659463D01*
X53844180Y-64600498D01*
X53724482Y-64564188D01*
X53600000Y-64551928D01*
X51900000Y-64551928D01*
X51775518Y-64564188D01*
X51655820Y-64600498D01*
X51545506Y-64659463D01*
X51448815Y-64738815D01*
X51369463Y-64835506D01*
X51310498Y-64945820D01*
X51274188Y-65065518D01*
X51261928Y-65190000D01*
X50660000Y-65190000D01*
X50660000Y-64148061D01*
X74215000Y-64148061D01*
X74215000Y-64351939D01*
X74254774Y-64551898D01*
X74332795Y-64740256D01*
X74446063Y-64909774D01*
X74590226Y-65053937D01*
X74759744Y-65167205D01*
X74948102Y-65245226D01*
X75148061Y-65285000D01*
X75351939Y-65285000D01*
X75551898Y-65245226D01*
X75740256Y-65167205D01*
X75909774Y-65053937D01*
X76053937Y-64909774D01*
X76167205Y-64740256D01*
X76245226Y-64551898D01*
X76285000Y-64351939D01*
X76285000Y-64198061D01*
X87365000Y-64198061D01*
X87365000Y-64401939D01*
X87404774Y-64601898D01*
X87482795Y-64790256D01*
X87596063Y-64959774D01*
X87740226Y-65103937D01*
X87909744Y-65217205D01*
X88098102Y-65295226D01*
X88298061Y-65335000D01*
X88501939Y-65335000D01*
X88701898Y-65295226D01*
X88890256Y-65217205D01*
X89059774Y-65103937D01*
X89203937Y-64959774D01*
X89317205Y-64790256D01*
X89395226Y-64601898D01*
X89435000Y-64401939D01*
X89435000Y-64198061D01*
X89395226Y-63998102D01*
X89317205Y-63809744D01*
X89203937Y-63640226D01*
X89059774Y-63496063D01*
X88890256Y-63382795D01*
X88701898Y-63304774D01*
X88501939Y-63265000D01*
X88298061Y-63265000D01*
X88098102Y-63304774D01*
X87909744Y-63382795D01*
X87740226Y-63496063D01*
X87596063Y-63640226D01*
X87482795Y-63809744D01*
X87404774Y-63998102D01*
X87365000Y-64198061D01*
X76285000Y-64198061D01*
X76285000Y-64148061D01*
X76245226Y-63948102D01*
X76167205Y-63759744D01*
X76053937Y-63590226D01*
X75909774Y-63446063D01*
X75740256Y-63332795D01*
X75551898Y-63254774D01*
X75351939Y-63215000D01*
X75148061Y-63215000D01*
X74948102Y-63254774D01*
X74759744Y-63332795D01*
X74590226Y-63446063D01*
X74446063Y-63590226D01*
X74332795Y-63759744D01*
X74254774Y-63948102D01*
X74215000Y-64148061D01*
X50660000Y-64148061D01*
X50660000Y-59232818D01*
X52446787Y-59232818D01*
X52938946Y-59835149D01*
X53789933Y-60305063D01*
X54716243Y-60599929D01*
X55682281Y-60708414D01*
X56650921Y-60626351D01*
X57584938Y-60356893D01*
X58448440Y-59910394D01*
X58561054Y-59835149D01*
X59053213Y-59232818D01*
X102446787Y-59232818D01*
X102938946Y-59835149D01*
X103789933Y-60305063D01*
X104716243Y-60599929D01*
X105682281Y-60708414D01*
X106650921Y-60626351D01*
X107584938Y-60356893D01*
X108448440Y-59910394D01*
X108561054Y-59835149D01*
X109053213Y-59232818D01*
X105750000Y-55929605D01*
X102446787Y-59232818D01*
X59053213Y-59232818D01*
X55750000Y-55929605D01*
X52446787Y-59232818D01*
X50660000Y-59232818D01*
X50660000Y-55777089D01*
X50667794Y-55682281D01*
X50791586Y-55682281D01*
X50873649Y-56650921D01*
X51143107Y-57584938D01*
X51589606Y-58448440D01*
X51664851Y-58561054D01*
X52267182Y-59053213D01*
X55570395Y-55750000D01*
X55929605Y-55750000D01*
X59232818Y-59053213D01*
X59835149Y-58561054D01*
X60305063Y-57710067D01*
X60599929Y-56783757D01*
X60621750Y-56589449D01*
X60753202Y-56720901D01*
X60957926Y-56857693D01*
X61185402Y-56951917D01*
X61426890Y-56999952D01*
X61673110Y-56999952D01*
X61914598Y-56951917D01*
X62142074Y-56857693D01*
X62156489Y-56848061D01*
X94515000Y-56848061D01*
X94515000Y-57051939D01*
X94554774Y-57251898D01*
X94632795Y-57440256D01*
X94746063Y-57609774D01*
X94890226Y-57753937D01*
X95059744Y-57867205D01*
X95248102Y-57945226D01*
X95448061Y-57985000D01*
X95651939Y-57985000D01*
X95851898Y-57945226D01*
X96040256Y-57867205D01*
X96209774Y-57753937D01*
X96353937Y-57609774D01*
X96467205Y-57440256D01*
X96545226Y-57251898D01*
X96585000Y-57051939D01*
X96585000Y-56848061D01*
X96545226Y-56648102D01*
X96467205Y-56459744D01*
X96353937Y-56290226D01*
X96209774Y-56146063D01*
X96040256Y-56032795D01*
X95851898Y-55954774D01*
X95651939Y-55915000D01*
X95448061Y-55915000D01*
X95248102Y-55954774D01*
X95059744Y-56032795D01*
X94890226Y-56146063D01*
X94746063Y-56290226D01*
X94632795Y-56459744D01*
X94554774Y-56648102D01*
X94515000Y-56848061D01*
X62156489Y-56848061D01*
X62346798Y-56720901D01*
X62520901Y-56546798D01*
X62657693Y-56342074D01*
X62751917Y-56114598D01*
X62799952Y-55873110D01*
X62799952Y-55626890D01*
X62751917Y-55385402D01*
X62657693Y-55157926D01*
X62520901Y-54953202D01*
X62346798Y-54779099D01*
X62142074Y-54642307D01*
X61914598Y-54548083D01*
X61673110Y-54500048D01*
X61426890Y-54500048D01*
X61185402Y-54548083D01*
X60957926Y-54642307D01*
X60753202Y-54779099D01*
X60630793Y-54901508D01*
X60626351Y-54849079D01*
X60409688Y-54098061D01*
X65915000Y-54098061D01*
X65915000Y-54301939D01*
X65954774Y-54501898D01*
X66032795Y-54690256D01*
X66146063Y-54859774D01*
X66290226Y-55003937D01*
X66459744Y-55117205D01*
X66648102Y-55195226D01*
X66848061Y-55235000D01*
X67051939Y-55235000D01*
X67251898Y-55195226D01*
X67365763Y-55148061D01*
X83465000Y-55148061D01*
X83465000Y-55351939D01*
X83504774Y-55551898D01*
X83582795Y-55740256D01*
X83696063Y-55909774D01*
X83840226Y-56053937D01*
X84009744Y-56167205D01*
X84198102Y-56245226D01*
X84398061Y-56285000D01*
X84601939Y-56285000D01*
X84801898Y-56245226D01*
X84990256Y-56167205D01*
X85159774Y-56053937D01*
X85303937Y-55909774D01*
X85417205Y-55740256D01*
X85464163Y-55626890D01*
X98750048Y-55626890D01*
X98750048Y-55873110D01*
X98798083Y-56114598D01*
X98892307Y-56342074D01*
X99029099Y-56546798D01*
X99203202Y-56720901D01*
X99407926Y-56857693D01*
X99635402Y-56951917D01*
X99876890Y-56999952D01*
X100123110Y-56999952D01*
X100364598Y-56951917D01*
X100592074Y-56857693D01*
X100796798Y-56720901D01*
X100873112Y-56644587D01*
X100873649Y-56650921D01*
X101143107Y-57584938D01*
X101589606Y-58448440D01*
X101664851Y-58561054D01*
X102267182Y-59053213D01*
X105570395Y-55750000D01*
X105929605Y-55750000D01*
X109232818Y-59053213D01*
X109835149Y-58561054D01*
X110305063Y-57710067D01*
X110599929Y-56783757D01*
X110708414Y-55817719D01*
X110626351Y-54849079D01*
X110356893Y-53915062D01*
X109910394Y-53051560D01*
X109835149Y-52938946D01*
X109232818Y-52446787D01*
X105929605Y-55750000D01*
X105570395Y-55750000D01*
X102267182Y-52446787D01*
X101664851Y-52938946D01*
X101194937Y-53789933D01*
X100900071Y-54716243D01*
X100883298Y-54865599D01*
X100796798Y-54779099D01*
X100592074Y-54642307D01*
X100364598Y-54548083D01*
X100123110Y-54500048D01*
X99876890Y-54500048D01*
X99635402Y-54548083D01*
X99407926Y-54642307D01*
X99203202Y-54779099D01*
X99029099Y-54953202D01*
X98892307Y-55157926D01*
X98798083Y-55385402D01*
X98750048Y-55626890D01*
X85464163Y-55626890D01*
X85495226Y-55551898D01*
X85535000Y-55351939D01*
X85535000Y-55148061D01*
X85495226Y-54948102D01*
X85417205Y-54759744D01*
X85303937Y-54590226D01*
X85159774Y-54446063D01*
X84990256Y-54332795D01*
X84801898Y-54254774D01*
X84601939Y-54215000D01*
X84398061Y-54215000D01*
X84198102Y-54254774D01*
X84009744Y-54332795D01*
X83840226Y-54446063D01*
X83696063Y-54590226D01*
X83582795Y-54759744D01*
X83504774Y-54948102D01*
X83465000Y-55148061D01*
X67365763Y-55148061D01*
X67440256Y-55117205D01*
X67609774Y-55003937D01*
X67753937Y-54859774D01*
X67867205Y-54690256D01*
X67945226Y-54501898D01*
X67985000Y-54301939D01*
X67985000Y-54098061D01*
X67945226Y-53898102D01*
X67867205Y-53709744D01*
X67753937Y-53540226D01*
X67609774Y-53396063D01*
X67440256Y-53282795D01*
X67251898Y-53204774D01*
X67051939Y-53165000D01*
X66848061Y-53165000D01*
X66648102Y-53204774D01*
X66459744Y-53282795D01*
X66290226Y-53396063D01*
X66146063Y-53540226D01*
X66032795Y-53709744D01*
X65954774Y-53898102D01*
X65915000Y-54098061D01*
X60409688Y-54098061D01*
X60356893Y-53915062D01*
X59910394Y-53051560D01*
X59835149Y-52938946D01*
X59232818Y-52446787D01*
X55929605Y-55750000D01*
X55570395Y-55750000D01*
X52267182Y-52446787D01*
X51664851Y-52938946D01*
X51194937Y-53789933D01*
X50900071Y-54716243D01*
X50791586Y-55682281D01*
X50667794Y-55682281D01*
X50730545Y-54919030D01*
X50933662Y-54110389D01*
X51266129Y-53345767D01*
X51719011Y-52645719D01*
X52063452Y-52267182D01*
X52446787Y-52267182D01*
X55750000Y-55570395D01*
X59053213Y-52267182D01*
X58739414Y-51883137D01*
X79665000Y-51883137D01*
X79665000Y-52096863D01*
X79706696Y-52306483D01*
X79788485Y-52503940D01*
X79907225Y-52681647D01*
X80058353Y-52832775D01*
X80236060Y-52951515D01*
X80433517Y-53033304D01*
X80643137Y-53075000D01*
X80856863Y-53075000D01*
X81066483Y-53033304D01*
X81263940Y-52951515D01*
X81441647Y-52832775D01*
X81592775Y-52681647D01*
X81711515Y-52503940D01*
X81793304Y-52306483D01*
X81835000Y-52096863D01*
X81835000Y-51883137D01*
X82665000Y-51883137D01*
X82665000Y-52096863D01*
X82706696Y-52306483D01*
X82788485Y-52503940D01*
X82907225Y-52681647D01*
X83058353Y-52832775D01*
X83236060Y-52951515D01*
X83433517Y-53033304D01*
X83643137Y-53075000D01*
X83856863Y-53075000D01*
X84066483Y-53033304D01*
X84263940Y-52951515D01*
X84441647Y-52832775D01*
X84592775Y-52681647D01*
X84711515Y-52503940D01*
X84793304Y-52306483D01*
X84801121Y-52267182D01*
X102446787Y-52267182D01*
X105750000Y-55570395D01*
X109053213Y-52267182D01*
X108561054Y-51664851D01*
X107710067Y-51194937D01*
X106783757Y-50900071D01*
X105817719Y-50791586D01*
X104849079Y-50873649D01*
X103915062Y-51143107D01*
X103051560Y-51589606D01*
X102938946Y-51664851D01*
X102446787Y-52267182D01*
X84801121Y-52267182D01*
X84835000Y-52096863D01*
X84835000Y-51883137D01*
X84793304Y-51673517D01*
X84711515Y-51476060D01*
X84592775Y-51298353D01*
X84441647Y-51147225D01*
X84263940Y-51028485D01*
X84066483Y-50946696D01*
X83856863Y-50905000D01*
X83643137Y-50905000D01*
X83433517Y-50946696D01*
X83236060Y-51028485D01*
X83058353Y-51147225D01*
X82907225Y-51298353D01*
X82788485Y-51476060D01*
X82706696Y-51673517D01*
X82665000Y-51883137D01*
X81835000Y-51883137D01*
X81793304Y-51673517D01*
X81711515Y-51476060D01*
X81592775Y-51298353D01*
X81441647Y-51147225D01*
X81263940Y-51028485D01*
X81066483Y-50946696D01*
X80856863Y-50905000D01*
X80643137Y-50905000D01*
X80433517Y-50946696D01*
X80236060Y-51028485D01*
X80058353Y-51147225D01*
X79907225Y-51298353D01*
X79788485Y-51476060D01*
X79706696Y-51673517D01*
X79665000Y-51883137D01*
X58739414Y-51883137D01*
X58561054Y-51664851D01*
X57710067Y-51194937D01*
X56783757Y-50900071D01*
X55817719Y-50791586D01*
X54849079Y-50873649D01*
X53915062Y-51143107D01*
X53051560Y-51589606D01*
X52938946Y-51664851D01*
X52446787Y-52267182D01*
X52063452Y-52267182D01*
X52280146Y-52029039D01*
X52934469Y-51512286D01*
X53664406Y-51109339D01*
X54450353Y-50831022D01*
X55282603Y-50682775D01*
X55765547Y-50660000D01*
X105722911Y-50660000D01*
X106580970Y-50730545D01*
%TA.AperFunction,Conductor*%
D20*
G36*
X106580970Y-50730545D02*
G01*
X107389611Y-50933662D01*
X108154233Y-51266129D01*
X108854281Y-51719011D01*
X109470961Y-52280146D01*
X109987714Y-52934469D01*
X110390661Y-53664406D01*
X110668978Y-54450353D01*
X110817225Y-55282603D01*
X110840000Y-55765547D01*
X110840000Y-61536560D01*
X110824901Y-61528489D01*
X110592102Y-61457870D01*
X110410665Y-61440000D01*
X109589335Y-61440000D01*
X109407898Y-61457870D01*
X109175099Y-61528489D01*
X108960551Y-61643167D01*
X108772498Y-61797498D01*
X108618167Y-61985551D01*
X108503489Y-62200099D01*
X108432870Y-62432898D01*
X108409025Y-62675000D01*
X108432870Y-62917102D01*
X108435883Y-62927035D01*
X108356381Y-62808051D01*
X108166949Y-62618619D01*
X107944201Y-62469784D01*
X107696697Y-62367264D01*
X107433948Y-62315000D01*
X107166052Y-62315000D01*
X106903303Y-62367264D01*
X106655799Y-62469784D01*
X106433051Y-62618619D01*
X106243619Y-62808051D01*
X106094784Y-63030799D01*
X105992264Y-63278303D01*
X105940000Y-63541052D01*
X105940000Y-63808948D01*
X105992264Y-64071697D01*
X106094784Y-64319201D01*
X106243619Y-64541949D01*
X106433051Y-64731381D01*
X106655799Y-64880216D01*
X106903303Y-64982736D01*
X107166052Y-65035000D01*
X107433948Y-65035000D01*
X107696697Y-64982736D01*
X107944201Y-64880216D01*
X108166949Y-64731381D01*
X108356381Y-64541949D01*
X108505216Y-64319201D01*
X108607736Y-64071697D01*
X108660000Y-63808948D01*
X108660000Y-63541052D01*
X108627016Y-63375232D01*
X108772498Y-63552502D01*
X108960551Y-63706833D01*
X109175099Y-63821511D01*
X109407898Y-63892130D01*
X109589335Y-63910000D01*
X110410665Y-63910000D01*
X110592102Y-63892130D01*
X110824901Y-63821511D01*
X110840000Y-63813440D01*
X110840000Y-68536560D01*
X110824901Y-68528489D01*
X110592102Y-68457870D01*
X110410665Y-68440000D01*
X109589335Y-68440000D01*
X109407898Y-68457870D01*
X109175099Y-68528489D01*
X108960551Y-68643167D01*
X108772498Y-68797498D01*
X108627016Y-68974768D01*
X108660000Y-68808948D01*
X108660000Y-68541052D01*
X108607736Y-68278303D01*
X108505216Y-68030799D01*
X108356381Y-67808051D01*
X108166949Y-67618619D01*
X107944201Y-67469784D01*
X107696697Y-67367264D01*
X107433948Y-67315000D01*
X107166052Y-67315000D01*
X106903303Y-67367264D01*
X106655799Y-67469784D01*
X106433051Y-67618619D01*
X106243619Y-67808051D01*
X106094784Y-68030799D01*
X105992264Y-68278303D01*
X105940000Y-68541052D01*
X105940000Y-68808948D01*
X105992264Y-69071697D01*
X106094784Y-69319201D01*
X106243619Y-69541949D01*
X106433051Y-69731381D01*
X106655799Y-69880216D01*
X106903303Y-69982736D01*
X107166052Y-70035000D01*
X107433948Y-70035000D01*
X107696697Y-69982736D01*
X107944201Y-69880216D01*
X108166949Y-69731381D01*
X108356381Y-69541949D01*
X108435883Y-69422965D01*
X108432870Y-69432898D01*
X108409025Y-69675000D01*
X108432870Y-69917102D01*
X108503489Y-70149901D01*
X108618167Y-70364449D01*
X108772498Y-70552502D01*
X108960551Y-70706833D01*
X109175099Y-70821511D01*
X109407898Y-70892130D01*
X109589335Y-70910000D01*
X110410665Y-70910000D01*
X110592102Y-70892130D01*
X110824901Y-70821511D01*
X110840000Y-70813440D01*
X110840001Y-105722898D01*
X110769455Y-106580964D01*
X110566338Y-107389609D01*
X110233871Y-108154233D01*
X109780991Y-108854279D01*
X109219854Y-109470961D01*
X108565527Y-109987716D01*
X107835594Y-110390662D01*
X107049647Y-110668978D01*
X106217398Y-110817225D01*
X105734452Y-110840000D01*
X55777090Y-110840000D01*
X54919036Y-110769455D01*
X54110391Y-110566338D01*
X53345767Y-110233871D01*
X52645721Y-109780991D01*
X52043287Y-109232818D01*
X52446787Y-109232818D01*
X52938946Y-109835149D01*
X53789933Y-110305063D01*
X54716243Y-110599929D01*
X55682281Y-110708414D01*
X56650921Y-110626351D01*
X57584938Y-110356893D01*
X58448440Y-109910394D01*
X58561054Y-109835149D01*
X59053213Y-109232818D01*
X102446787Y-109232818D01*
X102938946Y-109835149D01*
X103789933Y-110305063D01*
X104716243Y-110599929D01*
X105682281Y-110708414D01*
X106650921Y-110626351D01*
X107584938Y-110356893D01*
X108448440Y-109910394D01*
X108561054Y-109835149D01*
X109053213Y-109232818D01*
X105750000Y-105929605D01*
X102446787Y-109232818D01*
X59053213Y-109232818D01*
X55750000Y-105929605D01*
X52446787Y-109232818D01*
X52043287Y-109232818D01*
X52029039Y-109219854D01*
X51512284Y-108565527D01*
X51109338Y-107835594D01*
X50831022Y-107049647D01*
X50682775Y-106217398D01*
X50660000Y-105734452D01*
X50660000Y-105682281D01*
X50791586Y-105682281D01*
X50873649Y-106650921D01*
X51143107Y-107584938D01*
X51589606Y-108448440D01*
X51664851Y-108561054D01*
X52267182Y-109053213D01*
X55570395Y-105750000D01*
X55929605Y-105750000D01*
X59232818Y-109053213D01*
X59835149Y-108561054D01*
X60305063Y-107710067D01*
X60599929Y-106783757D01*
X60708414Y-105817719D01*
X60626351Y-104849079D01*
X60366973Y-103950000D01*
X66311928Y-103950000D01*
X66311928Y-106550000D01*
X66324188Y-106674482D01*
X66360498Y-106794180D01*
X66419463Y-106904494D01*
X66498815Y-107001185D01*
X66595506Y-107080537D01*
X66705820Y-107139502D01*
X66825518Y-107175812D01*
X66950000Y-107188072D01*
X69550000Y-107188072D01*
X69674482Y-107175812D01*
X69794180Y-107139502D01*
X69904494Y-107080537D01*
X70001185Y-107001185D01*
X70080537Y-106904494D01*
X70139502Y-106794180D01*
X70175812Y-106674482D01*
X70183224Y-106599224D01*
X72080381Y-106599224D01*
X72212317Y-106894312D01*
X72553045Y-107065159D01*
X72920557Y-107166250D01*
X73300729Y-107193701D01*
X73678951Y-107146457D01*
X74040690Y-107026333D01*
X74287683Y-106894312D01*
X74419619Y-106599224D01*
X73250000Y-105429605D01*
X72080381Y-106599224D01*
X70183224Y-106599224D01*
X70188072Y-106550000D01*
X70188072Y-105300729D01*
X71306299Y-105300729D01*
X71353543Y-105678951D01*
X71473667Y-106040690D01*
X71605688Y-106287683D01*
X71900776Y-106419619D01*
X73070395Y-105250000D01*
X73429605Y-105250000D01*
X74599224Y-106419619D01*
X74894312Y-106287683D01*
X75065159Y-105946955D01*
X75153198Y-105626890D01*
X98750048Y-105626890D01*
X98750048Y-105873110D01*
X98798083Y-106114598D01*
X98892307Y-106342074D01*
X99029099Y-106546798D01*
X99203202Y-106720901D01*
X99407926Y-106857693D01*
X99635402Y-106951917D01*
X99876890Y-106999952D01*
X100123110Y-106999952D01*
X100364598Y-106951917D01*
X100592074Y-106857693D01*
X100796798Y-106720901D01*
X100873112Y-106644587D01*
X100873649Y-106650921D01*
X101143107Y-107584938D01*
X101589606Y-108448440D01*
X101664851Y-108561054D01*
X102267182Y-109053213D01*
X105570395Y-105750000D01*
X105929605Y-105750000D01*
X109232818Y-109053213D01*
X109835149Y-108561054D01*
X110305063Y-107710067D01*
X110599929Y-106783757D01*
X110708414Y-105817719D01*
X110626351Y-104849079D01*
X110356893Y-103915062D01*
X109910394Y-103051560D01*
X109835149Y-102938946D01*
X109232818Y-102446787D01*
X105929605Y-105750000D01*
X105570395Y-105750000D01*
X102267182Y-102446787D01*
X101664851Y-102938946D01*
X101194937Y-103789933D01*
X100900071Y-104716243D01*
X100883298Y-104865599D01*
X100796798Y-104779099D01*
X100592074Y-104642307D01*
X100364598Y-104548083D01*
X100123110Y-104500048D01*
X99876890Y-104500048D01*
X99635402Y-104548083D01*
X99407926Y-104642307D01*
X99203202Y-104779099D01*
X99029099Y-104953202D01*
X98892307Y-105157926D01*
X98798083Y-105385402D01*
X98750048Y-105626890D01*
X75153198Y-105626890D01*
X75166250Y-105579443D01*
X75193701Y-105199271D01*
X75146457Y-104821049D01*
X75026333Y-104459310D01*
X74894312Y-104212317D01*
X74599224Y-104080381D01*
X73429605Y-105250000D01*
X73070395Y-105250000D01*
X71900776Y-104080381D01*
X71605688Y-104212317D01*
X71434841Y-104553045D01*
X71333750Y-104920557D01*
X71306299Y-105300729D01*
X70188072Y-105300729D01*
X70188072Y-103950000D01*
X70183225Y-103900776D01*
X72080381Y-103900776D01*
X73250000Y-105070395D01*
X74419619Y-103900776D01*
X74287683Y-103605688D01*
X73946955Y-103434841D01*
X73579443Y-103333750D01*
X73199271Y-103306299D01*
X72821049Y-103353543D01*
X72459310Y-103473667D01*
X72212317Y-103605688D01*
X72080381Y-103900776D01*
X70183225Y-103900776D01*
X70175812Y-103825518D01*
X70139502Y-103705820D01*
X70080537Y-103595506D01*
X70001185Y-103498815D01*
X69904494Y-103419463D01*
X69794180Y-103360498D01*
X69674482Y-103324188D01*
X69550000Y-103311928D01*
X66950000Y-103311928D01*
X66825518Y-103324188D01*
X66705820Y-103360498D01*
X66595506Y-103419463D01*
X66498815Y-103498815D01*
X66419463Y-103595506D01*
X66360498Y-103705820D01*
X66324188Y-103825518D01*
X66311928Y-103950000D01*
X60366973Y-103950000D01*
X60356893Y-103915062D01*
X59910394Y-103051560D01*
X59835149Y-102938946D01*
X59232818Y-102446787D01*
X55929605Y-105750000D01*
X55570395Y-105750000D01*
X52267182Y-102446787D01*
X51664851Y-102938946D01*
X51194937Y-103789933D01*
X50900071Y-104716243D01*
X50791586Y-105682281D01*
X50660000Y-105682281D01*
X50660000Y-102267182D01*
X52446787Y-102267182D01*
X55750000Y-105570395D01*
X59053213Y-102267182D01*
X102446787Y-102267182D01*
X105750000Y-105570395D01*
X109053213Y-102267182D01*
X108561054Y-101664851D01*
X107710067Y-101194937D01*
X106783757Y-100900071D01*
X105817719Y-100791586D01*
X104849079Y-100873649D01*
X103915062Y-101143107D01*
X103051560Y-101589606D01*
X102938946Y-101664851D01*
X102446787Y-102267182D01*
X59053213Y-102267182D01*
X58561054Y-101664851D01*
X57710067Y-101194937D01*
X56783757Y-100900071D01*
X55817719Y-100791586D01*
X54849079Y-100873649D01*
X53915062Y-101143107D01*
X53051560Y-101589606D01*
X52938946Y-101664851D01*
X52446787Y-102267182D01*
X50660000Y-102267182D01*
X50660000Y-98148061D01*
X79815000Y-98148061D01*
X79815000Y-98351939D01*
X79854774Y-98551898D01*
X79932795Y-98740256D01*
X80046063Y-98909774D01*
X80190226Y-99053937D01*
X80359744Y-99167205D01*
X80548102Y-99245226D01*
X80748061Y-99285000D01*
X80951939Y-99285000D01*
X81151898Y-99245226D01*
X81340256Y-99167205D01*
X81509774Y-99053937D01*
X81653937Y-98909774D01*
X81767205Y-98740256D01*
X81845226Y-98551898D01*
X81885000Y-98351939D01*
X81885000Y-98148061D01*
X81879697Y-98121402D01*
X81948061Y-98135000D01*
X82151939Y-98135000D01*
X82351898Y-98095226D01*
X82500000Y-98033880D01*
X82648102Y-98095226D01*
X82848061Y-98135000D01*
X83051939Y-98135000D01*
X83251898Y-98095226D01*
X83440256Y-98017205D01*
X83609774Y-97903937D01*
X83753937Y-97759774D01*
X83867205Y-97590256D01*
X83945226Y-97401898D01*
X83985000Y-97201939D01*
X83985000Y-96998061D01*
X83945226Y-96798102D01*
X83867205Y-96609744D01*
X83753937Y-96440226D01*
X83609774Y-96296063D01*
X83440256Y-96182795D01*
X83251898Y-96104774D01*
X83051939Y-96065000D01*
X82848061Y-96065000D01*
X82648102Y-96104774D01*
X82500000Y-96166120D01*
X82351898Y-96104774D01*
X82151939Y-96065000D01*
X81948061Y-96065000D01*
X81748102Y-96104774D01*
X81559744Y-96182795D01*
X81390226Y-96296063D01*
X81246063Y-96440226D01*
X81132795Y-96609744D01*
X81054774Y-96798102D01*
X81015000Y-96998061D01*
X81015000Y-97201939D01*
X81020303Y-97228598D01*
X80951939Y-97215000D01*
X80748061Y-97215000D01*
X80548102Y-97254774D01*
X80359744Y-97332795D01*
X80190226Y-97446063D01*
X80046063Y-97590226D01*
X79932795Y-97759744D01*
X79854774Y-97948102D01*
X79815000Y-98148061D01*
X50660000Y-98148061D01*
X50660000Y-94971890D01*
X51263524Y-94971890D01*
X51308175Y-95119099D01*
X51433359Y-95381920D01*
X51607412Y-95615269D01*
X51823645Y-95810178D01*
X52073748Y-95959157D01*
X52348109Y-96056481D01*
X52578000Y-95935814D01*
X52578000Y-94742000D01*
X52832000Y-94742000D01*
X52832000Y-95935814D01*
X53061891Y-96056481D01*
X53336252Y-95959157D01*
X53586355Y-95810178D01*
X53802588Y-95615269D01*
X53976641Y-95381920D01*
X54101825Y-95119099D01*
X54146476Y-94971890D01*
X54025155Y-94742000D01*
X52832000Y-94742000D01*
X52578000Y-94742000D01*
X51384845Y-94742000D01*
X51263524Y-94971890D01*
X50660000Y-94971890D01*
X50660000Y-81065000D01*
X51216928Y-81065000D01*
X51216928Y-82765000D01*
X51229188Y-82889482D01*
X51265498Y-83009180D01*
X51324463Y-83119494D01*
X51403815Y-83216185D01*
X51500506Y-83295537D01*
X51610820Y-83354502D01*
X51683380Y-83376513D01*
X51551525Y-83508368D01*
X51389010Y-83751589D01*
X51277068Y-84021842D01*
X51220000Y-84308740D01*
X51220000Y-84601260D01*
X51277068Y-84888158D01*
X51389010Y-85158411D01*
X51551525Y-85401632D01*
X51758368Y-85608475D01*
X51932760Y-85725000D01*
X51758368Y-85841525D01*
X51551525Y-86048368D01*
X51389010Y-86291589D01*
X51277068Y-86561842D01*
X51220000Y-86848740D01*
X51220000Y-87141260D01*
X51277068Y-87428158D01*
X51389010Y-87698411D01*
X51551525Y-87941632D01*
X51758368Y-88148475D01*
X51932760Y-88265000D01*
X51758368Y-88381525D01*
X51551525Y-88588368D01*
X51389010Y-88831589D01*
X51277068Y-89101842D01*
X51220000Y-89388740D01*
X51220000Y-89681260D01*
X51277068Y-89968158D01*
X51389010Y-90238411D01*
X51551525Y-90481632D01*
X51758368Y-90688475D01*
X51932760Y-90805000D01*
X51758368Y-90921525D01*
X51551525Y-91128368D01*
X51389010Y-91371589D01*
X51277068Y-91641842D01*
X51220000Y-91928740D01*
X51220000Y-92221260D01*
X51277068Y-92508158D01*
X51389010Y-92778411D01*
X51551525Y-93021632D01*
X51758368Y-93228475D01*
X51940534Y-93350195D01*
X51823645Y-93419822D01*
X51607412Y-93614731D01*
X51433359Y-93848080D01*
X51308175Y-94110901D01*
X51263524Y-94258110D01*
X51384845Y-94488000D01*
X52578000Y-94488000D01*
X52578000Y-94468000D01*
X52832000Y-94468000D01*
X52832000Y-94488000D01*
X54025155Y-94488000D01*
X54146476Y-94258110D01*
X54101825Y-94110901D01*
X53976641Y-93848080D01*
X53976627Y-93848061D01*
X74615000Y-93848061D01*
X74615000Y-94051939D01*
X74654774Y-94251898D01*
X74732795Y-94440256D01*
X74846063Y-94609774D01*
X74990226Y-94753937D01*
X75159744Y-94867205D01*
X75348102Y-94945226D01*
X75548061Y-94985000D01*
X75751939Y-94985000D01*
X75806592Y-94974129D01*
X75782795Y-95009744D01*
X75704774Y-95198102D01*
X75665000Y-95398061D01*
X75665000Y-95601939D01*
X75704774Y-95801898D01*
X75782795Y-95990256D01*
X75896063Y-96159774D01*
X76040226Y-96303937D01*
X76209744Y-96417205D01*
X76398102Y-96495226D01*
X76598061Y-96535000D01*
X76801939Y-96535000D01*
X77001898Y-96495226D01*
X77190256Y-96417205D01*
X77359774Y-96303937D01*
X77503937Y-96159774D01*
X77617205Y-95990256D01*
X77695226Y-95801898D01*
X77725825Y-95648061D01*
X100215000Y-95648061D01*
X100215000Y-95851939D01*
X100254774Y-96051898D01*
X100332795Y-96240256D01*
X100446063Y-96409774D01*
X100590226Y-96553937D01*
X100759744Y-96667205D01*
X100948102Y-96745226D01*
X101148061Y-96785000D01*
X101351939Y-96785000D01*
X101551898Y-96745226D01*
X101740256Y-96667205D01*
X101909774Y-96553937D01*
X102053937Y-96409774D01*
X102167205Y-96240256D01*
X102245226Y-96051898D01*
X102285000Y-95851939D01*
X102285000Y-95648061D01*
X102245226Y-95448102D01*
X102167205Y-95259744D01*
X102053937Y-95090226D01*
X101909774Y-94946063D01*
X101740256Y-94832795D01*
X101551898Y-94754774D01*
X101351939Y-94715000D01*
X101148061Y-94715000D01*
X100948102Y-94754774D01*
X100759744Y-94832795D01*
X100590226Y-94946063D01*
X100446063Y-95090226D01*
X100332795Y-95259744D01*
X100254774Y-95448102D01*
X100215000Y-95648061D01*
X77725825Y-95648061D01*
X77735000Y-95601939D01*
X77735000Y-95398061D01*
X77695226Y-95198102D01*
X77617205Y-95009744D01*
X77503937Y-94840226D01*
X77359774Y-94696063D01*
X77190256Y-94582795D01*
X77001898Y-94504774D01*
X76801939Y-94465000D01*
X76598061Y-94465000D01*
X76543408Y-94475871D01*
X76567205Y-94440256D01*
X76645226Y-94251898D01*
X76685000Y-94051939D01*
X76685000Y-93848061D01*
X76645226Y-93648102D01*
X76567205Y-93459744D01*
X76504878Y-93366465D01*
X76598061Y-93385000D01*
X76801939Y-93385000D01*
X77001898Y-93345226D01*
X77190256Y-93267205D01*
X77359774Y-93153937D01*
X77503937Y-93009774D01*
X77611989Y-92848061D01*
X80165000Y-92848061D01*
X80165000Y-93051939D01*
X80204774Y-93251898D01*
X80282795Y-93440256D01*
X80396063Y-93609774D01*
X80540226Y-93753937D01*
X80709744Y-93867205D01*
X80898102Y-93945226D01*
X81098061Y-93985000D01*
X81301939Y-93985000D01*
X81501898Y-93945226D01*
X81690256Y-93867205D01*
X81859774Y-93753937D01*
X82003937Y-93609774D01*
X82117205Y-93440256D01*
X82195226Y-93251898D01*
X82235000Y-93051939D01*
X82235000Y-92867263D01*
X82309744Y-92917205D01*
X82498102Y-92995226D01*
X82698061Y-93035000D01*
X82901939Y-93035000D01*
X83101898Y-92995226D01*
X83290256Y-92917205D01*
X83459774Y-92803937D01*
X83603937Y-92659774D01*
X83717205Y-92490256D01*
X83795226Y-92301898D01*
X83835000Y-92101939D01*
X83835000Y-91898061D01*
X83795226Y-91698102D01*
X83717205Y-91509744D01*
X83603937Y-91340226D01*
X83513711Y-91250000D01*
X83603937Y-91159774D01*
X83717205Y-90990256D01*
X83795226Y-90801898D01*
X83835000Y-90601939D01*
X83835000Y-90398061D01*
X83795226Y-90198102D01*
X83717205Y-90009744D01*
X83603937Y-89840226D01*
X83459774Y-89696063D01*
X83290256Y-89582795D01*
X83101898Y-89504774D01*
X82901939Y-89465000D01*
X82698061Y-89465000D01*
X82498102Y-89504774D01*
X82309744Y-89582795D01*
X82285000Y-89599328D01*
X82285000Y-89448061D01*
X82245226Y-89248102D01*
X82167205Y-89059744D01*
X82053937Y-88890226D01*
X81909774Y-88746063D01*
X81740256Y-88632795D01*
X81551898Y-88554774D01*
X81351939Y-88515000D01*
X81148061Y-88515000D01*
X80948102Y-88554774D01*
X80759744Y-88632795D01*
X80590226Y-88746063D01*
X80446063Y-88890226D01*
X80332795Y-89059744D01*
X80254774Y-89248102D01*
X80215000Y-89448061D01*
X80215000Y-89651939D01*
X80254774Y-89851898D01*
X80332795Y-90040256D01*
X80446063Y-90209774D01*
X80590226Y-90353937D01*
X80759744Y-90467205D01*
X80948102Y-90545226D01*
X81148061Y-90585000D01*
X81351939Y-90585000D01*
X81551898Y-90545226D01*
X81740256Y-90467205D01*
X81765000Y-90450672D01*
X81765000Y-90601939D01*
X81804774Y-90801898D01*
X81882795Y-90990256D01*
X81996063Y-91159774D01*
X82086289Y-91250000D01*
X81996063Y-91340226D01*
X81882795Y-91509744D01*
X81804774Y-91698102D01*
X81765000Y-91898061D01*
X81765000Y-92082737D01*
X81690256Y-92032795D01*
X81501898Y-91954774D01*
X81301939Y-91915000D01*
X81098061Y-91915000D01*
X80898102Y-91954774D01*
X80709744Y-92032795D01*
X80540226Y-92146063D01*
X80396063Y-92290226D01*
X80282795Y-92459744D01*
X80204774Y-92648102D01*
X80165000Y-92848061D01*
X77611989Y-92848061D01*
X77617205Y-92840256D01*
X77695226Y-92651898D01*
X77735000Y-92451939D01*
X77735000Y-92248061D01*
X77695226Y-92048102D01*
X77617205Y-91859744D01*
X77510468Y-91700000D01*
X77617205Y-91540256D01*
X77695226Y-91351898D01*
X77735000Y-91151939D01*
X77735000Y-90948061D01*
X77695226Y-90748102D01*
X77617205Y-90559744D01*
X77503937Y-90390226D01*
X77359774Y-90246063D01*
X77190256Y-90132795D01*
X77001898Y-90054774D01*
X76801939Y-90015000D01*
X76600672Y-90015000D01*
X76617205Y-89990256D01*
X76695226Y-89801898D01*
X76735000Y-89601939D01*
X76735000Y-89398061D01*
X76695226Y-89198102D01*
X76617205Y-89009744D01*
X76562542Y-88927935D01*
X76598061Y-88935000D01*
X76801939Y-88935000D01*
X77001898Y-88895226D01*
X77190256Y-88817205D01*
X77359774Y-88703937D01*
X77503937Y-88559774D01*
X77617205Y-88390256D01*
X77695226Y-88201898D01*
X77735000Y-88001939D01*
X77735000Y-87798061D01*
X77695226Y-87598102D01*
X77617205Y-87409744D01*
X77503937Y-87240226D01*
X77359774Y-87096063D01*
X77190256Y-86982795D01*
X77001898Y-86904774D01*
X76801939Y-86865000D01*
X76598061Y-86865000D01*
X76398102Y-86904774D01*
X76209744Y-86982795D01*
X76040226Y-87096063D01*
X75896063Y-87240226D01*
X75782795Y-87409744D01*
X75704774Y-87598102D01*
X75665000Y-87798061D01*
X75665000Y-88001939D01*
X75704774Y-88201898D01*
X75782795Y-88390256D01*
X75837458Y-88472065D01*
X75801939Y-88465000D01*
X75598061Y-88465000D01*
X75398102Y-88504774D01*
X75209744Y-88582795D01*
X75040226Y-88696063D01*
X74896063Y-88840226D01*
X74782795Y-89009744D01*
X74704774Y-89198102D01*
X74665000Y-89398061D01*
X74665000Y-89601939D01*
X74704774Y-89801898D01*
X74782795Y-89990256D01*
X74896063Y-90159774D01*
X75040226Y-90303937D01*
X75209744Y-90417205D01*
X75398102Y-90495226D01*
X75598061Y-90535000D01*
X75799328Y-90535000D01*
X75782795Y-90559744D01*
X75704774Y-90748102D01*
X75665000Y-90948061D01*
X75665000Y-91151939D01*
X75704774Y-91351898D01*
X75782795Y-91540256D01*
X75889532Y-91700000D01*
X75782795Y-91859744D01*
X75704774Y-92048102D01*
X75665000Y-92248061D01*
X75665000Y-92451939D01*
X75704774Y-92651898D01*
X75782795Y-92840256D01*
X75845122Y-92933535D01*
X75751939Y-92915000D01*
X75548061Y-92915000D01*
X75348102Y-92954774D01*
X75159744Y-93032795D01*
X74990226Y-93146063D01*
X74846063Y-93290226D01*
X74732795Y-93459744D01*
X74654774Y-93648102D01*
X74615000Y-93848061D01*
X53976627Y-93848061D01*
X53802588Y-93614731D01*
X53586355Y-93419822D01*
X53469466Y-93350195D01*
X53651632Y-93228475D01*
X53858475Y-93021632D01*
X54020990Y-92778411D01*
X54132932Y-92508158D01*
X54190000Y-92221260D01*
X54190000Y-91928740D01*
X54132932Y-91641842D01*
X54020990Y-91371589D01*
X53858475Y-91128368D01*
X53651632Y-90921525D01*
X53477240Y-90805000D01*
X53651632Y-90688475D01*
X53858475Y-90481632D01*
X54020990Y-90238411D01*
X54132932Y-89968158D01*
X54190000Y-89681260D01*
X54190000Y-89388740D01*
X54132932Y-89101842D01*
X54020990Y-88831589D01*
X53858475Y-88588368D01*
X53651632Y-88381525D01*
X53477240Y-88265000D01*
X53651632Y-88148475D01*
X53858475Y-87941632D01*
X54020990Y-87698411D01*
X54132932Y-87428158D01*
X54190000Y-87141260D01*
X54190000Y-86848740D01*
X54132932Y-86561842D01*
X54020990Y-86291589D01*
X53858475Y-86048368D01*
X53651632Y-85841525D01*
X53477240Y-85725000D01*
X53651632Y-85608475D01*
X53858475Y-85401632D01*
X54020990Y-85158411D01*
X54132932Y-84888158D01*
X54190000Y-84601260D01*
X54190000Y-84308740D01*
X54132932Y-84021842D01*
X54020990Y-83751589D01*
X53858475Y-83508368D01*
X53726620Y-83376513D01*
X53799180Y-83354502D01*
X53909494Y-83295537D01*
X54006185Y-83216185D01*
X54085537Y-83119494D01*
X54144502Y-83009180D01*
X54180812Y-82889482D01*
X54193072Y-82765000D01*
X54193072Y-81998061D01*
X73465000Y-81998061D01*
X73465000Y-82201939D01*
X73504774Y-82401898D01*
X73582795Y-82590256D01*
X73696063Y-82759774D01*
X73840226Y-82903937D01*
X74009744Y-83017205D01*
X74198102Y-83095226D01*
X74398061Y-83135000D01*
X74601939Y-83135000D01*
X74801898Y-83095226D01*
X74990256Y-83017205D01*
X75159774Y-82903937D01*
X75303937Y-82759774D01*
X75417205Y-82590256D01*
X75495226Y-82401898D01*
X75535000Y-82201939D01*
X75535000Y-81998061D01*
X75495226Y-81798102D01*
X75417205Y-81609744D01*
X75303937Y-81440226D01*
X75159774Y-81296063D01*
X74990256Y-81182795D01*
X74801898Y-81104774D01*
X74601939Y-81065000D01*
X74398061Y-81065000D01*
X74198102Y-81104774D01*
X74009744Y-81182795D01*
X73840226Y-81296063D01*
X73696063Y-81440226D01*
X73582795Y-81609744D01*
X73504774Y-81798102D01*
X73465000Y-81998061D01*
X54193072Y-81998061D01*
X54193072Y-81065000D01*
X54180812Y-80940518D01*
X54144502Y-80820820D01*
X54085537Y-80710506D01*
X54006185Y-80613815D01*
X53909494Y-80534463D01*
X53799180Y-80475498D01*
X53679482Y-80439188D01*
X53555000Y-80426928D01*
X51855000Y-80426928D01*
X51730518Y-80439188D01*
X51610820Y-80475498D01*
X51500506Y-80534463D01*
X51403815Y-80613815D01*
X51324463Y-80710506D01*
X51265498Y-80820820D01*
X51229188Y-80940518D01*
X51216928Y-81065000D01*
X50660000Y-81065000D01*
X50660000Y-78998061D01*
X81665000Y-78998061D01*
X81665000Y-79201939D01*
X81704774Y-79401898D01*
X81782795Y-79590256D01*
X81896063Y-79759774D01*
X82040226Y-79903937D01*
X82209744Y-80017205D01*
X82398102Y-80095226D01*
X82598061Y-80135000D01*
X82801939Y-80135000D01*
X83001898Y-80095226D01*
X83190256Y-80017205D01*
X83359774Y-79903937D01*
X83503937Y-79759774D01*
X83617205Y-79590256D01*
X83695226Y-79401898D01*
X83735000Y-79201939D01*
X83735000Y-78998061D01*
X83695226Y-78798102D01*
X83617205Y-78609744D01*
X83503937Y-78440226D01*
X83359774Y-78296063D01*
X83190256Y-78182795D01*
X83001898Y-78104774D01*
X82801939Y-78065000D01*
X82598061Y-78065000D01*
X82398102Y-78104774D01*
X82209744Y-78182795D01*
X82040226Y-78296063D01*
X81896063Y-78440226D01*
X81782795Y-78609744D01*
X81704774Y-78798102D01*
X81665000Y-78998061D01*
X50660000Y-78998061D01*
X50660000Y-76298061D01*
X63865000Y-76298061D01*
X63865000Y-76501939D01*
X63904774Y-76701898D01*
X63982795Y-76890256D01*
X64096063Y-77059774D01*
X64240226Y-77203937D01*
X64409744Y-77317205D01*
X64598102Y-77395226D01*
X64798061Y-77435000D01*
X65001939Y-77435000D01*
X65201898Y-77395226D01*
X65390256Y-77317205D01*
X65559774Y-77203937D01*
X65703937Y-77059774D01*
X65817205Y-76890256D01*
X65895226Y-76701898D01*
X65935000Y-76501939D01*
X65935000Y-76298061D01*
X65895226Y-76098102D01*
X65848378Y-75985000D01*
X107096928Y-75985000D01*
X107096928Y-77685000D01*
X107109188Y-77809482D01*
X107145498Y-77929180D01*
X107204463Y-78039494D01*
X107283815Y-78136185D01*
X107380506Y-78215537D01*
X107490820Y-78274502D01*
X107563380Y-78296513D01*
X107431525Y-78428368D01*
X107269010Y-78671589D01*
X107157068Y-78941842D01*
X107100000Y-79228740D01*
X107100000Y-79521260D01*
X107157068Y-79808158D01*
X107269010Y-80078411D01*
X107431525Y-80321632D01*
X107638368Y-80528475D01*
X107812760Y-80645000D01*
X107638368Y-80761525D01*
X107431525Y-80968368D01*
X107269010Y-81211589D01*
X107157068Y-81481842D01*
X107100000Y-81768740D01*
X107100000Y-82061260D01*
X107157068Y-82348158D01*
X107269010Y-82618411D01*
X107431525Y-82861632D01*
X107638368Y-83068475D01*
X107812760Y-83185000D01*
X107638368Y-83301525D01*
X107431525Y-83508368D01*
X107269010Y-83751589D01*
X107157068Y-84021842D01*
X107100000Y-84308740D01*
X107100000Y-84601260D01*
X107157068Y-84888158D01*
X107269010Y-85158411D01*
X107431525Y-85401632D01*
X107638368Y-85608475D01*
X107812760Y-85725000D01*
X107638368Y-85841525D01*
X107431525Y-86048368D01*
X107269010Y-86291589D01*
X107157068Y-86561842D01*
X107100000Y-86848740D01*
X107100000Y-87141260D01*
X107157068Y-87428158D01*
X107269010Y-87698411D01*
X107431525Y-87941632D01*
X107638368Y-88148475D01*
X107812760Y-88265000D01*
X107638368Y-88381525D01*
X107431525Y-88588368D01*
X107269010Y-88831589D01*
X107157068Y-89101842D01*
X107100000Y-89388740D01*
X107100000Y-89681260D01*
X107157068Y-89968158D01*
X107269010Y-90238411D01*
X107431525Y-90481632D01*
X107638368Y-90688475D01*
X107812760Y-90805000D01*
X107638368Y-90921525D01*
X107431525Y-91128368D01*
X107269010Y-91371589D01*
X107157068Y-91641842D01*
X107100000Y-91928740D01*
X107100000Y-92221260D01*
X107157068Y-92508158D01*
X107269010Y-92778411D01*
X107431525Y-93021632D01*
X107638368Y-93228475D01*
X107812760Y-93345000D01*
X107638368Y-93461525D01*
X107431525Y-93668368D01*
X107269010Y-93911589D01*
X107157068Y-94181842D01*
X107100000Y-94468740D01*
X107100000Y-94761260D01*
X107157068Y-95048158D01*
X107269010Y-95318411D01*
X107431525Y-95561632D01*
X107638368Y-95768475D01*
X107881589Y-95930990D01*
X108151842Y-96042932D01*
X108438740Y-96100000D01*
X108731260Y-96100000D01*
X109018158Y-96042932D01*
X109288411Y-95930990D01*
X109531632Y-95768475D01*
X109738475Y-95561632D01*
X109900990Y-95318411D01*
X110012932Y-95048158D01*
X110070000Y-94761260D01*
X110070000Y-94468740D01*
X110012932Y-94181842D01*
X109900990Y-93911589D01*
X109738475Y-93668368D01*
X109531632Y-93461525D01*
X109357240Y-93345000D01*
X109531632Y-93228475D01*
X109738475Y-93021632D01*
X109900990Y-92778411D01*
X110012932Y-92508158D01*
X110070000Y-92221260D01*
X110070000Y-91928740D01*
X110012932Y-91641842D01*
X109900990Y-91371589D01*
X109738475Y-91128368D01*
X109531632Y-90921525D01*
X109357240Y-90805000D01*
X109531632Y-90688475D01*
X109738475Y-90481632D01*
X109900990Y-90238411D01*
X110012932Y-89968158D01*
X110070000Y-89681260D01*
X110070000Y-89388740D01*
X110012932Y-89101842D01*
X109900990Y-88831589D01*
X109738475Y-88588368D01*
X109531632Y-88381525D01*
X109357240Y-88265000D01*
X109531632Y-88148475D01*
X109738475Y-87941632D01*
X109900990Y-87698411D01*
X110012932Y-87428158D01*
X110070000Y-87141260D01*
X110070000Y-86848740D01*
X110012932Y-86561842D01*
X109900990Y-86291589D01*
X109738475Y-86048368D01*
X109531632Y-85841525D01*
X109357240Y-85725000D01*
X109531632Y-85608475D01*
X109738475Y-85401632D01*
X109900990Y-85158411D01*
X110012932Y-84888158D01*
X110070000Y-84601260D01*
X110070000Y-84308740D01*
X110012932Y-84021842D01*
X109900990Y-83751589D01*
X109738475Y-83508368D01*
X109531632Y-83301525D01*
X109357240Y-83185000D01*
X109531632Y-83068475D01*
X109738475Y-82861632D01*
X109900990Y-82618411D01*
X110012932Y-82348158D01*
X110070000Y-82061260D01*
X110070000Y-81768740D01*
X110012932Y-81481842D01*
X109900990Y-81211589D01*
X109738475Y-80968368D01*
X109531632Y-80761525D01*
X109357240Y-80645000D01*
X109531632Y-80528475D01*
X109738475Y-80321632D01*
X109900990Y-80078411D01*
X110012932Y-79808158D01*
X110070000Y-79521260D01*
X110070000Y-79228740D01*
X110012932Y-78941842D01*
X109900990Y-78671589D01*
X109738475Y-78428368D01*
X109606620Y-78296513D01*
X109679180Y-78274502D01*
X109789494Y-78215537D01*
X109886185Y-78136185D01*
X109965537Y-78039494D01*
X110024502Y-77929180D01*
X110060812Y-77809482D01*
X110073072Y-77685000D01*
X110073072Y-75985000D01*
X110060812Y-75860518D01*
X110024502Y-75740820D01*
X109965537Y-75630506D01*
X109886185Y-75533815D01*
X109789494Y-75454463D01*
X109679180Y-75395498D01*
X109559482Y-75359188D01*
X109435000Y-75346928D01*
X107735000Y-75346928D01*
X107610518Y-75359188D01*
X107490820Y-75395498D01*
X107380506Y-75454463D01*
X107283815Y-75533815D01*
X107204463Y-75630506D01*
X107145498Y-75740820D01*
X107109188Y-75860518D01*
X107096928Y-75985000D01*
X65848378Y-75985000D01*
X65817205Y-75909744D01*
X65703937Y-75740226D01*
X65559774Y-75596063D01*
X65390256Y-75482795D01*
X65201898Y-75404774D01*
X65001939Y-75365000D01*
X64798061Y-75365000D01*
X64598102Y-75404774D01*
X64409744Y-75482795D01*
X64240226Y-75596063D01*
X64096063Y-75740226D01*
X63982795Y-75909744D01*
X63904774Y-76098102D01*
X63865000Y-76298061D01*
X50660000Y-76298061D01*
X50660000Y-74016890D01*
X51308524Y-74016890D01*
X51353175Y-74164099D01*
X51478359Y-74426920D01*
X51652412Y-74660269D01*
X51868645Y-74855178D01*
X52118748Y-75004157D01*
X52393109Y-75101481D01*
X52623000Y-74980814D01*
X52623000Y-73787000D01*
X52877000Y-73787000D01*
X52877000Y-74980814D01*
X53106891Y-75101481D01*
X53381252Y-75004157D01*
X53631355Y-74855178D01*
X53847588Y-74660269D01*
X54021641Y-74426920D01*
X54146825Y-74164099D01*
X54191476Y-74016890D01*
X54070155Y-73787000D01*
X52877000Y-73787000D01*
X52623000Y-73787000D01*
X51429845Y-73787000D01*
X51308524Y-74016890D01*
X50660000Y-74016890D01*
X50660000Y-73648061D01*
X73465000Y-73648061D01*
X73465000Y-73851939D01*
X73504774Y-74051898D01*
X73582795Y-74240256D01*
X73696063Y-74409774D01*
X73840226Y-74553937D01*
X74009744Y-74667205D01*
X74198102Y-74745226D01*
X74398061Y-74785000D01*
X74601939Y-74785000D01*
X74801898Y-74745226D01*
X74990256Y-74667205D01*
X75159774Y-74553937D01*
X75303937Y-74409774D01*
X75417205Y-74240256D01*
X75495226Y-74051898D01*
X75535000Y-73851939D01*
X75535000Y-73648061D01*
X75495226Y-73448102D01*
X75417205Y-73259744D01*
X75342582Y-73148061D01*
X100215000Y-73148061D01*
X100215000Y-73351939D01*
X100254774Y-73551898D01*
X100332795Y-73740256D01*
X100446063Y-73909774D01*
X100590226Y-74053937D01*
X100759744Y-74167205D01*
X100948102Y-74245226D01*
X101148061Y-74285000D01*
X101351939Y-74285000D01*
X101551898Y-74245226D01*
X101740256Y-74167205D01*
X101909774Y-74053937D01*
X102053937Y-73909774D01*
X102167205Y-73740256D01*
X102245226Y-73551898D01*
X102285000Y-73351939D01*
X102285000Y-73148061D01*
X102245226Y-72948102D01*
X102167205Y-72759744D01*
X102053937Y-72590226D01*
X101909774Y-72446063D01*
X101740256Y-72332795D01*
X101551898Y-72254774D01*
X101351939Y-72215000D01*
X101148061Y-72215000D01*
X100948102Y-72254774D01*
X100759744Y-72332795D01*
X100590226Y-72446063D01*
X100446063Y-72590226D01*
X100332795Y-72759744D01*
X100254774Y-72948102D01*
X100215000Y-73148061D01*
X75342582Y-73148061D01*
X75303937Y-73090226D01*
X75159774Y-72946063D01*
X74990256Y-72832795D01*
X74801898Y-72754774D01*
X74601939Y-72715000D01*
X74398061Y-72715000D01*
X74198102Y-72754774D01*
X74009744Y-72832795D01*
X73840226Y-72946063D01*
X73696063Y-73090226D01*
X73582795Y-73259744D01*
X73504774Y-73448102D01*
X73465000Y-73648061D01*
X50660000Y-73648061D01*
X50660000Y-65190000D01*
X51261928Y-65190000D01*
X51261928Y-66890000D01*
X51274188Y-67014482D01*
X51310498Y-67134180D01*
X51369463Y-67244494D01*
X51448815Y-67341185D01*
X51545506Y-67420537D01*
X51655820Y-67479502D01*
X51728380Y-67501513D01*
X51596525Y-67633368D01*
X51434010Y-67876589D01*
X51322068Y-68146842D01*
X51265000Y-68433740D01*
X51265000Y-68726260D01*
X51322068Y-69013158D01*
X51434010Y-69283411D01*
X51596525Y-69526632D01*
X51803368Y-69733475D01*
X51977760Y-69850000D01*
X51803368Y-69966525D01*
X51596525Y-70173368D01*
X51434010Y-70416589D01*
X51322068Y-70686842D01*
X51265000Y-70973740D01*
X51265000Y-71266260D01*
X51322068Y-71553158D01*
X51434010Y-71823411D01*
X51596525Y-72066632D01*
X51803368Y-72273475D01*
X51985534Y-72395195D01*
X51868645Y-72464822D01*
X51652412Y-72659731D01*
X51478359Y-72893080D01*
X51353175Y-73155901D01*
X51308524Y-73303110D01*
X51429845Y-73533000D01*
X52623000Y-73533000D01*
X52623000Y-73513000D01*
X52877000Y-73513000D01*
X52877000Y-73533000D01*
X54070155Y-73533000D01*
X54191476Y-73303110D01*
X54146825Y-73155901D01*
X54021641Y-72893080D01*
X53847588Y-72659731D01*
X53631355Y-72464822D01*
X53514466Y-72395195D01*
X53696632Y-72273475D01*
X53903475Y-72066632D01*
X54065990Y-71823411D01*
X54177932Y-71553158D01*
X54235000Y-71266260D01*
X54235000Y-70973740D01*
X54177932Y-70686842D01*
X54161869Y-70648061D01*
X78465000Y-70648061D01*
X78465000Y-70851939D01*
X78504774Y-71051898D01*
X78582795Y-71240256D01*
X78696063Y-71409774D01*
X78840226Y-71553937D01*
X79009744Y-71667205D01*
X79198102Y-71745226D01*
X79398061Y-71785000D01*
X79601939Y-71785000D01*
X79801898Y-71745226D01*
X79990256Y-71667205D01*
X80159774Y-71553937D01*
X80303937Y-71409774D01*
X80417205Y-71240256D01*
X80495226Y-71051898D01*
X80535000Y-70851939D01*
X80535000Y-70648061D01*
X80495226Y-70448102D01*
X80417205Y-70259744D01*
X80303937Y-70090226D01*
X80159774Y-69946063D01*
X79990256Y-69832795D01*
X79801898Y-69754774D01*
X79601939Y-69715000D01*
X79398061Y-69715000D01*
X79198102Y-69754774D01*
X79009744Y-69832795D01*
X78840226Y-69946063D01*
X78696063Y-70090226D01*
X78582795Y-70259744D01*
X78504774Y-70448102D01*
X78465000Y-70648061D01*
X54161869Y-70648061D01*
X54065990Y-70416589D01*
X53903475Y-70173368D01*
X53696632Y-69966525D01*
X53522240Y-69850000D01*
X53696632Y-69733475D01*
X53903475Y-69526632D01*
X54065990Y-69283411D01*
X54177932Y-69013158D01*
X54230663Y-68748061D01*
X69215000Y-68748061D01*
X69215000Y-68951939D01*
X69254774Y-69151898D01*
X69332795Y-69340256D01*
X69446063Y-69509774D01*
X69590226Y-69653937D01*
X69759744Y-69767205D01*
X69948102Y-69845226D01*
X70148061Y-69885000D01*
X70351939Y-69885000D01*
X70551898Y-69845226D01*
X70740256Y-69767205D01*
X70909774Y-69653937D01*
X71053937Y-69509774D01*
X71167205Y-69340256D01*
X71245226Y-69151898D01*
X71285000Y-68951939D01*
X71285000Y-68748061D01*
X82165000Y-68748061D01*
X82165000Y-68951939D01*
X82204774Y-69151898D01*
X82282795Y-69340256D01*
X82396063Y-69509774D01*
X82540226Y-69653937D01*
X82709744Y-69767205D01*
X82898102Y-69845226D01*
X83098061Y-69885000D01*
X83301939Y-69885000D01*
X83501898Y-69845226D01*
X83690256Y-69767205D01*
X83859774Y-69653937D01*
X84003937Y-69509774D01*
X84117205Y-69340256D01*
X84195226Y-69151898D01*
X84235000Y-68951939D01*
X84235000Y-68748061D01*
X84195226Y-68548102D01*
X84117205Y-68359744D01*
X84003937Y-68190226D01*
X83859774Y-68046063D01*
X83690256Y-67932795D01*
X83501898Y-67854774D01*
X83301939Y-67815000D01*
X83098061Y-67815000D01*
X82898102Y-67854774D01*
X82709744Y-67932795D01*
X82540226Y-68046063D01*
X82396063Y-68190226D01*
X82282795Y-68359744D01*
X82204774Y-68548102D01*
X82165000Y-68748061D01*
X71285000Y-68748061D01*
X71245226Y-68548102D01*
X71167205Y-68359744D01*
X71118877Y-68287415D01*
X71217205Y-68140256D01*
X71295226Y-67951898D01*
X71335000Y-67751939D01*
X71335000Y-67548061D01*
X71295226Y-67348102D01*
X71217205Y-67159744D01*
X71103937Y-66990226D01*
X70959774Y-66846063D01*
X70790256Y-66732795D01*
X70601898Y-66654774D01*
X70401939Y-66615000D01*
X70198061Y-66615000D01*
X69998102Y-66654774D01*
X69809744Y-66732795D01*
X69640226Y-66846063D01*
X69496063Y-66990226D01*
X69382795Y-67159744D01*
X69304774Y-67348102D01*
X69265000Y-67548061D01*
X69265000Y-67751939D01*
X69304774Y-67951898D01*
X69382795Y-68140256D01*
X69431123Y-68212585D01*
X69332795Y-68359744D01*
X69254774Y-68548102D01*
X69215000Y-68748061D01*
X54230663Y-68748061D01*
X54235000Y-68726260D01*
X54235000Y-68433740D01*
X54177932Y-68146842D01*
X54065990Y-67876589D01*
X53903475Y-67633368D01*
X53771620Y-67501513D01*
X53844180Y-67479502D01*
X53954494Y-67420537D01*
X54051185Y-67341185D01*
X54130537Y-67244494D01*
X54189502Y-67134180D01*
X54225812Y-67014482D01*
X54238072Y-66890000D01*
X54238072Y-65248061D01*
X69265000Y-65248061D01*
X69265000Y-65451939D01*
X69304774Y-65651898D01*
X69382795Y-65840256D01*
X69496063Y-66009774D01*
X69640226Y-66153937D01*
X69809744Y-66267205D01*
X69998102Y-66345226D01*
X70198061Y-66385000D01*
X70401939Y-66385000D01*
X70601898Y-66345226D01*
X70790256Y-66267205D01*
X70959774Y-66153937D01*
X71103937Y-66009774D01*
X71178581Y-65898061D01*
X71515000Y-65898061D01*
X71515000Y-66101939D01*
X71554774Y-66301898D01*
X71632795Y-66490256D01*
X71746063Y-66659774D01*
X71890226Y-66803937D01*
X72059744Y-66917205D01*
X72248102Y-66995226D01*
X72448061Y-67035000D01*
X72651939Y-67035000D01*
X72851898Y-66995226D01*
X73040256Y-66917205D01*
X73209774Y-66803937D01*
X73353937Y-66659774D01*
X73467205Y-66490256D01*
X73545226Y-66301898D01*
X73585000Y-66101939D01*
X73585000Y-65898061D01*
X73545226Y-65698102D01*
X73467205Y-65509744D01*
X73353937Y-65340226D01*
X73209774Y-65196063D01*
X73040256Y-65082795D01*
X72851898Y-65004774D01*
X72651939Y-64965000D01*
X72448061Y-64965000D01*
X72248102Y-65004774D01*
X72059744Y-65082795D01*
X71890226Y-65196063D01*
X71746063Y-65340226D01*
X71632795Y-65509744D01*
X71554774Y-65698102D01*
X71515000Y-65898061D01*
X71178581Y-65898061D01*
X71217205Y-65840256D01*
X71295226Y-65651898D01*
X71335000Y-65451939D01*
X71335000Y-65248061D01*
X71295226Y-65048102D01*
X71217205Y-64859744D01*
X71103937Y-64690226D01*
X70959774Y-64546063D01*
X70790256Y-64432795D01*
X70601898Y-64354774D01*
X70401939Y-64315000D01*
X70198061Y-64315000D01*
X69998102Y-64354774D01*
X69809744Y-64432795D01*
X69640226Y-64546063D01*
X69496063Y-64690226D01*
X69382795Y-64859744D01*
X69304774Y-65048102D01*
X69265000Y-65248061D01*
X54238072Y-65248061D01*
X54238072Y-65190000D01*
X54225812Y-65065518D01*
X54189502Y-64945820D01*
X54130537Y-64835506D01*
X54051185Y-64738815D01*
X53954494Y-64659463D01*
X53844180Y-64600498D01*
X53724482Y-64564188D01*
X53600000Y-64551928D01*
X51900000Y-64551928D01*
X51775518Y-64564188D01*
X51655820Y-64600498D01*
X51545506Y-64659463D01*
X51448815Y-64738815D01*
X51369463Y-64835506D01*
X51310498Y-64945820D01*
X51274188Y-65065518D01*
X51261928Y-65190000D01*
X50660000Y-65190000D01*
X50660000Y-64148061D01*
X74215000Y-64148061D01*
X74215000Y-64351939D01*
X74254774Y-64551898D01*
X74332795Y-64740256D01*
X74446063Y-64909774D01*
X74590226Y-65053937D01*
X74759744Y-65167205D01*
X74948102Y-65245226D01*
X75148061Y-65285000D01*
X75351939Y-65285000D01*
X75551898Y-65245226D01*
X75740256Y-65167205D01*
X75909774Y-65053937D01*
X76053937Y-64909774D01*
X76167205Y-64740256D01*
X76245226Y-64551898D01*
X76285000Y-64351939D01*
X76285000Y-64198061D01*
X87365000Y-64198061D01*
X87365000Y-64401939D01*
X87404774Y-64601898D01*
X87482795Y-64790256D01*
X87596063Y-64959774D01*
X87740226Y-65103937D01*
X87909744Y-65217205D01*
X88098102Y-65295226D01*
X88298061Y-65335000D01*
X88501939Y-65335000D01*
X88701898Y-65295226D01*
X88890256Y-65217205D01*
X89059774Y-65103937D01*
X89203937Y-64959774D01*
X89317205Y-64790256D01*
X89395226Y-64601898D01*
X89435000Y-64401939D01*
X89435000Y-64198061D01*
X89395226Y-63998102D01*
X89317205Y-63809744D01*
X89203937Y-63640226D01*
X89059774Y-63496063D01*
X88890256Y-63382795D01*
X88701898Y-63304774D01*
X88501939Y-63265000D01*
X88298061Y-63265000D01*
X88098102Y-63304774D01*
X87909744Y-63382795D01*
X87740226Y-63496063D01*
X87596063Y-63640226D01*
X87482795Y-63809744D01*
X87404774Y-63998102D01*
X87365000Y-64198061D01*
X76285000Y-64198061D01*
X76285000Y-64148061D01*
X76245226Y-63948102D01*
X76167205Y-63759744D01*
X76053937Y-63590226D01*
X75909774Y-63446063D01*
X75740256Y-63332795D01*
X75551898Y-63254774D01*
X75351939Y-63215000D01*
X75148061Y-63215000D01*
X74948102Y-63254774D01*
X74759744Y-63332795D01*
X74590226Y-63446063D01*
X74446063Y-63590226D01*
X74332795Y-63759744D01*
X74254774Y-63948102D01*
X74215000Y-64148061D01*
X50660000Y-64148061D01*
X50660000Y-59232818D01*
X52446787Y-59232818D01*
X52938946Y-59835149D01*
X53789933Y-60305063D01*
X54716243Y-60599929D01*
X55682281Y-60708414D01*
X56650921Y-60626351D01*
X57584938Y-60356893D01*
X58448440Y-59910394D01*
X58561054Y-59835149D01*
X59053213Y-59232818D01*
X102446787Y-59232818D01*
X102938946Y-59835149D01*
X103789933Y-60305063D01*
X104716243Y-60599929D01*
X105682281Y-60708414D01*
X106650921Y-60626351D01*
X107584938Y-60356893D01*
X108448440Y-59910394D01*
X108561054Y-59835149D01*
X109053213Y-59232818D01*
X105750000Y-55929605D01*
X102446787Y-59232818D01*
X59053213Y-59232818D01*
X55750000Y-55929605D01*
X52446787Y-59232818D01*
X50660000Y-59232818D01*
X50660000Y-55777089D01*
X50667794Y-55682281D01*
X50791586Y-55682281D01*
X50873649Y-56650921D01*
X51143107Y-57584938D01*
X51589606Y-58448440D01*
X51664851Y-58561054D01*
X52267182Y-59053213D01*
X55570395Y-55750000D01*
X55929605Y-55750000D01*
X59232818Y-59053213D01*
X59835149Y-58561054D01*
X60305063Y-57710067D01*
X60599929Y-56783757D01*
X60621750Y-56589449D01*
X60753202Y-56720901D01*
X60957926Y-56857693D01*
X61185402Y-56951917D01*
X61426890Y-56999952D01*
X61673110Y-56999952D01*
X61914598Y-56951917D01*
X62142074Y-56857693D01*
X62156489Y-56848061D01*
X94515000Y-56848061D01*
X94515000Y-57051939D01*
X94554774Y-57251898D01*
X94632795Y-57440256D01*
X94746063Y-57609774D01*
X94890226Y-57753937D01*
X95059744Y-57867205D01*
X95248102Y-57945226D01*
X95448061Y-57985000D01*
X95651939Y-57985000D01*
X95851898Y-57945226D01*
X96040256Y-57867205D01*
X96209774Y-57753937D01*
X96353937Y-57609774D01*
X96467205Y-57440256D01*
X96545226Y-57251898D01*
X96585000Y-57051939D01*
X96585000Y-56848061D01*
X96545226Y-56648102D01*
X96467205Y-56459744D01*
X96353937Y-56290226D01*
X96209774Y-56146063D01*
X96040256Y-56032795D01*
X95851898Y-55954774D01*
X95651939Y-55915000D01*
X95448061Y-55915000D01*
X95248102Y-55954774D01*
X95059744Y-56032795D01*
X94890226Y-56146063D01*
X94746063Y-56290226D01*
X94632795Y-56459744D01*
X94554774Y-56648102D01*
X94515000Y-56848061D01*
X62156489Y-56848061D01*
X62346798Y-56720901D01*
X62520901Y-56546798D01*
X62657693Y-56342074D01*
X62751917Y-56114598D01*
X62799952Y-55873110D01*
X62799952Y-55626890D01*
X62751917Y-55385402D01*
X62657693Y-55157926D01*
X62520901Y-54953202D01*
X62346798Y-54779099D01*
X62142074Y-54642307D01*
X61914598Y-54548083D01*
X61673110Y-54500048D01*
X61426890Y-54500048D01*
X61185402Y-54548083D01*
X60957926Y-54642307D01*
X60753202Y-54779099D01*
X60630793Y-54901508D01*
X60626351Y-54849079D01*
X60409688Y-54098061D01*
X65915000Y-54098061D01*
X65915000Y-54301939D01*
X65954774Y-54501898D01*
X66032795Y-54690256D01*
X66146063Y-54859774D01*
X66290226Y-55003937D01*
X66459744Y-55117205D01*
X66648102Y-55195226D01*
X66848061Y-55235000D01*
X67051939Y-55235000D01*
X67251898Y-55195226D01*
X67365763Y-55148061D01*
X83465000Y-55148061D01*
X83465000Y-55351939D01*
X83504774Y-55551898D01*
X83582795Y-55740256D01*
X83696063Y-55909774D01*
X83840226Y-56053937D01*
X84009744Y-56167205D01*
X84198102Y-56245226D01*
X84398061Y-56285000D01*
X84601939Y-56285000D01*
X84801898Y-56245226D01*
X84990256Y-56167205D01*
X85159774Y-56053937D01*
X85303937Y-55909774D01*
X85417205Y-55740256D01*
X85464163Y-55626890D01*
X98750048Y-55626890D01*
X98750048Y-55873110D01*
X98798083Y-56114598D01*
X98892307Y-56342074D01*
X99029099Y-56546798D01*
X99203202Y-56720901D01*
X99407926Y-56857693D01*
X99635402Y-56951917D01*
X99876890Y-56999952D01*
X100123110Y-56999952D01*
X100364598Y-56951917D01*
X100592074Y-56857693D01*
X100796798Y-56720901D01*
X100873112Y-56644587D01*
X100873649Y-56650921D01*
X101143107Y-57584938D01*
X101589606Y-58448440D01*
X101664851Y-58561054D01*
X102267182Y-59053213D01*
X105570395Y-55750000D01*
X105929605Y-55750000D01*
X109232818Y-59053213D01*
X109835149Y-58561054D01*
X110305063Y-57710067D01*
X110599929Y-56783757D01*
X110708414Y-55817719D01*
X110626351Y-54849079D01*
X110356893Y-53915062D01*
X109910394Y-53051560D01*
X109835149Y-52938946D01*
X109232818Y-52446787D01*
X105929605Y-55750000D01*
X105570395Y-55750000D01*
X102267182Y-52446787D01*
X101664851Y-52938946D01*
X101194937Y-53789933D01*
X100900071Y-54716243D01*
X100883298Y-54865599D01*
X100796798Y-54779099D01*
X100592074Y-54642307D01*
X100364598Y-54548083D01*
X100123110Y-54500048D01*
X99876890Y-54500048D01*
X99635402Y-54548083D01*
X99407926Y-54642307D01*
X99203202Y-54779099D01*
X99029099Y-54953202D01*
X98892307Y-55157926D01*
X98798083Y-55385402D01*
X98750048Y-55626890D01*
X85464163Y-55626890D01*
X85495226Y-55551898D01*
X85535000Y-55351939D01*
X85535000Y-55148061D01*
X85495226Y-54948102D01*
X85417205Y-54759744D01*
X85303937Y-54590226D01*
X85159774Y-54446063D01*
X84990256Y-54332795D01*
X84801898Y-54254774D01*
X84601939Y-54215000D01*
X84398061Y-54215000D01*
X84198102Y-54254774D01*
X84009744Y-54332795D01*
X83840226Y-54446063D01*
X83696063Y-54590226D01*
X83582795Y-54759744D01*
X83504774Y-54948102D01*
X83465000Y-55148061D01*
X67365763Y-55148061D01*
X67440256Y-55117205D01*
X67609774Y-55003937D01*
X67753937Y-54859774D01*
X67867205Y-54690256D01*
X67945226Y-54501898D01*
X67985000Y-54301939D01*
X67985000Y-54098061D01*
X67945226Y-53898102D01*
X67867205Y-53709744D01*
X67753937Y-53540226D01*
X67609774Y-53396063D01*
X67440256Y-53282795D01*
X67251898Y-53204774D01*
X67051939Y-53165000D01*
X66848061Y-53165000D01*
X66648102Y-53204774D01*
X66459744Y-53282795D01*
X66290226Y-53396063D01*
X66146063Y-53540226D01*
X66032795Y-53709744D01*
X65954774Y-53898102D01*
X65915000Y-54098061D01*
X60409688Y-54098061D01*
X60356893Y-53915062D01*
X59910394Y-53051560D01*
X59835149Y-52938946D01*
X59232818Y-52446787D01*
X55929605Y-55750000D01*
X55570395Y-55750000D01*
X52267182Y-52446787D01*
X51664851Y-52938946D01*
X51194937Y-53789933D01*
X50900071Y-54716243D01*
X50791586Y-55682281D01*
X50667794Y-55682281D01*
X50730545Y-54919030D01*
X50933662Y-54110389D01*
X51266129Y-53345767D01*
X51719011Y-52645719D01*
X52063452Y-52267182D01*
X52446787Y-52267182D01*
X55750000Y-55570395D01*
X59053213Y-52267182D01*
X58739414Y-51883137D01*
X79665000Y-51883137D01*
X79665000Y-52096863D01*
X79706696Y-52306483D01*
X79788485Y-52503940D01*
X79907225Y-52681647D01*
X80058353Y-52832775D01*
X80236060Y-52951515D01*
X80433517Y-53033304D01*
X80643137Y-53075000D01*
X80856863Y-53075000D01*
X81066483Y-53033304D01*
X81263940Y-52951515D01*
X81441647Y-52832775D01*
X81592775Y-52681647D01*
X81711515Y-52503940D01*
X81793304Y-52306483D01*
X81835000Y-52096863D01*
X81835000Y-51883137D01*
X82665000Y-51883137D01*
X82665000Y-52096863D01*
X82706696Y-52306483D01*
X82788485Y-52503940D01*
X82907225Y-52681647D01*
X83058353Y-52832775D01*
X83236060Y-52951515D01*
X83433517Y-53033304D01*
X83643137Y-53075000D01*
X83856863Y-53075000D01*
X84066483Y-53033304D01*
X84263940Y-52951515D01*
X84441647Y-52832775D01*
X84592775Y-52681647D01*
X84711515Y-52503940D01*
X84793304Y-52306483D01*
X84801121Y-52267182D01*
X102446787Y-52267182D01*
X105750000Y-55570395D01*
X109053213Y-52267182D01*
X108561054Y-51664851D01*
X107710067Y-51194937D01*
X106783757Y-50900071D01*
X105817719Y-50791586D01*
X104849079Y-50873649D01*
X103915062Y-51143107D01*
X103051560Y-51589606D01*
X102938946Y-51664851D01*
X102446787Y-52267182D01*
X84801121Y-52267182D01*
X84835000Y-52096863D01*
X84835000Y-51883137D01*
X84793304Y-51673517D01*
X84711515Y-51476060D01*
X84592775Y-51298353D01*
X84441647Y-51147225D01*
X84263940Y-51028485D01*
X84066483Y-50946696D01*
X83856863Y-50905000D01*
X83643137Y-50905000D01*
X83433517Y-50946696D01*
X83236060Y-51028485D01*
X83058353Y-51147225D01*
X82907225Y-51298353D01*
X82788485Y-51476060D01*
X82706696Y-51673517D01*
X82665000Y-51883137D01*
X81835000Y-51883137D01*
X81793304Y-51673517D01*
X81711515Y-51476060D01*
X81592775Y-51298353D01*
X81441647Y-51147225D01*
X81263940Y-51028485D01*
X81066483Y-50946696D01*
X80856863Y-50905000D01*
X80643137Y-50905000D01*
X80433517Y-50946696D01*
X80236060Y-51028485D01*
X80058353Y-51147225D01*
X79907225Y-51298353D01*
X79788485Y-51476060D01*
X79706696Y-51673517D01*
X79665000Y-51883137D01*
X58739414Y-51883137D01*
X58561054Y-51664851D01*
X57710067Y-51194937D01*
X56783757Y-50900071D01*
X55817719Y-50791586D01*
X54849079Y-50873649D01*
X53915062Y-51143107D01*
X53051560Y-51589606D01*
X52938946Y-51664851D01*
X52446787Y-52267182D01*
X52063452Y-52267182D01*
X52280146Y-52029039D01*
X52934469Y-51512286D01*
X53664406Y-51109339D01*
X54450353Y-50831022D01*
X55282603Y-50682775D01*
X55765547Y-50660000D01*
X105722911Y-50660000D01*
X106580970Y-50730545D01*
G37*
%TD.AperFunction*%
%TD*%
M02*
