%TF.GenerationSoftware,KiCad,Pcbnew,(5.1.8)-1*%
%TF.CreationDate,2020-12-14T19:22:24+01:00*%
%TF.ProjectId,STM32_Dev_Board,53544d33-325f-4446-9576-5f426f617264,rev?*%
%TF.SameCoordinates,Original*%
%TF.FileFunction,Legend,Bot*%
%TF.FilePolarity,Positive*%
%FSLAX46Y46*%
G04 Gerber Fmt 4.6, Leading zero omitted, Abs format (unit mm)*
G04 Created by KiCad (PCBNEW (5.1.8)-1) date 2020-12-14 19:22:24*
%MOMM*%
%LPD*%
G01*
G04 APERTURE LIST*
%ADD10C,0.150000*%
G04 APERTURE END LIST*
D10*
X106083333Y-94102380D02*
X105416666Y-94102380D01*
X105845238Y-95102380D01*
X105847619Y-76252380D02*
X105752380Y-76252380D01*
X105657142Y-76300000D01*
X105609523Y-76347619D01*
X105561904Y-76442857D01*
X105514285Y-76633333D01*
X105514285Y-76871428D01*
X105561904Y-77061904D01*
X105609523Y-77157142D01*
X105657142Y-77204761D01*
X105752380Y-77252380D01*
X105847619Y-77252380D01*
X105942857Y-77204761D01*
X105990476Y-77157142D01*
X106038095Y-77061904D01*
X106085714Y-76871428D01*
X106085714Y-76633333D01*
X106038095Y-76442857D01*
X105990476Y-76347619D01*
X105942857Y-76300000D01*
X105847619Y-76252380D01*
X57061904Y-94100000D02*
X57157142Y-94052380D01*
X57300000Y-94052380D01*
X57442857Y-94100000D01*
X57538095Y-94195238D01*
X57585714Y-94290476D01*
X57633333Y-94480952D01*
X57633333Y-94623809D01*
X57585714Y-94814285D01*
X57538095Y-94909523D01*
X57442857Y-95004761D01*
X57300000Y-95052380D01*
X57204761Y-95052380D01*
X57061904Y-95004761D01*
X57014285Y-94957142D01*
X57014285Y-94623809D01*
X57204761Y-94623809D01*
X56585714Y-95052380D02*
X56585714Y-94052380D01*
X56014285Y-95052380D01*
X56014285Y-94052380D01*
X55538095Y-95052380D02*
X55538095Y-94052380D01*
X55300000Y-94052380D01*
X55157142Y-94100000D01*
X55061904Y-94195238D01*
X55014285Y-94290476D01*
X54966666Y-94480952D01*
X54966666Y-94623809D01*
X55014285Y-94814285D01*
X55061904Y-94909523D01*
X55157142Y-95004761D01*
X55300000Y-95052380D01*
X55538095Y-95052380D01*
X58171428Y-92552380D02*
X58171428Y-91552380D01*
X57838095Y-92266666D01*
X57504761Y-91552380D01*
X57504761Y-92552380D01*
X56838095Y-91552380D02*
X56647619Y-91552380D01*
X56552380Y-91600000D01*
X56457142Y-91695238D01*
X56409523Y-91885714D01*
X56409523Y-92219047D01*
X56457142Y-92409523D01*
X56552380Y-92504761D01*
X56647619Y-92552380D01*
X56838095Y-92552380D01*
X56933333Y-92504761D01*
X57028571Y-92409523D01*
X57076190Y-92219047D01*
X57076190Y-91885714D01*
X57028571Y-91695238D01*
X56933333Y-91600000D01*
X56838095Y-91552380D01*
X56028571Y-92504761D02*
X55885714Y-92552380D01*
X55647619Y-92552380D01*
X55552380Y-92504761D01*
X55504761Y-92457142D01*
X55457142Y-92361904D01*
X55457142Y-92266666D01*
X55504761Y-92171428D01*
X55552380Y-92123809D01*
X55647619Y-92076190D01*
X55838095Y-92028571D01*
X55933333Y-91980952D01*
X55980952Y-91933333D01*
X56028571Y-91838095D01*
X56028571Y-91742857D01*
X55980952Y-91647619D01*
X55933333Y-91600000D01*
X55838095Y-91552380D01*
X55600000Y-91552380D01*
X55457142Y-91600000D01*
X55028571Y-92552380D02*
X55028571Y-91552380D01*
X58221428Y-90052380D02*
X58221428Y-89052380D01*
X57888095Y-89766666D01*
X57554761Y-89052380D01*
X57554761Y-90052380D01*
X57078571Y-90052380D02*
X57078571Y-89052380D01*
X56650000Y-90004761D02*
X56507142Y-90052380D01*
X56269047Y-90052380D01*
X56173809Y-90004761D01*
X56126190Y-89957142D01*
X56078571Y-89861904D01*
X56078571Y-89766666D01*
X56126190Y-89671428D01*
X56173809Y-89623809D01*
X56269047Y-89576190D01*
X56459523Y-89528571D01*
X56554761Y-89480952D01*
X56602380Y-89433333D01*
X56650000Y-89338095D01*
X56650000Y-89242857D01*
X56602380Y-89147619D01*
X56554761Y-89100000D01*
X56459523Y-89052380D01*
X56221428Y-89052380D01*
X56078571Y-89100000D01*
X55459523Y-89052380D02*
X55269047Y-89052380D01*
X55173809Y-89100000D01*
X55078571Y-89195238D01*
X55030952Y-89385714D01*
X55030952Y-89719047D01*
X55078571Y-89909523D01*
X55173809Y-90004761D01*
X55269047Y-90052380D01*
X55459523Y-90052380D01*
X55554761Y-90004761D01*
X55650000Y-89909523D01*
X55697619Y-89719047D01*
X55697619Y-89385714D01*
X55650000Y-89195238D01*
X55554761Y-89100000D01*
X55459523Y-89052380D01*
X56795238Y-87357142D02*
X56842857Y-87404761D01*
X56985714Y-87452380D01*
X57080952Y-87452380D01*
X57223809Y-87404761D01*
X57319047Y-87309523D01*
X57366666Y-87214285D01*
X57414285Y-87023809D01*
X57414285Y-86880952D01*
X57366666Y-86690476D01*
X57319047Y-86595238D01*
X57223809Y-86500000D01*
X57080952Y-86452380D01*
X56985714Y-86452380D01*
X56842857Y-86500000D01*
X56795238Y-86547619D01*
X55890476Y-87452380D02*
X56366666Y-87452380D01*
X56366666Y-86452380D01*
X55557142Y-87452380D02*
X55557142Y-86452380D01*
X54985714Y-87452380D02*
X55414285Y-86880952D01*
X54985714Y-86452380D02*
X55557142Y-87023809D01*
X56016666Y-84832142D02*
X56064285Y-84879761D01*
X56207142Y-84927380D01*
X56302380Y-84927380D01*
X56445238Y-84879761D01*
X56540476Y-84784523D01*
X56588095Y-84689285D01*
X56635714Y-84498809D01*
X56635714Y-84355952D01*
X56588095Y-84165476D01*
X56540476Y-84070238D01*
X56445238Y-83975000D01*
X56302380Y-83927380D01*
X56207142Y-83927380D01*
X56064285Y-83975000D01*
X56016666Y-84022619D01*
X55635714Y-84879761D02*
X55492857Y-84927380D01*
X55254761Y-84927380D01*
X55159523Y-84879761D01*
X55111904Y-84832142D01*
X55064285Y-84736904D01*
X55064285Y-84641666D01*
X55111904Y-84546428D01*
X55159523Y-84498809D01*
X55254761Y-84451190D01*
X55445238Y-84403571D01*
X55540476Y-84355952D01*
X55588095Y-84308333D01*
X55635714Y-84213095D01*
X55635714Y-84117857D01*
X55588095Y-84022619D01*
X55540476Y-83975000D01*
X55445238Y-83927380D01*
X55207142Y-83927380D01*
X55064285Y-83975000D01*
X56066666Y-71552380D02*
X56400000Y-71076190D01*
X56638095Y-71552380D02*
X56638095Y-70552380D01*
X56257142Y-70552380D01*
X56161904Y-70600000D01*
X56114285Y-70647619D01*
X56066666Y-70742857D01*
X56066666Y-70885714D01*
X56114285Y-70980952D01*
X56161904Y-71028571D01*
X56257142Y-71076190D01*
X56638095Y-71076190D01*
X55733333Y-70552380D02*
X55066666Y-71552380D01*
X55066666Y-70552380D02*
X55733333Y-71552380D01*
X56511904Y-68052380D02*
X55940476Y-68052380D01*
X56226190Y-69052380D02*
X56226190Y-68052380D01*
X55702380Y-68052380D02*
X55035714Y-69052380D01*
X55035714Y-68052380D02*
X55702380Y-69052380D01*
X59150000Y-82021428D02*
X58388095Y-82021428D01*
X58769047Y-82402380D02*
X58769047Y-81640476D01*
X58007142Y-81402380D02*
X57388095Y-81402380D01*
X57721428Y-81783333D01*
X57578571Y-81783333D01*
X57483333Y-81830952D01*
X57435714Y-81878571D01*
X57388095Y-81973809D01*
X57388095Y-82211904D01*
X57435714Y-82307142D01*
X57483333Y-82354761D01*
X57578571Y-82402380D01*
X57864285Y-82402380D01*
X57959523Y-82354761D01*
X58007142Y-82307142D01*
X56959523Y-82307142D02*
X56911904Y-82354761D01*
X56959523Y-82402380D01*
X57007142Y-82354761D01*
X56959523Y-82307142D01*
X56959523Y-82402380D01*
X56578571Y-81402380D02*
X55959523Y-81402380D01*
X56292857Y-81783333D01*
X56150000Y-81783333D01*
X56054761Y-81830952D01*
X56007142Y-81878571D01*
X55959523Y-81973809D01*
X55959523Y-82211904D01*
X56007142Y-82307142D01*
X56054761Y-82354761D01*
X56150000Y-82402380D01*
X56435714Y-82402380D01*
X56530952Y-82354761D01*
X56578571Y-82307142D01*
X55673809Y-81402380D02*
X55340476Y-82402380D01*
X55007142Y-81402380D01*
X57011904Y-73150000D02*
X57107142Y-73102380D01*
X57250000Y-73102380D01*
X57392857Y-73150000D01*
X57488095Y-73245238D01*
X57535714Y-73340476D01*
X57583333Y-73530952D01*
X57583333Y-73673809D01*
X57535714Y-73864285D01*
X57488095Y-73959523D01*
X57392857Y-74054761D01*
X57250000Y-74102380D01*
X57154761Y-74102380D01*
X57011904Y-74054761D01*
X56964285Y-74007142D01*
X56964285Y-73673809D01*
X57154761Y-73673809D01*
X56535714Y-74102380D02*
X56535714Y-73102380D01*
X55964285Y-74102380D01*
X55964285Y-73102380D01*
X55488095Y-74102380D02*
X55488095Y-73102380D01*
X55250000Y-73102380D01*
X55107142Y-73150000D01*
X55011904Y-73245238D01*
X54964285Y-73340476D01*
X54916666Y-73530952D01*
X54916666Y-73673809D01*
X54964285Y-73864285D01*
X55011904Y-73959523D01*
X55107142Y-74054761D01*
X55250000Y-74102380D01*
X55488095Y-74102380D01*
X59150000Y-65971428D02*
X58388095Y-65971428D01*
X58769047Y-66352380D02*
X58769047Y-65590476D01*
X58007142Y-65352380D02*
X57388095Y-65352380D01*
X57721428Y-65733333D01*
X57578571Y-65733333D01*
X57483333Y-65780952D01*
X57435714Y-65828571D01*
X57388095Y-65923809D01*
X57388095Y-66161904D01*
X57435714Y-66257142D01*
X57483333Y-66304761D01*
X57578571Y-66352380D01*
X57864285Y-66352380D01*
X57959523Y-66304761D01*
X58007142Y-66257142D01*
X56959523Y-66257142D02*
X56911904Y-66304761D01*
X56959523Y-66352380D01*
X57007142Y-66304761D01*
X56959523Y-66257142D01*
X56959523Y-66352380D01*
X56578571Y-65352380D02*
X55959523Y-65352380D01*
X56292857Y-65733333D01*
X56150000Y-65733333D01*
X56054761Y-65780952D01*
X56007142Y-65828571D01*
X55959523Y-65923809D01*
X55959523Y-66161904D01*
X56007142Y-66257142D01*
X56054761Y-66304761D01*
X56150000Y-66352380D01*
X56435714Y-66352380D01*
X56530952Y-66304761D01*
X56578571Y-66257142D01*
X55673809Y-65352380D02*
X55340476Y-66352380D01*
X55007142Y-65352380D01*
M02*
