M48
; DRILL file {KiCad (5.1.8)-1} date 12/14/20 19:22:13
; FORMAT={3:3/ absolute / metric / suppress leading zeros}
; #@! TF.CreationDate,2020-12-14T19:22:13+01:00
; #@! TF.GenerationSoftware,Kicad,Pcbnew,(5.1.8)-1
; #@! TF.FileFunction,Plated,1,4,PTH
FMAT,2
METRIC,TZ
T1C0.400
T2C0.600
T3C0.850
T4C1.000
T5C1.300
T6C4.300
%
G90
G05
T1
X64100Y-72950
X64900Y-75100
X64900Y-76400
X66950Y-54200
X66950Y-58650
X68400Y-70700
X68500Y-74150
X68750Y-65350
X68750Y-67650
X68800Y-68850
X69800Y-74150
X70250Y-68850
X70300Y-65350
X70300Y-67650
X72200Y-58650
X72450Y-89500
X72500Y-93950
X72550Y-66000
X72650Y-81250
X73750Y-87850
X73750Y-91050
X73750Y-92300
X73750Y-95500
X74250Y-65100
X74500Y-73750
X74500Y-82100
X75250Y-64250
X75650Y-93950
X75700Y-89500
X76700Y-87900
X76700Y-91050
X76700Y-92350
X76700Y-95500
X79500Y-70750
X80000Y-55200
X80850Y-98250
X81200Y-92950
X81250Y-89550
X82050Y-97100
X82700Y-79100
X82800Y-90500
X82800Y-92000
X82950Y-97100
X83050Y-67700
X83200Y-68850
X83250Y-98800
X84050Y-81750
X84500Y-55250
X84550Y-79800
X84800Y-101750
X85550Y-67100
X86350Y-101750
X88400Y-64300
X89800Y-95050
X90450Y-57000
X92850Y-91250
X93000Y-57000
X93100Y-95050
X94250Y-57000
X95550Y-56950
X95950Y-106050
X97200Y-104800
X101250Y-73250
X101250Y-95750
X102250Y-64000
X105350Y-62500
X105350Y-63750
X105350Y-64850
T2
X52525Y-55750
X53470Y-53470
X53470Y-58030
X55750Y-52525
X55750Y-58975
X58030Y-53470
X58030Y-58030
X58975Y-55750
X102525Y-55750
X103470Y-53470
X103470Y-58030
X105750Y-52525
X105750Y-58975
X108030Y-53470
X108030Y-58030
X108975Y-55750
X102525Y-105750
X103470Y-103470
X103470Y-108030
X105750Y-102525
X105750Y-108975
X108030Y-103470
X108030Y-108030
X108975Y-105750
X52525Y-105750
X53470Y-103470
X53470Y-108030
X55750Y-102525
X55750Y-108975
X58030Y-103470
X58030Y-108030
X58975Y-105750
T3
X107300Y-63675
X107300Y-68675
T4
X52750Y-66040
X52750Y-68580
X52750Y-71120
X52750Y-73660
X108585Y-76835
X108585Y-79375
X108585Y-81915
X108585Y-84455
X108585Y-86995
X108585Y-89535
X108585Y-92075
X108585Y-94615
X52705Y-81915
X52705Y-84455
X52705Y-86995
X52705Y-89535
X52705Y-92075
X52705Y-94615
T5
X68250Y-105250
X73250Y-105250
T6
X55750Y-55750
X105750Y-55750
X105750Y-105750
X55750Y-105750
T2
G00X109650Y-62675
M15
G01X110350Y-62675
M16
G05
G00X110350Y-69675
M15
G01X109650Y-69675
M16
G05
T0
M30
