%TF.GenerationSoftware,KiCad,Pcbnew,(5.1.8)-1*%
%TF.CreationDate,2020-12-14T19:22:24+01:00*%
%TF.ProjectId,STM32_Dev_Board,53544d33-325f-4446-9576-5f426f617264,rev?*%
%TF.SameCoordinates,Original*%
%TF.FileFunction,Copper,L4,Bot*%
%TF.FilePolarity,Positive*%
%FSLAX46Y46*%
G04 Gerber Fmt 4.6, Leading zero omitted, Abs format (unit mm)*
G04 Created by KiCad (PCBNEW (5.1.8)-1) date 2020-12-14 19:22:24*
%MOMM*%
%LPD*%
G01*
G04 APERTURE LIST*
%TA.AperFunction,ComponentPad*%
%ADD10C,0.900000*%
%TD*%
%TA.AperFunction,ComponentPad*%
%ADD11C,8.600000*%
%TD*%
%TA.AperFunction,ComponentPad*%
%ADD12C,1.450000*%
%TD*%
%TA.AperFunction,ComponentPad*%
%ADD13O,1.900000X1.200000*%
%TD*%
%TA.AperFunction,ComponentPad*%
%ADD14R,2.600000X2.600000*%
%TD*%
%TA.AperFunction,ComponentPad*%
%ADD15C,2.600000*%
%TD*%
%TA.AperFunction,ComponentPad*%
%ADD16R,1.700000X1.700000*%
%TD*%
%TA.AperFunction,ComponentPad*%
%ADD17O,1.700000X1.700000*%
%TD*%
%TA.AperFunction,ViaPad*%
%ADD18C,0.800000*%
%TD*%
%TA.AperFunction,Conductor*%
%ADD19C,0.300000*%
%TD*%
%TA.AperFunction,Conductor*%
%ADD20C,0.750000*%
%TD*%
G04 APERTURE END LIST*
D10*
%TO.P,H1,1*%
%TO.N,GND*%
X58030419Y-103469581D03*
X55750000Y-102525000D03*
X53469581Y-103469581D03*
X52525000Y-105750000D03*
X53469581Y-108030419D03*
X55750000Y-108975000D03*
X58030419Y-108030419D03*
X58975000Y-105750000D03*
D11*
X55750000Y-105750000D03*
%TD*%
D10*
%TO.P,H2,1*%
%TO.N,GND*%
X108030419Y-103469581D03*
X105750000Y-102525000D03*
X103469581Y-103469581D03*
X102525000Y-105750000D03*
X103469581Y-108030419D03*
X105750000Y-108975000D03*
X108030419Y-108030419D03*
X108975000Y-105750000D03*
D11*
X105750000Y-105750000D03*
%TD*%
%TO.P,H3,1*%
%TO.N,GND*%
X105750000Y-55750000D03*
D10*
X108975000Y-55750000D03*
X108030419Y-58030419D03*
X105750000Y-58975000D03*
X103469581Y-58030419D03*
X102525000Y-55750000D03*
X103469581Y-53469581D03*
X105750000Y-52525000D03*
X108030419Y-53469581D03*
%TD*%
D11*
%TO.P,H4,1*%
%TO.N,GND*%
X55750000Y-55750000D03*
D10*
X58975000Y-55750000D03*
X58030419Y-58030419D03*
X55750000Y-58975000D03*
X53469581Y-58030419D03*
X52525000Y-55750000D03*
X53469581Y-53469581D03*
X55750000Y-52525000D03*
X58030419Y-53469581D03*
%TD*%
D12*
%TO.P,J1,6*%
%TO.N,Net-(J1-Pad6)*%
X107300000Y-68675000D03*
X107300000Y-63675000D03*
D13*
X110000000Y-69675000D03*
X110000000Y-62675000D03*
%TD*%
D14*
%TO.P,J2,1*%
%TO.N,+12V*%
X68250000Y-105250000D03*
D15*
%TO.P,J2,2*%
%TO.N,GND*%
X73250000Y-105250000D03*
%TD*%
D16*
%TO.P,J3,1*%
%TO.N,+3V3*%
X52750000Y-66040000D03*
D17*
%TO.P,J3,2*%
%TO.N,USART2_TX*%
X52750000Y-68580000D03*
%TO.P,J3,3*%
%TO.N,USART4_RX*%
X52750000Y-71120000D03*
%TO.P,J3,4*%
%TO.N,GND*%
X52750000Y-73660000D03*
%TD*%
D16*
%TO.P,J5,1*%
%TO.N,+3V3*%
X52705000Y-81915000D03*
D17*
%TO.P,J5,2*%
%TO.N,SPI1_CS*%
X52705000Y-84455000D03*
%TO.P,J5,3*%
%TO.N,SPI1_SCK*%
X52705000Y-86995000D03*
%TO.P,J5,4*%
%TO.N,SPI1_MISO*%
X52705000Y-89535000D03*
%TO.P,J5,5*%
%TO.N,SPI1_MOSI*%
X52705000Y-92075000D03*
%TO.P,J5,6*%
%TO.N,GND*%
X52705000Y-94615000D03*
%TD*%
D16*
%TO.P,J6,1*%
%TO.N,GPIO_0*%
X108585000Y-76835000D03*
D17*
%TO.P,J6,2*%
%TO.N,GPIO_1*%
X108585000Y-79375000D03*
%TO.P,J6,3*%
%TO.N,GPIO_2*%
X108585000Y-81915000D03*
%TO.P,J6,4*%
%TO.N,GPIO_3*%
X108585000Y-84455000D03*
%TO.P,J6,5*%
%TO.N,GPIO_4*%
X108585000Y-86995000D03*
%TO.P,J6,6*%
%TO.N,GPIO_5*%
X108585000Y-89535000D03*
%TO.P,J6,7*%
%TO.N,GPIO_6*%
X108585000Y-92075000D03*
%TO.P,J6,8*%
%TO.N,GPIO_7*%
X108585000Y-94615000D03*
%TD*%
D18*
%TO.N,GND*%
X72650000Y-81250000D03*
%TO.N,+3V3*%
X70300000Y-67650000D03*
%TO.N,GND*%
X64900000Y-75100000D03*
X68500000Y-74150000D03*
X69800000Y-74150000D03*
X64100000Y-72950000D03*
X68400000Y-70700000D03*
X68800000Y-68850000D03*
X68750000Y-67650000D03*
X68750000Y-65350000D03*
X74250000Y-65100000D03*
X66950000Y-58650000D03*
X72200000Y-58650000D03*
X102250000Y-64000000D03*
X105350000Y-64850000D03*
X105350000Y-63750000D03*
X105350000Y-62500000D03*
X80000000Y-55200000D03*
X83050000Y-67700000D03*
X85550000Y-67100000D03*
X84050000Y-81750000D03*
X84550000Y-79800000D03*
X73750000Y-87850000D03*
X73750000Y-91050000D03*
X72450000Y-89500000D03*
X73750000Y-92300000D03*
X73750000Y-95500000D03*
X72500000Y-93950000D03*
X84800000Y-101750000D03*
X86350000Y-101750000D03*
X89800000Y-95050000D03*
X93100000Y-95050000D03*
X92850000Y-91250000D03*
X83250000Y-98800000D03*
X97200000Y-104800000D03*
X95950000Y-106050000D03*
%TO.N,+3V3*%
X70300000Y-65350000D03*
X72550000Y-66000000D03*
X70250000Y-68850000D03*
X64900000Y-76400000D03*
X74500000Y-82100000D03*
X75700000Y-89500000D03*
X76700000Y-91050000D03*
X76700000Y-87900000D03*
X81250000Y-89550000D03*
X82800000Y-90500000D03*
X82800000Y-92000000D03*
X81200000Y-92950000D03*
X76700000Y-92350000D03*
X76700000Y-95500000D03*
X75650000Y-93950000D03*
X82050000Y-97100000D03*
X80850000Y-98250000D03*
X82950000Y-97100000D03*
X66950000Y-54200000D03*
X84500000Y-55250000D03*
%TO.N,GND*%
X90450000Y-57000000D03*
X93000000Y-57000000D03*
X94250000Y-57000000D03*
%TO.N,+3V3*%
X83200000Y-68850000D03*
X82700000Y-79100000D03*
X95550000Y-56950000D03*
%TO.N,STATUS_LED*%
X74500000Y-73750000D03*
X75250000Y-64250000D03*
%TO.N,+5V*%
X101250000Y-73250000D03*
X101250000Y-95750000D03*
%TO.N,NRST*%
X79500000Y-70750000D03*
X88400000Y-64300000D03*
%TD*%
D19*
%TO.N,STATUS_LED*%
X74500000Y-73750000D02*
X75250000Y-73000000D01*
X75250000Y-73000000D02*
X75250000Y-64250000D01*
D20*
%TO.N,+5V*%
X101250000Y-73250000D02*
X101250000Y-95750000D01*
D19*
%TO.N,NRST*%
X82000000Y-67639998D02*
X85339998Y-64300000D01*
X85339998Y-64300000D02*
X88400000Y-64300000D01*
X82000000Y-68250000D02*
X82000000Y-67639998D01*
X79500000Y-70750000D02*
X82000000Y-68250000D01*
%TD*%
M02*
