%TF.GenerationSoftware,KiCad,Pcbnew,(5.1.8)-1*%
%TF.CreationDate,2020-12-14T19:22:24+01:00*%
%TF.ProjectId,STM32_Dev_Board,53544d33-325f-4446-9576-5f426f617264,rev?*%
%TF.SameCoordinates,Original*%
%TF.FileFunction,Legend,Top*%
%TF.FilePolarity,Positive*%
%FSLAX46Y46*%
G04 Gerber Fmt 4.6, Leading zero omitted, Abs format (unit mm)*
G04 Created by KiCad (PCBNEW (5.1.8)-1) date 2020-12-14 19:22:24*
%MOMM*%
%LPD*%
G01*
G04 APERTURE LIST*
%ADD10C,0.100000*%
%ADD11C,0.150000*%
%ADD12C,0.120000*%
%ADD13C,0.010000*%
G04 APERTURE END LIST*
D10*
X73654761Y-75061904D02*
X73654761Y-75633333D01*
X73616666Y-75747619D01*
X73540476Y-75823809D01*
X73426190Y-75861904D01*
X73350000Y-75861904D01*
X74416666Y-75861904D02*
X74035714Y-75861904D01*
X74035714Y-75061904D01*
X75140476Y-75785714D02*
X75102380Y-75823809D01*
X74988095Y-75861904D01*
X74911904Y-75861904D01*
X74797619Y-75823809D01*
X74721428Y-75747619D01*
X74683333Y-75671428D01*
X74645238Y-75519047D01*
X74645238Y-75404761D01*
X74683333Y-75252380D01*
X74721428Y-75176190D01*
X74797619Y-75100000D01*
X74911904Y-75061904D01*
X74988095Y-75061904D01*
X75102380Y-75100000D01*
X75140476Y-75138095D01*
X75711904Y-75061904D02*
X75711904Y-75633333D01*
X75673809Y-75747619D01*
X75597619Y-75823809D01*
X75483333Y-75861904D01*
X75407142Y-75861904D01*
X76473809Y-75861904D02*
X76092857Y-75861904D01*
X76092857Y-75061904D01*
X77197619Y-75785714D02*
X77159523Y-75823809D01*
X77045238Y-75861904D01*
X76969047Y-75861904D01*
X76854761Y-75823809D01*
X76778571Y-75747619D01*
X76740476Y-75671428D01*
X76702380Y-75519047D01*
X76702380Y-75404761D01*
X76740476Y-75252380D01*
X76778571Y-75176190D01*
X76854761Y-75100000D01*
X76969047Y-75061904D01*
X77045238Y-75061904D01*
X77159523Y-75100000D01*
X77197619Y-75138095D01*
X77769047Y-75061904D02*
X77769047Y-75633333D01*
X77730952Y-75747619D01*
X77654761Y-75823809D01*
X77540476Y-75861904D01*
X77464285Y-75861904D01*
X78530952Y-75861904D02*
X78150000Y-75861904D01*
X78150000Y-75061904D01*
X79254761Y-75785714D02*
X79216666Y-75823809D01*
X79102380Y-75861904D01*
X79026190Y-75861904D01*
X78911904Y-75823809D01*
X78835714Y-75747619D01*
X78797619Y-75671428D01*
X78759523Y-75519047D01*
X78759523Y-75404761D01*
X78797619Y-75252380D01*
X78835714Y-75176190D01*
X78911904Y-75100000D01*
X79026190Y-75061904D01*
X79102380Y-75061904D01*
X79216666Y-75100000D01*
X79254761Y-75138095D01*
X79826190Y-75061904D02*
X79826190Y-75633333D01*
X79788095Y-75747619D01*
X79711904Y-75823809D01*
X79597619Y-75861904D01*
X79521428Y-75861904D01*
X80588095Y-75861904D02*
X80207142Y-75861904D01*
X80207142Y-75061904D01*
X81311904Y-75785714D02*
X81273809Y-75823809D01*
X81159523Y-75861904D01*
X81083333Y-75861904D01*
X80969047Y-75823809D01*
X80892857Y-75747619D01*
X80854761Y-75671428D01*
X80816666Y-75519047D01*
X80816666Y-75404761D01*
X80854761Y-75252380D01*
X80892857Y-75176190D01*
X80969047Y-75100000D01*
X81083333Y-75061904D01*
X81159523Y-75061904D01*
X81273809Y-75100000D01*
X81311904Y-75138095D01*
D11*
X76802380Y-110602380D02*
X76802380Y-109602380D01*
X77183333Y-109602380D01*
X77278571Y-109650000D01*
X77326190Y-109697619D01*
X77373809Y-109792857D01*
X77373809Y-109935714D01*
X77326190Y-110030952D01*
X77278571Y-110078571D01*
X77183333Y-110126190D01*
X76802380Y-110126190D01*
X78230952Y-109935714D02*
X78230952Y-110602380D01*
X77802380Y-109935714D02*
X77802380Y-110459523D01*
X77850000Y-110554761D01*
X77945238Y-110602380D01*
X78088095Y-110602380D01*
X78183333Y-110554761D01*
X78230952Y-110507142D01*
X78611904Y-110602380D02*
X79135714Y-109935714D01*
X78611904Y-109935714D02*
X79135714Y-110602380D01*
X79516666Y-110602380D02*
X79516666Y-109935714D01*
X79516666Y-109602380D02*
X79469047Y-109650000D01*
X79516666Y-109697619D01*
X79564285Y-109650000D01*
X79516666Y-109602380D01*
X79516666Y-109697619D01*
X80373809Y-110554761D02*
X80278571Y-110602380D01*
X80088095Y-110602380D01*
X79992857Y-110554761D01*
X79945238Y-110459523D01*
X79945238Y-110078571D01*
X79992857Y-109983333D01*
X80088095Y-109935714D01*
X80278571Y-109935714D01*
X80373809Y-109983333D01*
X80421428Y-110078571D01*
X80421428Y-110173809D01*
X79945238Y-110269047D01*
X80754761Y-109602380D02*
X81373809Y-109602380D01*
X81040476Y-109983333D01*
X81183333Y-109983333D01*
X81278571Y-110030952D01*
X81326190Y-110078571D01*
X81373809Y-110173809D01*
X81373809Y-110411904D01*
X81326190Y-110507142D01*
X81278571Y-110554761D01*
X81183333Y-110602380D01*
X80897619Y-110602380D01*
X80802380Y-110554761D01*
X80754761Y-110507142D01*
X81754761Y-109697619D02*
X81802380Y-109650000D01*
X81897619Y-109602380D01*
X82135714Y-109602380D01*
X82230952Y-109650000D01*
X82278571Y-109697619D01*
X82326190Y-109792857D01*
X82326190Y-109888095D01*
X82278571Y-110030952D01*
X81707142Y-110602380D01*
X82326190Y-110602380D01*
X83850000Y-110078571D02*
X83992857Y-110126190D01*
X84040476Y-110173809D01*
X84088095Y-110269047D01*
X84088095Y-110411904D01*
X84040476Y-110507142D01*
X83992857Y-110554761D01*
X83897619Y-110602380D01*
X83516666Y-110602380D01*
X83516666Y-109602380D01*
X83850000Y-109602380D01*
X83945238Y-109650000D01*
X83992857Y-109697619D01*
X84040476Y-109792857D01*
X84040476Y-109888095D01*
X83992857Y-109983333D01*
X83945238Y-110030952D01*
X83850000Y-110078571D01*
X83516666Y-110078571D01*
X84659523Y-110602380D02*
X84564285Y-110554761D01*
X84516666Y-110507142D01*
X84469047Y-110411904D01*
X84469047Y-110126190D01*
X84516666Y-110030952D01*
X84564285Y-109983333D01*
X84659523Y-109935714D01*
X84802380Y-109935714D01*
X84897619Y-109983333D01*
X84945238Y-110030952D01*
X84992857Y-110126190D01*
X84992857Y-110411904D01*
X84945238Y-110507142D01*
X84897619Y-110554761D01*
X84802380Y-110602380D01*
X84659523Y-110602380D01*
X85850000Y-110602380D02*
X85850000Y-110078571D01*
X85802380Y-109983333D01*
X85707142Y-109935714D01*
X85516666Y-109935714D01*
X85421428Y-109983333D01*
X85850000Y-110554761D02*
X85754761Y-110602380D01*
X85516666Y-110602380D01*
X85421428Y-110554761D01*
X85373809Y-110459523D01*
X85373809Y-110364285D01*
X85421428Y-110269047D01*
X85516666Y-110221428D01*
X85754761Y-110221428D01*
X85850000Y-110173809D01*
X86326190Y-110602380D02*
X86326190Y-109935714D01*
X86326190Y-110126190D02*
X86373809Y-110030952D01*
X86421428Y-109983333D01*
X86516666Y-109935714D01*
X86611904Y-109935714D01*
X87373809Y-110602380D02*
X87373809Y-109602380D01*
X87373809Y-110554761D02*
X87278571Y-110602380D01*
X87088095Y-110602380D01*
X86992857Y-110554761D01*
X86945238Y-110507142D01*
X86897619Y-110411904D01*
X86897619Y-110126190D01*
X86945238Y-110030952D01*
X86992857Y-109983333D01*
X87088095Y-109935714D01*
X87278571Y-109935714D01*
X87373809Y-109983333D01*
X88850000Y-110935714D02*
X88850000Y-109507142D01*
X90897619Y-110602380D02*
X90564285Y-110126190D01*
X90326190Y-110602380D02*
X90326190Y-109602380D01*
X90707142Y-109602380D01*
X90802380Y-109650000D01*
X90850000Y-109697619D01*
X90897619Y-109792857D01*
X90897619Y-109935714D01*
X90850000Y-110030952D01*
X90802380Y-110078571D01*
X90707142Y-110126190D01*
X90326190Y-110126190D01*
X91707142Y-110554761D02*
X91611904Y-110602380D01*
X91421428Y-110602380D01*
X91326190Y-110554761D01*
X91278571Y-110459523D01*
X91278571Y-110078571D01*
X91326190Y-109983333D01*
X91421428Y-109935714D01*
X91611904Y-109935714D01*
X91707142Y-109983333D01*
X91754761Y-110078571D01*
X91754761Y-110173809D01*
X91278571Y-110269047D01*
X92088095Y-109935714D02*
X92326190Y-110602380D01*
X92564285Y-109935714D01*
X94230952Y-110602380D02*
X93659523Y-110602380D01*
X93945238Y-110602380D02*
X93945238Y-109602380D01*
X93850000Y-109745238D01*
X93754761Y-109840476D01*
X93659523Y-109888095D01*
X94659523Y-110507142D02*
X94707142Y-110554761D01*
X94659523Y-110602380D01*
X94611904Y-110554761D01*
X94659523Y-110507142D01*
X94659523Y-110602380D01*
X95326190Y-109602380D02*
X95421428Y-109602380D01*
X95516666Y-109650000D01*
X95564285Y-109697619D01*
X95611904Y-109792857D01*
X95659523Y-109983333D01*
X95659523Y-110221428D01*
X95611904Y-110411904D01*
X95564285Y-110507142D01*
X95516666Y-110554761D01*
X95421428Y-110602380D01*
X95326190Y-110602380D01*
X95230952Y-110554761D01*
X95183333Y-110507142D01*
X95135714Y-110411904D01*
X95088095Y-110221428D01*
X95088095Y-109983333D01*
X95135714Y-109792857D01*
X95183333Y-109697619D01*
X95230952Y-109650000D01*
X95326190Y-109602380D01*
X97088095Y-110935714D02*
X97088095Y-109507142D01*
X98516666Y-109697619D02*
X98564285Y-109650000D01*
X98659523Y-109602380D01*
X98897619Y-109602380D01*
X98992857Y-109650000D01*
X99040476Y-109697619D01*
X99088095Y-109792857D01*
X99088095Y-109888095D01*
X99040476Y-110030952D01*
X98469047Y-110602380D01*
X99088095Y-110602380D01*
X99707142Y-109602380D02*
X99802380Y-109602380D01*
X99897619Y-109650000D01*
X99945238Y-109697619D01*
X99992857Y-109792857D01*
X100040476Y-109983333D01*
X100040476Y-110221428D01*
X99992857Y-110411904D01*
X99945238Y-110507142D01*
X99897619Y-110554761D01*
X99802380Y-110602380D01*
X99707142Y-110602380D01*
X99611904Y-110554761D01*
X99564285Y-110507142D01*
X99516666Y-110411904D01*
X99469047Y-110221428D01*
X99469047Y-109983333D01*
X99516666Y-109792857D01*
X99564285Y-109697619D01*
X99611904Y-109650000D01*
X99707142Y-109602380D01*
X100421428Y-109697619D02*
X100469047Y-109650000D01*
X100564285Y-109602380D01*
X100802380Y-109602380D01*
X100897619Y-109650000D01*
X100945238Y-109697619D01*
X100992857Y-109792857D01*
X100992857Y-109888095D01*
X100945238Y-110030952D01*
X100373809Y-110602380D01*
X100992857Y-110602380D01*
X101611904Y-109602380D02*
X101707142Y-109602380D01*
X101802380Y-109650000D01*
X101850000Y-109697619D01*
X101897619Y-109792857D01*
X101945238Y-109983333D01*
X101945238Y-110221428D01*
X101897619Y-110411904D01*
X101850000Y-110507142D01*
X101802380Y-110554761D01*
X101707142Y-110602380D01*
X101611904Y-110602380D01*
X101516666Y-110554761D01*
X101469047Y-110507142D01*
X101421428Y-110411904D01*
X101373809Y-110221428D01*
X101373809Y-109983333D01*
X101421428Y-109792857D01*
X101469047Y-109697619D01*
X101516666Y-109650000D01*
X101611904Y-109602380D01*
X77811904Y-57002380D02*
X77478571Y-56526190D01*
X77240476Y-57002380D02*
X77240476Y-56002380D01*
X77621428Y-56002380D01*
X77716666Y-56050000D01*
X77764285Y-56097619D01*
X77811904Y-56192857D01*
X77811904Y-56335714D01*
X77764285Y-56430952D01*
X77716666Y-56478571D01*
X77621428Y-56526190D01*
X77240476Y-56526190D01*
X78240476Y-56002380D02*
X78240476Y-56811904D01*
X78288095Y-56907142D01*
X78335714Y-56954761D01*
X78430952Y-57002380D01*
X78621428Y-57002380D01*
X78716666Y-56954761D01*
X78764285Y-56907142D01*
X78811904Y-56811904D01*
X78811904Y-56002380D01*
X79288095Y-57002380D02*
X79288095Y-56002380D01*
X79859523Y-57002380D01*
X79859523Y-56002380D01*
D10*
X67545238Y-56457142D02*
X68154761Y-56457142D01*
X67850000Y-56761904D02*
X67850000Y-56152380D01*
X72745238Y-56457142D02*
X73354761Y-56457142D01*
X73050000Y-56761904D02*
X73050000Y-56152380D01*
X92645238Y-92107142D02*
X93254761Y-92107142D01*
X92950000Y-92411904D02*
X92950000Y-91802380D01*
X101895238Y-96557142D02*
X102504761Y-96557142D01*
X102200000Y-96861904D02*
X102200000Y-96252380D01*
D12*
X70720711Y-69850000D02*
G75*
G03*
X70720711Y-69850000I-70711J0D01*
G01*
X83570711Y-97850000D02*
G75*
G03*
X83570711Y-97850000I-70711J0D01*
G01*
X104520711Y-67400000D02*
G75*
G03*
X104520711Y-67400000I-70711J0D01*
G01*
X106120711Y-67550000D02*
G75*
G03*
X106120711Y-67550000I-70711J0D01*
G01*
X99500000Y-59000000D02*
X99500000Y-58050000D01*
X98000000Y-59000000D02*
X99500000Y-59000000D01*
X98000000Y-59450000D02*
X98000000Y-59000000D01*
X97050000Y-58500000D02*
X98000000Y-59450000D01*
X97950000Y-57550000D02*
X97050000Y-58500000D01*
X97950000Y-58000000D02*
X97950000Y-57550000D01*
X99500000Y-58000000D02*
X97950000Y-58000000D01*
D11*
X72588095Y-99450000D02*
X72492857Y-99402380D01*
X72350000Y-99402380D01*
X72207142Y-99450000D01*
X72111904Y-99545238D01*
X72064285Y-99640476D01*
X72016666Y-99830952D01*
X72016666Y-99973809D01*
X72064285Y-100164285D01*
X72111904Y-100259523D01*
X72207142Y-100354761D01*
X72350000Y-100402380D01*
X72445238Y-100402380D01*
X72588095Y-100354761D01*
X72635714Y-100307142D01*
X72635714Y-99973809D01*
X72445238Y-99973809D01*
X73064285Y-100402380D02*
X73064285Y-99402380D01*
X73635714Y-100402380D01*
X73635714Y-99402380D01*
X74111904Y-100402380D02*
X74111904Y-99402380D01*
X74350000Y-99402380D01*
X74492857Y-99450000D01*
X74588095Y-99545238D01*
X74635714Y-99640476D01*
X74683333Y-99830952D01*
X74683333Y-99973809D01*
X74635714Y-100164285D01*
X74588095Y-100259523D01*
X74492857Y-100354761D01*
X74350000Y-100402380D01*
X74111904Y-100402380D01*
X67680952Y-100402380D02*
X67109523Y-100402380D01*
X67395238Y-100402380D02*
X67395238Y-99402380D01*
X67300000Y-99545238D01*
X67204761Y-99640476D01*
X67109523Y-99688095D01*
X68061904Y-99497619D02*
X68109523Y-99450000D01*
X68204761Y-99402380D01*
X68442857Y-99402380D01*
X68538095Y-99450000D01*
X68585714Y-99497619D01*
X68633333Y-99592857D01*
X68633333Y-99688095D01*
X68585714Y-99830952D01*
X68014285Y-100402380D01*
X68633333Y-100402380D01*
X68919047Y-99402380D02*
X69252380Y-100402380D01*
X69585714Y-99402380D01*
X107500000Y-73450000D02*
X107404761Y-73402380D01*
X107261904Y-73402380D01*
X107119047Y-73450000D01*
X107023809Y-73545238D01*
X106976190Y-73640476D01*
X106928571Y-73830952D01*
X106928571Y-73973809D01*
X106976190Y-74164285D01*
X107023809Y-74259523D01*
X107119047Y-74354761D01*
X107261904Y-74402380D01*
X107357142Y-74402380D01*
X107500000Y-74354761D01*
X107547619Y-74307142D01*
X107547619Y-73973809D01*
X107357142Y-73973809D01*
X107976190Y-74402380D02*
X107976190Y-73402380D01*
X108357142Y-73402380D01*
X108452380Y-73450000D01*
X108500000Y-73497619D01*
X108547619Y-73592857D01*
X108547619Y-73735714D01*
X108500000Y-73830952D01*
X108452380Y-73878571D01*
X108357142Y-73926190D01*
X107976190Y-73926190D01*
X108976190Y-74402380D02*
X108976190Y-73402380D01*
X109642857Y-73402380D02*
X109833333Y-73402380D01*
X109928571Y-73450000D01*
X110023809Y-73545238D01*
X110071428Y-73735714D01*
X110071428Y-74069047D01*
X110023809Y-74259523D01*
X109928571Y-74354761D01*
X109833333Y-74402380D01*
X109642857Y-74402380D01*
X109547619Y-74354761D01*
X109452380Y-74259523D01*
X109404761Y-74069047D01*
X109404761Y-73735714D01*
X109452380Y-73545238D01*
X109547619Y-73450000D01*
X109642857Y-73402380D01*
X50628571Y-62702380D02*
X50628571Y-63511904D01*
X50676190Y-63607142D01*
X50723809Y-63654761D01*
X50819047Y-63702380D01*
X51009523Y-63702380D01*
X51104761Y-63654761D01*
X51152380Y-63607142D01*
X51200000Y-63511904D01*
X51200000Y-62702380D01*
X51628571Y-63654761D02*
X51771428Y-63702380D01*
X52009523Y-63702380D01*
X52104761Y-63654761D01*
X52152380Y-63607142D01*
X52200000Y-63511904D01*
X52200000Y-63416666D01*
X52152380Y-63321428D01*
X52104761Y-63273809D01*
X52009523Y-63226190D01*
X51819047Y-63178571D01*
X51723809Y-63130952D01*
X51676190Y-63083333D01*
X51628571Y-62988095D01*
X51628571Y-62892857D01*
X51676190Y-62797619D01*
X51723809Y-62750000D01*
X51819047Y-62702380D01*
X52057142Y-62702380D01*
X52200000Y-62750000D01*
X52580952Y-63416666D02*
X53057142Y-63416666D01*
X52485714Y-63702380D02*
X52819047Y-62702380D01*
X53152380Y-63702380D01*
X54057142Y-63702380D02*
X53723809Y-63226190D01*
X53485714Y-63702380D02*
X53485714Y-62702380D01*
X53866666Y-62702380D01*
X53961904Y-62750000D01*
X54009523Y-62797619D01*
X54057142Y-62892857D01*
X54057142Y-63035714D01*
X54009523Y-63130952D01*
X53961904Y-63178571D01*
X53866666Y-63226190D01*
X53485714Y-63226190D01*
X54342857Y-62702380D02*
X54914285Y-62702380D01*
X54628571Y-63702380D02*
X54628571Y-62702380D01*
X51626190Y-79604761D02*
X51769047Y-79652380D01*
X52007142Y-79652380D01*
X52102380Y-79604761D01*
X52150000Y-79557142D01*
X52197619Y-79461904D01*
X52197619Y-79366666D01*
X52150000Y-79271428D01*
X52102380Y-79223809D01*
X52007142Y-79176190D01*
X51816666Y-79128571D01*
X51721428Y-79080952D01*
X51673809Y-79033333D01*
X51626190Y-78938095D01*
X51626190Y-78842857D01*
X51673809Y-78747619D01*
X51721428Y-78700000D01*
X51816666Y-78652380D01*
X52054761Y-78652380D01*
X52197619Y-78700000D01*
X52626190Y-79652380D02*
X52626190Y-78652380D01*
X53007142Y-78652380D01*
X53102380Y-78700000D01*
X53150000Y-78747619D01*
X53197619Y-78842857D01*
X53197619Y-78985714D01*
X53150000Y-79080952D01*
X53102380Y-79128571D01*
X53007142Y-79176190D01*
X52626190Y-79176190D01*
X53626190Y-79652380D02*
X53626190Y-78652380D01*
X69123809Y-53304761D02*
X69266666Y-53352380D01*
X69504761Y-53352380D01*
X69600000Y-53304761D01*
X69647619Y-53257142D01*
X69695238Y-53161904D01*
X69695238Y-53066666D01*
X69647619Y-52971428D01*
X69600000Y-52923809D01*
X69504761Y-52876190D01*
X69314285Y-52828571D01*
X69219047Y-52780952D01*
X69171428Y-52733333D01*
X69123809Y-52638095D01*
X69123809Y-52542857D01*
X69171428Y-52447619D01*
X69219047Y-52400000D01*
X69314285Y-52352380D01*
X69552380Y-52352380D01*
X69695238Y-52400000D01*
X69980952Y-52352380D02*
X70552380Y-52352380D01*
X70266666Y-53352380D02*
X70266666Y-52352380D01*
X70838095Y-53066666D02*
X71314285Y-53066666D01*
X70742857Y-53352380D02*
X71076190Y-52352380D01*
X71409523Y-53352380D01*
X71600000Y-52352380D02*
X72171428Y-52352380D01*
X71885714Y-53352380D02*
X71885714Y-52352380D01*
X72504761Y-52352380D02*
X72504761Y-53161904D01*
X72552380Y-53257142D01*
X72600000Y-53304761D01*
X72695238Y-53352380D01*
X72885714Y-53352380D01*
X72980952Y-53304761D01*
X73028571Y-53257142D01*
X73076190Y-53161904D01*
X73076190Y-52352380D01*
X73504761Y-53304761D02*
X73647619Y-53352380D01*
X73885714Y-53352380D01*
X73980952Y-53304761D01*
X74028571Y-53257142D01*
X74076190Y-53161904D01*
X74076190Y-53066666D01*
X74028571Y-52971428D01*
X73980952Y-52923809D01*
X73885714Y-52876190D01*
X73695238Y-52828571D01*
X73600000Y-52780952D01*
X73552380Y-52733333D01*
X73504761Y-52638095D01*
X73504761Y-52542857D01*
X73552380Y-52447619D01*
X73600000Y-52400000D01*
X73695238Y-52352380D01*
X73933333Y-52352380D01*
X74076190Y-52400000D01*
X64816666Y-53402380D02*
X64816666Y-52402380D01*
X65197619Y-52402380D01*
X65292857Y-52450000D01*
X65340476Y-52497619D01*
X65388095Y-52592857D01*
X65388095Y-52735714D01*
X65340476Y-52830952D01*
X65292857Y-52878571D01*
X65197619Y-52926190D01*
X64816666Y-52926190D01*
X65721428Y-52402380D02*
X65959523Y-53402380D01*
X66150000Y-52688095D01*
X66340476Y-53402380D01*
X66578571Y-52402380D01*
X67530952Y-53402380D02*
X67197619Y-52926190D01*
X66959523Y-53402380D02*
X66959523Y-52402380D01*
X67340476Y-52402380D01*
X67435714Y-52450000D01*
X67483333Y-52497619D01*
X67530952Y-52592857D01*
X67530952Y-52735714D01*
X67483333Y-52830952D01*
X67435714Y-52878571D01*
X67340476Y-52926190D01*
X66959523Y-52926190D01*
X84542857Y-56478571D02*
X84685714Y-56526190D01*
X84733333Y-56573809D01*
X84780952Y-56669047D01*
X84780952Y-56811904D01*
X84733333Y-56907142D01*
X84685714Y-56954761D01*
X84590476Y-57002380D01*
X84209523Y-57002380D01*
X84209523Y-56002380D01*
X84542857Y-56002380D01*
X84638095Y-56050000D01*
X84685714Y-56097619D01*
X84733333Y-56192857D01*
X84733333Y-56288095D01*
X84685714Y-56383333D01*
X84638095Y-56430952D01*
X84542857Y-56478571D01*
X84209523Y-56478571D01*
X85400000Y-56002380D02*
X85590476Y-56002380D01*
X85685714Y-56050000D01*
X85780952Y-56145238D01*
X85828571Y-56335714D01*
X85828571Y-56669047D01*
X85780952Y-56859523D01*
X85685714Y-56954761D01*
X85590476Y-57002380D01*
X85400000Y-57002380D01*
X85304761Y-56954761D01*
X85209523Y-56859523D01*
X85161904Y-56669047D01*
X85161904Y-56335714D01*
X85209523Y-56145238D01*
X85304761Y-56050000D01*
X85400000Y-56002380D01*
X86447619Y-56002380D02*
X86638095Y-56002380D01*
X86733333Y-56050000D01*
X86828571Y-56145238D01*
X86876190Y-56335714D01*
X86876190Y-56669047D01*
X86828571Y-56859523D01*
X86733333Y-56954761D01*
X86638095Y-57002380D01*
X86447619Y-57002380D01*
X86352380Y-56954761D01*
X86257142Y-56859523D01*
X86209523Y-56669047D01*
X86209523Y-56335714D01*
X86257142Y-56145238D01*
X86352380Y-56050000D01*
X86447619Y-56002380D01*
X87161904Y-56002380D02*
X87733333Y-56002380D01*
X87447619Y-57002380D02*
X87447619Y-56002380D01*
D13*
%TO.C,G\u002A\u002A\u002A*%
G36*
X91572941Y-82482939D02*
G01*
X91943056Y-82518173D01*
X92153292Y-82577897D01*
X92158875Y-82582141D01*
X92290142Y-82824335D01*
X92342770Y-83190794D01*
X92313264Y-83563148D01*
X92198127Y-83823032D01*
X92195600Y-83825600D01*
X92119274Y-83949176D01*
X92249882Y-83978000D01*
X92544254Y-84090944D01*
X92775119Y-84382387D01*
X92926137Y-84781247D01*
X92980968Y-85216441D01*
X92923271Y-85616886D01*
X92736705Y-85911499D01*
X92700741Y-85939298D01*
X92429564Y-86043973D01*
X92017212Y-86111942D01*
X91540436Y-86141858D01*
X91075990Y-86132372D01*
X90700626Y-86082138D01*
X90491095Y-85989808D01*
X90482245Y-85978250D01*
X90434061Y-85802249D01*
X90375549Y-85440141D01*
X90312519Y-84950347D01*
X90250782Y-84391283D01*
X90196151Y-83821370D01*
X90156401Y-83323636D01*
X90606214Y-83323636D01*
X90626708Y-83879424D01*
X90665478Y-84298576D01*
X90750346Y-84952398D01*
X90847582Y-85406638D01*
X90951527Y-85635947D01*
X90966999Y-85649142D01*
X91209825Y-85717067D01*
X91585628Y-85729513D01*
X92002031Y-85695003D01*
X92366655Y-85622059D01*
X92587122Y-85519201D01*
X92604415Y-85498091D01*
X92626038Y-85252620D01*
X92502339Y-84934058D01*
X92280847Y-84634615D01*
X92078454Y-84477680D01*
X91677322Y-84387526D01*
X91164900Y-84499781D01*
X91044809Y-84547308D01*
X90885108Y-84578153D01*
X90899496Y-84437033D01*
X90899647Y-84436640D01*
X91056781Y-84259205D01*
X91155087Y-84232000D01*
X91315204Y-84160246D01*
X91332000Y-84107419D01*
X91439914Y-83987734D01*
X91656244Y-83901458D01*
X91871989Y-83812011D01*
X91949148Y-83635531D01*
X91941994Y-83363347D01*
X91890246Y-83058795D01*
X91750510Y-82899224D01*
X91443461Y-82798545D01*
X91415443Y-82791899D01*
X91048466Y-82733379D01*
X90801598Y-82781742D01*
X90659346Y-82968119D01*
X90606214Y-83323636D01*
X90156401Y-83323636D01*
X90154435Y-83299024D01*
X90131447Y-82882666D01*
X90132998Y-82630714D01*
X90144674Y-82584766D01*
X90328812Y-82523111D01*
X90683269Y-82485516D01*
X91125495Y-82472090D01*
X91572941Y-82482939D01*
G37*
X91572941Y-82482939D02*
X91943056Y-82518173D01*
X92153292Y-82577897D01*
X92158875Y-82582141D01*
X92290142Y-82824335D01*
X92342770Y-83190794D01*
X92313264Y-83563148D01*
X92198127Y-83823032D01*
X92195600Y-83825600D01*
X92119274Y-83949176D01*
X92249882Y-83978000D01*
X92544254Y-84090944D01*
X92775119Y-84382387D01*
X92926137Y-84781247D01*
X92980968Y-85216441D01*
X92923271Y-85616886D01*
X92736705Y-85911499D01*
X92700741Y-85939298D01*
X92429564Y-86043973D01*
X92017212Y-86111942D01*
X91540436Y-86141858D01*
X91075990Y-86132372D01*
X90700626Y-86082138D01*
X90491095Y-85989808D01*
X90482245Y-85978250D01*
X90434061Y-85802249D01*
X90375549Y-85440141D01*
X90312519Y-84950347D01*
X90250782Y-84391283D01*
X90196151Y-83821370D01*
X90156401Y-83323636D01*
X90606214Y-83323636D01*
X90626708Y-83879424D01*
X90665478Y-84298576D01*
X90750346Y-84952398D01*
X90847582Y-85406638D01*
X90951527Y-85635947D01*
X90966999Y-85649142D01*
X91209825Y-85717067D01*
X91585628Y-85729513D01*
X92002031Y-85695003D01*
X92366655Y-85622059D01*
X92587122Y-85519201D01*
X92604415Y-85498091D01*
X92626038Y-85252620D01*
X92502339Y-84934058D01*
X92280847Y-84634615D01*
X92078454Y-84477680D01*
X91677322Y-84387526D01*
X91164900Y-84499781D01*
X91044809Y-84547308D01*
X90885108Y-84578153D01*
X90899496Y-84437033D01*
X90899647Y-84436640D01*
X91056781Y-84259205D01*
X91155087Y-84232000D01*
X91315204Y-84160246D01*
X91332000Y-84107419D01*
X91439914Y-83987734D01*
X91656244Y-83901458D01*
X91871989Y-83812011D01*
X91949148Y-83635531D01*
X91941994Y-83363347D01*
X91890246Y-83058795D01*
X91750510Y-82899224D01*
X91443461Y-82798545D01*
X91415443Y-82791899D01*
X91048466Y-82733379D01*
X90801598Y-82781742D01*
X90659346Y-82968119D01*
X90606214Y-83323636D01*
X90156401Y-83323636D01*
X90154435Y-83299024D01*
X90131447Y-82882666D01*
X90132998Y-82630714D01*
X90144674Y-82584766D01*
X90328812Y-82523111D01*
X90683269Y-82485516D01*
X91125495Y-82472090D01*
X91572941Y-82482939D01*
G36*
X97707653Y-83860603D02*
G01*
X97787841Y-84171801D01*
X97809000Y-84505384D01*
X97826027Y-84899610D01*
X97893513Y-85109528D01*
X98036064Y-85203511D01*
X98063000Y-85211201D01*
X98293438Y-85332954D01*
X98307446Y-85479691D01*
X98129433Y-85595687D01*
X97879995Y-85629000D01*
X97563661Y-85662652D01*
X97373122Y-85744795D01*
X97364500Y-85756000D01*
X97173438Y-85858292D01*
X96851992Y-85878370D01*
X96507639Y-85823111D01*
X96247855Y-85699395D01*
X96230571Y-85683428D01*
X96091066Y-85407297D01*
X96031444Y-84990188D01*
X96031000Y-84949653D01*
X96069698Y-84720673D01*
X96391877Y-84720673D01*
X96405971Y-85222564D01*
X96558686Y-85522467D01*
X96843014Y-85612156D01*
X97100112Y-85551912D01*
X97234468Y-85381158D01*
X97301165Y-85059818D01*
X97289034Y-84684944D01*
X97227751Y-84442891D01*
X97076398Y-84338216D01*
X96824509Y-84360780D01*
X96569209Y-84478307D01*
X96407625Y-84658520D01*
X96391877Y-84720673D01*
X96069698Y-84720673D01*
X96115276Y-84450986D01*
X96377917Y-84129495D01*
X96833637Y-83969128D01*
X96942223Y-83955649D01*
X97254431Y-83896765D01*
X97440105Y-83809557D01*
X97445550Y-83802979D01*
X97586753Y-83724514D01*
X97707653Y-83860603D01*
G37*
X97707653Y-83860603D02*
X97787841Y-84171801D01*
X97809000Y-84505384D01*
X97826027Y-84899610D01*
X97893513Y-85109528D01*
X98036064Y-85203511D01*
X98063000Y-85211201D01*
X98293438Y-85332954D01*
X98307446Y-85479691D01*
X98129433Y-85595687D01*
X97879995Y-85629000D01*
X97563661Y-85662652D01*
X97373122Y-85744795D01*
X97364500Y-85756000D01*
X97173438Y-85858292D01*
X96851992Y-85878370D01*
X96507639Y-85823111D01*
X96247855Y-85699395D01*
X96230571Y-85683428D01*
X96091066Y-85407297D01*
X96031444Y-84990188D01*
X96031000Y-84949653D01*
X96069698Y-84720673D01*
X96391877Y-84720673D01*
X96405971Y-85222564D01*
X96558686Y-85522467D01*
X96843014Y-85612156D01*
X97100112Y-85551912D01*
X97234468Y-85381158D01*
X97301165Y-85059818D01*
X97289034Y-84684944D01*
X97227751Y-84442891D01*
X97076398Y-84338216D01*
X96824509Y-84360780D01*
X96569209Y-84478307D01*
X96407625Y-84658520D01*
X96391877Y-84720673D01*
X96069698Y-84720673D01*
X96115276Y-84450986D01*
X96377917Y-84129495D01*
X96833637Y-83969128D01*
X96942223Y-83955649D01*
X97254431Y-83896765D01*
X97440105Y-83809557D01*
X97445550Y-83802979D01*
X97586753Y-83724514D01*
X97707653Y-83860603D01*
G36*
X95208011Y-84072648D02*
G01*
X95530552Y-84327955D01*
X95654045Y-84710101D01*
X95555344Y-85181038D01*
X95503987Y-85288099D01*
X95317285Y-85564316D01*
X95076630Y-85704761D01*
X94695512Y-85751836D01*
X94553356Y-85754055D01*
X94170420Y-85719399D01*
X93932639Y-85582828D01*
X93823106Y-85442968D01*
X93632545Y-84976768D01*
X94028800Y-84976768D01*
X94098398Y-85174637D01*
X94316636Y-85441801D01*
X94613426Y-85470333D01*
X94980123Y-85260162D01*
X95068847Y-85182322D01*
X95336901Y-84858699D01*
X95365445Y-84616809D01*
X95158839Y-84467850D01*
X94773102Y-84422500D01*
X94303153Y-84484256D01*
X94054900Y-84669182D01*
X94028800Y-84976768D01*
X93632545Y-84976768D01*
X93631825Y-84975008D01*
X93670396Y-84556473D01*
X93914866Y-84226835D01*
X94341283Y-84025564D01*
X94709566Y-83982225D01*
X95208011Y-84072648D01*
G37*
X95208011Y-84072648D02*
X95530552Y-84327955D01*
X95654045Y-84710101D01*
X95555344Y-85181038D01*
X95503987Y-85288099D01*
X95317285Y-85564316D01*
X95076630Y-85704761D01*
X94695512Y-85751836D01*
X94553356Y-85754055D01*
X94170420Y-85719399D01*
X93932639Y-85582828D01*
X93823106Y-85442968D01*
X93632545Y-84976768D01*
X94028800Y-84976768D01*
X94098398Y-85174637D01*
X94316636Y-85441801D01*
X94613426Y-85470333D01*
X94980123Y-85260162D01*
X95068847Y-85182322D01*
X95336901Y-84858699D01*
X95365445Y-84616809D01*
X95158839Y-84467850D01*
X94773102Y-84422500D01*
X94303153Y-84484256D01*
X94054900Y-84669182D01*
X94028800Y-84976768D01*
X93632545Y-84976768D01*
X93631825Y-84975008D01*
X93670396Y-84556473D01*
X93914866Y-84226835D01*
X94341283Y-84025564D01*
X94709566Y-83982225D01*
X95208011Y-84072648D01*
G36*
X98814703Y-83834339D02*
G01*
X99020590Y-83948864D01*
X99444319Y-83963902D01*
X99507914Y-83959362D01*
X99908652Y-83964848D01*
X100087689Y-84041814D01*
X100035661Y-84159697D01*
X99743204Y-84287937D01*
X99618750Y-84321108D01*
X99340920Y-84398726D01*
X99200461Y-84508165D01*
X99151498Y-84724899D01*
X99147922Y-85095725D01*
X99141310Y-85482286D01*
X99094165Y-85678677D01*
X98977910Y-85748447D01*
X98851009Y-85756000D01*
X98662837Y-85735277D01*
X98594322Y-85626503D01*
X98616255Y-85359768D01*
X98635729Y-85240721D01*
X98650371Y-84692738D01*
X98565058Y-84344655D01*
X98473582Y-84037981D01*
X98526188Y-83849005D01*
X98557954Y-83813245D01*
X98713740Y-83733224D01*
X98814703Y-83834339D01*
G37*
X98814703Y-83834339D02*
X99020590Y-83948864D01*
X99444319Y-83963902D01*
X99507914Y-83959362D01*
X99908652Y-83964848D01*
X100087689Y-84041814D01*
X100035661Y-84159697D01*
X99743204Y-84287937D01*
X99618750Y-84321108D01*
X99340920Y-84398726D01*
X99200461Y-84508165D01*
X99151498Y-84724899D01*
X99147922Y-85095725D01*
X99141310Y-85482286D01*
X99094165Y-85678677D01*
X98977910Y-85748447D01*
X98851009Y-85756000D01*
X98662837Y-85735277D01*
X98594322Y-85626503D01*
X98616255Y-85359768D01*
X98635729Y-85240721D01*
X98650371Y-84692738D01*
X98565058Y-84344655D01*
X98473582Y-84037981D01*
X98526188Y-83849005D01*
X98557954Y-83813245D01*
X98713740Y-83733224D01*
X98814703Y-83834339D01*
G36*
X102019067Y-81857438D02*
G01*
X102074452Y-81998791D01*
X102107596Y-82282112D01*
X102123441Y-82746456D01*
X102127000Y-83324455D01*
X102130034Y-83969559D01*
X102145215Y-84413734D01*
X102181657Y-84710032D01*
X102248473Y-84911508D01*
X102354780Y-85071212D01*
X102444500Y-85172498D01*
X102652038Y-85410376D01*
X102758346Y-85559483D01*
X102762000Y-85572043D01*
X102676272Y-85637586D01*
X102468563Y-85569207D01*
X102213084Y-85394306D01*
X102166009Y-85351992D01*
X101951070Y-85174075D01*
X101819396Y-85168767D01*
X101713324Y-85280503D01*
X101487450Y-85439623D01*
X101141578Y-85559320D01*
X101090184Y-85569593D01*
X100760121Y-85601709D01*
X100576086Y-85523887D01*
X100486934Y-85395431D01*
X100376496Y-85020696D01*
X100370302Y-84780291D01*
X100648297Y-84780291D01*
X100707161Y-84931092D01*
X100831461Y-85163419D01*
X100963089Y-85225694D01*
X101176684Y-85123960D01*
X101377144Y-84985352D01*
X101643300Y-84716751D01*
X101755253Y-84439136D01*
X101707972Y-84215113D01*
X101496420Y-84107286D01*
X101447932Y-84105000D01*
X101135108Y-84186840D01*
X100856316Y-84359592D01*
X100659920Y-84574046D01*
X100648297Y-84780291D01*
X100370302Y-84780291D01*
X100365165Y-84580936D01*
X100450548Y-84201505D01*
X100511789Y-84093994D01*
X100856984Y-83798616D01*
X101291507Y-83619895D01*
X101483650Y-83597000D01*
X101621321Y-83574971D01*
X101700175Y-83472498D01*
X101736321Y-83235001D01*
X101745864Y-82807899D01*
X101746000Y-82708000D01*
X101757203Y-82224991D01*
X101797486Y-81948550D01*
X101876860Y-81831961D01*
X101936500Y-81819000D01*
X102019067Y-81857438D01*
G37*
X102019067Y-81857438D02*
X102074452Y-81998791D01*
X102107596Y-82282112D01*
X102123441Y-82746456D01*
X102127000Y-83324455D01*
X102130034Y-83969559D01*
X102145215Y-84413734D01*
X102181657Y-84710032D01*
X102248473Y-84911508D01*
X102354780Y-85071212D01*
X102444500Y-85172498D01*
X102652038Y-85410376D01*
X102758346Y-85559483D01*
X102762000Y-85572043D01*
X102676272Y-85637586D01*
X102468563Y-85569207D01*
X102213084Y-85394306D01*
X102166009Y-85351992D01*
X101951070Y-85174075D01*
X101819396Y-85168767D01*
X101713324Y-85280503D01*
X101487450Y-85439623D01*
X101141578Y-85559320D01*
X101090184Y-85569593D01*
X100760121Y-85601709D01*
X100576086Y-85523887D01*
X100486934Y-85395431D01*
X100376496Y-85020696D01*
X100370302Y-84780291D01*
X100648297Y-84780291D01*
X100707161Y-84931092D01*
X100831461Y-85163419D01*
X100963089Y-85225694D01*
X101176684Y-85123960D01*
X101377144Y-84985352D01*
X101643300Y-84716751D01*
X101755253Y-84439136D01*
X101707972Y-84215113D01*
X101496420Y-84107286D01*
X101447932Y-84105000D01*
X101135108Y-84186840D01*
X100856316Y-84359592D01*
X100659920Y-84574046D01*
X100648297Y-84780291D01*
X100370302Y-84780291D01*
X100365165Y-84580936D01*
X100450548Y-84201505D01*
X100511789Y-84093994D01*
X100856984Y-83798616D01*
X101291507Y-83619895D01*
X101483650Y-83597000D01*
X101621321Y-83574971D01*
X101700175Y-83472498D01*
X101736321Y-83235001D01*
X101745864Y-82807899D01*
X101746000Y-82708000D01*
X101757203Y-82224991D01*
X101797486Y-81948550D01*
X101876860Y-81831961D01*
X101936500Y-81819000D01*
X102019067Y-81857438D01*
G36*
X102964380Y-76137047D02*
G01*
X102987151Y-76271217D01*
X103022510Y-76612689D01*
X103067137Y-77116017D01*
X103117710Y-77735752D01*
X103170909Y-78426447D01*
X103223411Y-79142656D01*
X103271898Y-79838930D01*
X103313047Y-80469822D01*
X103343538Y-80989886D01*
X103360049Y-81353673D01*
X103359260Y-81515737D01*
X103357700Y-81519633D01*
X103230559Y-81537723D01*
X102889555Y-81575152D01*
X102373775Y-81628199D01*
X101722308Y-81693142D01*
X100974242Y-81766260D01*
X100168663Y-81843830D01*
X99344661Y-81922130D01*
X98541322Y-81997440D01*
X97797735Y-82066038D01*
X97152987Y-82124201D01*
X96646166Y-82168208D01*
X96316360Y-82194338D01*
X96211978Y-82200000D01*
X96174679Y-82088620D01*
X96121638Y-81812193D01*
X96107577Y-81723750D01*
X96066087Y-81433994D01*
X95999586Y-80948602D01*
X95915658Y-80323838D01*
X95821892Y-79615965D01*
X95770082Y-79220832D01*
X95676751Y-78528651D01*
X95632650Y-78222302D01*
X96158000Y-78222302D01*
X96248077Y-78427533D01*
X96442361Y-78467382D01*
X96595440Y-78357631D01*
X96802385Y-78220334D01*
X97156055Y-78104436D01*
X97329723Y-78071076D01*
X97683696Y-78027388D01*
X97845444Y-78048053D01*
X97872201Y-78149593D01*
X97856232Y-78223097D01*
X97696555Y-78462303D01*
X97515432Y-78585500D01*
X97329905Y-78741476D01*
X97209099Y-78967655D01*
X97181392Y-79175886D01*
X97275166Y-79278016D01*
X97292167Y-79279000D01*
X97415442Y-79177494D01*
X97428000Y-79104375D01*
X97537023Y-78972687D01*
X97792594Y-78862530D01*
X98087461Y-78805566D01*
X98314374Y-78833459D01*
X98325124Y-78839521D01*
X98451848Y-79042052D01*
X98518935Y-79392274D01*
X98517789Y-79789058D01*
X98439810Y-80131274D01*
X98435752Y-80140642D01*
X98187685Y-80505262D01*
X97855842Y-80748932D01*
X97511719Y-80832208D01*
X97295173Y-80769887D01*
X97100194Y-80611168D01*
X97047000Y-80518450D01*
X96943716Y-80432771D01*
X96856500Y-80422000D01*
X96722829Y-80526343D01*
X96662161Y-80760595D01*
X96692961Y-81006589D01*
X96750666Y-81099333D01*
X96914575Y-81145187D01*
X97250553Y-81175933D01*
X97571159Y-81184000D01*
X98087514Y-81152335D01*
X98393714Y-81051946D01*
X98470742Y-80984563D01*
X98700327Y-80731076D01*
X98797637Y-80634192D01*
X99629162Y-80634192D01*
X99760143Y-80672963D01*
X99793699Y-80672895D01*
X100065975Y-80642941D01*
X100449459Y-80572250D01*
X100560373Y-80547699D01*
X100965187Y-80499340D01*
X101423902Y-80509954D01*
X101859764Y-80569107D01*
X102196024Y-80666365D01*
X102355928Y-80791292D01*
X102356113Y-80791840D01*
X102477627Y-80900068D01*
X102657754Y-80929524D01*
X102761092Y-80861035D01*
X102762000Y-80849313D01*
X102667817Y-80691170D01*
X102444698Y-80476467D01*
X102181787Y-80278863D01*
X101968228Y-80172015D01*
X101937451Y-80168000D01*
X101736382Y-80106769D01*
X101700056Y-80069407D01*
X101689652Y-79893412D01*
X101743490Y-79594110D01*
X101835347Y-79265674D01*
X101939002Y-79002277D01*
X102026237Y-78898000D01*
X102089349Y-78785271D01*
X102124439Y-78503680D01*
X102127000Y-78390000D01*
X102098832Y-78071889D01*
X102028468Y-77894953D01*
X102000000Y-77882000D01*
X101879178Y-77781347D01*
X101868774Y-77723250D01*
X101744351Y-77391798D01*
X101435224Y-77134597D01*
X101009502Y-77001363D01*
X100868392Y-76993000D01*
X100546097Y-77020589D01*
X100364055Y-77089680D01*
X100349000Y-77120000D01*
X100246306Y-77233068D01*
X100160919Y-77247000D01*
X99968728Y-77350728D01*
X99870735Y-77608064D01*
X99863247Y-77938237D01*
X99942576Y-78260475D01*
X100105031Y-78494005D01*
X100220610Y-78553434D01*
X100425198Y-78526007D01*
X100481577Y-78373950D01*
X100351987Y-78201363D01*
X100349000Y-78199500D01*
X100225928Y-78010288D01*
X100318343Y-77770386D01*
X100534413Y-77579511D01*
X100912992Y-77462722D01*
X101284218Y-77575508D01*
X101591553Y-77898252D01*
X101625806Y-77958218D01*
X101717952Y-78216071D01*
X101695152Y-78509019D01*
X101619432Y-78769690D01*
X101476329Y-79084506D01*
X101318987Y-79263457D01*
X101269282Y-79279000D01*
X101093473Y-79385459D01*
X101020798Y-79533000D01*
X100906257Y-79739174D01*
X100809237Y-79787000D01*
X100635064Y-79883729D01*
X100505473Y-80041000D01*
X100286862Y-80242223D01*
X100109474Y-80295000D01*
X99829861Y-80387195D01*
X99714000Y-80485500D01*
X99629162Y-80634192D01*
X98797637Y-80634192D01*
X98856750Y-80575338D01*
X99019812Y-80277530D01*
X99075353Y-79870574D01*
X99020570Y-79472818D01*
X98888500Y-79233642D01*
X98732242Y-79017197D01*
X98698000Y-78903085D01*
X98596305Y-78740258D01*
X98507500Y-78689926D01*
X98337089Y-78518919D01*
X98370578Y-78240366D01*
X98602312Y-77890261D01*
X98639639Y-77848952D01*
X98962279Y-77501000D01*
X98551881Y-77501000D01*
X98207728Y-77535342D01*
X97760162Y-77625689D01*
X97272305Y-77753022D01*
X96807280Y-77898321D01*
X96428209Y-78042566D01*
X96198216Y-78166738D01*
X96158000Y-78222302D01*
X95632650Y-78222302D01*
X95589902Y-77925353D01*
X95516434Y-77455836D01*
X95463246Y-77164996D01*
X95443172Y-77093582D01*
X95438096Y-76995580D01*
X95452597Y-76992999D01*
X95592150Y-76978344D01*
X95951895Y-76936900D01*
X96499871Y-76872453D01*
X97204116Y-76788789D01*
X98032670Y-76689694D01*
X98953571Y-76578952D01*
X99225415Y-76546156D01*
X100164430Y-76434174D01*
X101018307Y-76335000D01*
X101755481Y-76252089D01*
X102344384Y-76188894D01*
X102753452Y-76148870D01*
X102951117Y-76135469D01*
X102964380Y-76137047D01*
G37*
X102964380Y-76137047D02*
X102987151Y-76271217D01*
X103022510Y-76612689D01*
X103067137Y-77116017D01*
X103117710Y-77735752D01*
X103170909Y-78426447D01*
X103223411Y-79142656D01*
X103271898Y-79838930D01*
X103313047Y-80469822D01*
X103343538Y-80989886D01*
X103360049Y-81353673D01*
X103359260Y-81515737D01*
X103357700Y-81519633D01*
X103230559Y-81537723D01*
X102889555Y-81575152D01*
X102373775Y-81628199D01*
X101722308Y-81693142D01*
X100974242Y-81766260D01*
X100168663Y-81843830D01*
X99344661Y-81922130D01*
X98541322Y-81997440D01*
X97797735Y-82066038D01*
X97152987Y-82124201D01*
X96646166Y-82168208D01*
X96316360Y-82194338D01*
X96211978Y-82200000D01*
X96174679Y-82088620D01*
X96121638Y-81812193D01*
X96107577Y-81723750D01*
X96066087Y-81433994D01*
X95999586Y-80948602D01*
X95915658Y-80323838D01*
X95821892Y-79615965D01*
X95770082Y-79220832D01*
X95676751Y-78528651D01*
X95632650Y-78222302D01*
X96158000Y-78222302D01*
X96248077Y-78427533D01*
X96442361Y-78467382D01*
X96595440Y-78357631D01*
X96802385Y-78220334D01*
X97156055Y-78104436D01*
X97329723Y-78071076D01*
X97683696Y-78027388D01*
X97845444Y-78048053D01*
X97872201Y-78149593D01*
X97856232Y-78223097D01*
X97696555Y-78462303D01*
X97515432Y-78585500D01*
X97329905Y-78741476D01*
X97209099Y-78967655D01*
X97181392Y-79175886D01*
X97275166Y-79278016D01*
X97292167Y-79279000D01*
X97415442Y-79177494D01*
X97428000Y-79104375D01*
X97537023Y-78972687D01*
X97792594Y-78862530D01*
X98087461Y-78805566D01*
X98314374Y-78833459D01*
X98325124Y-78839521D01*
X98451848Y-79042052D01*
X98518935Y-79392274D01*
X98517789Y-79789058D01*
X98439810Y-80131274D01*
X98435752Y-80140642D01*
X98187685Y-80505262D01*
X97855842Y-80748932D01*
X97511719Y-80832208D01*
X97295173Y-80769887D01*
X97100194Y-80611168D01*
X97047000Y-80518450D01*
X96943716Y-80432771D01*
X96856500Y-80422000D01*
X96722829Y-80526343D01*
X96662161Y-80760595D01*
X96692961Y-81006589D01*
X96750666Y-81099333D01*
X96914575Y-81145187D01*
X97250553Y-81175933D01*
X97571159Y-81184000D01*
X98087514Y-81152335D01*
X98393714Y-81051946D01*
X98470742Y-80984563D01*
X98700327Y-80731076D01*
X98797637Y-80634192D01*
X99629162Y-80634192D01*
X99760143Y-80672963D01*
X99793699Y-80672895D01*
X100065975Y-80642941D01*
X100449459Y-80572250D01*
X100560373Y-80547699D01*
X100965187Y-80499340D01*
X101423902Y-80509954D01*
X101859764Y-80569107D01*
X102196024Y-80666365D01*
X102355928Y-80791292D01*
X102356113Y-80791840D01*
X102477627Y-80900068D01*
X102657754Y-80929524D01*
X102761092Y-80861035D01*
X102762000Y-80849313D01*
X102667817Y-80691170D01*
X102444698Y-80476467D01*
X102181787Y-80278863D01*
X101968228Y-80172015D01*
X101937451Y-80168000D01*
X101736382Y-80106769D01*
X101700056Y-80069407D01*
X101689652Y-79893412D01*
X101743490Y-79594110D01*
X101835347Y-79265674D01*
X101939002Y-79002277D01*
X102026237Y-78898000D01*
X102089349Y-78785271D01*
X102124439Y-78503680D01*
X102127000Y-78390000D01*
X102098832Y-78071889D01*
X102028468Y-77894953D01*
X102000000Y-77882000D01*
X101879178Y-77781347D01*
X101868774Y-77723250D01*
X101744351Y-77391798D01*
X101435224Y-77134597D01*
X101009502Y-77001363D01*
X100868392Y-76993000D01*
X100546097Y-77020589D01*
X100364055Y-77089680D01*
X100349000Y-77120000D01*
X100246306Y-77233068D01*
X100160919Y-77247000D01*
X99968728Y-77350728D01*
X99870735Y-77608064D01*
X99863247Y-77938237D01*
X99942576Y-78260475D01*
X100105031Y-78494005D01*
X100220610Y-78553434D01*
X100425198Y-78526007D01*
X100481577Y-78373950D01*
X100351987Y-78201363D01*
X100349000Y-78199500D01*
X100225928Y-78010288D01*
X100318343Y-77770386D01*
X100534413Y-77579511D01*
X100912992Y-77462722D01*
X101284218Y-77575508D01*
X101591553Y-77898252D01*
X101625806Y-77958218D01*
X101717952Y-78216071D01*
X101695152Y-78509019D01*
X101619432Y-78769690D01*
X101476329Y-79084506D01*
X101318987Y-79263457D01*
X101269282Y-79279000D01*
X101093473Y-79385459D01*
X101020798Y-79533000D01*
X100906257Y-79739174D01*
X100809237Y-79787000D01*
X100635064Y-79883729D01*
X100505473Y-80041000D01*
X100286862Y-80242223D01*
X100109474Y-80295000D01*
X99829861Y-80387195D01*
X99714000Y-80485500D01*
X99629162Y-80634192D01*
X98797637Y-80634192D01*
X98856750Y-80575338D01*
X99019812Y-80277530D01*
X99075353Y-79870574D01*
X99020570Y-79472818D01*
X98888500Y-79233642D01*
X98732242Y-79017197D01*
X98698000Y-78903085D01*
X98596305Y-78740258D01*
X98507500Y-78689926D01*
X98337089Y-78518919D01*
X98370578Y-78240366D01*
X98602312Y-77890261D01*
X98639639Y-77848952D01*
X98962279Y-77501000D01*
X98551881Y-77501000D01*
X98207728Y-77535342D01*
X97760162Y-77625689D01*
X97272305Y-77753022D01*
X96807280Y-77898321D01*
X96428209Y-78042566D01*
X96198216Y-78166738D01*
X96158000Y-78222302D01*
X95632650Y-78222302D01*
X95589902Y-77925353D01*
X95516434Y-77455836D01*
X95463246Y-77164996D01*
X95443172Y-77093582D01*
X95438096Y-76995580D01*
X95452597Y-76992999D01*
X95592150Y-76978344D01*
X95951895Y-76936900D01*
X96499871Y-76872453D01*
X97204116Y-76788789D01*
X98032670Y-76689694D01*
X98953571Y-76578952D01*
X99225415Y-76546156D01*
X100164430Y-76434174D01*
X101018307Y-76335000D01*
X101755481Y-76252089D01*
X102344384Y-76188894D01*
X102753452Y-76148870D01*
X102951117Y-76135469D01*
X102964380Y-76137047D01*
G36*
X89236500Y-77634761D02*
G01*
X89747932Y-77650854D01*
X90090603Y-77709356D01*
X90348791Y-77830593D01*
X90493339Y-77937910D01*
X90736363Y-78176636D01*
X90812329Y-78419149D01*
X90784118Y-78713554D01*
X90606724Y-79233906D01*
X90252900Y-79604988D01*
X89696620Y-79850858D01*
X89499684Y-79900843D01*
X89102828Y-80002823D01*
X88888084Y-80114151D01*
X88786993Y-80285790D01*
X88748761Y-80459909D01*
X88594723Y-81203955D01*
X88426921Y-81726712D01*
X88250059Y-82015945D01*
X88128125Y-82073000D01*
X87937903Y-82018653D01*
X87903000Y-81956583D01*
X88002022Y-81812170D01*
X88042407Y-81793697D01*
X88122156Y-81652943D01*
X88196938Y-81328786D01*
X88250295Y-80894114D01*
X88280190Y-80439673D01*
X88270770Y-80182305D01*
X88210978Y-80066656D01*
X88089760Y-80037376D01*
X88079137Y-80037138D01*
X87913740Y-80021651D01*
X87980780Y-79952091D01*
X88061750Y-79903827D01*
X88190314Y-79770147D01*
X88259370Y-79518601D01*
X88283343Y-79088386D01*
X88284000Y-78967079D01*
X88278605Y-78531380D01*
X88248821Y-78297253D01*
X88174247Y-78212302D01*
X88034484Y-78224130D01*
X87998250Y-78233155D01*
X87819356Y-78271426D01*
X87803269Y-78224524D01*
X87879922Y-78136000D01*
X88538000Y-78136000D01*
X88634643Y-78259309D01*
X88665000Y-78263000D01*
X88735065Y-78377720D01*
X88781190Y-78673194D01*
X88792000Y-78949610D01*
X88806545Y-79340879D01*
X88881896Y-79545557D01*
X89065618Y-79586112D01*
X89405282Y-79485010D01*
X89687274Y-79372457D01*
X90003447Y-79130713D01*
X90239323Y-78757410D01*
X90316000Y-78425037D01*
X90210062Y-78260810D01*
X89990232Y-78132856D01*
X89672178Y-78054791D01*
X89287669Y-78016712D01*
X88916990Y-78018445D01*
X88640430Y-78059816D01*
X88538000Y-78136000D01*
X87879922Y-78136000D01*
X87955213Y-78049050D01*
X88030000Y-77969459D01*
X88226415Y-77789119D01*
X88440258Y-77687771D01*
X88750197Y-77643592D01*
X89234902Y-77634757D01*
X89236500Y-77634761D01*
G37*
X89236500Y-77634761D02*
X89747932Y-77650854D01*
X90090603Y-77709356D01*
X90348791Y-77830593D01*
X90493339Y-77937910D01*
X90736363Y-78176636D01*
X90812329Y-78419149D01*
X90784118Y-78713554D01*
X90606724Y-79233906D01*
X90252900Y-79604988D01*
X89696620Y-79850858D01*
X89499684Y-79900843D01*
X89102828Y-80002823D01*
X88888084Y-80114151D01*
X88786993Y-80285790D01*
X88748761Y-80459909D01*
X88594723Y-81203955D01*
X88426921Y-81726712D01*
X88250059Y-82015945D01*
X88128125Y-82073000D01*
X87937903Y-82018653D01*
X87903000Y-81956583D01*
X88002022Y-81812170D01*
X88042407Y-81793697D01*
X88122156Y-81652943D01*
X88196938Y-81328786D01*
X88250295Y-80894114D01*
X88280190Y-80439673D01*
X88270770Y-80182305D01*
X88210978Y-80066656D01*
X88089760Y-80037376D01*
X88079137Y-80037138D01*
X87913740Y-80021651D01*
X87980780Y-79952091D01*
X88061750Y-79903827D01*
X88190314Y-79770147D01*
X88259370Y-79518601D01*
X88283343Y-79088386D01*
X88284000Y-78967079D01*
X88278605Y-78531380D01*
X88248821Y-78297253D01*
X88174247Y-78212302D01*
X88034484Y-78224130D01*
X87998250Y-78233155D01*
X87819356Y-78271426D01*
X87803269Y-78224524D01*
X87879922Y-78136000D01*
X88538000Y-78136000D01*
X88634643Y-78259309D01*
X88665000Y-78263000D01*
X88735065Y-78377720D01*
X88781190Y-78673194D01*
X88792000Y-78949610D01*
X88806545Y-79340879D01*
X88881896Y-79545557D01*
X89065618Y-79586112D01*
X89405282Y-79485010D01*
X89687274Y-79372457D01*
X90003447Y-79130713D01*
X90239323Y-78757410D01*
X90316000Y-78425037D01*
X90210062Y-78260810D01*
X89990232Y-78132856D01*
X89672178Y-78054791D01*
X89287669Y-78016712D01*
X88916990Y-78018445D01*
X88640430Y-78059816D01*
X88538000Y-78136000D01*
X87879922Y-78136000D01*
X87955213Y-78049050D01*
X88030000Y-77969459D01*
X88226415Y-77789119D01*
X88440258Y-77687771D01*
X88750197Y-77643592D01*
X89234902Y-77634757D01*
X89236500Y-77634761D01*
G36*
X90744479Y-80534066D02*
G01*
X90866081Y-80812440D01*
X90965877Y-81170385D01*
X91021966Y-81521163D01*
X91012443Y-81778036D01*
X90981000Y-81839799D01*
X90801180Y-81918122D01*
X90466934Y-81995901D01*
X90291889Y-82023793D01*
X89919184Y-82058149D01*
X89710925Y-82015079D01*
X89583963Y-81873836D01*
X89566770Y-81842861D01*
X89483148Y-81559987D01*
X89435508Y-81151637D01*
X89431039Y-80970099D01*
X89439951Y-80615009D01*
X89473413Y-80476472D01*
X89550940Y-80517088D01*
X89621539Y-80605023D01*
X89746418Y-80895416D01*
X89806936Y-81282221D01*
X89808000Y-81335273D01*
X89835001Y-81663533D01*
X89934743Y-81801957D01*
X90033775Y-81819000D01*
X90279880Y-81728224D01*
X90491148Y-81548513D01*
X90645676Y-81294053D01*
X90610463Y-81035403D01*
X90582873Y-80971037D01*
X90458890Y-80630414D01*
X90487196Y-80459777D01*
X90622976Y-80422000D01*
X90744479Y-80534066D01*
G37*
X90744479Y-80534066D02*
X90866081Y-80812440D01*
X90965877Y-81170385D01*
X91021966Y-81521163D01*
X91012443Y-81778036D01*
X90981000Y-81839799D01*
X90801180Y-81918122D01*
X90466934Y-81995901D01*
X90291889Y-82023793D01*
X89919184Y-82058149D01*
X89710925Y-82015079D01*
X89583963Y-81873836D01*
X89566770Y-81842861D01*
X89483148Y-81559987D01*
X89435508Y-81151637D01*
X89431039Y-80970099D01*
X89439951Y-80615009D01*
X89473413Y-80476472D01*
X89550940Y-80517088D01*
X89621539Y-80605023D01*
X89746418Y-80895416D01*
X89806936Y-81282221D01*
X89808000Y-81335273D01*
X89835001Y-81663533D01*
X89934743Y-81801957D01*
X90033775Y-81819000D01*
X90279880Y-81728224D01*
X90491148Y-81548513D01*
X90645676Y-81294053D01*
X90610463Y-81035403D01*
X90582873Y-80971037D01*
X90458890Y-80630414D01*
X90487196Y-80459777D01*
X90622976Y-80422000D01*
X90744479Y-80534066D01*
G36*
X93228286Y-80364092D02*
G01*
X93186686Y-80503512D01*
X93054807Y-80591738D01*
X92846908Y-80755717D01*
X92744807Y-80900462D01*
X92696525Y-81112871D01*
X92816946Y-81346100D01*
X92932139Y-81479136D01*
X93247279Y-81819000D01*
X92940190Y-81819000D01*
X92633330Y-81742606D01*
X92471488Y-81624269D01*
X92333690Y-81507489D01*
X92183209Y-81558787D01*
X92035003Y-81687769D01*
X91770350Y-81869144D01*
X91517003Y-81944588D01*
X91354443Y-81898220D01*
X91332000Y-81828217D01*
X91422424Y-81673302D01*
X91634515Y-81472476D01*
X91825911Y-81236353D01*
X91773916Y-81010856D01*
X91474118Y-80784926D01*
X91332000Y-80713918D01*
X91014500Y-80566190D01*
X91372099Y-80557595D01*
X91734210Y-80598573D01*
X91978700Y-80682261D01*
X92212210Y-80739882D01*
X92479238Y-80631898D01*
X92593206Y-80555261D01*
X92876202Y-80379810D01*
X93083107Y-80296156D01*
X93097855Y-80295000D01*
X93228286Y-80364092D01*
G37*
X93228286Y-80364092D02*
X93186686Y-80503512D01*
X93054807Y-80591738D01*
X92846908Y-80755717D01*
X92744807Y-80900462D01*
X92696525Y-81112871D01*
X92816946Y-81346100D01*
X92932139Y-81479136D01*
X93247279Y-81819000D01*
X92940190Y-81819000D01*
X92633330Y-81742606D01*
X92471488Y-81624269D01*
X92333690Y-81507489D01*
X92183209Y-81558787D01*
X92035003Y-81687769D01*
X91770350Y-81869144D01*
X91517003Y-81944588D01*
X91354443Y-81898220D01*
X91332000Y-81828217D01*
X91422424Y-81673302D01*
X91634515Y-81472476D01*
X91825911Y-81236353D01*
X91773916Y-81010856D01*
X91474118Y-80784926D01*
X91332000Y-80713918D01*
X91014500Y-80566190D01*
X91372099Y-80557595D01*
X91734210Y-80598573D01*
X91978700Y-80682261D01*
X92212210Y-80739882D01*
X92479238Y-80631898D01*
X92593206Y-80555261D01*
X92876202Y-80379810D01*
X93083107Y-80296156D01*
X93097855Y-80295000D01*
X93228286Y-80364092D01*
G36*
X93649579Y-80565875D02*
G01*
X93694196Y-80607053D01*
X93844895Y-80844414D01*
X93872000Y-80968878D01*
X93961979Y-81199683D01*
X94062500Y-81311000D01*
X94237354Y-81520782D01*
X94172122Y-81651152D01*
X93903750Y-81691861D01*
X93695713Y-81673717D01*
X93589576Y-81575840D01*
X93547134Y-81332736D01*
X93535446Y-81060487D01*
X93533623Y-80697118D01*
X93566883Y-80545911D01*
X93649579Y-80565875D01*
G37*
X93649579Y-80565875D02*
X93694196Y-80607053D01*
X93844895Y-80844414D01*
X93872000Y-80968878D01*
X93961979Y-81199683D01*
X94062500Y-81311000D01*
X94237354Y-81520782D01*
X94172122Y-81651152D01*
X93903750Y-81691861D01*
X93695713Y-81673717D01*
X93589576Y-81575840D01*
X93547134Y-81332736D01*
X93535446Y-81060487D01*
X93533623Y-80697118D01*
X93566883Y-80545911D01*
X93649579Y-80565875D01*
G36*
X95317725Y-80145898D02*
G01*
X95611425Y-80402353D01*
X95769417Y-80723001D01*
X95777000Y-80803000D01*
X95736572Y-80966183D01*
X95571355Y-81040349D01*
X95244726Y-81057000D01*
X94923482Y-81064674D01*
X94820381Y-81102524D01*
X94899687Y-81192784D01*
X94957171Y-81235942D01*
X95244783Y-81345997D01*
X95436821Y-81289152D01*
X95683033Y-81217747D01*
X95770115Y-81333774D01*
X95733175Y-81496022D01*
X95557829Y-81640255D01*
X95243373Y-81686953D01*
X94883043Y-81641199D01*
X94570075Y-81508080D01*
X94475250Y-81427416D01*
X94291461Y-81074807D01*
X94288152Y-80686495D01*
X94306288Y-80644250D01*
X94665114Y-80644250D01*
X94731044Y-80765291D01*
X95000430Y-80803000D01*
X95266617Y-80773203D01*
X95329090Y-80664716D01*
X95312349Y-80605785D01*
X95148787Y-80468829D01*
X94901524Y-80462586D01*
X94699844Y-80579373D01*
X94665114Y-80644250D01*
X94306288Y-80644250D01*
X94438290Y-80336773D01*
X94714844Y-80099930D01*
X94979724Y-80041000D01*
X95317725Y-80145898D01*
G37*
X95317725Y-80145898D02*
X95611425Y-80402353D01*
X95769417Y-80723001D01*
X95777000Y-80803000D01*
X95736572Y-80966183D01*
X95571355Y-81040349D01*
X95244726Y-81057000D01*
X94923482Y-81064674D01*
X94820381Y-81102524D01*
X94899687Y-81192784D01*
X94957171Y-81235942D01*
X95244783Y-81345997D01*
X95436821Y-81289152D01*
X95683033Y-81217747D01*
X95770115Y-81333774D01*
X95733175Y-81496022D01*
X95557829Y-81640255D01*
X95243373Y-81686953D01*
X94883043Y-81641199D01*
X94570075Y-81508080D01*
X94475250Y-81427416D01*
X94291461Y-81074807D01*
X94288152Y-80686495D01*
X94306288Y-80644250D01*
X94665114Y-80644250D01*
X94731044Y-80765291D01*
X95000430Y-80803000D01*
X95266617Y-80773203D01*
X95329090Y-80664716D01*
X95312349Y-80605785D01*
X95148787Y-80468829D01*
X94901524Y-80462586D01*
X94699844Y-80579373D01*
X94665114Y-80644250D01*
X94306288Y-80644250D01*
X94438290Y-80336773D01*
X94714844Y-80099930D01*
X94979724Y-80041000D01*
X95317725Y-80145898D01*
G36*
X93877974Y-79429846D02*
G01*
X93954420Y-79659560D01*
X93878517Y-79889455D01*
X93650268Y-80018001D01*
X93649182Y-80018157D01*
X93381288Y-79972028D01*
X93286344Y-79859407D01*
X93268417Y-79660000D01*
X93364000Y-79660000D01*
X93470368Y-79763185D01*
X93618000Y-79787000D01*
X93824370Y-79733815D01*
X93872000Y-79660000D01*
X93765631Y-79556814D01*
X93618000Y-79533000D01*
X93411629Y-79586184D01*
X93364000Y-79660000D01*
X93268417Y-79660000D01*
X93258077Y-79544990D01*
X93410223Y-79339931D01*
X93649182Y-79301842D01*
X93877974Y-79429846D01*
G37*
X93877974Y-79429846D02*
X93954420Y-79659560D01*
X93878517Y-79889455D01*
X93650268Y-80018001D01*
X93649182Y-80018157D01*
X93381288Y-79972028D01*
X93286344Y-79859407D01*
X93268417Y-79660000D01*
X93364000Y-79660000D01*
X93470368Y-79763185D01*
X93618000Y-79787000D01*
X93824370Y-79733815D01*
X93872000Y-79660000D01*
X93765631Y-79556814D01*
X93618000Y-79533000D01*
X93411629Y-79586184D01*
X93364000Y-79660000D01*
X93268417Y-79660000D01*
X93258077Y-79544990D01*
X93410223Y-79339931D01*
X93649182Y-79301842D01*
X93877974Y-79429846D01*
D12*
%TO.C,J4*%
X96235000Y-58985000D02*
X96235000Y-62515000D01*
X89765000Y-58985000D02*
X89765000Y-62515000D01*
X96170000Y-57660000D02*
X96170000Y-58985000D01*
X96235000Y-58985000D02*
X96170000Y-58985000D01*
X96235000Y-62515000D02*
X96170000Y-62515000D01*
X89830000Y-58985000D02*
X89765000Y-58985000D01*
X89830000Y-62515000D02*
X89765000Y-62515000D01*
%TO.C,C1*%
X92344000Y-97225252D02*
X92344000Y-95802748D01*
X90524000Y-97225252D02*
X90524000Y-95802748D01*
%TO.C,C2*%
X75938252Y-88570000D02*
X74515748Y-88570000D01*
X75938252Y-90390000D02*
X74515748Y-90390000D01*
%TO.C,C3*%
X75938252Y-94835000D02*
X74515748Y-94835000D01*
X75938252Y-93015000D02*
X74515748Y-93015000D01*
%TO.C,C4*%
X85584420Y-96010000D02*
X85865580Y-96010000D01*
X85584420Y-94990000D02*
X85865580Y-94990000D01*
%TO.C,C5*%
X69665580Y-67010000D02*
X69384420Y-67010000D01*
X69665580Y-65990000D02*
X69384420Y-65990000D01*
%TO.C,C6*%
X69627836Y-69390000D02*
X69412164Y-69390000D01*
X69627836Y-70110000D02*
X69412164Y-70110000D01*
%TO.C,C7*%
X74127836Y-81585000D02*
X73912164Y-81585000D01*
X74127836Y-80865000D02*
X73912164Y-80865000D01*
%TO.C,C8*%
X83063164Y-80188000D02*
X83278836Y-80188000D01*
X83063164Y-79468000D02*
X83278836Y-79468000D01*
%TO.C,C9*%
X83545000Y-68223836D02*
X83545000Y-68008164D01*
X84265000Y-68223836D02*
X84265000Y-68008164D01*
%TO.C,C10*%
X73642164Y-66345000D02*
X73857836Y-66345000D01*
X73642164Y-65625000D02*
X73857836Y-65625000D01*
%TO.C,C11*%
X68140000Y-75587836D02*
X68140000Y-75372164D01*
X68860000Y-75587836D02*
X68860000Y-75372164D01*
%TO.C,C12*%
X70168000Y-75587836D02*
X70168000Y-75372164D01*
X69448000Y-75587836D02*
X69448000Y-75372164D01*
%TO.C,C13*%
X81973420Y-82243000D02*
X82254580Y-82243000D01*
X81973420Y-81223000D02*
X82254580Y-81223000D01*
%TO.C,C14*%
X85046000Y-69173580D02*
X85046000Y-68892420D01*
X86066000Y-69173580D02*
X86066000Y-68892420D01*
%TO.C,C15*%
X66162164Y-69110000D02*
X66377836Y-69110000D01*
X66162164Y-68390000D02*
X66377836Y-68390000D01*
%TO.C,C16*%
X66387836Y-75360000D02*
X66172164Y-75360000D01*
X66387836Y-74640000D02*
X66172164Y-74640000D01*
%TO.C,D1*%
X69802500Y-56235000D02*
X72087500Y-56235000D01*
X69802500Y-54765000D02*
X69802500Y-56235000D01*
X72087500Y-54765000D02*
X69802500Y-54765000D01*
%TO.C,D2*%
X100213000Y-101636000D02*
X100213000Y-97736000D01*
X102213000Y-101636000D02*
X102213000Y-97736000D01*
X100213000Y-101636000D02*
X102213000Y-101636000D01*
%TO.C,D3*%
X87750000Y-90250000D02*
X87750000Y-92250000D01*
X87750000Y-92250000D02*
X91650000Y-92250000D01*
X87750000Y-90250000D02*
X91650000Y-90250000D01*
%TO.C,D4*%
X66962500Y-54765000D02*
X64677500Y-54765000D01*
X64677500Y-54765000D02*
X64677500Y-56235000D01*
X64677500Y-56235000D02*
X66962500Y-56235000D01*
%TO.C,F1*%
X97382000Y-98783936D02*
X97382000Y-99988064D01*
X99202000Y-98783936D02*
X99202000Y-99988064D01*
%TO.C,FB1*%
X94416878Y-98549000D02*
X95216122Y-98549000D01*
X94416878Y-97429000D02*
X95216122Y-97429000D01*
%TO.C,J1*%
X106450000Y-67875000D02*
X106900000Y-67875000D01*
X106450000Y-67875000D02*
X106450000Y-67425000D01*
X107000000Y-62275000D02*
X107000000Y-62725000D01*
X108850000Y-62275000D02*
X107000000Y-62275000D01*
X111400000Y-70075000D02*
X111150000Y-70075000D01*
X111400000Y-62275000D02*
X111150000Y-62275000D01*
X108850000Y-70075000D02*
X107000000Y-70075000D01*
X107000000Y-70075000D02*
X107000000Y-69625000D01*
%TO.C,J2*%
X65450000Y-110550000D02*
X65850000Y-110550000D01*
X65450000Y-109910000D02*
X65450000Y-110550000D01*
X71992000Y-106242000D02*
X71597000Y-106638000D01*
X74638000Y-103596000D02*
X74258000Y-103976000D01*
X72243000Y-106524000D02*
X71863000Y-106904000D01*
X74904000Y-103862000D02*
X74509000Y-104258000D01*
X66702000Y-106531000D02*
X66596000Y-106638000D01*
X69638000Y-103596000D02*
X69531000Y-103703000D01*
X66968000Y-106797000D02*
X66862000Y-106904000D01*
X69904000Y-103862000D02*
X69797000Y-103969000D01*
X75810000Y-101190000D02*
X75810000Y-110310000D01*
X65690000Y-101190000D02*
X65690000Y-110310000D01*
X65690000Y-110310000D02*
X75810000Y-110310000D01*
X65690000Y-101190000D02*
X75810000Y-101190000D01*
X65690000Y-108750000D02*
X75810000Y-108750000D01*
X65690000Y-109850000D02*
X75810000Y-109850000D01*
X75430000Y-105250000D02*
G75*
G03*
X75430000Y-105250000I-2180000J0D01*
G01*
X70430000Y-105250000D02*
G75*
G03*
X70430000Y-105250000I-2180000J0D01*
G01*
%TO.C,J3*%
X51420000Y-64710000D02*
X52750000Y-64710000D01*
X51420000Y-66040000D02*
X51420000Y-64710000D01*
X51420000Y-67310000D02*
X54080000Y-67310000D01*
X54080000Y-67310000D02*
X54080000Y-74990000D01*
X51420000Y-67310000D02*
X51420000Y-74990000D01*
X51420000Y-74990000D02*
X54080000Y-74990000D01*
%TO.C,J5*%
X51375000Y-80585000D02*
X52705000Y-80585000D01*
X51375000Y-81915000D02*
X51375000Y-80585000D01*
X51375000Y-83185000D02*
X54035000Y-83185000D01*
X54035000Y-83185000D02*
X54035000Y-95945000D01*
X51375000Y-83185000D02*
X51375000Y-95945000D01*
X51375000Y-95945000D02*
X54035000Y-95945000D01*
%TO.C,J6*%
X107255000Y-75505000D02*
X108585000Y-75505000D01*
X107255000Y-76835000D02*
X107255000Y-75505000D01*
X107255000Y-78105000D02*
X109915000Y-78105000D01*
X109915000Y-78105000D02*
X109915000Y-95945000D01*
X107255000Y-78105000D02*
X107255000Y-95945000D01*
X107255000Y-95945000D02*
X109915000Y-95945000D01*
%TO.C,L2*%
X80650000Y-88550000D02*
X80650000Y-89700000D01*
X80650000Y-93950000D02*
X80650000Y-92800000D01*
X86250000Y-88550000D02*
X86250000Y-89700000D01*
X86250000Y-93950000D02*
X86250000Y-92800000D01*
X86250000Y-88550000D02*
X80650000Y-88550000D01*
X86250000Y-93950000D02*
X80650000Y-93950000D01*
%TO.C,Q1*%
X94214000Y-102251000D02*
X95674000Y-102251000D01*
X94214000Y-105411000D02*
X96374000Y-105411000D01*
X94214000Y-105411000D02*
X94214000Y-104481000D01*
X94214000Y-102251000D02*
X94214000Y-103181000D01*
%TO.C,R1*%
X88498500Y-99312258D02*
X88498500Y-98837742D01*
X89543500Y-99312258D02*
X89543500Y-98837742D01*
%TO.C,R2*%
X88087742Y-102272500D02*
X88562258Y-102272500D01*
X88087742Y-101227500D02*
X88562258Y-101227500D01*
%TO.C,R3*%
X82558500Y-99306258D02*
X82558500Y-98831742D01*
X81513500Y-99306258D02*
X81513500Y-98831742D01*
%TO.C,R4*%
X80272500Y-101162258D02*
X80272500Y-100687742D01*
X79227500Y-101162258D02*
X79227500Y-100687742D01*
%TO.C,R5*%
X83062258Y-102272500D02*
X82587742Y-102272500D01*
X83062258Y-101227500D02*
X82587742Y-101227500D01*
%TO.C,R6*%
X66362258Y-58022500D02*
X65887742Y-58022500D01*
X66362258Y-56977500D02*
X65887742Y-56977500D01*
%TO.C,R7*%
X81120000Y-56106359D02*
X81120000Y-56413641D01*
X81880000Y-56106359D02*
X81880000Y-56413641D01*
%TO.C,R8*%
X69582641Y-72969000D02*
X69275359Y-72969000D01*
X69582641Y-72209000D02*
X69275359Y-72209000D01*
%TO.C,R9*%
X71562258Y-56977500D02*
X71087742Y-56977500D01*
X71562258Y-58022500D02*
X71087742Y-58022500D01*
%TO.C,SW1*%
X78800000Y-51600000D02*
X78800000Y-52390000D01*
X85700000Y-52390000D02*
X85700000Y-51600000D01*
X83850000Y-53440000D02*
X82150000Y-53440000D01*
X85100000Y-50590000D02*
X79400000Y-50590000D01*
X82350000Y-49300000D02*
X82350000Y-50590000D01*
X83450000Y-49090000D02*
X82550000Y-49090000D01*
X83650000Y-50590000D02*
X83650000Y-49300000D01*
X82350000Y-49300000D02*
X82550000Y-49090000D01*
X83650000Y-49300000D02*
X83450000Y-49090000D01*
X80850000Y-53440000D02*
X80650000Y-53440000D01*
%TO.C,U1*%
X72445000Y-69445000D02*
X71105000Y-69445000D01*
X72445000Y-68495000D02*
X72445000Y-69445000D01*
X73395000Y-68495000D02*
X72445000Y-68495000D01*
X82665000Y-68495000D02*
X82665000Y-69445000D01*
X81715000Y-68495000D02*
X82665000Y-68495000D01*
X72445000Y-78715000D02*
X72445000Y-77765000D01*
X73395000Y-78715000D02*
X72445000Y-78715000D01*
X82665000Y-78715000D02*
X82665000Y-77765000D01*
X81715000Y-78715000D02*
X82665000Y-78715000D01*
%TO.C,U2*%
X84700000Y-100410000D02*
X86500000Y-100410000D01*
X86500000Y-97190000D02*
X84050000Y-97190000D01*
%TO.C,U3*%
X101450000Y-68110000D02*
X103900000Y-68110000D01*
X103250000Y-64890000D02*
X101450000Y-64890000D01*
%TO.C,Y1*%
X64602000Y-69850000D02*
X64602000Y-73850000D01*
X67902000Y-69850000D02*
X64602000Y-69850000D01*
%TD*%
M02*
