%TF.GenerationSoftware,KiCad,Pcbnew,(5.1.8)-1*%
%TF.CreationDate,2020-12-14T19:22:24+01:00*%
%TF.ProjectId,STM32_Dev_Board,53544d33-325f-4446-9576-5f426f617264,rev?*%
%TF.SameCoordinates,Original*%
%TF.FileFunction,Copper,L1,Top*%
%TF.FilePolarity,Positive*%
%FSLAX46Y46*%
G04 Gerber Fmt 4.6, Leading zero omitted, Abs format (unit mm)*
G04 Created by KiCad (PCBNEW (5.1.8)-1) date 2020-12-14 19:22:24*
%MOMM*%
%LPD*%
G01*
G04 APERTURE LIST*
%TA.AperFunction,SMDPad,CuDef*%
%ADD10R,0.740000X2.400000*%
%TD*%
%TA.AperFunction,SMDPad,CuDef*%
%ADD11R,1.200000X0.900000*%
%TD*%
%TA.AperFunction,SMDPad,CuDef*%
%ADD12R,0.900000X1.200000*%
%TD*%
%TA.AperFunction,ComponentPad*%
%ADD13C,0.900000*%
%TD*%
%TA.AperFunction,ComponentPad*%
%ADD14C,8.600000*%
%TD*%
%TA.AperFunction,SMDPad,CuDef*%
%ADD15R,1.900000X1.500000*%
%TD*%
%TA.AperFunction,ComponentPad*%
%ADD16C,1.450000*%
%TD*%
%TA.AperFunction,SMDPad,CuDef*%
%ADD17R,1.350000X0.400000*%
%TD*%
%TA.AperFunction,ComponentPad*%
%ADD18O,1.900000X1.200000*%
%TD*%
%TA.AperFunction,SMDPad,CuDef*%
%ADD19R,1.900000X1.200000*%
%TD*%
%TA.AperFunction,ComponentPad*%
%ADD20R,2.600000X2.600000*%
%TD*%
%TA.AperFunction,ComponentPad*%
%ADD21C,2.600000*%
%TD*%
%TA.AperFunction,ComponentPad*%
%ADD22R,1.700000X1.700000*%
%TD*%
%TA.AperFunction,ComponentPad*%
%ADD23O,1.700000X1.700000*%
%TD*%
%TA.AperFunction,SMDPad,CuDef*%
%ADD24R,1.900000X2.500000*%
%TD*%
%TA.AperFunction,SMDPad,CuDef*%
%ADD25R,0.900000X0.800000*%
%TD*%
%TA.AperFunction,SMDPad,CuDef*%
%ADD26R,0.700000X1.500000*%
%TD*%
%TA.AperFunction,SMDPad,CuDef*%
%ADD27R,1.000000X0.800000*%
%TD*%
%TA.AperFunction,SMDPad,CuDef*%
%ADD28R,1.060000X0.650000*%
%TD*%
%TA.AperFunction,SMDPad,CuDef*%
%ADD29R,1.200000X1.400000*%
%TD*%
%TA.AperFunction,ViaPad*%
%ADD30C,0.800000*%
%TD*%
%TA.AperFunction,Conductor*%
%ADD31C,0.750000*%
%TD*%
%TA.AperFunction,Conductor*%
%ADD32C,0.300000*%
%TD*%
%TA.AperFunction,Conductor*%
%ADD33C,0.500000*%
%TD*%
%TA.AperFunction,Conductor*%
%ADD34C,0.261112*%
%TD*%
G04 APERTURE END LIST*
D10*
%TO.P,J4,10*%
%TO.N,NRST*%
X90460000Y-62700000D03*
%TO.P,J4,9*%
%TO.N,GND*%
X90460000Y-58800000D03*
%TO.P,J4,8*%
%TO.N,Net-(J4-Pad8)*%
X91730000Y-62700000D03*
%TO.P,J4,7*%
%TO.N,Net-(J4-Pad7)*%
X91730000Y-58800000D03*
%TO.P,J4,6*%
%TO.N,SWO*%
X93000000Y-62700000D03*
%TO.P,J4,5*%
%TO.N,GND*%
X93000000Y-58800000D03*
%TO.P,J4,4*%
%TO.N,SWCLK*%
X94270000Y-62700000D03*
%TO.P,J4,3*%
%TO.N,GND*%
X94270000Y-58800000D03*
%TO.P,J4,2*%
%TO.N,SWDIO*%
X95540000Y-62700000D03*
%TO.P,J4,1*%
%TO.N,+3V3*%
X95540000Y-58800000D03*
%TD*%
%TO.P,C1,1*%
%TO.N,BUCK_IN*%
%TA.AperFunction,SMDPad,CuDef*%
G36*
G01*
X92084001Y-98564000D02*
X90783999Y-98564000D01*
G75*
G02*
X90534000Y-98314001I0J249999D01*
G01*
X90534000Y-97663999D01*
G75*
G02*
X90783999Y-97414000I249999J0D01*
G01*
X92084001Y-97414000D01*
G75*
G02*
X92334000Y-97663999I0J-249999D01*
G01*
X92334000Y-98314001D01*
G75*
G02*
X92084001Y-98564000I-249999J0D01*
G01*
G37*
%TD.AperFunction*%
%TO.P,C1,2*%
%TO.N,GND*%
%TA.AperFunction,SMDPad,CuDef*%
G36*
G01*
X92084001Y-95614000D02*
X90783999Y-95614000D01*
G75*
G02*
X90534000Y-95364001I0J249999D01*
G01*
X90534000Y-94713999D01*
G75*
G02*
X90783999Y-94464000I249999J0D01*
G01*
X92084001Y-94464000D01*
G75*
G02*
X92334000Y-94713999I0J-249999D01*
G01*
X92334000Y-95364001D01*
G75*
G02*
X92084001Y-95614000I-249999J0D01*
G01*
G37*
%TD.AperFunction*%
%TD*%
%TO.P,C2,1*%
%TO.N,+3V3*%
%TA.AperFunction,SMDPad,CuDef*%
G36*
G01*
X77277000Y-88829999D02*
X77277000Y-90130001D01*
G75*
G02*
X77027001Y-90380000I-249999J0D01*
G01*
X76376999Y-90380000D01*
G75*
G02*
X76127000Y-90130001I0J249999D01*
G01*
X76127000Y-88829999D01*
G75*
G02*
X76376999Y-88580000I249999J0D01*
G01*
X77027001Y-88580000D01*
G75*
G02*
X77277000Y-88829999I0J-249999D01*
G01*
G37*
%TD.AperFunction*%
%TO.P,C2,2*%
%TO.N,GND*%
%TA.AperFunction,SMDPad,CuDef*%
G36*
G01*
X74327000Y-88829999D02*
X74327000Y-90130001D01*
G75*
G02*
X74077001Y-90380000I-249999J0D01*
G01*
X73426999Y-90380000D01*
G75*
G02*
X73177000Y-90130001I0J249999D01*
G01*
X73177000Y-88829999D01*
G75*
G02*
X73426999Y-88580000I249999J0D01*
G01*
X74077001Y-88580000D01*
G75*
G02*
X74327000Y-88829999I0J-249999D01*
G01*
G37*
%TD.AperFunction*%
%TD*%
%TO.P,C3,2*%
%TO.N,GND*%
%TA.AperFunction,SMDPad,CuDef*%
G36*
G01*
X74327000Y-93274999D02*
X74327000Y-94575001D01*
G75*
G02*
X74077001Y-94825000I-249999J0D01*
G01*
X73426999Y-94825000D01*
G75*
G02*
X73177000Y-94575001I0J249999D01*
G01*
X73177000Y-93274999D01*
G75*
G02*
X73426999Y-93025000I249999J0D01*
G01*
X74077001Y-93025000D01*
G75*
G02*
X74327000Y-93274999I0J-249999D01*
G01*
G37*
%TD.AperFunction*%
%TO.P,C3,1*%
%TO.N,+3V3*%
%TA.AperFunction,SMDPad,CuDef*%
G36*
G01*
X77277000Y-93274999D02*
X77277000Y-94575001D01*
G75*
G02*
X77027001Y-94825000I-249999J0D01*
G01*
X76376999Y-94825000D01*
G75*
G02*
X76127000Y-94575001I0J249999D01*
G01*
X76127000Y-93274999D01*
G75*
G02*
X76376999Y-93025000I249999J0D01*
G01*
X77027001Y-93025000D01*
G75*
G02*
X77277000Y-93274999I0J-249999D01*
G01*
G37*
%TD.AperFunction*%
%TD*%
%TO.P,C4,1*%
%TO.N,BUCK_BST*%
%TA.AperFunction,SMDPad,CuDef*%
G36*
G01*
X84500000Y-95750000D02*
X84500000Y-95250000D01*
G75*
G02*
X84725000Y-95025000I225000J0D01*
G01*
X85175000Y-95025000D01*
G75*
G02*
X85400000Y-95250000I0J-225000D01*
G01*
X85400000Y-95750000D01*
G75*
G02*
X85175000Y-95975000I-225000J0D01*
G01*
X84725000Y-95975000D01*
G75*
G02*
X84500000Y-95750000I0J225000D01*
G01*
G37*
%TD.AperFunction*%
%TO.P,C4,2*%
%TO.N,BUCK_SW*%
%TA.AperFunction,SMDPad,CuDef*%
G36*
G01*
X86050000Y-95750000D02*
X86050000Y-95250000D01*
G75*
G02*
X86275000Y-95025000I225000J0D01*
G01*
X86725000Y-95025000D01*
G75*
G02*
X86950000Y-95250000I0J-225000D01*
G01*
X86950000Y-95750000D01*
G75*
G02*
X86725000Y-95975000I-225000J0D01*
G01*
X86275000Y-95975000D01*
G75*
G02*
X86050000Y-95750000I0J225000D01*
G01*
G37*
%TD.AperFunction*%
%TD*%
%TO.P,C5,2*%
%TO.N,GND*%
%TA.AperFunction,SMDPad,CuDef*%
G36*
G01*
X69200000Y-66250000D02*
X69200000Y-66750000D01*
G75*
G02*
X68975000Y-66975000I-225000J0D01*
G01*
X68525000Y-66975000D01*
G75*
G02*
X68300000Y-66750000I0J225000D01*
G01*
X68300000Y-66250000D01*
G75*
G02*
X68525000Y-66025000I225000J0D01*
G01*
X68975000Y-66025000D01*
G75*
G02*
X69200000Y-66250000I0J-225000D01*
G01*
G37*
%TD.AperFunction*%
%TO.P,C5,1*%
%TO.N,+3V3*%
%TA.AperFunction,SMDPad,CuDef*%
G36*
G01*
X70750000Y-66250000D02*
X70750000Y-66750000D01*
G75*
G02*
X70525000Y-66975000I-225000J0D01*
G01*
X70075000Y-66975000D01*
G75*
G02*
X69850000Y-66750000I0J225000D01*
G01*
X69850000Y-66250000D01*
G75*
G02*
X70075000Y-66025000I225000J0D01*
G01*
X70525000Y-66025000D01*
G75*
G02*
X70750000Y-66250000I0J-225000D01*
G01*
G37*
%TD.AperFunction*%
%TD*%
%TO.P,C6,1*%
%TO.N,+3V3*%
%TA.AperFunction,SMDPad,CuDef*%
G36*
G01*
X70280000Y-69580000D02*
X70280000Y-69920000D01*
G75*
G02*
X70140000Y-70060000I-140000J0D01*
G01*
X69860000Y-70060000D01*
G75*
G02*
X69720000Y-69920000I0J140000D01*
G01*
X69720000Y-69580000D01*
G75*
G02*
X69860000Y-69440000I140000J0D01*
G01*
X70140000Y-69440000D01*
G75*
G02*
X70280000Y-69580000I0J-140000D01*
G01*
G37*
%TD.AperFunction*%
%TO.P,C6,2*%
%TO.N,GND*%
%TA.AperFunction,SMDPad,CuDef*%
G36*
G01*
X69320000Y-69580000D02*
X69320000Y-69920000D01*
G75*
G02*
X69180000Y-70060000I-140000J0D01*
G01*
X68900000Y-70060000D01*
G75*
G02*
X68760000Y-69920000I0J140000D01*
G01*
X68760000Y-69580000D01*
G75*
G02*
X68900000Y-69440000I140000J0D01*
G01*
X69180000Y-69440000D01*
G75*
G02*
X69320000Y-69580000I0J-140000D01*
G01*
G37*
%TD.AperFunction*%
%TD*%
%TO.P,C7,2*%
%TO.N,GND*%
%TA.AperFunction,SMDPad,CuDef*%
G36*
G01*
X73820000Y-81055000D02*
X73820000Y-81395000D01*
G75*
G02*
X73680000Y-81535000I-140000J0D01*
G01*
X73400000Y-81535000D01*
G75*
G02*
X73260000Y-81395000I0J140000D01*
G01*
X73260000Y-81055000D01*
G75*
G02*
X73400000Y-80915000I140000J0D01*
G01*
X73680000Y-80915000D01*
G75*
G02*
X73820000Y-81055000I0J-140000D01*
G01*
G37*
%TD.AperFunction*%
%TO.P,C7,1*%
%TO.N,+3V3*%
%TA.AperFunction,SMDPad,CuDef*%
G36*
G01*
X74780000Y-81055000D02*
X74780000Y-81395000D01*
G75*
G02*
X74640000Y-81535000I-140000J0D01*
G01*
X74360000Y-81535000D01*
G75*
G02*
X74220000Y-81395000I0J140000D01*
G01*
X74220000Y-81055000D01*
G75*
G02*
X74360000Y-80915000I140000J0D01*
G01*
X74640000Y-80915000D01*
G75*
G02*
X74780000Y-81055000I0J-140000D01*
G01*
G37*
%TD.AperFunction*%
%TD*%
%TO.P,C8,1*%
%TO.N,+3V3*%
%TA.AperFunction,SMDPad,CuDef*%
G36*
G01*
X82411000Y-79998000D02*
X82411000Y-79658000D01*
G75*
G02*
X82551000Y-79518000I140000J0D01*
G01*
X82831000Y-79518000D01*
G75*
G02*
X82971000Y-79658000I0J-140000D01*
G01*
X82971000Y-79998000D01*
G75*
G02*
X82831000Y-80138000I-140000J0D01*
G01*
X82551000Y-80138000D01*
G75*
G02*
X82411000Y-79998000I0J140000D01*
G01*
G37*
%TD.AperFunction*%
%TO.P,C8,2*%
%TO.N,GND*%
%TA.AperFunction,SMDPad,CuDef*%
G36*
G01*
X83371000Y-79998000D02*
X83371000Y-79658000D01*
G75*
G02*
X83511000Y-79518000I140000J0D01*
G01*
X83791000Y-79518000D01*
G75*
G02*
X83931000Y-79658000I0J-140000D01*
G01*
X83931000Y-79998000D01*
G75*
G02*
X83791000Y-80138000I-140000J0D01*
G01*
X83511000Y-80138000D01*
G75*
G02*
X83371000Y-79998000I0J140000D01*
G01*
G37*
%TD.AperFunction*%
%TD*%
%TO.P,C9,2*%
%TO.N,GND*%
%TA.AperFunction,SMDPad,CuDef*%
G36*
G01*
X84075000Y-67916000D02*
X83735000Y-67916000D01*
G75*
G02*
X83595000Y-67776000I0J140000D01*
G01*
X83595000Y-67496000D01*
G75*
G02*
X83735000Y-67356000I140000J0D01*
G01*
X84075000Y-67356000D01*
G75*
G02*
X84215000Y-67496000I0J-140000D01*
G01*
X84215000Y-67776000D01*
G75*
G02*
X84075000Y-67916000I-140000J0D01*
G01*
G37*
%TD.AperFunction*%
%TO.P,C9,1*%
%TO.N,+3V3*%
%TA.AperFunction,SMDPad,CuDef*%
G36*
G01*
X84075000Y-68876000D02*
X83735000Y-68876000D01*
G75*
G02*
X83595000Y-68736000I0J140000D01*
G01*
X83595000Y-68456000D01*
G75*
G02*
X83735000Y-68316000I140000J0D01*
G01*
X84075000Y-68316000D01*
G75*
G02*
X84215000Y-68456000I0J-140000D01*
G01*
X84215000Y-68736000D01*
G75*
G02*
X84075000Y-68876000I-140000J0D01*
G01*
G37*
%TD.AperFunction*%
%TD*%
%TO.P,C10,1*%
%TO.N,+3V3*%
%TA.AperFunction,SMDPad,CuDef*%
G36*
G01*
X72990000Y-66155000D02*
X72990000Y-65815000D01*
G75*
G02*
X73130000Y-65675000I140000J0D01*
G01*
X73410000Y-65675000D01*
G75*
G02*
X73550000Y-65815000I0J-140000D01*
G01*
X73550000Y-66155000D01*
G75*
G02*
X73410000Y-66295000I-140000J0D01*
G01*
X73130000Y-66295000D01*
G75*
G02*
X72990000Y-66155000I0J140000D01*
G01*
G37*
%TD.AperFunction*%
%TO.P,C10,2*%
%TO.N,GND*%
%TA.AperFunction,SMDPad,CuDef*%
G36*
G01*
X73950000Y-66155000D02*
X73950000Y-65815000D01*
G75*
G02*
X74090000Y-65675000I140000J0D01*
G01*
X74370000Y-65675000D01*
G75*
G02*
X74510000Y-65815000I0J-140000D01*
G01*
X74510000Y-66155000D01*
G75*
G02*
X74370000Y-66295000I-140000J0D01*
G01*
X74090000Y-66295000D01*
G75*
G02*
X73950000Y-66155000I0J140000D01*
G01*
G37*
%TD.AperFunction*%
%TD*%
%TO.P,C11,2*%
%TO.N,GND*%
%TA.AperFunction,SMDPad,CuDef*%
G36*
G01*
X68670000Y-75280000D02*
X68330000Y-75280000D01*
G75*
G02*
X68190000Y-75140000I0J140000D01*
G01*
X68190000Y-74860000D01*
G75*
G02*
X68330000Y-74720000I140000J0D01*
G01*
X68670000Y-74720000D01*
G75*
G02*
X68810000Y-74860000I0J-140000D01*
G01*
X68810000Y-75140000D01*
G75*
G02*
X68670000Y-75280000I-140000J0D01*
G01*
G37*
%TD.AperFunction*%
%TO.P,C11,1*%
%TO.N,+3.3VA*%
%TA.AperFunction,SMDPad,CuDef*%
G36*
G01*
X68670000Y-76240000D02*
X68330000Y-76240000D01*
G75*
G02*
X68190000Y-76100000I0J140000D01*
G01*
X68190000Y-75820000D01*
G75*
G02*
X68330000Y-75680000I140000J0D01*
G01*
X68670000Y-75680000D01*
G75*
G02*
X68810000Y-75820000I0J-140000D01*
G01*
X68810000Y-76100000D01*
G75*
G02*
X68670000Y-76240000I-140000J0D01*
G01*
G37*
%TD.AperFunction*%
%TD*%
%TO.P,C12,1*%
%TO.N,+3.3VA*%
%TA.AperFunction,SMDPad,CuDef*%
G36*
G01*
X69978000Y-76240000D02*
X69638000Y-76240000D01*
G75*
G02*
X69498000Y-76100000I0J140000D01*
G01*
X69498000Y-75820000D01*
G75*
G02*
X69638000Y-75680000I140000J0D01*
G01*
X69978000Y-75680000D01*
G75*
G02*
X70118000Y-75820000I0J-140000D01*
G01*
X70118000Y-76100000D01*
G75*
G02*
X69978000Y-76240000I-140000J0D01*
G01*
G37*
%TD.AperFunction*%
%TO.P,C12,2*%
%TO.N,GND*%
%TA.AperFunction,SMDPad,CuDef*%
G36*
G01*
X69978000Y-75280000D02*
X69638000Y-75280000D01*
G75*
G02*
X69498000Y-75140000I0J140000D01*
G01*
X69498000Y-74860000D01*
G75*
G02*
X69638000Y-74720000I140000J0D01*
G01*
X69978000Y-74720000D01*
G75*
G02*
X70118000Y-74860000I0J-140000D01*
G01*
X70118000Y-75140000D01*
G75*
G02*
X69978000Y-75280000I-140000J0D01*
G01*
G37*
%TD.AperFunction*%
%TD*%
%TO.P,C13,1*%
%TO.N,Net-(C13-Pad1)*%
%TA.AperFunction,SMDPad,CuDef*%
G36*
G01*
X80889000Y-81983000D02*
X80889000Y-81483000D01*
G75*
G02*
X81114000Y-81258000I225000J0D01*
G01*
X81564000Y-81258000D01*
G75*
G02*
X81789000Y-81483000I0J-225000D01*
G01*
X81789000Y-81983000D01*
G75*
G02*
X81564000Y-82208000I-225000J0D01*
G01*
X81114000Y-82208000D01*
G75*
G02*
X80889000Y-81983000I0J225000D01*
G01*
G37*
%TD.AperFunction*%
%TO.P,C13,2*%
%TO.N,GND*%
%TA.AperFunction,SMDPad,CuDef*%
G36*
G01*
X82439000Y-81983000D02*
X82439000Y-81483000D01*
G75*
G02*
X82664000Y-81258000I225000J0D01*
G01*
X83114000Y-81258000D01*
G75*
G02*
X83339000Y-81483000I0J-225000D01*
G01*
X83339000Y-81983000D01*
G75*
G02*
X83114000Y-82208000I-225000J0D01*
G01*
X82664000Y-82208000D01*
G75*
G02*
X82439000Y-81983000I0J225000D01*
G01*
G37*
%TD.AperFunction*%
%TD*%
%TO.P,C14,2*%
%TO.N,GND*%
%TA.AperFunction,SMDPad,CuDef*%
G36*
G01*
X85806000Y-68708000D02*
X85306000Y-68708000D01*
G75*
G02*
X85081000Y-68483000I0J225000D01*
G01*
X85081000Y-68033000D01*
G75*
G02*
X85306000Y-67808000I225000J0D01*
G01*
X85806000Y-67808000D01*
G75*
G02*
X86031000Y-68033000I0J-225000D01*
G01*
X86031000Y-68483000D01*
G75*
G02*
X85806000Y-68708000I-225000J0D01*
G01*
G37*
%TD.AperFunction*%
%TO.P,C14,1*%
%TO.N,Net-(C14-Pad1)*%
%TA.AperFunction,SMDPad,CuDef*%
G36*
G01*
X85806000Y-70258000D02*
X85306000Y-70258000D01*
G75*
G02*
X85081000Y-70033000I0J225000D01*
G01*
X85081000Y-69583000D01*
G75*
G02*
X85306000Y-69358000I225000J0D01*
G01*
X85806000Y-69358000D01*
G75*
G02*
X86031000Y-69583000I0J-225000D01*
G01*
X86031000Y-70033000D01*
G75*
G02*
X85806000Y-70258000I-225000J0D01*
G01*
G37*
%TD.AperFunction*%
%TD*%
%TO.P,C15,1*%
%TO.N,HS_CLK_IN*%
%TA.AperFunction,SMDPad,CuDef*%
G36*
G01*
X65510000Y-68920000D02*
X65510000Y-68580000D01*
G75*
G02*
X65650000Y-68440000I140000J0D01*
G01*
X65930000Y-68440000D01*
G75*
G02*
X66070000Y-68580000I0J-140000D01*
G01*
X66070000Y-68920000D01*
G75*
G02*
X65930000Y-69060000I-140000J0D01*
G01*
X65650000Y-69060000D01*
G75*
G02*
X65510000Y-68920000I0J140000D01*
G01*
G37*
%TD.AperFunction*%
%TO.P,C15,2*%
%TO.N,GND*%
%TA.AperFunction,SMDPad,CuDef*%
G36*
G01*
X66470000Y-68920000D02*
X66470000Y-68580000D01*
G75*
G02*
X66610000Y-68440000I140000J0D01*
G01*
X66890000Y-68440000D01*
G75*
G02*
X67030000Y-68580000I0J-140000D01*
G01*
X67030000Y-68920000D01*
G75*
G02*
X66890000Y-69060000I-140000J0D01*
G01*
X66610000Y-69060000D01*
G75*
G02*
X66470000Y-68920000I0J140000D01*
G01*
G37*
%TD.AperFunction*%
%TD*%
%TO.P,C16,2*%
%TO.N,GND*%
%TA.AperFunction,SMDPad,CuDef*%
G36*
G01*
X66080000Y-74830000D02*
X66080000Y-75170000D01*
G75*
G02*
X65940000Y-75310000I-140000J0D01*
G01*
X65660000Y-75310000D01*
G75*
G02*
X65520000Y-75170000I0J140000D01*
G01*
X65520000Y-74830000D01*
G75*
G02*
X65660000Y-74690000I140000J0D01*
G01*
X65940000Y-74690000D01*
G75*
G02*
X66080000Y-74830000I0J-140000D01*
G01*
G37*
%TD.AperFunction*%
%TO.P,C16,1*%
%TO.N,Net-(C16-Pad1)*%
%TA.AperFunction,SMDPad,CuDef*%
G36*
G01*
X67040000Y-74830000D02*
X67040000Y-75170000D01*
G75*
G02*
X66900000Y-75310000I-140000J0D01*
G01*
X66620000Y-75310000D01*
G75*
G02*
X66480000Y-75170000I0J140000D01*
G01*
X66480000Y-74830000D01*
G75*
G02*
X66620000Y-74690000I140000J0D01*
G01*
X66900000Y-74690000D01*
G75*
G02*
X67040000Y-74830000I0J-140000D01*
G01*
G37*
%TD.AperFunction*%
%TD*%
%TO.P,D1,1*%
%TO.N,Net-(D1-Pad1)*%
%TA.AperFunction,SMDPad,CuDef*%
G36*
G01*
X70062500Y-55756250D02*
X70062500Y-55243750D01*
G75*
G02*
X70281250Y-55025000I218750J0D01*
G01*
X70718750Y-55025000D01*
G75*
G02*
X70937500Y-55243750I0J-218750D01*
G01*
X70937500Y-55756250D01*
G75*
G02*
X70718750Y-55975000I-218750J0D01*
G01*
X70281250Y-55975000D01*
G75*
G02*
X70062500Y-55756250I0J218750D01*
G01*
G37*
%TD.AperFunction*%
%TO.P,D1,2*%
%TO.N,STATUS_LED*%
%TA.AperFunction,SMDPad,CuDef*%
G36*
G01*
X71637500Y-55756250D02*
X71637500Y-55243750D01*
G75*
G02*
X71856250Y-55025000I218750J0D01*
G01*
X72293750Y-55025000D01*
G75*
G02*
X72512500Y-55243750I0J-218750D01*
G01*
X72512500Y-55756250D01*
G75*
G02*
X72293750Y-55975000I-218750J0D01*
G01*
X71856250Y-55975000D01*
G75*
G02*
X71637500Y-55756250I0J218750D01*
G01*
G37*
%TD.AperFunction*%
%TD*%
D11*
%TO.P,D2,1*%
%TO.N,Net-(D2-Pad1)*%
X101213000Y-101036000D03*
%TO.P,D2,2*%
%TO.N,+5V*%
X101213000Y-97736000D03*
%TD*%
D12*
%TO.P,D3,2*%
%TO.N,GND*%
X91650000Y-91250000D03*
%TO.P,D3,1*%
%TO.N,BUCK_SW*%
X88350000Y-91250000D03*
%TD*%
%TO.P,D4,2*%
%TO.N,+3V3*%
%TA.AperFunction,SMDPad,CuDef*%
G36*
G01*
X66512500Y-55756250D02*
X66512500Y-55243750D01*
G75*
G02*
X66731250Y-55025000I218750J0D01*
G01*
X67168750Y-55025000D01*
G75*
G02*
X67387500Y-55243750I0J-218750D01*
G01*
X67387500Y-55756250D01*
G75*
G02*
X67168750Y-55975000I-218750J0D01*
G01*
X66731250Y-55975000D01*
G75*
G02*
X66512500Y-55756250I0J218750D01*
G01*
G37*
%TD.AperFunction*%
%TO.P,D4,1*%
%TO.N,Net-(D4-Pad1)*%
%TA.AperFunction,SMDPad,CuDef*%
G36*
G01*
X64937500Y-55756250D02*
X64937500Y-55243750D01*
G75*
G02*
X65156250Y-55025000I218750J0D01*
G01*
X65593750Y-55025000D01*
G75*
G02*
X65812500Y-55243750I0J-218750D01*
G01*
X65812500Y-55756250D01*
G75*
G02*
X65593750Y-55975000I-218750J0D01*
G01*
X65156250Y-55975000D01*
G75*
G02*
X64937500Y-55756250I0J218750D01*
G01*
G37*
%TD.AperFunction*%
%TD*%
%TO.P,F1,1*%
%TO.N,Net-(F1-Pad1)*%
%TA.AperFunction,SMDPad,CuDef*%
G36*
G01*
X97667000Y-97361000D02*
X98917000Y-97361000D01*
G75*
G02*
X99167000Y-97611000I0J-250000D01*
G01*
X99167000Y-98361000D01*
G75*
G02*
X98917000Y-98611000I-250000J0D01*
G01*
X97667000Y-98611000D01*
G75*
G02*
X97417000Y-98361000I0J250000D01*
G01*
X97417000Y-97611000D01*
G75*
G02*
X97667000Y-97361000I250000J0D01*
G01*
G37*
%TD.AperFunction*%
%TO.P,F1,2*%
%TO.N,Net-(D2-Pad1)*%
%TA.AperFunction,SMDPad,CuDef*%
G36*
G01*
X97667000Y-100161000D02*
X98917000Y-100161000D01*
G75*
G02*
X99167000Y-100411000I0J-250000D01*
G01*
X99167000Y-101161000D01*
G75*
G02*
X98917000Y-101411000I-250000J0D01*
G01*
X97667000Y-101411000D01*
G75*
G02*
X97417000Y-101161000I0J250000D01*
G01*
X97417000Y-100411000D01*
G75*
G02*
X97667000Y-100161000I250000J0D01*
G01*
G37*
%TD.AperFunction*%
%TD*%
%TO.P,FB1,1*%
%TO.N,BUCK_IN*%
%TA.AperFunction,SMDPad,CuDef*%
G36*
G01*
X93316500Y-98370250D02*
X93316500Y-97607750D01*
G75*
G02*
X93535250Y-97389000I218750J0D01*
G01*
X93972750Y-97389000D01*
G75*
G02*
X94191500Y-97607750I0J-218750D01*
G01*
X94191500Y-98370250D01*
G75*
G02*
X93972750Y-98589000I-218750J0D01*
G01*
X93535250Y-98589000D01*
G75*
G02*
X93316500Y-98370250I0J218750D01*
G01*
G37*
%TD.AperFunction*%
%TO.P,FB1,2*%
%TO.N,Net-(F1-Pad1)*%
%TA.AperFunction,SMDPad,CuDef*%
G36*
G01*
X95441500Y-98370250D02*
X95441500Y-97607750D01*
G75*
G02*
X95660250Y-97389000I218750J0D01*
G01*
X96097750Y-97389000D01*
G75*
G02*
X96316500Y-97607750I0J-218750D01*
G01*
X96316500Y-98370250D01*
G75*
G02*
X96097750Y-98589000I-218750J0D01*
G01*
X95660250Y-98589000D01*
G75*
G02*
X95441500Y-98370250I0J218750D01*
G01*
G37*
%TD.AperFunction*%
%TD*%
D13*
%TO.P,H1,1*%
%TO.N,GND*%
X58030419Y-103469581D03*
X55750000Y-102525000D03*
X53469581Y-103469581D03*
X52525000Y-105750000D03*
X53469581Y-108030419D03*
X55750000Y-108975000D03*
X58030419Y-108030419D03*
X58975000Y-105750000D03*
D14*
X55750000Y-105750000D03*
%TD*%
D13*
%TO.P,H2,1*%
%TO.N,GND*%
X108030419Y-103469581D03*
X105750000Y-102525000D03*
X103469581Y-103469581D03*
X102525000Y-105750000D03*
X103469581Y-108030419D03*
X105750000Y-108975000D03*
X108030419Y-108030419D03*
X108975000Y-105750000D03*
D14*
X105750000Y-105750000D03*
%TD*%
%TO.P,H3,1*%
%TO.N,GND*%
X105750000Y-55750000D03*
D13*
X108975000Y-55750000D03*
X108030419Y-58030419D03*
X105750000Y-58975000D03*
X103469581Y-58030419D03*
X102525000Y-55750000D03*
X103469581Y-53469581D03*
X105750000Y-52525000D03*
X108030419Y-53469581D03*
%TD*%
D14*
%TO.P,H4,1*%
%TO.N,GND*%
X55750000Y-55750000D03*
D13*
X58975000Y-55750000D03*
X58030419Y-58030419D03*
X55750000Y-58975000D03*
X53469581Y-58030419D03*
X52525000Y-55750000D03*
X53469581Y-53469581D03*
X55750000Y-52525000D03*
X58030419Y-53469581D03*
%TD*%
D15*
%TO.P,J1,6*%
%TO.N,Net-(J1-Pad6)*%
X110000000Y-65175000D03*
D16*
X107300000Y-68675000D03*
D17*
%TO.P,J1,2*%
%TO.N,USB_Conn_D-*%
X107300000Y-66825000D03*
%TO.P,J1,1*%
%TO.N,+5V*%
X107300000Y-67475000D03*
%TO.P,J1,5*%
%TO.N,GND*%
X107300000Y-64875000D03*
%TO.P,J1,4*%
%TO.N,Net-(J1-Pad4)*%
X107300000Y-65525000D03*
%TO.P,J1,3*%
%TO.N,USB_Conn_D+*%
X107300000Y-66175000D03*
D16*
%TO.P,J1,6*%
%TO.N,Net-(J1-Pad6)*%
X107300000Y-63675000D03*
D15*
X110000000Y-67175000D03*
D18*
X110000000Y-69675000D03*
X110000000Y-62675000D03*
D19*
X110000000Y-63275000D03*
X110000000Y-69075000D03*
%TD*%
D20*
%TO.P,J2,1*%
%TO.N,+12V*%
X68250000Y-105250000D03*
D21*
%TO.P,J2,2*%
%TO.N,GND*%
X73250000Y-105250000D03*
%TD*%
D22*
%TO.P,J3,1*%
%TO.N,+3V3*%
X52750000Y-66040000D03*
D23*
%TO.P,J3,2*%
%TO.N,USART2_TX*%
X52750000Y-68580000D03*
%TO.P,J3,3*%
%TO.N,USART4_RX*%
X52750000Y-71120000D03*
%TO.P,J3,4*%
%TO.N,GND*%
X52750000Y-73660000D03*
%TD*%
D22*
%TO.P,J5,1*%
%TO.N,+3V3*%
X52705000Y-81915000D03*
D23*
%TO.P,J5,2*%
%TO.N,SPI1_CS*%
X52705000Y-84455000D03*
%TO.P,J5,3*%
%TO.N,SPI1_SCK*%
X52705000Y-86995000D03*
%TO.P,J5,4*%
%TO.N,SPI1_MISO*%
X52705000Y-89535000D03*
%TO.P,J5,5*%
%TO.N,SPI1_MOSI*%
X52705000Y-92075000D03*
%TO.P,J5,6*%
%TO.N,GND*%
X52705000Y-94615000D03*
%TD*%
D22*
%TO.P,J6,1*%
%TO.N,GPIO_0*%
X108585000Y-76835000D03*
D23*
%TO.P,J6,2*%
%TO.N,GPIO_1*%
X108585000Y-79375000D03*
%TO.P,J6,3*%
%TO.N,GPIO_2*%
X108585000Y-81915000D03*
%TO.P,J6,4*%
%TO.N,GPIO_3*%
X108585000Y-84455000D03*
%TO.P,J6,5*%
%TO.N,GPIO_4*%
X108585000Y-86995000D03*
%TO.P,J6,6*%
%TO.N,GPIO_5*%
X108585000Y-89535000D03*
%TO.P,J6,7*%
%TO.N,GPIO_6*%
X108585000Y-92075000D03*
%TO.P,J6,8*%
%TO.N,GPIO_7*%
X108585000Y-94615000D03*
%TD*%
%TO.P,L1,1*%
%TO.N,+3V3*%
%TA.AperFunction,SMDPad,CuDef*%
G36*
G01*
X65455000Y-76571500D02*
X65455000Y-76226500D01*
G75*
G02*
X65602500Y-76079000I147500J0D01*
G01*
X65897500Y-76079000D01*
G75*
G02*
X66045000Y-76226500I0J-147500D01*
G01*
X66045000Y-76571500D01*
G75*
G02*
X65897500Y-76719000I-147500J0D01*
G01*
X65602500Y-76719000D01*
G75*
G02*
X65455000Y-76571500I0J147500D01*
G01*
G37*
%TD.AperFunction*%
%TO.P,L1,2*%
%TO.N,+3.3VA*%
%TA.AperFunction,SMDPad,CuDef*%
G36*
G01*
X66425000Y-76571500D02*
X66425000Y-76226500D01*
G75*
G02*
X66572500Y-76079000I147500J0D01*
G01*
X66867500Y-76079000D01*
G75*
G02*
X67015000Y-76226500I0J-147500D01*
G01*
X67015000Y-76571500D01*
G75*
G02*
X66867500Y-76719000I-147500J0D01*
G01*
X66572500Y-76719000D01*
G75*
G02*
X66425000Y-76571500I0J147500D01*
G01*
G37*
%TD.AperFunction*%
%TD*%
D24*
%TO.P,L2,1*%
%TO.N,BUCK_SW*%
X85500000Y-91250000D03*
%TO.P,L2,2*%
%TO.N,+3V3*%
X81400000Y-91250000D03*
%TD*%
D25*
%TO.P,Q1,1*%
%TO.N,GND*%
X95974000Y-104781000D03*
%TO.P,Q1,2*%
%TO.N,Net-(D2-Pad1)*%
X95974000Y-102881000D03*
%TO.P,Q1,3*%
%TO.N,+12V*%
X93974000Y-103831000D03*
%TD*%
%TO.P,R1,2*%
%TO.N,BUCK_IN*%
%TA.AperFunction,SMDPad,CuDef*%
G36*
G01*
X89296000Y-98650000D02*
X88746000Y-98650000D01*
G75*
G02*
X88546000Y-98450000I0J200000D01*
G01*
X88546000Y-98050000D01*
G75*
G02*
X88746000Y-97850000I200000J0D01*
G01*
X89296000Y-97850000D01*
G75*
G02*
X89496000Y-98050000I0J-200000D01*
G01*
X89496000Y-98450000D01*
G75*
G02*
X89296000Y-98650000I-200000J0D01*
G01*
G37*
%TD.AperFunction*%
%TO.P,R1,1*%
%TO.N,BUCK_EN*%
%TA.AperFunction,SMDPad,CuDef*%
G36*
G01*
X89296000Y-100300000D02*
X88746000Y-100300000D01*
G75*
G02*
X88546000Y-100100000I0J200000D01*
G01*
X88546000Y-99700000D01*
G75*
G02*
X88746000Y-99500000I200000J0D01*
G01*
X89296000Y-99500000D01*
G75*
G02*
X89496000Y-99700000I0J-200000D01*
G01*
X89496000Y-100100000D01*
G75*
G02*
X89296000Y-100300000I-200000J0D01*
G01*
G37*
%TD.AperFunction*%
%TD*%
%TO.P,R2,1*%
%TO.N,GND*%
%TA.AperFunction,SMDPad,CuDef*%
G36*
G01*
X87100000Y-102025000D02*
X87100000Y-101475000D01*
G75*
G02*
X87300000Y-101275000I200000J0D01*
G01*
X87700000Y-101275000D01*
G75*
G02*
X87900000Y-101475000I0J-200000D01*
G01*
X87900000Y-102025000D01*
G75*
G02*
X87700000Y-102225000I-200000J0D01*
G01*
X87300000Y-102225000D01*
G75*
G02*
X87100000Y-102025000I0J200000D01*
G01*
G37*
%TD.AperFunction*%
%TO.P,R2,2*%
%TO.N,BUCK_EN*%
%TA.AperFunction,SMDPad,CuDef*%
G36*
G01*
X88750000Y-102025000D02*
X88750000Y-101475000D01*
G75*
G02*
X88950000Y-101275000I200000J0D01*
G01*
X89350000Y-101275000D01*
G75*
G02*
X89550000Y-101475000I0J-200000D01*
G01*
X89550000Y-102025000D01*
G75*
G02*
X89350000Y-102225000I-200000J0D01*
G01*
X88950000Y-102225000D01*
G75*
G02*
X88750000Y-102025000I0J200000D01*
G01*
G37*
%TD.AperFunction*%
%TD*%
%TO.P,R3,1*%
%TO.N,BUCK_FB*%
%TA.AperFunction,SMDPad,CuDef*%
G36*
G01*
X82311000Y-100294000D02*
X81761000Y-100294000D01*
G75*
G02*
X81561000Y-100094000I0J200000D01*
G01*
X81561000Y-99694000D01*
G75*
G02*
X81761000Y-99494000I200000J0D01*
G01*
X82311000Y-99494000D01*
G75*
G02*
X82511000Y-99694000I0J-200000D01*
G01*
X82511000Y-100094000D01*
G75*
G02*
X82311000Y-100294000I-200000J0D01*
G01*
G37*
%TD.AperFunction*%
%TO.P,R3,2*%
%TO.N,+3V3*%
%TA.AperFunction,SMDPad,CuDef*%
G36*
G01*
X82311000Y-98644000D02*
X81761000Y-98644000D01*
G75*
G02*
X81561000Y-98444000I0J200000D01*
G01*
X81561000Y-98044000D01*
G75*
G02*
X81761000Y-97844000I200000J0D01*
G01*
X82311000Y-97844000D01*
G75*
G02*
X82511000Y-98044000I0J-200000D01*
G01*
X82511000Y-98444000D01*
G75*
G02*
X82311000Y-98644000I-200000J0D01*
G01*
G37*
%TD.AperFunction*%
%TD*%
%TO.P,R4,1*%
%TO.N,Net-(R4-Pad1)*%
%TA.AperFunction,SMDPad,CuDef*%
G36*
G01*
X80025000Y-102150000D02*
X79475000Y-102150000D01*
G75*
G02*
X79275000Y-101950000I0J200000D01*
G01*
X79275000Y-101550000D01*
G75*
G02*
X79475000Y-101350000I200000J0D01*
G01*
X80025000Y-101350000D01*
G75*
G02*
X80225000Y-101550000I0J-200000D01*
G01*
X80225000Y-101950000D01*
G75*
G02*
X80025000Y-102150000I-200000J0D01*
G01*
G37*
%TD.AperFunction*%
%TO.P,R4,2*%
%TO.N,BUCK_FB*%
%TA.AperFunction,SMDPad,CuDef*%
G36*
G01*
X80025000Y-100500000D02*
X79475000Y-100500000D01*
G75*
G02*
X79275000Y-100300000I0J200000D01*
G01*
X79275000Y-99900000D01*
G75*
G02*
X79475000Y-99700000I200000J0D01*
G01*
X80025000Y-99700000D01*
G75*
G02*
X80225000Y-99900000I0J-200000D01*
G01*
X80225000Y-100300000D01*
G75*
G02*
X80025000Y-100500000I-200000J0D01*
G01*
G37*
%TD.AperFunction*%
%TD*%
%TO.P,R5,2*%
%TO.N,Net-(R4-Pad1)*%
%TA.AperFunction,SMDPad,CuDef*%
G36*
G01*
X82400000Y-101475000D02*
X82400000Y-102025000D01*
G75*
G02*
X82200000Y-102225000I-200000J0D01*
G01*
X81800000Y-102225000D01*
G75*
G02*
X81600000Y-102025000I0J200000D01*
G01*
X81600000Y-101475000D01*
G75*
G02*
X81800000Y-101275000I200000J0D01*
G01*
X82200000Y-101275000D01*
G75*
G02*
X82400000Y-101475000I0J-200000D01*
G01*
G37*
%TD.AperFunction*%
%TO.P,R5,1*%
%TO.N,GND*%
%TA.AperFunction,SMDPad,CuDef*%
G36*
G01*
X84050000Y-101475000D02*
X84050000Y-102025000D01*
G75*
G02*
X83850000Y-102225000I-200000J0D01*
G01*
X83450000Y-102225000D01*
G75*
G02*
X83250000Y-102025000I0J200000D01*
G01*
X83250000Y-101475000D01*
G75*
G02*
X83450000Y-101275000I200000J0D01*
G01*
X83850000Y-101275000D01*
G75*
G02*
X84050000Y-101475000I0J-200000D01*
G01*
G37*
%TD.AperFunction*%
%TD*%
%TO.P,R6,2*%
%TO.N,Net-(D4-Pad1)*%
%TA.AperFunction,SMDPad,CuDef*%
G36*
G01*
X65700000Y-57225000D02*
X65700000Y-57775000D01*
G75*
G02*
X65500000Y-57975000I-200000J0D01*
G01*
X65100000Y-57975000D01*
G75*
G02*
X64900000Y-57775000I0J200000D01*
G01*
X64900000Y-57225000D01*
G75*
G02*
X65100000Y-57025000I200000J0D01*
G01*
X65500000Y-57025000D01*
G75*
G02*
X65700000Y-57225000I0J-200000D01*
G01*
G37*
%TD.AperFunction*%
%TO.P,R6,1*%
%TO.N,GND*%
%TA.AperFunction,SMDPad,CuDef*%
G36*
G01*
X67350000Y-57225000D02*
X67350000Y-57775000D01*
G75*
G02*
X67150000Y-57975000I-200000J0D01*
G01*
X66750000Y-57975000D01*
G75*
G02*
X66550000Y-57775000I0J200000D01*
G01*
X66550000Y-57225000D01*
G75*
G02*
X66750000Y-57025000I200000J0D01*
G01*
X67150000Y-57025000D01*
G75*
G02*
X67350000Y-57225000I0J-200000D01*
G01*
G37*
%TD.AperFunction*%
%TD*%
%TO.P,R7,1*%
%TO.N,Net-(R7-Pad1)*%
%TA.AperFunction,SMDPad,CuDef*%
G36*
G01*
X81315000Y-55480000D02*
X81685000Y-55480000D01*
G75*
G02*
X81820000Y-55615000I0J-135000D01*
G01*
X81820000Y-55885000D01*
G75*
G02*
X81685000Y-56020000I-135000J0D01*
G01*
X81315000Y-56020000D01*
G75*
G02*
X81180000Y-55885000I0J135000D01*
G01*
X81180000Y-55615000D01*
G75*
G02*
X81315000Y-55480000I135000J0D01*
G01*
G37*
%TD.AperFunction*%
%TO.P,R7,2*%
%TO.N,BOOT0*%
%TA.AperFunction,SMDPad,CuDef*%
G36*
G01*
X81315000Y-56500000D02*
X81685000Y-56500000D01*
G75*
G02*
X81820000Y-56635000I0J-135000D01*
G01*
X81820000Y-56905000D01*
G75*
G02*
X81685000Y-57040000I-135000J0D01*
G01*
X81315000Y-57040000D01*
G75*
G02*
X81180000Y-56905000I0J135000D01*
G01*
X81180000Y-56635000D01*
G75*
G02*
X81315000Y-56500000I135000J0D01*
G01*
G37*
%TD.AperFunction*%
%TD*%
%TO.P,R8,2*%
%TO.N,Net-(C16-Pad1)*%
%TA.AperFunction,SMDPad,CuDef*%
G36*
G01*
X69189000Y-72404000D02*
X69189000Y-72774000D01*
G75*
G02*
X69054000Y-72909000I-135000J0D01*
G01*
X68784000Y-72909000D01*
G75*
G02*
X68649000Y-72774000I0J135000D01*
G01*
X68649000Y-72404000D01*
G75*
G02*
X68784000Y-72269000I135000J0D01*
G01*
X69054000Y-72269000D01*
G75*
G02*
X69189000Y-72404000I0J-135000D01*
G01*
G37*
%TD.AperFunction*%
%TO.P,R8,1*%
%TO.N,HS_CLK_OUT*%
%TA.AperFunction,SMDPad,CuDef*%
G36*
G01*
X70209000Y-72404000D02*
X70209000Y-72774000D01*
G75*
G02*
X70074000Y-72909000I-135000J0D01*
G01*
X69804000Y-72909000D01*
G75*
G02*
X69669000Y-72774000I0J135000D01*
G01*
X69669000Y-72404000D01*
G75*
G02*
X69804000Y-72269000I135000J0D01*
G01*
X70074000Y-72269000D01*
G75*
G02*
X70209000Y-72404000I0J-135000D01*
G01*
G37*
%TD.AperFunction*%
%TD*%
%TO.P,R9,1*%
%TO.N,GND*%
%TA.AperFunction,SMDPad,CuDef*%
G36*
G01*
X72550000Y-57225000D02*
X72550000Y-57775000D01*
G75*
G02*
X72350000Y-57975000I-200000J0D01*
G01*
X71950000Y-57975000D01*
G75*
G02*
X71750000Y-57775000I0J200000D01*
G01*
X71750000Y-57225000D01*
G75*
G02*
X71950000Y-57025000I200000J0D01*
G01*
X72350000Y-57025000D01*
G75*
G02*
X72550000Y-57225000I0J-200000D01*
G01*
G37*
%TD.AperFunction*%
%TO.P,R9,2*%
%TO.N,Net-(D1-Pad1)*%
%TA.AperFunction,SMDPad,CuDef*%
G36*
G01*
X70900000Y-57225000D02*
X70900000Y-57775000D01*
G75*
G02*
X70700000Y-57975000I-200000J0D01*
G01*
X70300000Y-57975000D01*
G75*
G02*
X70100000Y-57775000I0J200000D01*
G01*
X70100000Y-57225000D01*
G75*
G02*
X70300000Y-57025000I200000J0D01*
G01*
X70700000Y-57025000D01*
G75*
G02*
X70900000Y-57225000I0J-200000D01*
G01*
G37*
%TD.AperFunction*%
%TD*%
D26*
%TO.P,SW1,1*%
%TO.N,+3V3*%
X84500000Y-53750000D03*
%TO.P,SW1,2*%
%TO.N,Net-(R7-Pad1)*%
X81500000Y-53750000D03*
%TO.P,SW1,3*%
%TO.N,GND*%
X80000000Y-53750000D03*
D27*
%TO.P,SW1,*%
%TO.N,*%
X85900000Y-50890000D03*
X78600000Y-50890000D03*
X78600000Y-53100000D03*
X85900000Y-53100000D03*
%TD*%
%TO.P,U1,1*%
%TO.N,+3V3*%
%TA.AperFunction,SMDPad,CuDef*%
G36*
G01*
X71105000Y-69930000D02*
X71105000Y-69780000D01*
G75*
G02*
X71180000Y-69705000I75000J0D01*
G01*
X72580000Y-69705000D01*
G75*
G02*
X72655000Y-69780000I0J-75000D01*
G01*
X72655000Y-69930000D01*
G75*
G02*
X72580000Y-70005000I-75000J0D01*
G01*
X71180000Y-70005000D01*
G75*
G02*
X71105000Y-69930000I0J75000D01*
G01*
G37*
%TD.AperFunction*%
%TO.P,U1,2*%
%TO.N,Net-(U1-Pad2)*%
%TA.AperFunction,SMDPad,CuDef*%
G36*
G01*
X71105000Y-70430000D02*
X71105000Y-70280000D01*
G75*
G02*
X71180000Y-70205000I75000J0D01*
G01*
X72580000Y-70205000D01*
G75*
G02*
X72655000Y-70280000I0J-75000D01*
G01*
X72655000Y-70430000D01*
G75*
G02*
X72580000Y-70505000I-75000J0D01*
G01*
X71180000Y-70505000D01*
G75*
G02*
X71105000Y-70430000I0J75000D01*
G01*
G37*
%TD.AperFunction*%
%TO.P,U1,3*%
%TO.N,Net-(U1-Pad3)*%
%TA.AperFunction,SMDPad,CuDef*%
G36*
G01*
X71105000Y-70930000D02*
X71105000Y-70780000D01*
G75*
G02*
X71180000Y-70705000I75000J0D01*
G01*
X72580000Y-70705000D01*
G75*
G02*
X72655000Y-70780000I0J-75000D01*
G01*
X72655000Y-70930000D01*
G75*
G02*
X72580000Y-71005000I-75000J0D01*
G01*
X71180000Y-71005000D01*
G75*
G02*
X71105000Y-70930000I0J75000D01*
G01*
G37*
%TD.AperFunction*%
%TO.P,U1,4*%
%TO.N,Net-(U1-Pad4)*%
%TA.AperFunction,SMDPad,CuDef*%
G36*
G01*
X71105000Y-71430000D02*
X71105000Y-71280000D01*
G75*
G02*
X71180000Y-71205000I75000J0D01*
G01*
X72580000Y-71205000D01*
G75*
G02*
X72655000Y-71280000I0J-75000D01*
G01*
X72655000Y-71430000D01*
G75*
G02*
X72580000Y-71505000I-75000J0D01*
G01*
X71180000Y-71505000D01*
G75*
G02*
X71105000Y-71430000I0J75000D01*
G01*
G37*
%TD.AperFunction*%
%TO.P,U1,5*%
%TO.N,HS_CLK_IN*%
%TA.AperFunction,SMDPad,CuDef*%
G36*
G01*
X71105000Y-71930000D02*
X71105000Y-71780000D01*
G75*
G02*
X71180000Y-71705000I75000J0D01*
G01*
X72580000Y-71705000D01*
G75*
G02*
X72655000Y-71780000I0J-75000D01*
G01*
X72655000Y-71930000D01*
G75*
G02*
X72580000Y-72005000I-75000J0D01*
G01*
X71180000Y-72005000D01*
G75*
G02*
X71105000Y-71930000I0J75000D01*
G01*
G37*
%TD.AperFunction*%
%TO.P,U1,6*%
%TO.N,HS_CLK_OUT*%
%TA.AperFunction,SMDPad,CuDef*%
G36*
G01*
X71105000Y-72430000D02*
X71105000Y-72280000D01*
G75*
G02*
X71180000Y-72205000I75000J0D01*
G01*
X72580000Y-72205000D01*
G75*
G02*
X72655000Y-72280000I0J-75000D01*
G01*
X72655000Y-72430000D01*
G75*
G02*
X72580000Y-72505000I-75000J0D01*
G01*
X71180000Y-72505000D01*
G75*
G02*
X71105000Y-72430000I0J75000D01*
G01*
G37*
%TD.AperFunction*%
%TO.P,U1,7*%
%TO.N,NRST*%
%TA.AperFunction,SMDPad,CuDef*%
G36*
G01*
X71105000Y-72930000D02*
X71105000Y-72780000D01*
G75*
G02*
X71180000Y-72705000I75000J0D01*
G01*
X72580000Y-72705000D01*
G75*
G02*
X72655000Y-72780000I0J-75000D01*
G01*
X72655000Y-72930000D01*
G75*
G02*
X72580000Y-73005000I-75000J0D01*
G01*
X71180000Y-73005000D01*
G75*
G02*
X71105000Y-72930000I0J75000D01*
G01*
G37*
%TD.AperFunction*%
%TO.P,U1,8*%
%TO.N,Net-(U1-Pad8)*%
%TA.AperFunction,SMDPad,CuDef*%
G36*
G01*
X71105000Y-73430000D02*
X71105000Y-73280000D01*
G75*
G02*
X71180000Y-73205000I75000J0D01*
G01*
X72580000Y-73205000D01*
G75*
G02*
X72655000Y-73280000I0J-75000D01*
G01*
X72655000Y-73430000D01*
G75*
G02*
X72580000Y-73505000I-75000J0D01*
G01*
X71180000Y-73505000D01*
G75*
G02*
X71105000Y-73430000I0J75000D01*
G01*
G37*
%TD.AperFunction*%
%TO.P,U1,9*%
%TO.N,STATUS_LED*%
%TA.AperFunction,SMDPad,CuDef*%
G36*
G01*
X71105000Y-73930000D02*
X71105000Y-73780000D01*
G75*
G02*
X71180000Y-73705000I75000J0D01*
G01*
X72580000Y-73705000D01*
G75*
G02*
X72655000Y-73780000I0J-75000D01*
G01*
X72655000Y-73930000D01*
G75*
G02*
X72580000Y-74005000I-75000J0D01*
G01*
X71180000Y-74005000D01*
G75*
G02*
X71105000Y-73930000I0J75000D01*
G01*
G37*
%TD.AperFunction*%
%TO.P,U1,10*%
%TO.N,Net-(U1-Pad10)*%
%TA.AperFunction,SMDPad,CuDef*%
G36*
G01*
X71105000Y-74430000D02*
X71105000Y-74280000D01*
G75*
G02*
X71180000Y-74205000I75000J0D01*
G01*
X72580000Y-74205000D01*
G75*
G02*
X72655000Y-74280000I0J-75000D01*
G01*
X72655000Y-74430000D01*
G75*
G02*
X72580000Y-74505000I-75000J0D01*
G01*
X71180000Y-74505000D01*
G75*
G02*
X71105000Y-74430000I0J75000D01*
G01*
G37*
%TD.AperFunction*%
%TO.P,U1,11*%
%TO.N,Net-(U1-Pad11)*%
%TA.AperFunction,SMDPad,CuDef*%
G36*
G01*
X71105000Y-74930000D02*
X71105000Y-74780000D01*
G75*
G02*
X71180000Y-74705000I75000J0D01*
G01*
X72580000Y-74705000D01*
G75*
G02*
X72655000Y-74780000I0J-75000D01*
G01*
X72655000Y-74930000D01*
G75*
G02*
X72580000Y-75005000I-75000J0D01*
G01*
X71180000Y-75005000D01*
G75*
G02*
X71105000Y-74930000I0J75000D01*
G01*
G37*
%TD.AperFunction*%
%TO.P,U1,12*%
%TO.N,GND*%
%TA.AperFunction,SMDPad,CuDef*%
G36*
G01*
X71105000Y-75430000D02*
X71105000Y-75280000D01*
G75*
G02*
X71180000Y-75205000I75000J0D01*
G01*
X72580000Y-75205000D01*
G75*
G02*
X72655000Y-75280000I0J-75000D01*
G01*
X72655000Y-75430000D01*
G75*
G02*
X72580000Y-75505000I-75000J0D01*
G01*
X71180000Y-75505000D01*
G75*
G02*
X71105000Y-75430000I0J75000D01*
G01*
G37*
%TD.AperFunction*%
%TO.P,U1,13*%
%TO.N,+3.3VA*%
%TA.AperFunction,SMDPad,CuDef*%
G36*
G01*
X71105000Y-75930000D02*
X71105000Y-75780000D01*
G75*
G02*
X71180000Y-75705000I75000J0D01*
G01*
X72580000Y-75705000D01*
G75*
G02*
X72655000Y-75780000I0J-75000D01*
G01*
X72655000Y-75930000D01*
G75*
G02*
X72580000Y-76005000I-75000J0D01*
G01*
X71180000Y-76005000D01*
G75*
G02*
X71105000Y-75930000I0J75000D01*
G01*
G37*
%TD.AperFunction*%
%TO.P,U1,14*%
%TO.N,Net-(U1-Pad14)*%
%TA.AperFunction,SMDPad,CuDef*%
G36*
G01*
X71105000Y-76430000D02*
X71105000Y-76280000D01*
G75*
G02*
X71180000Y-76205000I75000J0D01*
G01*
X72580000Y-76205000D01*
G75*
G02*
X72655000Y-76280000I0J-75000D01*
G01*
X72655000Y-76430000D01*
G75*
G02*
X72580000Y-76505000I-75000J0D01*
G01*
X71180000Y-76505000D01*
G75*
G02*
X71105000Y-76430000I0J75000D01*
G01*
G37*
%TD.AperFunction*%
%TO.P,U1,15*%
%TO.N,Net-(U1-Pad15)*%
%TA.AperFunction,SMDPad,CuDef*%
G36*
G01*
X71105000Y-76930000D02*
X71105000Y-76780000D01*
G75*
G02*
X71180000Y-76705000I75000J0D01*
G01*
X72580000Y-76705000D01*
G75*
G02*
X72655000Y-76780000I0J-75000D01*
G01*
X72655000Y-76930000D01*
G75*
G02*
X72580000Y-77005000I-75000J0D01*
G01*
X71180000Y-77005000D01*
G75*
G02*
X71105000Y-76930000I0J75000D01*
G01*
G37*
%TD.AperFunction*%
%TO.P,U1,16*%
%TO.N,USART2_TX*%
%TA.AperFunction,SMDPad,CuDef*%
G36*
G01*
X71105000Y-77430000D02*
X71105000Y-77280000D01*
G75*
G02*
X71180000Y-77205000I75000J0D01*
G01*
X72580000Y-77205000D01*
G75*
G02*
X72655000Y-77280000I0J-75000D01*
G01*
X72655000Y-77430000D01*
G75*
G02*
X72580000Y-77505000I-75000J0D01*
G01*
X71180000Y-77505000D01*
G75*
G02*
X71105000Y-77430000I0J75000D01*
G01*
G37*
%TD.AperFunction*%
%TO.P,U1,17*%
%TO.N,USART4_RX*%
%TA.AperFunction,SMDPad,CuDef*%
G36*
G01*
X73655000Y-79980000D02*
X73655000Y-78580000D01*
G75*
G02*
X73730000Y-78505000I75000J0D01*
G01*
X73880000Y-78505000D01*
G75*
G02*
X73955000Y-78580000I0J-75000D01*
G01*
X73955000Y-79980000D01*
G75*
G02*
X73880000Y-80055000I-75000J0D01*
G01*
X73730000Y-80055000D01*
G75*
G02*
X73655000Y-79980000I0J75000D01*
G01*
G37*
%TD.AperFunction*%
%TO.P,U1,18*%
%TO.N,GND*%
%TA.AperFunction,SMDPad,CuDef*%
G36*
G01*
X74155000Y-79980000D02*
X74155000Y-78580000D01*
G75*
G02*
X74230000Y-78505000I75000J0D01*
G01*
X74380000Y-78505000D01*
G75*
G02*
X74455000Y-78580000I0J-75000D01*
G01*
X74455000Y-79980000D01*
G75*
G02*
X74380000Y-80055000I-75000J0D01*
G01*
X74230000Y-80055000D01*
G75*
G02*
X74155000Y-79980000I0J75000D01*
G01*
G37*
%TD.AperFunction*%
%TO.P,U1,19*%
%TO.N,+3V3*%
%TA.AperFunction,SMDPad,CuDef*%
G36*
G01*
X74655000Y-79980000D02*
X74655000Y-78580000D01*
G75*
G02*
X74730000Y-78505000I75000J0D01*
G01*
X74880000Y-78505000D01*
G75*
G02*
X74955000Y-78580000I0J-75000D01*
G01*
X74955000Y-79980000D01*
G75*
G02*
X74880000Y-80055000I-75000J0D01*
G01*
X74730000Y-80055000D01*
G75*
G02*
X74655000Y-79980000I0J75000D01*
G01*
G37*
%TD.AperFunction*%
%TO.P,U1,20*%
%TO.N,SPI1_CS*%
%TA.AperFunction,SMDPad,CuDef*%
G36*
G01*
X75155000Y-79980000D02*
X75155000Y-78580000D01*
G75*
G02*
X75230000Y-78505000I75000J0D01*
G01*
X75380000Y-78505000D01*
G75*
G02*
X75455000Y-78580000I0J-75000D01*
G01*
X75455000Y-79980000D01*
G75*
G02*
X75380000Y-80055000I-75000J0D01*
G01*
X75230000Y-80055000D01*
G75*
G02*
X75155000Y-79980000I0J75000D01*
G01*
G37*
%TD.AperFunction*%
%TO.P,U1,21*%
%TO.N,SPI1_SCK*%
%TA.AperFunction,SMDPad,CuDef*%
G36*
G01*
X75655000Y-79980000D02*
X75655000Y-78580000D01*
G75*
G02*
X75730000Y-78505000I75000J0D01*
G01*
X75880000Y-78505000D01*
G75*
G02*
X75955000Y-78580000I0J-75000D01*
G01*
X75955000Y-79980000D01*
G75*
G02*
X75880000Y-80055000I-75000J0D01*
G01*
X75730000Y-80055000D01*
G75*
G02*
X75655000Y-79980000I0J75000D01*
G01*
G37*
%TD.AperFunction*%
%TO.P,U1,22*%
%TO.N,SPI1_MISO*%
%TA.AperFunction,SMDPad,CuDef*%
G36*
G01*
X76155000Y-79980000D02*
X76155000Y-78580000D01*
G75*
G02*
X76230000Y-78505000I75000J0D01*
G01*
X76380000Y-78505000D01*
G75*
G02*
X76455000Y-78580000I0J-75000D01*
G01*
X76455000Y-79980000D01*
G75*
G02*
X76380000Y-80055000I-75000J0D01*
G01*
X76230000Y-80055000D01*
G75*
G02*
X76155000Y-79980000I0J75000D01*
G01*
G37*
%TD.AperFunction*%
%TO.P,U1,23*%
%TO.N,SPI1_MOSI*%
%TA.AperFunction,SMDPad,CuDef*%
G36*
G01*
X76655000Y-79980000D02*
X76655000Y-78580000D01*
G75*
G02*
X76730000Y-78505000I75000J0D01*
G01*
X76880000Y-78505000D01*
G75*
G02*
X76955000Y-78580000I0J-75000D01*
G01*
X76955000Y-79980000D01*
G75*
G02*
X76880000Y-80055000I-75000J0D01*
G01*
X76730000Y-80055000D01*
G75*
G02*
X76655000Y-79980000I0J75000D01*
G01*
G37*
%TD.AperFunction*%
%TO.P,U1,24*%
%TO.N,Net-(U1-Pad24)*%
%TA.AperFunction,SMDPad,CuDef*%
G36*
G01*
X77155000Y-79980000D02*
X77155000Y-78580000D01*
G75*
G02*
X77230000Y-78505000I75000J0D01*
G01*
X77380000Y-78505000D01*
G75*
G02*
X77455000Y-78580000I0J-75000D01*
G01*
X77455000Y-79980000D01*
G75*
G02*
X77380000Y-80055000I-75000J0D01*
G01*
X77230000Y-80055000D01*
G75*
G02*
X77155000Y-79980000I0J75000D01*
G01*
G37*
%TD.AperFunction*%
%TO.P,U1,25*%
%TO.N,Net-(U1-Pad25)*%
%TA.AperFunction,SMDPad,CuDef*%
G36*
G01*
X77655000Y-79980000D02*
X77655000Y-78580000D01*
G75*
G02*
X77730000Y-78505000I75000J0D01*
G01*
X77880000Y-78505000D01*
G75*
G02*
X77955000Y-78580000I0J-75000D01*
G01*
X77955000Y-79980000D01*
G75*
G02*
X77880000Y-80055000I-75000J0D01*
G01*
X77730000Y-80055000D01*
G75*
G02*
X77655000Y-79980000I0J75000D01*
G01*
G37*
%TD.AperFunction*%
%TO.P,U1,26*%
%TO.N,Net-(U1-Pad26)*%
%TA.AperFunction,SMDPad,CuDef*%
G36*
G01*
X78155000Y-79980000D02*
X78155000Y-78580000D01*
G75*
G02*
X78230000Y-78505000I75000J0D01*
G01*
X78380000Y-78505000D01*
G75*
G02*
X78455000Y-78580000I0J-75000D01*
G01*
X78455000Y-79980000D01*
G75*
G02*
X78380000Y-80055000I-75000J0D01*
G01*
X78230000Y-80055000D01*
G75*
G02*
X78155000Y-79980000I0J75000D01*
G01*
G37*
%TD.AperFunction*%
%TO.P,U1,27*%
%TO.N,Net-(U1-Pad27)*%
%TA.AperFunction,SMDPad,CuDef*%
G36*
G01*
X78655000Y-79980000D02*
X78655000Y-78580000D01*
G75*
G02*
X78730000Y-78505000I75000J0D01*
G01*
X78880000Y-78505000D01*
G75*
G02*
X78955000Y-78580000I0J-75000D01*
G01*
X78955000Y-79980000D01*
G75*
G02*
X78880000Y-80055000I-75000J0D01*
G01*
X78730000Y-80055000D01*
G75*
G02*
X78655000Y-79980000I0J75000D01*
G01*
G37*
%TD.AperFunction*%
%TO.P,U1,28*%
%TO.N,Net-(U1-Pad28)*%
%TA.AperFunction,SMDPad,CuDef*%
G36*
G01*
X79155000Y-79980000D02*
X79155000Y-78580000D01*
G75*
G02*
X79230000Y-78505000I75000J0D01*
G01*
X79380000Y-78505000D01*
G75*
G02*
X79455000Y-78580000I0J-75000D01*
G01*
X79455000Y-79980000D01*
G75*
G02*
X79380000Y-80055000I-75000J0D01*
G01*
X79230000Y-80055000D01*
G75*
G02*
X79155000Y-79980000I0J75000D01*
G01*
G37*
%TD.AperFunction*%
%TO.P,U1,29*%
%TO.N,Net-(U1-Pad29)*%
%TA.AperFunction,SMDPad,CuDef*%
G36*
G01*
X79655000Y-79980000D02*
X79655000Y-78580000D01*
G75*
G02*
X79730000Y-78505000I75000J0D01*
G01*
X79880000Y-78505000D01*
G75*
G02*
X79955000Y-78580000I0J-75000D01*
G01*
X79955000Y-79980000D01*
G75*
G02*
X79880000Y-80055000I-75000J0D01*
G01*
X79730000Y-80055000D01*
G75*
G02*
X79655000Y-79980000I0J75000D01*
G01*
G37*
%TD.AperFunction*%
%TO.P,U1,30*%
%TO.N,Net-(U1-Pad30)*%
%TA.AperFunction,SMDPad,CuDef*%
G36*
G01*
X80155000Y-79980000D02*
X80155000Y-78580000D01*
G75*
G02*
X80230000Y-78505000I75000J0D01*
G01*
X80380000Y-78505000D01*
G75*
G02*
X80455000Y-78580000I0J-75000D01*
G01*
X80455000Y-79980000D01*
G75*
G02*
X80380000Y-80055000I-75000J0D01*
G01*
X80230000Y-80055000D01*
G75*
G02*
X80155000Y-79980000I0J75000D01*
G01*
G37*
%TD.AperFunction*%
%TO.P,U1,31*%
%TO.N,Net-(C13-Pad1)*%
%TA.AperFunction,SMDPad,CuDef*%
G36*
G01*
X80655000Y-79980000D02*
X80655000Y-78580000D01*
G75*
G02*
X80730000Y-78505000I75000J0D01*
G01*
X80880000Y-78505000D01*
G75*
G02*
X80955000Y-78580000I0J-75000D01*
G01*
X80955000Y-79980000D01*
G75*
G02*
X80880000Y-80055000I-75000J0D01*
G01*
X80730000Y-80055000D01*
G75*
G02*
X80655000Y-79980000I0J75000D01*
G01*
G37*
%TD.AperFunction*%
%TO.P,U1,32*%
%TO.N,+3V3*%
%TA.AperFunction,SMDPad,CuDef*%
G36*
G01*
X81155000Y-79980000D02*
X81155000Y-78580000D01*
G75*
G02*
X81230000Y-78505000I75000J0D01*
G01*
X81380000Y-78505000D01*
G75*
G02*
X81455000Y-78580000I0J-75000D01*
G01*
X81455000Y-79980000D01*
G75*
G02*
X81380000Y-80055000I-75000J0D01*
G01*
X81230000Y-80055000D01*
G75*
G02*
X81155000Y-79980000I0J75000D01*
G01*
G37*
%TD.AperFunction*%
%TO.P,U1,33*%
%TO.N,GPIO_7*%
%TA.AperFunction,SMDPad,CuDef*%
G36*
G01*
X82455000Y-77430000D02*
X82455000Y-77280000D01*
G75*
G02*
X82530000Y-77205000I75000J0D01*
G01*
X83930000Y-77205000D01*
G75*
G02*
X84005000Y-77280000I0J-75000D01*
G01*
X84005000Y-77430000D01*
G75*
G02*
X83930000Y-77505000I-75000J0D01*
G01*
X82530000Y-77505000D01*
G75*
G02*
X82455000Y-77430000I0J75000D01*
G01*
G37*
%TD.AperFunction*%
%TO.P,U1,34*%
%TO.N,GPIO_6*%
%TA.AperFunction,SMDPad,CuDef*%
G36*
G01*
X82455000Y-76930000D02*
X82455000Y-76780000D01*
G75*
G02*
X82530000Y-76705000I75000J0D01*
G01*
X83930000Y-76705000D01*
G75*
G02*
X84005000Y-76780000I0J-75000D01*
G01*
X84005000Y-76930000D01*
G75*
G02*
X83930000Y-77005000I-75000J0D01*
G01*
X82530000Y-77005000D01*
G75*
G02*
X82455000Y-76930000I0J75000D01*
G01*
G37*
%TD.AperFunction*%
%TO.P,U1,35*%
%TO.N,GPIO_5*%
%TA.AperFunction,SMDPad,CuDef*%
G36*
G01*
X82455000Y-76430000D02*
X82455000Y-76280000D01*
G75*
G02*
X82530000Y-76205000I75000J0D01*
G01*
X83930000Y-76205000D01*
G75*
G02*
X84005000Y-76280000I0J-75000D01*
G01*
X84005000Y-76430000D01*
G75*
G02*
X83930000Y-76505000I-75000J0D01*
G01*
X82530000Y-76505000D01*
G75*
G02*
X82455000Y-76430000I0J75000D01*
G01*
G37*
%TD.AperFunction*%
%TO.P,U1,36*%
%TO.N,GPIO_4*%
%TA.AperFunction,SMDPad,CuDef*%
G36*
G01*
X82455000Y-75930000D02*
X82455000Y-75780000D01*
G75*
G02*
X82530000Y-75705000I75000J0D01*
G01*
X83930000Y-75705000D01*
G75*
G02*
X84005000Y-75780000I0J-75000D01*
G01*
X84005000Y-75930000D01*
G75*
G02*
X83930000Y-76005000I-75000J0D01*
G01*
X82530000Y-76005000D01*
G75*
G02*
X82455000Y-75930000I0J75000D01*
G01*
G37*
%TD.AperFunction*%
%TO.P,U1,37*%
%TO.N,GPIO_3*%
%TA.AperFunction,SMDPad,CuDef*%
G36*
G01*
X82455000Y-75430000D02*
X82455000Y-75280000D01*
G75*
G02*
X82530000Y-75205000I75000J0D01*
G01*
X83930000Y-75205000D01*
G75*
G02*
X84005000Y-75280000I0J-75000D01*
G01*
X84005000Y-75430000D01*
G75*
G02*
X83930000Y-75505000I-75000J0D01*
G01*
X82530000Y-75505000D01*
G75*
G02*
X82455000Y-75430000I0J75000D01*
G01*
G37*
%TD.AperFunction*%
%TO.P,U1,38*%
%TO.N,GPIO_2*%
%TA.AperFunction,SMDPad,CuDef*%
G36*
G01*
X82455000Y-74930000D02*
X82455000Y-74780000D01*
G75*
G02*
X82530000Y-74705000I75000J0D01*
G01*
X83930000Y-74705000D01*
G75*
G02*
X84005000Y-74780000I0J-75000D01*
G01*
X84005000Y-74930000D01*
G75*
G02*
X83930000Y-75005000I-75000J0D01*
G01*
X82530000Y-75005000D01*
G75*
G02*
X82455000Y-74930000I0J75000D01*
G01*
G37*
%TD.AperFunction*%
%TO.P,U1,39*%
%TO.N,GPIO_1*%
%TA.AperFunction,SMDPad,CuDef*%
G36*
G01*
X82455000Y-74430000D02*
X82455000Y-74280000D01*
G75*
G02*
X82530000Y-74205000I75000J0D01*
G01*
X83930000Y-74205000D01*
G75*
G02*
X84005000Y-74280000I0J-75000D01*
G01*
X84005000Y-74430000D01*
G75*
G02*
X83930000Y-74505000I-75000J0D01*
G01*
X82530000Y-74505000D01*
G75*
G02*
X82455000Y-74430000I0J75000D01*
G01*
G37*
%TD.AperFunction*%
%TO.P,U1,40*%
%TO.N,GPIO_0*%
%TA.AperFunction,SMDPad,CuDef*%
G36*
G01*
X82455000Y-73930000D02*
X82455000Y-73780000D01*
G75*
G02*
X82530000Y-73705000I75000J0D01*
G01*
X83930000Y-73705000D01*
G75*
G02*
X84005000Y-73780000I0J-75000D01*
G01*
X84005000Y-73930000D01*
G75*
G02*
X83930000Y-74005000I-75000J0D01*
G01*
X82530000Y-74005000D01*
G75*
G02*
X82455000Y-73930000I0J75000D01*
G01*
G37*
%TD.AperFunction*%
%TO.P,U1,41*%
%TO.N,Net-(U1-Pad41)*%
%TA.AperFunction,SMDPad,CuDef*%
G36*
G01*
X82455000Y-73430000D02*
X82455000Y-73280000D01*
G75*
G02*
X82530000Y-73205000I75000J0D01*
G01*
X83930000Y-73205000D01*
G75*
G02*
X84005000Y-73280000I0J-75000D01*
G01*
X84005000Y-73430000D01*
G75*
G02*
X83930000Y-73505000I-75000J0D01*
G01*
X82530000Y-73505000D01*
G75*
G02*
X82455000Y-73430000I0J75000D01*
G01*
G37*
%TD.AperFunction*%
%TO.P,U1,42*%
%TO.N,Net-(U1-Pad42)*%
%TA.AperFunction,SMDPad,CuDef*%
G36*
G01*
X82455000Y-72930000D02*
X82455000Y-72780000D01*
G75*
G02*
X82530000Y-72705000I75000J0D01*
G01*
X83930000Y-72705000D01*
G75*
G02*
X84005000Y-72780000I0J-75000D01*
G01*
X84005000Y-72930000D01*
G75*
G02*
X83930000Y-73005000I-75000J0D01*
G01*
X82530000Y-73005000D01*
G75*
G02*
X82455000Y-72930000I0J75000D01*
G01*
G37*
%TD.AperFunction*%
%TO.P,U1,43*%
%TO.N,Net-(U1-Pad43)*%
%TA.AperFunction,SMDPad,CuDef*%
G36*
G01*
X82455000Y-72430000D02*
X82455000Y-72280000D01*
G75*
G02*
X82530000Y-72205000I75000J0D01*
G01*
X83930000Y-72205000D01*
G75*
G02*
X84005000Y-72280000I0J-75000D01*
G01*
X84005000Y-72430000D01*
G75*
G02*
X83930000Y-72505000I-75000J0D01*
G01*
X82530000Y-72505000D01*
G75*
G02*
X82455000Y-72430000I0J75000D01*
G01*
G37*
%TD.AperFunction*%
%TO.P,U1,44*%
%TO.N,USB_D-*%
%TA.AperFunction,SMDPad,CuDef*%
G36*
G01*
X82455000Y-71930000D02*
X82455000Y-71780000D01*
G75*
G02*
X82530000Y-71705000I75000J0D01*
G01*
X83930000Y-71705000D01*
G75*
G02*
X84005000Y-71780000I0J-75000D01*
G01*
X84005000Y-71930000D01*
G75*
G02*
X83930000Y-72005000I-75000J0D01*
G01*
X82530000Y-72005000D01*
G75*
G02*
X82455000Y-71930000I0J75000D01*
G01*
G37*
%TD.AperFunction*%
%TO.P,U1,45*%
%TO.N,USB_D+*%
%TA.AperFunction,SMDPad,CuDef*%
G36*
G01*
X82455000Y-71430000D02*
X82455000Y-71280000D01*
G75*
G02*
X82530000Y-71205000I75000J0D01*
G01*
X83930000Y-71205000D01*
G75*
G02*
X84005000Y-71280000I0J-75000D01*
G01*
X84005000Y-71430000D01*
G75*
G02*
X83930000Y-71505000I-75000J0D01*
G01*
X82530000Y-71505000D01*
G75*
G02*
X82455000Y-71430000I0J75000D01*
G01*
G37*
%TD.AperFunction*%
%TO.P,U1,46*%
%TO.N,SWDIO*%
%TA.AperFunction,SMDPad,CuDef*%
G36*
G01*
X82455000Y-70930000D02*
X82455000Y-70780000D01*
G75*
G02*
X82530000Y-70705000I75000J0D01*
G01*
X83930000Y-70705000D01*
G75*
G02*
X84005000Y-70780000I0J-75000D01*
G01*
X84005000Y-70930000D01*
G75*
G02*
X83930000Y-71005000I-75000J0D01*
G01*
X82530000Y-71005000D01*
G75*
G02*
X82455000Y-70930000I0J75000D01*
G01*
G37*
%TD.AperFunction*%
%TO.P,U1,47*%
%TO.N,Net-(C14-Pad1)*%
%TA.AperFunction,SMDPad,CuDef*%
G36*
G01*
X82455000Y-70430000D02*
X82455000Y-70280000D01*
G75*
G02*
X82530000Y-70205000I75000J0D01*
G01*
X83930000Y-70205000D01*
G75*
G02*
X84005000Y-70280000I0J-75000D01*
G01*
X84005000Y-70430000D01*
G75*
G02*
X83930000Y-70505000I-75000J0D01*
G01*
X82530000Y-70505000D01*
G75*
G02*
X82455000Y-70430000I0J75000D01*
G01*
G37*
%TD.AperFunction*%
%TO.P,U1,48*%
%TO.N,+3V3*%
%TA.AperFunction,SMDPad,CuDef*%
G36*
G01*
X82455000Y-69930000D02*
X82455000Y-69780000D01*
G75*
G02*
X82530000Y-69705000I75000J0D01*
G01*
X83930000Y-69705000D01*
G75*
G02*
X84005000Y-69780000I0J-75000D01*
G01*
X84005000Y-69930000D01*
G75*
G02*
X83930000Y-70005000I-75000J0D01*
G01*
X82530000Y-70005000D01*
G75*
G02*
X82455000Y-69930000I0J75000D01*
G01*
G37*
%TD.AperFunction*%
%TO.P,U1,49*%
%TO.N,SWCLK*%
%TA.AperFunction,SMDPad,CuDef*%
G36*
G01*
X81155000Y-68630000D02*
X81155000Y-67230000D01*
G75*
G02*
X81230000Y-67155000I75000J0D01*
G01*
X81380000Y-67155000D01*
G75*
G02*
X81455000Y-67230000I0J-75000D01*
G01*
X81455000Y-68630000D01*
G75*
G02*
X81380000Y-68705000I-75000J0D01*
G01*
X81230000Y-68705000D01*
G75*
G02*
X81155000Y-68630000I0J75000D01*
G01*
G37*
%TD.AperFunction*%
%TO.P,U1,50*%
%TO.N,Net-(U1-Pad50)*%
%TA.AperFunction,SMDPad,CuDef*%
G36*
G01*
X80655000Y-68630000D02*
X80655000Y-67230000D01*
G75*
G02*
X80730000Y-67155000I75000J0D01*
G01*
X80880000Y-67155000D01*
G75*
G02*
X80955000Y-67230000I0J-75000D01*
G01*
X80955000Y-68630000D01*
G75*
G02*
X80880000Y-68705000I-75000J0D01*
G01*
X80730000Y-68705000D01*
G75*
G02*
X80655000Y-68630000I0J75000D01*
G01*
G37*
%TD.AperFunction*%
%TO.P,U1,51*%
%TO.N,Net-(U1-Pad51)*%
%TA.AperFunction,SMDPad,CuDef*%
G36*
G01*
X80155000Y-68630000D02*
X80155000Y-67230000D01*
G75*
G02*
X80230000Y-67155000I75000J0D01*
G01*
X80380000Y-67155000D01*
G75*
G02*
X80455000Y-67230000I0J-75000D01*
G01*
X80455000Y-68630000D01*
G75*
G02*
X80380000Y-68705000I-75000J0D01*
G01*
X80230000Y-68705000D01*
G75*
G02*
X80155000Y-68630000I0J75000D01*
G01*
G37*
%TD.AperFunction*%
%TO.P,U1,52*%
%TO.N,Net-(U1-Pad52)*%
%TA.AperFunction,SMDPad,CuDef*%
G36*
G01*
X79655000Y-68630000D02*
X79655000Y-67230000D01*
G75*
G02*
X79730000Y-67155000I75000J0D01*
G01*
X79880000Y-67155000D01*
G75*
G02*
X79955000Y-67230000I0J-75000D01*
G01*
X79955000Y-68630000D01*
G75*
G02*
X79880000Y-68705000I-75000J0D01*
G01*
X79730000Y-68705000D01*
G75*
G02*
X79655000Y-68630000I0J75000D01*
G01*
G37*
%TD.AperFunction*%
%TO.P,U1,53*%
%TO.N,Net-(U1-Pad53)*%
%TA.AperFunction,SMDPad,CuDef*%
G36*
G01*
X79155000Y-68630000D02*
X79155000Y-67230000D01*
G75*
G02*
X79230000Y-67155000I75000J0D01*
G01*
X79380000Y-67155000D01*
G75*
G02*
X79455000Y-67230000I0J-75000D01*
G01*
X79455000Y-68630000D01*
G75*
G02*
X79380000Y-68705000I-75000J0D01*
G01*
X79230000Y-68705000D01*
G75*
G02*
X79155000Y-68630000I0J75000D01*
G01*
G37*
%TD.AperFunction*%
%TO.P,U1,54*%
%TO.N,Net-(U1-Pad54)*%
%TA.AperFunction,SMDPad,CuDef*%
G36*
G01*
X78655000Y-68630000D02*
X78655000Y-67230000D01*
G75*
G02*
X78730000Y-67155000I75000J0D01*
G01*
X78880000Y-67155000D01*
G75*
G02*
X78955000Y-67230000I0J-75000D01*
G01*
X78955000Y-68630000D01*
G75*
G02*
X78880000Y-68705000I-75000J0D01*
G01*
X78730000Y-68705000D01*
G75*
G02*
X78655000Y-68630000I0J75000D01*
G01*
G37*
%TD.AperFunction*%
%TO.P,U1,55*%
%TO.N,SWO*%
%TA.AperFunction,SMDPad,CuDef*%
G36*
G01*
X78155000Y-68630000D02*
X78155000Y-67230000D01*
G75*
G02*
X78230000Y-67155000I75000J0D01*
G01*
X78380000Y-67155000D01*
G75*
G02*
X78455000Y-67230000I0J-75000D01*
G01*
X78455000Y-68630000D01*
G75*
G02*
X78380000Y-68705000I-75000J0D01*
G01*
X78230000Y-68705000D01*
G75*
G02*
X78155000Y-68630000I0J75000D01*
G01*
G37*
%TD.AperFunction*%
%TO.P,U1,56*%
%TO.N,Net-(U1-Pad56)*%
%TA.AperFunction,SMDPad,CuDef*%
G36*
G01*
X77655000Y-68630000D02*
X77655000Y-67230000D01*
G75*
G02*
X77730000Y-67155000I75000J0D01*
G01*
X77880000Y-67155000D01*
G75*
G02*
X77955000Y-67230000I0J-75000D01*
G01*
X77955000Y-68630000D01*
G75*
G02*
X77880000Y-68705000I-75000J0D01*
G01*
X77730000Y-68705000D01*
G75*
G02*
X77655000Y-68630000I0J75000D01*
G01*
G37*
%TD.AperFunction*%
%TO.P,U1,57*%
%TO.N,Net-(U1-Pad57)*%
%TA.AperFunction,SMDPad,CuDef*%
G36*
G01*
X77155000Y-68630000D02*
X77155000Y-67230000D01*
G75*
G02*
X77230000Y-67155000I75000J0D01*
G01*
X77380000Y-67155000D01*
G75*
G02*
X77455000Y-67230000I0J-75000D01*
G01*
X77455000Y-68630000D01*
G75*
G02*
X77380000Y-68705000I-75000J0D01*
G01*
X77230000Y-68705000D01*
G75*
G02*
X77155000Y-68630000I0J75000D01*
G01*
G37*
%TD.AperFunction*%
%TO.P,U1,58*%
%TO.N,Net-(U1-Pad58)*%
%TA.AperFunction,SMDPad,CuDef*%
G36*
G01*
X76655000Y-68630000D02*
X76655000Y-67230000D01*
G75*
G02*
X76730000Y-67155000I75000J0D01*
G01*
X76880000Y-67155000D01*
G75*
G02*
X76955000Y-67230000I0J-75000D01*
G01*
X76955000Y-68630000D01*
G75*
G02*
X76880000Y-68705000I-75000J0D01*
G01*
X76730000Y-68705000D01*
G75*
G02*
X76655000Y-68630000I0J75000D01*
G01*
G37*
%TD.AperFunction*%
%TO.P,U1,59*%
%TO.N,Net-(U1-Pad59)*%
%TA.AperFunction,SMDPad,CuDef*%
G36*
G01*
X76155000Y-68630000D02*
X76155000Y-67230000D01*
G75*
G02*
X76230000Y-67155000I75000J0D01*
G01*
X76380000Y-67155000D01*
G75*
G02*
X76455000Y-67230000I0J-75000D01*
G01*
X76455000Y-68630000D01*
G75*
G02*
X76380000Y-68705000I-75000J0D01*
G01*
X76230000Y-68705000D01*
G75*
G02*
X76155000Y-68630000I0J75000D01*
G01*
G37*
%TD.AperFunction*%
%TO.P,U1,60*%
%TO.N,BOOT0*%
%TA.AperFunction,SMDPad,CuDef*%
G36*
G01*
X75655000Y-68630000D02*
X75655000Y-67230000D01*
G75*
G02*
X75730000Y-67155000I75000J0D01*
G01*
X75880000Y-67155000D01*
G75*
G02*
X75955000Y-67230000I0J-75000D01*
G01*
X75955000Y-68630000D01*
G75*
G02*
X75880000Y-68705000I-75000J0D01*
G01*
X75730000Y-68705000D01*
G75*
G02*
X75655000Y-68630000I0J75000D01*
G01*
G37*
%TD.AperFunction*%
%TO.P,U1,61*%
%TO.N,Net-(U1-Pad61)*%
%TA.AperFunction,SMDPad,CuDef*%
G36*
G01*
X75155000Y-68630000D02*
X75155000Y-67230000D01*
G75*
G02*
X75230000Y-67155000I75000J0D01*
G01*
X75380000Y-67155000D01*
G75*
G02*
X75455000Y-67230000I0J-75000D01*
G01*
X75455000Y-68630000D01*
G75*
G02*
X75380000Y-68705000I-75000J0D01*
G01*
X75230000Y-68705000D01*
G75*
G02*
X75155000Y-68630000I0J75000D01*
G01*
G37*
%TD.AperFunction*%
%TO.P,U1,62*%
%TO.N,Net-(U1-Pad62)*%
%TA.AperFunction,SMDPad,CuDef*%
G36*
G01*
X74655000Y-68630000D02*
X74655000Y-67230000D01*
G75*
G02*
X74730000Y-67155000I75000J0D01*
G01*
X74880000Y-67155000D01*
G75*
G02*
X74955000Y-67230000I0J-75000D01*
G01*
X74955000Y-68630000D01*
G75*
G02*
X74880000Y-68705000I-75000J0D01*
G01*
X74730000Y-68705000D01*
G75*
G02*
X74655000Y-68630000I0J75000D01*
G01*
G37*
%TD.AperFunction*%
%TO.P,U1,63*%
%TO.N,GND*%
%TA.AperFunction,SMDPad,CuDef*%
G36*
G01*
X74155000Y-68630000D02*
X74155000Y-67230000D01*
G75*
G02*
X74230000Y-67155000I75000J0D01*
G01*
X74380000Y-67155000D01*
G75*
G02*
X74455000Y-67230000I0J-75000D01*
G01*
X74455000Y-68630000D01*
G75*
G02*
X74380000Y-68705000I-75000J0D01*
G01*
X74230000Y-68705000D01*
G75*
G02*
X74155000Y-68630000I0J75000D01*
G01*
G37*
%TD.AperFunction*%
%TO.P,U1,64*%
%TO.N,+3V3*%
%TA.AperFunction,SMDPad,CuDef*%
G36*
G01*
X73655000Y-68630000D02*
X73655000Y-67230000D01*
G75*
G02*
X73730000Y-67155000I75000J0D01*
G01*
X73880000Y-67155000D01*
G75*
G02*
X73955000Y-67230000I0J-75000D01*
G01*
X73955000Y-68630000D01*
G75*
G02*
X73880000Y-68705000I-75000J0D01*
G01*
X73730000Y-68705000D01*
G75*
G02*
X73655000Y-68630000I0J75000D01*
G01*
G37*
%TD.AperFunction*%
%TD*%
D28*
%TO.P,U2,5*%
%TO.N,BUCK_IN*%
X86700000Y-98800000D03*
%TO.P,U2,6*%
%TO.N,BUCK_SW*%
X86700000Y-97850000D03*
%TO.P,U2,4*%
%TO.N,BUCK_EN*%
X86700000Y-99750000D03*
%TO.P,U2,3*%
%TO.N,BUCK_FB*%
X84500000Y-99750000D03*
%TO.P,U2,2*%
%TO.N,GND*%
X84500000Y-98800000D03*
%TO.P,U2,1*%
%TO.N,BUCK_BST*%
X84500000Y-97850000D03*
%TD*%
%TO.P,U3,1*%
%TO.N,USB_Conn_D-*%
X103450000Y-67450000D03*
%TO.P,U3,2*%
%TO.N,GND*%
X103450000Y-66500000D03*
%TO.P,U3,3*%
%TO.N,USB_Conn_D+*%
X103450000Y-65550000D03*
%TO.P,U3,4*%
%TO.N,USB_D+*%
X101250000Y-65550000D03*
%TO.P,U3,6*%
%TO.N,USB_D-*%
X101250000Y-67450000D03*
%TO.P,U3,5*%
%TO.N,+5V*%
X101250000Y-66500000D03*
%TD*%
D29*
%TO.P,Y1,1*%
%TO.N,HS_CLK_IN*%
X65402000Y-70750000D03*
%TO.P,Y1,2*%
%TO.N,GND*%
X65402000Y-72950000D03*
%TO.P,Y1,3*%
%TO.N,Net-(C16-Pad1)*%
X67102000Y-72950000D03*
%TO.P,Y1,4*%
%TO.N,GND*%
X67102000Y-70750000D03*
%TD*%
D30*
%TO.N,GND*%
X72650000Y-81250000D03*
%TO.N,+3V3*%
X70300000Y-67650000D03*
%TO.N,GND*%
X64900000Y-75100000D03*
X68500000Y-74150000D03*
X69800000Y-74150000D03*
X64100000Y-72950000D03*
X68400000Y-70700000D03*
X68800000Y-68850000D03*
X68750000Y-67650000D03*
X68750000Y-65350000D03*
X74250000Y-65100000D03*
X66950000Y-58650000D03*
X72200000Y-58650000D03*
X102250000Y-64000000D03*
X105350000Y-64850000D03*
X105350000Y-63750000D03*
X105350000Y-62500000D03*
X80000000Y-55200000D03*
X83050000Y-67700000D03*
X85550000Y-67100000D03*
X84050000Y-81750000D03*
X84550000Y-79800000D03*
X73750000Y-87850000D03*
X73750000Y-91050000D03*
X72450000Y-89500000D03*
X73750000Y-92300000D03*
X73750000Y-95500000D03*
X72500000Y-93950000D03*
X84800000Y-101750000D03*
X86350000Y-101750000D03*
X89800000Y-95050000D03*
X93100000Y-95050000D03*
X92850000Y-91250000D03*
X83250000Y-98800000D03*
X97200000Y-104800000D03*
X95950000Y-106050000D03*
%TO.N,+3V3*%
X70300000Y-65350000D03*
X72550000Y-66000000D03*
X70250000Y-68850000D03*
X64900000Y-76400000D03*
X74500000Y-82100000D03*
X75700000Y-89500000D03*
X76700000Y-91050000D03*
X76700000Y-87900000D03*
X81250000Y-89550000D03*
X82800000Y-90500000D03*
X82800000Y-92000000D03*
X81200000Y-92950000D03*
X76700000Y-92350000D03*
X76700000Y-95500000D03*
X75650000Y-93950000D03*
X82050000Y-97100000D03*
X80850000Y-98250000D03*
X82950000Y-97100000D03*
X66950000Y-54200000D03*
X84500000Y-55250000D03*
%TO.N,GND*%
X90450000Y-57000000D03*
X93000000Y-57000000D03*
X94250000Y-57000000D03*
%TO.N,+3V3*%
X83200000Y-68850000D03*
X82700000Y-79100000D03*
X95550000Y-56950000D03*
%TO.N,STATUS_LED*%
X74500000Y-73750000D03*
X75250000Y-64250000D03*
%TO.N,+5V*%
X101250000Y-73250000D03*
X101250000Y-95750000D03*
%TO.N,NRST*%
X79500000Y-70750000D03*
X88400000Y-64300000D03*
%TD*%
D31*
%TO.N,BUCK_IN*%
X89282000Y-97989000D02*
X89021000Y-98250000D01*
X93754000Y-97989000D02*
X89282000Y-97989000D01*
X88471000Y-98800000D02*
X86700000Y-98800000D01*
X89021000Y-98250000D02*
X88471000Y-98800000D01*
D32*
%TO.N,GND*%
X74305000Y-66040000D02*
X74250000Y-65985000D01*
X74305000Y-67930000D02*
X74305000Y-66040000D01*
X70163000Y-75355000D02*
X69808000Y-75000000D01*
X71880000Y-75355000D02*
X70163000Y-75355000D01*
X69808000Y-75000000D02*
X68500000Y-75000000D01*
D33*
X65402000Y-74602000D02*
X65800000Y-75000000D01*
X65402000Y-72950000D02*
X65402000Y-74602000D01*
X67102000Y-69102000D02*
X66750000Y-68750000D01*
X67102000Y-70750000D02*
X67102000Y-69102000D01*
D32*
X73540000Y-81182020D02*
X73540000Y-81225000D01*
X74305000Y-80417020D02*
X73540000Y-81182020D01*
X74305000Y-79280000D02*
X74305000Y-80417020D01*
X103450000Y-66500000D02*
X102750000Y-66500000D01*
X102750000Y-66500000D02*
X102250000Y-66000000D01*
X102250000Y-66000000D02*
X102250000Y-64000000D01*
D33*
X105375000Y-64875000D02*
X105350000Y-64850000D01*
X107300000Y-64875000D02*
X105375000Y-64875000D01*
X105350000Y-64850000D02*
X105350000Y-63750000D01*
D31*
X105350000Y-64850000D02*
X105350000Y-62500000D01*
D33*
%TO.N,+3V3*%
X95550000Y-58940000D02*
X95540000Y-58950000D01*
%TO.N,GND*%
X93050000Y-58900000D02*
X93000000Y-58950000D01*
%TO.N,Net-(J4-Pad7)*%
X91750000Y-58930000D02*
X91730000Y-58950000D01*
%TO.N,GND*%
X80000000Y-55200000D02*
X80000000Y-53750000D01*
X72200000Y-57550000D02*
X72150000Y-57500000D01*
X72200000Y-58650000D02*
X72200000Y-57550000D01*
X66950000Y-58650000D02*
X66950000Y-57500000D01*
X68750000Y-67650000D02*
X68750000Y-65350000D01*
X69050000Y-69740000D02*
X69040000Y-69750000D01*
X67152000Y-70700000D02*
X67102000Y-70750000D01*
X68400000Y-70700000D02*
X67152000Y-70700000D01*
X64100000Y-72950000D02*
X65402000Y-72950000D01*
X65700000Y-75100000D02*
X65800000Y-75000000D01*
X64900000Y-75100000D02*
X65700000Y-75100000D01*
X68500000Y-74150000D02*
X68500000Y-75000000D01*
X69800000Y-74992000D02*
X69808000Y-75000000D01*
X69800000Y-74150000D02*
X69800000Y-74992000D01*
X74250000Y-65965000D02*
X74230000Y-65985000D01*
X74250000Y-65100000D02*
X74250000Y-65965000D01*
X83841000Y-67700000D02*
X83905000Y-67636000D01*
X83050000Y-67700000D02*
X83841000Y-67700000D01*
X85550000Y-68252000D02*
X85556000Y-68258000D01*
X85550000Y-67100000D02*
X85550000Y-68252000D01*
X73515000Y-81250000D02*
X73540000Y-81225000D01*
X72650000Y-81250000D02*
X73515000Y-81250000D01*
D31*
X84500000Y-98800000D02*
X83250000Y-98800000D01*
X83650000Y-101750000D02*
X84800000Y-101750000D01*
X86350000Y-101750000D02*
X87500000Y-101750000D01*
X86350000Y-101750000D02*
X84800000Y-101750000D01*
X89800000Y-95050000D02*
X93100000Y-95050000D01*
X92850000Y-91250000D02*
X91650000Y-91250000D01*
X91434000Y-91466000D02*
X91650000Y-91250000D01*
X91434000Y-95039000D02*
X91434000Y-91466000D01*
X72525000Y-93925000D02*
X72500000Y-93950000D01*
X73752000Y-93925000D02*
X72525000Y-93925000D01*
X73550000Y-92900000D02*
X73750000Y-92900000D01*
X72500000Y-93950000D02*
X73550000Y-92900000D01*
X73750000Y-92900000D02*
X73750000Y-92300000D01*
X73600000Y-95050000D02*
X73750000Y-95050000D01*
X72500000Y-93950000D02*
X73600000Y-95050000D01*
X73750000Y-95050000D02*
X73750000Y-92900000D01*
X73750000Y-95500000D02*
X73750000Y-95050000D01*
X73650000Y-88300000D02*
X73750000Y-88300000D01*
X72450000Y-89500000D02*
X73650000Y-88300000D01*
X73750000Y-88300000D02*
X73750000Y-87850000D01*
X72450000Y-89500000D02*
X73600000Y-90650000D01*
X73750000Y-90650000D02*
X73750000Y-88300000D01*
X73600000Y-90650000D02*
X73750000Y-90650000D01*
X73750000Y-91050000D02*
X73750000Y-90650000D01*
X73732000Y-89500000D02*
X73752000Y-89480000D01*
X72450000Y-89500000D02*
X73732000Y-89500000D01*
X95950000Y-104805000D02*
X95974000Y-104781000D01*
X95950000Y-106050000D02*
X95950000Y-104805000D01*
X97181000Y-104781000D02*
X97200000Y-104800000D01*
X95974000Y-104781000D02*
X97181000Y-104781000D01*
D33*
X83679000Y-79800000D02*
X83651000Y-79828000D01*
X84550000Y-79800000D02*
X83679000Y-79800000D01*
X82906000Y-81750000D02*
X82889000Y-81733000D01*
X84050000Y-81750000D02*
X82906000Y-81750000D01*
X69040000Y-69090000D02*
X68800000Y-68850000D01*
X69040000Y-69750000D02*
X69040000Y-69090000D01*
D32*
%TO.N,+3V3*%
X73805000Y-67930000D02*
X73805000Y-67055000D01*
X73290000Y-66540000D02*
X73290000Y-65985000D01*
X73805000Y-67055000D02*
X73290000Y-66540000D01*
X83230000Y-69855000D02*
X83645000Y-69855000D01*
X83905000Y-69595000D02*
X83905000Y-68596000D01*
X83645000Y-69855000D02*
X83905000Y-69595000D01*
X81853000Y-79828000D02*
X81305000Y-79280000D01*
X82691000Y-79828000D02*
X81853000Y-79828000D01*
X70105000Y-69855000D02*
X70000000Y-69750000D01*
X71880000Y-69855000D02*
X70105000Y-69855000D01*
X74805000Y-80920000D02*
X74500000Y-81225000D01*
X74805000Y-79280000D02*
X74805000Y-80920000D01*
%TO.N,+3.3VA*%
X67264000Y-75855000D02*
X66720000Y-76399000D01*
X71880000Y-75855000D02*
X67264000Y-75855000D01*
D33*
X69808000Y-75960000D02*
X68500000Y-75960000D01*
X67159000Y-75960000D02*
X66720000Y-76399000D01*
X68500000Y-75960000D02*
X67159000Y-75960000D01*
D32*
%TO.N,Net-(C13-Pad1)*%
X80805000Y-81199000D02*
X81339000Y-81733000D01*
X80805000Y-79280000D02*
X80805000Y-81199000D01*
%TO.N,Net-(C14-Pad1)*%
X85009000Y-70355000D02*
X85556000Y-69808000D01*
X83230000Y-70355000D02*
X85009000Y-70355000D01*
%TO.N,HS_CLK_IN*%
X65402000Y-70980002D02*
X65402000Y-70750000D01*
X66276998Y-71855000D02*
X65402000Y-70980002D01*
X71880000Y-71855000D02*
X66276998Y-71855000D01*
D33*
X65402000Y-69138000D02*
X65790000Y-68750000D01*
X65402000Y-70750000D02*
X65402000Y-69138000D01*
D32*
%TO.N,Net-(C16-Pad1)*%
X67463000Y-72589000D02*
X67102000Y-72950000D01*
X68919000Y-72589000D02*
X67463000Y-72589000D01*
D33*
X67102000Y-74658000D02*
X66760000Y-75000000D01*
X67102000Y-72950000D02*
X67102000Y-74658000D01*
%TO.N,Net-(D1-Pad1)*%
X70500000Y-57500000D02*
X70500000Y-55500000D01*
%TO.N,Net-(D4-Pad1)*%
X65300000Y-55575000D02*
X65375000Y-55500000D01*
X65300000Y-57500000D02*
X65300000Y-55575000D01*
D32*
%TO.N,USART2_TX*%
X64500000Y-77750000D02*
X61500000Y-74750000D01*
X68250000Y-77750000D02*
X64500000Y-77750000D01*
X68645000Y-77355000D02*
X68250000Y-77750000D01*
X71880000Y-77355000D02*
X68645000Y-77355000D01*
X61500000Y-74750000D02*
X61500000Y-70500000D01*
X59580000Y-68580000D02*
X52750000Y-68580000D01*
X61500000Y-70500000D02*
X59580000Y-68580000D01*
%TO.N,USART4_RX*%
X73805000Y-79280000D02*
X68780000Y-79280000D01*
X68780000Y-79280000D02*
X68250000Y-78750000D01*
X68250000Y-78750000D02*
X64000000Y-78750000D01*
X64000000Y-78750000D02*
X60500000Y-75250000D01*
X60500000Y-75250000D02*
X60500000Y-72500000D01*
X59120000Y-71120000D02*
X52750000Y-71120000D01*
X60500000Y-72500000D02*
X59120000Y-71120000D01*
%TO.N,+3V3*%
X53390000Y-82500000D02*
X52750000Y-81860000D01*
D31*
X78472000Y-91250000D02*
X76702000Y-89480000D01*
X81400000Y-91250000D02*
X78472000Y-91250000D01*
X81400000Y-91250000D02*
X79377000Y-91250000D01*
X82036000Y-98244000D02*
X81744000Y-98244000D01*
X79063500Y-95563500D02*
X79063500Y-91563500D01*
X81744000Y-98244000D02*
X79063500Y-95563500D01*
X79063500Y-91563500D02*
X76702000Y-93925000D01*
X79377000Y-91250000D02*
X79063500Y-91563500D01*
D33*
X65749000Y-76400000D02*
X65750000Y-76399000D01*
X64900000Y-76400000D02*
X65749000Y-76400000D01*
X70300000Y-67650000D02*
X70300000Y-65350000D01*
X73255000Y-66000000D02*
X73270000Y-65985000D01*
X72550000Y-66000000D02*
X73255000Y-66000000D01*
D31*
X52760000Y-66050000D02*
X52750000Y-66040000D01*
D33*
X74500000Y-82100000D02*
X74500000Y-81225000D01*
D31*
X76700000Y-87900000D02*
X76700000Y-91050000D01*
X76682000Y-89500000D02*
X76702000Y-89480000D01*
X75700000Y-89500000D02*
X76682000Y-89500000D01*
X76702000Y-92352000D02*
X76700000Y-92350000D01*
X76702000Y-93925000D02*
X76702000Y-92352000D01*
X76700000Y-93927000D02*
X76702000Y-93925000D01*
X76700000Y-95500000D02*
X76700000Y-93927000D01*
X76677000Y-93950000D02*
X76702000Y-93925000D01*
X75650000Y-93950000D02*
X76677000Y-93950000D01*
X81850000Y-89550000D02*
X82800000Y-90500000D01*
X81250000Y-89550000D02*
X81850000Y-89550000D01*
X82800000Y-90500000D02*
X82800000Y-92000000D01*
X82800000Y-92000000D02*
X82150000Y-92650000D01*
X81500000Y-92650000D02*
X81200000Y-92950000D01*
X82150000Y-92650000D02*
X81500000Y-92650000D01*
X81200000Y-89600000D02*
X81250000Y-89550000D01*
X81200000Y-92950000D02*
X81200000Y-89600000D01*
X81250000Y-90450000D02*
X82800000Y-92000000D01*
X81250000Y-89550000D02*
X81250000Y-90450000D01*
X82800000Y-91350000D02*
X81200000Y-92950000D01*
X82800000Y-90500000D02*
X82800000Y-91350000D01*
X82150000Y-90500000D02*
X81400000Y-91250000D01*
X82800000Y-90500000D02*
X82150000Y-90500000D01*
X82800000Y-91100000D02*
X82800000Y-91350000D01*
X81250000Y-89550000D02*
X82800000Y-91100000D01*
X82050000Y-98230000D02*
X82036000Y-98244000D01*
X82050000Y-97100000D02*
X82050000Y-98230000D01*
X76700000Y-95000000D02*
X75650000Y-93950000D01*
X76700000Y-95500000D02*
X76700000Y-95000000D01*
X76700000Y-92900000D02*
X75650000Y-93950000D01*
X76700000Y-92350000D02*
X76700000Y-92900000D01*
X76700000Y-90500000D02*
X75700000Y-89500000D01*
X76700000Y-91050000D02*
X76700000Y-90500000D01*
X76700000Y-88500000D02*
X75700000Y-89500000D01*
X76700000Y-87900000D02*
X76700000Y-88500000D01*
D33*
%TO.N,GND*%
X90450000Y-58940000D02*
X90460000Y-58950000D01*
X90450000Y-58790000D02*
X90460000Y-58800000D01*
X90450000Y-57000000D02*
X90450000Y-58790000D01*
X93000000Y-57000000D02*
X93000000Y-58800000D01*
X94250000Y-58780000D02*
X94270000Y-58800000D01*
X94250000Y-57000000D02*
X94250000Y-58780000D01*
%TO.N,+3V3*%
X84500000Y-55250000D02*
X84500000Y-53750000D01*
X66950000Y-54200000D02*
X66950000Y-55500000D01*
D31*
X82950000Y-97100000D02*
X82050000Y-97100000D01*
X82000000Y-97100000D02*
X80850000Y-98250000D01*
X82050000Y-97100000D02*
X82000000Y-97100000D01*
X82030000Y-98250000D02*
X82036000Y-98244000D01*
X80850000Y-98250000D02*
X82030000Y-98250000D01*
X82036000Y-98014000D02*
X82950000Y-97100000D01*
X82036000Y-98244000D02*
X82036000Y-98014000D01*
D33*
X70000000Y-69100000D02*
X70250000Y-68850000D01*
X70000000Y-69750000D02*
X70000000Y-69100000D01*
X83651000Y-68850000D02*
X83905000Y-68596000D01*
X83200000Y-68850000D02*
X83651000Y-68850000D01*
X82700000Y-79819000D02*
X82691000Y-79828000D01*
X82700000Y-79100000D02*
X82700000Y-79819000D01*
X95550000Y-58790000D02*
X95540000Y-58800000D01*
X95550000Y-56950000D02*
X95550000Y-58790000D01*
D31*
%TO.N,BUCK_BST*%
X84500000Y-95950000D02*
X84950000Y-95500000D01*
X84500000Y-97850000D02*
X84500000Y-95950000D01*
%TO.N,BUCK_SW*%
X86700000Y-95700000D02*
X86500000Y-95500000D01*
X86700000Y-97850000D02*
X86700000Y-95700000D01*
X86500000Y-92250000D02*
X85500000Y-91250000D01*
X86500000Y-95500000D02*
X86500000Y-92250000D01*
X86500000Y-91550000D02*
X86800000Y-91250000D01*
X86500000Y-92250000D02*
X86500000Y-91550000D01*
X86800000Y-91250000D02*
X85500000Y-91250000D01*
X88350000Y-91250000D02*
X86800000Y-91250000D01*
D32*
%TO.N,STATUS_LED*%
X74395000Y-73855000D02*
X74500000Y-73750000D01*
X71880000Y-73855000D02*
X74395000Y-73855000D01*
X75250000Y-64250000D02*
X75250000Y-57500000D01*
X73250000Y-55500000D02*
X72075000Y-55500000D01*
X75250000Y-57500000D02*
X73250000Y-55500000D01*
D31*
%TO.N,Net-(D2-Pad1)*%
X98542000Y-101036000D02*
X98292000Y-100786000D01*
X101213000Y-101036000D02*
X98542000Y-101036000D01*
X95974000Y-102881000D02*
X97119000Y-102881000D01*
X98292000Y-101708000D02*
X98292000Y-100786000D01*
X97119000Y-102881000D02*
X98292000Y-101708000D01*
D33*
%TO.N,+5V*%
X107300000Y-67475000D02*
X106275000Y-67475000D01*
X106275000Y-67475000D02*
X105000000Y-68750000D01*
D32*
X102500000Y-67214998D02*
X101785002Y-66500000D01*
X101785002Y-66500000D02*
X101250000Y-66500000D01*
D31*
X102750000Y-68750000D02*
X105000000Y-68750000D01*
X106157499Y-67592501D02*
X106164999Y-67600001D01*
X106164999Y-67600001D02*
X106275000Y-67600001D01*
X105000000Y-68750000D02*
X106157499Y-67592501D01*
X106164999Y-67600001D02*
X106450997Y-67600001D01*
D32*
X102500000Y-68500000D02*
X102750000Y-68750000D01*
X102500000Y-67214998D02*
X102500000Y-68500000D01*
D31*
X102750000Y-68750000D02*
X102000000Y-69500000D01*
X101250000Y-70250000D02*
X101250000Y-73250000D01*
X102000000Y-69500000D02*
X101250000Y-70250000D01*
X101250000Y-97699000D02*
X101213000Y-97736000D01*
X101250000Y-95750000D02*
X101250000Y-97699000D01*
%TO.N,Net-(F1-Pad1)*%
X95882000Y-97986000D02*
X95879000Y-97989000D01*
X98292000Y-97986000D02*
X95882000Y-97986000D01*
%TO.N,+12V*%
X68250000Y-105250000D02*
X68250000Y-104250000D01*
X68250000Y-104250000D02*
X70750000Y-101750000D01*
X70750000Y-101750000D02*
X76500000Y-101750000D01*
X78581000Y-103831000D02*
X93974000Y-103831000D01*
X76500000Y-101750000D02*
X78581000Y-103831000D01*
D33*
%TO.N,Net-(J1-Pad6)*%
X110000000Y-63275000D02*
X110000000Y-69075000D01*
X107700000Y-69075000D02*
X107300000Y-68675000D01*
X110000000Y-69075000D02*
X107700000Y-69075000D01*
X107700000Y-63275000D02*
X107300000Y-63675000D01*
X110000000Y-63275000D02*
X107700000Y-63275000D01*
D34*
%TO.N,USB_Conn_D-*%
X104245001Y-67450000D02*
X104962845Y-66732156D01*
X103450000Y-67450000D02*
X104245001Y-67450000D01*
X106287499Y-66825000D02*
X106194655Y-66732156D01*
X107300000Y-66825000D02*
X106287499Y-66825000D01*
X106194655Y-66732156D02*
X104962845Y-66732156D01*
%TO.N,USB_Conn_D+*%
X104245001Y-65550000D02*
X104962845Y-66267844D01*
X103450000Y-65550000D02*
X104245001Y-65550000D01*
X106194655Y-66267844D02*
X104962845Y-66267844D01*
X106287499Y-66175000D02*
X106194655Y-66267844D01*
X107300000Y-66175000D02*
X106287499Y-66175000D01*
D32*
%TO.N,SWDIO*%
X95540000Y-63630002D02*
X95540000Y-62700000D01*
X88315002Y-70855000D02*
X95540000Y-63630002D01*
X83230000Y-70855000D02*
X88315002Y-70855000D01*
%TO.N,NRST*%
X90500000Y-62590000D02*
X90460000Y-62550000D01*
%TO.N,SWCLK*%
X81305000Y-67930000D02*
X81305000Y-66695000D01*
X81305000Y-66695000D02*
X82250000Y-65750000D01*
X94270000Y-63630002D02*
X94270000Y-62700000D01*
X92150002Y-65750000D02*
X94270000Y-63630002D01*
X82250000Y-65750000D02*
X92150002Y-65750000D01*
%TO.N,SWO*%
X93000000Y-61769998D02*
X93000000Y-62700000D01*
X92380001Y-61149999D02*
X93000000Y-61769998D01*
X78305000Y-66945000D02*
X84100001Y-61149999D01*
X84100001Y-61149999D02*
X92380001Y-61149999D01*
X78305000Y-67930000D02*
X78305000Y-66945000D01*
%TO.N,NRST*%
X71880000Y-72855000D02*
X77145000Y-72855000D01*
X79250000Y-70750000D02*
X79500000Y-70750000D01*
X77145000Y-72855000D02*
X79250000Y-70750000D01*
X90460000Y-62700000D02*
X90460000Y-63790000D01*
X89950000Y-64300000D02*
X88400000Y-64300000D01*
X90460000Y-63790000D02*
X89950000Y-64300000D01*
%TO.N,SPI1_CS*%
X59795000Y-84455000D02*
X52705000Y-84455000D01*
X75750000Y-82750000D02*
X75250000Y-83250000D01*
X75750000Y-82000000D02*
X75750000Y-82750000D01*
X75305000Y-81555000D02*
X75750000Y-82000000D01*
X75250000Y-83250000D02*
X61000000Y-83250000D01*
X75305000Y-79280000D02*
X75305000Y-81555000D01*
X59795000Y-84455000D02*
X61000000Y-83250000D01*
%TO.N,SPI1_SCK*%
X76250000Y-81792880D02*
X75805000Y-81347880D01*
X75250000Y-84000000D02*
X76250000Y-83000000D01*
X75805000Y-81347880D02*
X75805000Y-79280000D01*
X63500000Y-84000000D02*
X75250000Y-84000000D01*
X60505000Y-86995000D02*
X63500000Y-84000000D01*
X76250000Y-83000000D02*
X76250000Y-81792880D01*
X52705000Y-86995000D02*
X60505000Y-86995000D01*
%TO.N,SPI1_MISO*%
X76305000Y-81055000D02*
X76305000Y-79280000D01*
X76332120Y-81082120D02*
X76305000Y-81055000D01*
X76750010Y-81585770D02*
X76332120Y-81167880D01*
X76750010Y-83249990D02*
X76750010Y-81585770D01*
X76332120Y-81167880D02*
X76332120Y-81082120D01*
X75250000Y-84750000D02*
X76750010Y-83249990D01*
X64750000Y-84750000D02*
X75250000Y-84750000D01*
X59965000Y-89535000D02*
X64750000Y-84750000D01*
X52705000Y-89535000D02*
X59965000Y-89535000D01*
%TO.N,SPI1_MOSI*%
X76805010Y-80847890D02*
X76805010Y-80000000D01*
X77250020Y-81292900D02*
X76805010Y-80847890D01*
X77250020Y-83499980D02*
X77250020Y-81292900D01*
X75250000Y-85500000D02*
X77250020Y-83499980D01*
X66500000Y-85500000D02*
X75250000Y-85500000D01*
X59925000Y-92075000D02*
X66500000Y-85500000D01*
X52705000Y-92075000D02*
X59925000Y-92075000D01*
%TO.N,GPIO_0*%
X83230000Y-73855000D02*
X99605000Y-73855000D01*
X102585000Y-76835000D02*
X108585000Y-76835000D01*
X99605000Y-73855000D02*
X102585000Y-76835000D01*
%TO.N,GPIO_1*%
X83230000Y-74355000D02*
X97605000Y-74355000D01*
X102625000Y-79375000D02*
X108585000Y-79375000D01*
X97605000Y-74355000D02*
X102625000Y-79375000D01*
%TO.N,GPIO_2*%
X83230000Y-74855000D02*
X95355000Y-74855000D01*
X102415000Y-81915000D02*
X108585000Y-81915000D01*
X95355000Y-74855000D02*
X102415000Y-81915000D01*
%TO.N,GPIO_3*%
X83230000Y-75355000D02*
X93355000Y-75355000D01*
X102455000Y-84455000D02*
X108585000Y-84455000D01*
X93355000Y-75355000D02*
X102455000Y-84455000D01*
%TO.N,GPIO_4*%
X83230000Y-75855000D02*
X91355000Y-75855000D01*
X102495000Y-86995000D02*
X108585000Y-86995000D01*
X91355000Y-75855000D02*
X102495000Y-86995000D01*
%TO.N,GPIO_5*%
X83230000Y-76355000D02*
X89355000Y-76355000D01*
X102535000Y-89535000D02*
X108585000Y-89535000D01*
X89355000Y-76355000D02*
X102535000Y-89535000D01*
%TO.N,GPIO_6*%
X83230000Y-76855000D02*
X87605000Y-76855000D01*
X102825000Y-92075000D02*
X108585000Y-92075000D01*
X87605000Y-76855000D02*
X102825000Y-92075000D01*
%TO.N,GPIO_7*%
X83230000Y-77355000D02*
X85605000Y-77355000D01*
X102865000Y-94615000D02*
X108585000Y-94615000D01*
X85605000Y-77355000D02*
X102865000Y-94615000D01*
D31*
%TO.N,BUCK_EN*%
X89150000Y-100029000D02*
X89021000Y-99900000D01*
X89150000Y-101750000D02*
X89150000Y-100029000D01*
X86850000Y-99900000D02*
X86700000Y-99750000D01*
X89021000Y-99900000D02*
X86850000Y-99900000D01*
%TO.N,BUCK_FB*%
X81830000Y-100100000D02*
X82036000Y-99894000D01*
X79750000Y-100100000D02*
X81830000Y-100100000D01*
X84356000Y-99894000D02*
X84500000Y-99750000D01*
X82036000Y-99894000D02*
X84356000Y-99894000D01*
%TO.N,Net-(R4-Pad1)*%
X82000000Y-101750000D02*
X79750000Y-101750000D01*
D33*
%TO.N,Net-(R7-Pad1)*%
X81500000Y-55750000D02*
X81500000Y-53750000D01*
D32*
%TO.N,BOOT0*%
X75805000Y-67930000D02*
X75805000Y-66945000D01*
X81500000Y-61250000D02*
X81500000Y-56770000D01*
X75805000Y-66945000D02*
X81500000Y-61250000D01*
%TO.N,HS_CLK_OUT*%
X70173000Y-72355000D02*
X69939000Y-72589000D01*
X71880000Y-72355000D02*
X70173000Y-72355000D01*
D34*
%TO.N,USB_D-*%
X83230000Y-71855000D02*
X83247844Y-71837156D01*
X83247844Y-71837156D02*
X90991164Y-71837156D01*
X90991164Y-71837156D02*
X96096164Y-66732156D01*
X99737155Y-66732156D02*
X100454999Y-67450000D01*
X96096164Y-66732156D02*
X99737155Y-66732156D01*
X100454999Y-67450000D02*
X101250000Y-67450000D01*
%TO.N,USB_D+*%
X83230000Y-71355000D02*
X83247844Y-71372844D01*
X83247844Y-71372844D02*
X90798836Y-71372844D01*
X90798836Y-71372844D02*
X95903836Y-66267844D01*
X100454999Y-65550000D02*
X101250000Y-65550000D01*
X99737155Y-66267844D02*
X100454999Y-65550000D01*
X95903836Y-66267844D02*
X99737155Y-66267844D01*
%TD*%
M02*
